<svg xmlns="http://www.w3.org/2000/svg" width="263.4" height="170.83371428571428" viewBox="0 0 350 227" class="looka-1j8o68f">
	<defs id="SvgjsDefs1302"></defs>
	<g id="SvgjsG1303" featurekey="rootContainer" transform="matrix(1,0,0,1,0,19)" fill="#db8a6c">
		<rect y="0" height="1" width="1" opacity="0"></rect>
		<rect y="203" width="350" height="5"></rect>
	</g>
	<g id="SvgjsG1304" featurekey="symbolFeature-0"
		transform="matrix(0.9968797441490336,0,0,0.9968797441490336,469.6370651584967,-237.2012145021526)"
		fill="#000000">
		<path xmlns="http://www.w3.org/2000/svg" fill="#000000"
			d="M-263.271,327.167v-17.548h-2.15v-7.707h6.757v-11.443h-6.757v-31.51h5.38v-2.917h-5.38V256h-3.198v6.069  h-53.098V256h-3.198v0.042h-5.379v2.917h5.379v31.51h-6.757v11.443h6.757v7.707h-2.136v17.548h-4.45v26.181  c0,1.396,1.131,2.529,2.529,2.529h4.602c1.398,0,2.529-1.133,2.529-2.529v-9.106h2.481v9.106c0,1.396,1.133,2.529,2.529,2.529h4.603  c1.396,0,2.529-1.133,2.529-2.529l-0.075-9.185h29.281l0.127,9.185c0,1.396,1.132,2.529,2.529,2.529h4.602  c1.396,0,2.529-1.133,2.529-2.529v-9.106h2.48v9.106c0,1.396,1.133,2.529,2.529,2.529h4.604c1.397,0,2.528-1.133,2.528-2.529v-9.106  h0.038v-17.074H-263.271z M-313.26,322.667h-8.527v-2.917h8.527V322.667z M-310.565,301.912v-11.443h14.587v11.443H-310.565z   M-281.239,327.379h-27.599v-2.917h27.599V327.379z M-281.239,322.667h-27.599v-2.917h27.599V322.667z M-281.239,317.506h-27.599  v-2.917h27.599V317.506z M-281.239,312.57h-27.599v-2.917h27.599V312.57z M-279.657,301.912h-14.521v-11.443h14.521V301.912z   M-314.375,286.409v23.118h-1.958v-25.076h42.554v25.076h-1.957v-23.118H-314.375z M-268.151,322.667h-8.526v-2.917h8.526V322.667z"></path>
	</g>
	<g id="SvgjsG1305" featurekey="nameFeature-0"
		transform="matrix(1.1708236958267662,0,0,1.1708236958267662,-2.2643730455943176,123.93642855742797)"
		fill="#000000">
		<path
			d="M12.852 40.37109 c-5.7617 0 -9.9805 -2.7539 -10.918 -7.4414 l3.9648 -0.9375 c0.625 3.2227 3.418 5.0781 7.0898 5.0781 c2.9492 0 5.7813 -1.2109 5.7227 -4.5313 c-0.039063 -3.2813 -3.5938 -4.1797 -7.3633 -5.2148 c-4.2773 -1.1719 -8.5547 -2.5195 -8.5547 -7.5977 c0 -5.1367 4.2383 -7.7148 9.2578 -7.7148 c4.8633 0 9.2383 2.0508 10.273 6.7969 l-3.7695 0.95703 c-0.68359 -3.0664 -3.2422 -4.4336 -6.3281 -4.4336 c-2.7734 0 -5.5273 1.2109 -5.5273 4.3555 c0 2.8516 3.0859 3.6914 6.582 4.6289 c4.3945 1.1914 9.4336 2.5586 9.4336 8.1055 c0 5.5859 -4.6875 7.9492 -9.8633 7.9492 z M50.27855859375 12.383 l0 3.4961 l-6.9922 0 l0 24.121 l-3.8477 0 l0 -24.121 l-7.0117 0 l0 -3.4961 l17.852 0 z M71.5927109375 40.37109 c-5.7227 0 -10.156 -3.3789 -10.156 -9.6094 l0 -18.379 l3.8867 0 l0 17.832 c0 4.5508 2.7344 6.6406 6.2695 6.6406 s6.3281 -2.1094 6.3281 -6.6406 l0 -17.832 l3.8867 0 l0 18.379 c0 6.2305 -4.4531 9.6094 -10.215 9.6094 z M111.01264453125 40 l-7.1484 -12.422 l-3.8672 0 l0 12.422 l-3.8867 0 l0 -27.617 l9.2969 0 c5.7813 0 8.418 3.5352 8.418 7.8711 c0 3.8477 -2.2656 6.5234 -6.0547 7.168 l7.793 12.578 l-4.5508 0 z M99.99654453125 15.742 l0 8.8672 l4.8828 0 c3.5938 0 5.2148 -1.7969 5.2148 -4.4141 c0 -2.5781 -1.6211 -4.4531 -5.2148 -4.4531 l-4.8828 0 z M142.404046875 12.383 l0 3.4961 l-6.9922 0 l0 24.121 l-3.8477 0 l0 -24.121 l-7.0117 0 l0 -3.4961 l17.852 0 z M169.14819921875 15.879000000000001 l-11.055 0 l0 8.5938 l9.7461 0 l0 3.4766 l-9.7461 0 l0 8.5352 l11.055 0 l0 3.5156 l-15.02 0 l0 -27.617 l15.02 0 l0 3.4961 z M199.3099765625 12.383 l4.1016 0 l-10.156 27.617 l-4.0625 0 l-10.117 -27.617 l4.082 0 l8.0859 22.852 z M233.02556640625 40 l-2.3047 -6.4453 l-12.344 0 l-2.3047 6.4453 l-4.043 0 l10.176 -27.617 l4.6875 0 l10.176 27.617 l-4.043 0 z M219.58836640625 30.1562 l9.9219 0 l-4.9609 -13.926 z M267.42628125 12.383 l3.8672 0 l0 27.617 l-4.1992 0 l-14.434 -21.914 l0 21.914 l-3.8477 0 l0 -27.617 l4.1602 0 l14.453 21.816 l0 -21.816 z M300.86840234375 12.383 l0 3.4961 l-6.9922 0 l0 24.121 l-3.8477 0 l0 -24.121 l-7.0117 0 l0 -3.4961 l17.852 0 z"></path>
	</g>
	<g id="SvgjsG1306" featurekey="nameFeature-1"
		transform="matrix(0.33846484378227853,0,0,0.33846484378227853,-1.0642345994002909,176.9410964730162)"
		fill="#000000">
		<path
			d="M33.828 40 l-3.8086 0 l-1.8164 -22.461 l-8.5352 22.461 l-2.3633 0 l-8.4766 -22.383 l-1.8555 22.383 l-3.8281 0 l2.1289 -27.617 l5.2539 0 l7.9492 20.879 l7.9883 -20.879 l5.2539 0 z M59.53687109375 40.37109 c-7.832 0 -13.809 -5.3906 -13.809 -14.199 c0 -8.7891 5.9766 -14.16 13.809 -14.16 c7.793 0 13.789 5.3711 13.789 14.16 c0 8.8086 -5.9961 14.199 -13.789 14.199 z M59.53687109375 36.7187 c5.5273 0 9.9023 -3.8281 9.9023 -10.547 c0 -6.6602 -4.375 -10.488 -9.9023 -10.488 c-5.5469 0 -9.9414 3.8281 -9.9414 10.488 c0 6.7188 4.3945 10.547 9.9414 10.547 z M99.6590546875 25.547 c3.2617 0.82031 5.4492 3.0664 5.4492 6.9141 c0 4.4336 -3.0078 7.5391 -7.9688 7.5391 l-10.859 0 l0 -27.617 l8.4766 0 c5.0977 0 8.3203 2.9688 8.3203 7.3438 c0 2.6172 -1.1914 4.7656 -3.418 5.8203 z M99.4440546875 19.98 c0 -2.3828 -1.7188 -4.2383 -4.707 -4.2383 l-4.6875 0 l0 8.5938 l5.293 0 c2.5 0 4.1016 -1.9531 4.1016 -4.3555 z M96.4760546875 36.582 c3.1445 0 4.8438 -2.1094 4.8438 -4.5117 c0 -2.5391 -1.7773 -4.5703 -5.0781 -4.5703 l-6.1914 0 l0 9.082 l6.4258 0 z M117.84812578125 40 l0 -27.617 l3.8867 0 l0 27.617 l-3.8867 0 z M140.509728125 36.4844 l9.4336 0 l0 3.5156 l-13.32 0 l0 -27.617 l3.8867 0 l0 24.102 z M176.70679296875 15.879000000000001 l-11.055 0 l0 8.5938 l9.7461 0 l0 3.4766 l-9.7461 0 l0 8.5352 l11.055 0 l0 3.5156 l-15.02 0 l0 -27.617 l15.02 0 l0 3.4961 z M218.51441015625 40.37109 c-7.832 0 -13.809 -5.3906 -13.809 -14.199 c0 -8.7891 5.9766 -14.16 13.809 -14.16 c7.793 0 13.789 5.3711 13.789 14.16 c0 8.8086 -5.9961 14.199 -13.789 14.199 z M218.51441015625 36.7187 c5.5273 0 9.9023 -3.8281 9.9023 -10.547 c0 -6.6602 -4.375 -10.488 -9.9023 -10.488 c-5.5469 0 -9.9414 3.8281 -9.9414 10.488 c0 6.7188 4.3945 10.547 9.9414 10.547 z M263.87159375 12.383 l3.8672 0 l0 27.617 l-4.1992 0 l-14.434 -21.914 l0 21.914 l-3.8477 0 l0 -27.617 l4.1602 0 l14.453 21.816 l0 -21.816 z M281.66941484375 31.1523 l0 -3.1055 l14.004 0 l0 3.1055 l-14.004 0 z M318.2572734375 40.37109 c-5.7617 0 -9.9805 -2.7539 -10.918 -7.4414 l3.9648 -0.9375 c0.625 3.2227 3.418 5.0781 7.0898 5.0781 c2.9492 0 5.7813 -1.2109 5.7227 -4.5313 c-0.039063 -3.2813 -3.5938 -4.1797 -7.3633 -5.2148 c-4.2773 -1.1719 -8.5547 -2.5195 -8.5547 -7.5977 c0 -5.1367 4.2383 -7.7148 9.2578 -7.7148 c4.8633 0 9.2383 2.0508 10.273 6.7969 l-3.7695 0.95703 c-0.68359 -3.0664 -3.2422 -4.4336 -6.3281 -4.4336 c-2.7734 0 -5.5273 1.2109 -5.5273 4.3555 c0 2.8516 3.0859 3.6914 6.582 4.6289 c4.3945 1.1914 9.4336 2.5586 9.4336 8.1055 c0 5.5859 -4.6875 7.9492 -9.8633 7.9492 z M340.97703203125 40 l0 -27.617 l3.8867 0 l0 27.617 l-3.8867 0 z M374.458734375 12.383 l0 3.4961 l-6.9922 0 l0 24.121 l-3.8477 0 l0 -24.121 l-7.0117 0 l0 -3.4961 l17.852 0 z M401.20288671875 15.879000000000001 l-11.055 0 l0 8.5938 l9.7461 0 l0 3.4766 l-9.7461 0 l0 8.5352 l11.055 0 l0 3.5156 l-15.02 0 l0 -27.617 l15.02 0 l0 3.4961 z M445.82250390625 12.383 l0 3.4961 l-6.9922 0 l0 24.121 l-3.8477 0 l0 -24.121 l-7.0117 0 l0 -3.4961 l17.852 0 z M472.44965625 40 l-7.1484 -12.422 l-3.8672 0 l0 12.422 l-3.8867 0 l0 -27.617 l9.2969 0 c5.7813 0 8.418 3.5352 8.418 7.8711 c0 3.8477 -2.2656 6.5234 -6.0547 7.168 l7.793 12.578 l-4.5508 0 z M461.43355625 15.742 l0 8.8672 l4.8828 0 c3.5938 0 5.2148 -1.7969 5.2148 -4.4141 c0 -2.5781 -1.6211 -4.4531 -5.2148 -4.4531 l-4.8828 0 z M498.72405859375 40.37109 c-5.7227 0 -10.156 -3.3789 -10.156 -9.6094 l0 -18.379 l3.8867 0 l0 17.832 c0 4.5508 2.7344 6.6406 6.2695 6.6406 s6.3281 -2.1094 6.3281 -6.6406 l0 -17.832 l3.8867 0 l0 18.379 c0 6.2305 -4.4531 9.6094 -10.215 9.6094 z M535.1359921875 40.37109 c-7.832 0 -13.809 -5.3711 -13.809 -14.199 c0 -8.7891 5.9766 -14.16 13.809 -14.16 c5.5859 0 10.215 2.7734 12.344 7.5195 l-3.5938 1.4258 c-1.6016 -3.3789 -4.8633 -5.2734 -8.75 -5.2734 c-5.5469 0 -9.9414 3.8281 -9.9414 10.488 c0 6.6992 4.3945 10.527 9.9414 10.527 c3.8867 0 7.1484 -1.8945 8.75 -5.2734 l3.5938 1.4453 c-2.1289 4.7266 -6.7578 7.5 -12.344 7.5 z M575.70726953125 40 l-9.6875 -12.598 l-2.3828 0 l0 12.598 l-3.8867 0 l0 -27.617 l3.8867 0 l0 11.543 l2.3438 0 l9.4141 -11.543 l4.7656 0 l-10.82 13.164 l11.348 14.453 l-4.9805 0 z M632.06560546875 40 l-4.4336 0 l-2.168 -2.8125 c-2.5586 1.9727 -5.7227 3.2031 -9.1602 3.2031 c-5.0391 0 -8.9258 -2.5781 -8.9258 -7.5391 c0 -4.1211 2.6563 -6.1719 7.6367 -9.3164 c-2.0898 -2.7734 -3.0078 -4.3359 -3.0078 -6.1914 c0 -1.7188 0.74219 -3.0273 1.9336 -3.9453 c1.1719 -0.91797 2.832 -1.4063 4.6289 -1.4063 c3.7695 0 6.6016 2.0508 6.6016 5.3906 c0 2.5781 -1.6992 4.5117 -5.4102 6.8164 l6.0547 7.7734 c1.6406 -2.3047 2.5977 -5.0781 2.5977 -7.6563 l3.4961 0 c0 3.8281 -1.4844 7.5391 -3.9258 10.449 z M616.38260546875 15.469000000000001 c-0.48828 0.48828 -0.78125 1.1914 -0.78125 2.0508 c0 1.25 0.60547 2.0703 2.1484 4.1016 l0.25391 0.33203 c2.4414 -1.543 3.7305 -2.9102 3.7305 -4.5703 c0 -1.7773 -1.4648 -2.7539 -3.1055 -2.7539 c-0.85938 0 -1.6602 0.29297 -2.2461 0.83984 z M616.44060546875 37.207 c2.6758 0 5.0781 -1.0352 7.0117 -2.6563 l-6.582 -8.6133 c-3.6719 2.3047 -5.957 3.8281 -5.957 6.7969 c0 3.0469 2.4023 4.4727 5.5273 4.4727 z M676.99828515625 12.383 l0 3.4961 l-6.9922 0 l0 24.121 l-3.8477 0 l0 -24.121 l-7.0117 0 l0 -3.4961 l17.852 0 z M703.6254375 40 l-7.1484 -12.422 l-3.8672 0 l0 12.422 l-3.8867 0 l0 -27.617 l9.2969 0 c5.7813 0 8.418 3.5352 8.418 7.8711 c0 3.8477 -2.2656 6.5234 -6.0547 7.168 l7.793 12.578 l-4.5508 0 z M692.6093375 15.742 l0 8.8672 l4.8828 0 c3.5938 0 5.2148 -1.7969 5.2148 -4.4141 c0 -2.5781 -1.6211 -4.4531 -5.2148 -4.4531 l-4.8828 0 z M738.18083984375 40 l-2.3047 -6.4453 l-12.344 0 l-2.3047 6.4453 l-4.043 0 l10.176 -27.617 l4.6875 0 l10.176 27.617 l-4.043 0 z M724.74363984375 30.1562 l9.9219 0 l-4.9609 -13.926 z M753.9677546875 40 l0 -27.617 l3.8867 0 l0 27.617 l-3.8867 0 z M776.62935703125 36.4844 l9.4336 0 l0 3.5156 l-13.32 0 l0 -27.617 l3.8867 0 l0 24.102 z M812.826421875 15.879000000000001 l-11.055 0 l0 8.5938 l9.7461 0 l0 3.4766 l-9.7461 0 l0 8.5352 l11.055 0 l0 3.5156 l-15.02 0 l0 -27.617 l15.02 0 l0 3.4961 z M840.78119921875 40 l-7.1484 -12.422 l-3.8672 0 l0 12.422 l-3.8867 0 l0 -27.617 l9.2969 0 c5.7813 0 8.418 3.5352 8.418 7.8711 c0 3.8477 -2.2656 6.5234 -6.0547 7.168 l7.793 12.578 l-4.5508 0 z M829.76509921875 15.742 l0 8.8672 l4.8828 0 c3.5938 0 5.2148 -1.7969 5.2148 -4.4141 c0 -2.5781 -1.6211 -4.4531 -5.2148 -4.4531 l-4.8828 0 z M889.22944140625 40 l-7.1484 -12.422 l-3.8672 0 l0 12.422 l-3.8867 0 l0 -27.617 l9.2969 0 c5.7813 0 8.418 3.5352 8.418 7.8711 c0 3.8477 -2.2656 6.5234 -6.0547 7.168 l7.793 12.578 l-4.5508 0 z M878.21334140625 15.742 l0 8.8672 l4.8828 0 c3.5938 0 5.2148 -1.7969 5.2148 -4.4141 c0 -2.5781 -1.6211 -4.4531 -5.2148 -4.4531 l-4.8828 0 z M920.93384375 15.879000000000001 l-11.055 0 l0 8.5938 l9.7461 0 l0 3.4766 l-9.7461 0 l0 8.5352 l11.055 0 l0 3.5156 l-15.02 0 l0 -27.617 l15.02 0 l0 3.4961 z M944.63062109375 12.383 c5.0586 0 8.3203 3.8281 8.3203 8.5547 c0 4.7852 -3.2617 8.4766 -8.3203 8.4766 l-6.7578 0 l0 10.586 l-3.8867 0 l0 -27.617 l10.645 0 z M944.04462109375 26.055 c3.2422 0 5.0586 -2.0898 5.0586 -5.1758 c0 -2.9688 -1.8164 -5.1563 -5.0586 -5.1563 l-6.1719 0 l0 10.332 l6.1719 0 z M983.2096484375 40 l-2.3047 -6.4453 l-12.344 0 l-2.3047 6.4453 l-4.043 0 l10.176 -27.617 l4.6875 0 l10.176 27.617 l-4.043 0 z M969.7724484375 30.1562 l9.9219 0 l-4.9609 -13.926 z M998.99656328125 40 l0 -27.617 l3.8867 0 l0 27.617 l-3.8867 0 z M1032.674265625 40 l-7.1484 -12.422 l-3.8672 0 l0 12.422 l-3.8867 0 l0 -27.617 l9.2969 0 c5.7813 0 8.418 3.5352 8.418 7.8711 c0 3.8477 -2.2656 6.5234 -6.0547 7.168 l7.793 12.578 l-4.5508 0 z M1021.658165625 15.742 l0 8.8672 l4.8828 0 c3.5938 0 5.2148 -1.7969 5.2148 -4.4141 c0 -2.5781 -1.6211 -4.4531 -5.2148 -4.4531 l-4.8828 0 z"></path>
	</g>
</svg>