<svg xmlns="http://www.w3.org/2000/svg" width="430.29999999999995" height="86.42487223368154"
	viewBox="0 0 349.99999999999994 70.29678197022668" class="looka-1j8o68f">
	<defs id="SvgjsDefs1308"></defs>
	<g id="SvgjsG1309" featurekey="rZF8Vg-0"
		transform="matrix(0.34995813916252866,0,0,0.34995813916252866,157.36215107994468,-5.10483299740855)"
		fill="#0c056d">
		<path xmlns="http://www.w3.org/2000/svg"
			d="M53.1983986,41.5314865c-2.0198555-1.0275841-4.0303383-1.2446899-5.9255066-1.6446877  c-1.2502022-0.2645531-2.1588898-0.3919983-2.1588898-0.3919983c-0.622345-5.8777847-4.1274414-8.252676-4.1274414-8.252676  s0.1268959,0.5230331,0.2742043,1.4044094c0.4772415,2.8565483,1.1586189,9.4830208-1.5917206,14.2758369  c-2.1009598-0.214344-3.9321289-0.2325516-5.3748856-0.1782074c-0.0595856,0.1257935-0.1235886,0.2537956-0.1864815,0.381382  c-3.3049469,6.7081184-10.8347626,16.246376-27.593832,20.0713387c-2.5694377,0.5864258-2.387845,4.3104553,0.226141,4.6465836  c19.5988789,2.5202026,37.0173264-5.779335,37.0173264-5.779335s6.517601,6.6357498,6.6756859,18.1918869  c0.0176506,1.2903061,1.7943268,1.6105194,2.240612,0.3997269c3.9149284-10.6213913,9.257431-31.7486839-0.1532784-51.7192802  C52.5203323,32.9364662,53.5945358,37.5717697,53.1983986,41.5314865z"></path>
		<path xmlns="http://www.w3.org/2000/svg"
			d="M55.9062576,36.4418373c0,0,2.4546165,4.6462021,2.8132362,11.3117065  c7.5271568,2.4884529,22.4400826,5.406189,37.8841972-2.997982c1.3046417-0.7099457,0.5782928-2.692852-0.8782883-2.4021912  C87.1517868,44.0642509,72.586792,44.7840042,55.9062576,36.4418373z"></path>
		<path xmlns="http://www.w3.org/2000/svg"
			d="M35.9002228,39.8208656c0.0937958,0.0457954,0.1886902,0.0822067,0.2819328,0.1257935  c0,0-0.3365517,2.3566856-1.7936516,5.7221985c1.0548935-0.2422066,2.6570969-0.4932404,4.225647-0.2946205  c0,0,2.9583397-6.1128159,1.205513-13.0245285c-0.1881371-0.0502052-0.3790321-0.0982056-0.5671692-0.1486893  c-13.1548004-3.42243-23.8203945-0.6257-30.5748329,2.6535873c-1.6405401,0.7964821-0.8182988,3.2798843,0.9760342,2.9541092  C16.7982559,36.5115738,27.1986485,35.7898178,35.9002228,39.8208656z"></path>
		<path xmlns="http://www.w3.org/2000/svg"
			d="M44.7189674,33.6145325c0,0,1.5823402,1.8386192,1.695446,4.5370979c0,0,4.668129,1.0206871,5.9928169,1.7950287  c0,0,0-3.5048218-0.791172-4.6355782C51.6160583,35.3110809,48.177166,34.5850143,44.7189674,33.6145325z"></path>
		<path xmlns="http://www.w3.org/2000/svg"
			d="M52.3443336,23.8575859c2.6968231-2.4864788,1.4532356-5.4253693-0.8082771-5.7652302  c0,0,2.7139282-3.505374-1.8096504-3.505374c-4.5224762,0-6.7828827,2.9387541-6.4452286,5.9919901  C43.6215897,23.6319313,49.6453018,26.3462715,52.3443336,23.8575859z"></path>
	</g>
	<g id="SvgjsG1310" featurekey="6VBqdG-0"
		transform="matrix(0.6942240928350393,0,0,0.6942240928350393,-0.8330689445052315,40.973500129144035)"
		fill="#0c056d">
		<path
			d="M5.9 6 c3.14 0 5.06 1.92 5.06 4.62 s-1.92 4.5 -5.06 4.5 l-2.5 0 l0 4.88 l-2.2 0 l0 -14 l4.7 0 z M5.8 13.2 c1.78 0 2.96 -0.84 2.96 -2.58 s-1.18 -2.58 -2.96 -2.58 l-2.4 0 l0 5.16 l2.4 0 z M14.92 5.859999999999999 l0 14.14 l-2.16 0 l0 -14.14 l2.16 0 z M22.1 9.42 c2.36 0 5.56 1.8 5.06 6.16 l-8.28 0 c0.32 1.86 1.8 2.78 3.48 2.78 c1.38 0 2.12 -0.36 2.88 -0.96 l1.22 1.16 c-0.92 1.04 -2.24 1.64 -4.16 1.64 c-2.64 0 -5.58 -1.8 -5.58 -5.38 c0 -3.6 3.02 -5.4 5.38 -5.4 z M22.1 11.28 c-1.34 0 -2.84 0.9 -3.2 2.72 l6.36 0 c-0.24 -1.82 -1.82 -2.72 -3.16 -2.72 z M33.800000000000004 9.42 c1.88 0 3.12 1.12 3.38 1.8 l0 -1.62 l2.16 0 l0 10.4 l-2.16 0 l0 -1.72 c-0.26 0.84 -1.5 1.92 -3.38 1.92 c-2.36 0 -5.18 -1.76 -5.18 -5.4 c0 -3.58 2.82 -5.38 5.18 -5.38 z M34.08 11.34 c-1.62 0 -3.36 1.16 -3.36 3.46 c0 2.32 1.74 3.48 3.36 3.48 s3.2 -1.14 3.2 -3.48 c0 -2.32 -1.58 -3.46 -3.2 -3.46 z M46.559999999999995 12.379999999999999 c-0.36 -0.8 -0.94 -1.22 -1.72 -1.22 c-0.8 0 -1.4 0.48 -1.4 1.14 c0 0.6 0.34 1.02 1.18 1.32 l1.14 0.4 c1.64 0.58 3 1.2 3 3.1 c0 2.02 -1.98 3.1 -3.9 3.1 c-1.84 0 -3.52 -1.06 -3.92 -2.84 l1.72 -0.52 c0.3 0.94 1.08 1.62 2.2 1.62 c0.92 0 1.76 -0.54 1.76 -1.36 c0 -0.66 -0.46 -1.06 -1.34 -1.38 l-1.18 -0.42 c-1.92 -0.68 -2.76 -1.72 -2.76 -3.04 c0 -1.74 1.56 -2.86 3.42 -2.86 c1.8 0 3.04 0.98 3.6 2.46 z M55.24 9.42 c1.88 0 3.12 1.12 3.38 1.8 l0 -1.62 l2.16 0 l0 10.4 l-2.16 0 l0 -1.72 c-0.26 0.84 -1.5 1.92 -3.38 1.92 c-2.36 0 -5.18 -1.76 -5.18 -5.4 c0 -3.58 2.82 -5.38 5.18 -5.38 z M55.519999999999996 11.34 c-1.62 0 -3.36 1.16 -3.36 3.46 c0 2.32 1.74 3.48 3.36 3.48 s3.2 -1.14 3.2 -3.48 c0 -2.32 -1.58 -3.46 -3.2 -3.46 z M68.69999999999999 9.44 c2 0 3.96 1.3 3.96 4.54 l0 6.02 l-2.16 0 l0 -5.9 c0 -1.98 -0.94 -2.76 -2.28 -2.76 c-1.72 0 -2.84 1.6 -3.08 2.62 l0 6.04 l-2.16 0 l0 -10.4 l2.16 0 l0 2.2 c0.2 -0.64 1.4 -2.36 3.56 -2.36 z M79.96000000000001 11.4 l-2.2 0 l0 5.82 c0 0.56 0.2 1 0.84 1 c0.54 0 0.92 -0.1 1.36 -0.28 l0 1.82 c-0.44 0.22 -1.02 0.36 -1.92 0.36 c-1.3 0 -2.44 -0.52 -2.44 -2.82 l0 -5.9 l-1.44 0 l0 -1.8 l1.44 0 l0 -2.44 l2.16 0 l0 2.44 l2.2 0 l0 1.8 z M92.56 6 c3.14 0 5.06 1.92 5.06 4.62 s-1.92 4.5 -5.06 4.5 l-2.5 0 l0 4.88 l-2.2 0 l0 -14 l4.7 0 z M92.46 13.2 c1.78 0 2.96 -0.84 2.96 -2.58 s-1.18 -2.58 -2.96 -2.58 l-2.4 0 l0 5.16 l2.4 0 z M105.32 9.44 c0.22 0 0.42 0 0.62 0.04 l0 2.06 c-0.2 -0.04 -0.4 -0.04 -0.56 -0.04 c-1.96 0 -3.56 1.4 -3.8 3.6 l0 4.9 l-2.16 0 l0 -10.4 l2.16 0 l0 2.66 c0.44 -1.54 1.78 -2.82 3.74 -2.82 z M112.41999999999999 9.42 c1.88 0 3.12 1.12 3.38 1.8 l0 -1.62 l2.16 0 l0 10.4 l-2.16 0 l0 -1.72 c-0.26 0.84 -1.5 1.92 -3.38 1.92 c-2.36 0 -5.18 -1.76 -5.18 -5.4 c0 -3.58 2.82 -5.38 5.18 -5.38 z M112.69999999999999 11.34 c-1.62 0 -3.36 1.16 -3.36 3.46 c0 2.32 1.74 3.48 3.36 3.48 s3.2 -1.14 3.2 -3.48 c0 -2.32 -1.58 -3.46 -3.2 -3.46 z M122.32 5.859999999999999 l0 1.88 l-2.16 0 l0 -1.88 l2.16 0 z M122.32 9.6 l0 10.4 l-2.16 0 l0 -10.4 l2.16 0 z M130.42 9.44 c0.22 0 0.42 0 0.62 0.04 l0 2.06 c-0.2 -0.04 -0.4 -0.04 -0.56 -0.04 c-1.96 0 -3.56 1.4 -3.8 3.6 l0 4.9 l-2.16 0 l0 -10.4 l2.16 0 l0 2.66 c0.44 -1.54 1.78 -2.82 3.74 -2.82 z M134.89999999999998 5.859999999999999 l0 1.88 l-2.16 0 l0 -1.88 l2.16 0 z M134.89999999999998 9.6 l0 10.4 l-2.16 0 l0 -10.4 l2.16 0 z M142.08 9.42 c2.36 0 5.56 1.8 5.06 6.16 l-8.28 0 c0.32 1.86 1.8 2.78 3.48 2.78 c1.38 0 2.12 -0.36 2.88 -0.96 l1.22 1.16 c-0.92 1.04 -2.24 1.64 -4.16 1.64 c-2.64 0 -5.58 -1.8 -5.58 -5.38 c0 -3.6 3.02 -5.4 5.38 -5.4 z M142.08 11.28 c-1.34 0 -2.84 0.9 -3.2 2.72 l6.36 0 c-0.24 -1.82 -1.82 -2.72 -3.16 -2.72 z M169.86 6 l0 14 l-2.26 0 l0 -9.06 l-4.2 9.06 l-1.86 0 l-4.18 -9.04 l0 9.04 l-2.26 0 l0 -14 l2.18 0 l5.2 11.02 l5.2 -11.02 l2.18 0 z M177.14000000000001 9.42 c2.36 0 5.38 1.8 5.38 5.4 c0 3.62 -3.02 5.38 -5.38 5.38 s-5.38 -1.76 -5.38 -5.38 c0 -3.6 3.02 -5.4 5.38 -5.4 z M177.14000000000001 11.34 c-1.52 0 -3.28 1.16 -3.28 3.48 c0 2.3 1.76 3.46 3.28 3.46 s3.28 -1.16 3.28 -3.46 c0 -2.32 -1.76 -3.48 -3.28 -3.48 z M189.85999999999999 9.42 c2.36 0 5.18 1.8 5.18 5.38 c0 3.64 -2.82 5.4 -5.18 5.4 c-1.88 0 -3.12 -1.08 -3.38 -1.92 l0 1.72 l-2.16 0 l0 -10.4 l0 -3.74 l2.16 0 l0 5.36 c0.26 -0.68 1.5 -1.8 3.38 -1.8 z M189.58 18.28 c1.62 0 3.36 -1.16 3.36 -3.48 c0 -2.3 -1.74 -3.46 -3.36 -3.46 s-3.2 1.14 -3.2 3.46 c0 2.34 1.58 3.48 3.2 3.48 z M199 5.859999999999999 l0 1.88 l-2.16 0 l0 -1.88 l2.16 0 z M199 9.6 l0 10.4 l-2.16 0 l0 -10.4 l2.16 0 z M203.36 5.859999999999999 l0 14.14 l-2.16 0 l0 -14.14 l2.16 0 z M210.54000000000005 9.42 c2.36 0 5.56 1.8 5.06 6.16 l-8.28 0 c0.32 1.86 1.8 2.78 3.48 2.78 c1.38 0 2.12 -0.36 2.88 -0.96 l1.22 1.16 c-0.92 1.04 -2.24 1.64 -4.16 1.64 c-2.64 0 -5.58 -1.8 -5.58 -5.38 c0 -3.6 3.02 -5.4 5.38 -5.4 z M210.54000000000005 11.28 c-1.34 0 -2.84 0.9 -3.2 2.72 l6.36 0 c-0.24 -1.82 -1.82 -2.72 -3.16 -2.72 z M230.46000000000004 5.800000000000001 c3.76 0 7.2 2.96 7.2 7.2 s-3.44 7.2 -7.2 7.2 s-7.2 -2.96 -7.2 -7.2 s3.44 -7.2 7.2 -7.2 z M230.46000000000004 18.12 c2.58 0 4.92 -2.12 4.92 -5.12 s-2.34 -5.12 -4.92 -5.12 s-4.92 2.12 -4.92 5.12 s2.34 5.12 4.92 5.12 z M245.38000000000002 9.44 c2 0 3.96 1.3 3.96 4.54 l0 6.02 l-2.16 0 l0 -5.9 c0 -1.98 -0.94 -2.76 -2.28 -2.76 c-1.72 0 -2.84 1.6 -3.08 2.62 l0 6.04 l-2.16 0 l0 -10.4 l2.16 0 l0 2.2 c0.2 -0.64 1.4 -2.36 3.56 -2.36 z M257.34000000000003 13.559999999999999 l0 1.8 l-6.2 0 l0 -1.8 l6.2 0 z M264.36 12.379999999999999 c-0.36 -0.8 -0.94 -1.22 -1.72 -1.22 c-0.8 0 -1.4 0.48 -1.4 1.14 c0 0.6 0.34 1.02 1.18 1.32 l1.14 0.4 c1.64 0.58 3 1.2 3 3.1 c0 2.02 -1.98 3.1 -3.9 3.1 c-1.84 0 -3.52 -1.06 -3.92 -2.84 l1.72 -0.52 c0.3 0.94 1.08 1.62 2.2 1.62 c0.92 0 1.76 -0.54 1.76 -1.36 c0 -0.66 -0.46 -1.06 -1.34 -1.38 l-1.18 -0.42 c-1.92 -0.68 -2.76 -1.72 -2.76 -3.04 c0 -1.74 1.56 -2.86 3.42 -2.86 c1.8 0 3.04 0.98 3.6 2.46 z M270.42 5.859999999999999 l0 1.88 l-2.16 0 l0 -1.88 l2.16 0 z M270.42 9.6 l0 10.4 l-2.16 0 l0 -10.4 l2.16 0 z M277.92 11.4 l-2.2 0 l0 5.82 c0 0.56 0.2 1 0.84 1 c0.54 0 0.92 -0.1 1.36 -0.28 l0 1.82 c-0.44 0.22 -1.02 0.36 -1.92 0.36 c-1.3 0 -2.44 -0.52 -2.44 -2.82 l0 -5.9 l-1.44 0 l0 -1.8 l1.44 0 l0 -2.44 l2.16 0 l0 2.44 l2.2 0 l0 1.8 z M284.70000000000005 9.42 c2.36 0 5.56 1.8 5.06 6.16 l-8.28 0 c0.32 1.86 1.8 2.78 3.48 2.78 c1.38 0 2.12 -0.36 2.88 -0.96 l1.22 1.16 c-0.92 1.04 -2.24 1.64 -4.16 1.64 c-2.64 0 -5.58 -1.8 -5.58 -5.38 c0 -3.6 3.02 -5.4 5.38 -5.4 z M284.70000000000005 11.28 c-1.34 0 -2.84 0.9 -3.2 2.72 l6.36 0 c-0.24 -1.82 -1.82 -2.72 -3.16 -2.72 z M306.96000000000004 6 l0 2.04 l-3.72 0 l0 11.96 l-2.2 0 l0 -11.96 l-3.72 0 l0 -2.04 l9.64 0 z M314.76000000000005 9.44 c0.22 0 0.42 0 0.62 0.04 l0 2.06 c-0.2 -0.04 -0.4 -0.04 -0.56 -0.04 c-1.96 0 -3.56 1.4 -3.8 3.6 l0 4.9 l-2.16 0 l0 -10.4 l2.16 0 l0 2.66 c0.44 -1.54 1.78 -2.82 3.74 -2.82 z M320.8400000000001 20.16 c-2 0 -3.96 -1.3 -3.96 -4.54 l0 -6.02 l2.16 0 l0 5.9 c0 1.98 0.94 2.76 2.28 2.76 c1.72 0 2.84 -1.6 3.08 -2.62 l0 -6.04 l2.16 0 l0 10.4 l-2.16 0 l0 -2.2 c-0.2 0.64 -1.4 2.36 -3.56 2.36 z M333.74000000000007 9.42 c1.88 0 3.5 0.84 4.44 2.52 l-1.68 0.76 c-0.62 -0.84 -1.46 -1.36 -2.74 -1.36 c-1.54 0 -3.3 1.16 -3.3 3.48 c0 2.3 1.76 3.44 3.3 3.44 c1.28 0 2.12 -0.5 2.74 -1.34 l1.7 0.76 c-0.96 1.68 -2.56 2.5 -4.46 2.5 c-2.36 0 -5.38 -1.74 -5.38 -5.36 c0 -3.6 3.02 -5.4 5.38 -5.4 z M347.32000000000005 20 l-4.08 -4.44 l-1.18 1.22 l0 3.22 l-2.16 0 l0 -3.54 l0 -10.6 l2.16 0 l0 8.28 l4.24 -4.54 l2.6 0 l-4.32 4.54 l5.26 5.86 l-2.52 0 z M369.24000000000007 18.22 c0.46 0 0.86 -0.12 1.28 -0.36 l0 1.8 c-0.42 0.32 -0.84 0.46 -1.52 0.46 c-1.42 0 -2.04 -0.9 -2.04 -2.2 l0 -0.28 c-0.64 1.52 -2.02 2.6 -4.36 2.6 c-2.62 0 -5.16 -1.54 -5.16 -4.6 c0 -2.48 1.82 -3.84 3.64 -4.14 l-3.04 -5.5 l8.98 0 l0 1.9 l-5.96 0 l2.82 5.1 l-1 0 c-1.82 0 -3.24 1.04 -3.24 2.64 c0 1.74 1.42 2.7 3.14 2.7 c1.74 0 3.4 -1 3.4 -3.06 l0 -3.6 l3.72 0 l0 1.8 l-1.56 0 l0 3.68 c0 0.82 0.34 1.06 0.9 1.06 z M387.6600000000001 6 l0 2.04 l-3.72 0 l0 11.96 l-2.2 0 l0 -11.96 l-3.72 0 l0 -2.04 l9.64 0 z M395.4600000000001 9.44 c0.22 0 0.42 0 0.62 0.04 l0 2.06 c-0.2 -0.04 -0.4 -0.04 -0.56 -0.04 c-1.96 0 -3.56 1.4 -3.8 3.6 l0 4.9 l-2.16 0 l0 -10.4 l2.16 0 l0 2.66 c0.44 -1.54 1.78 -2.82 3.74 -2.82 z M402.5600000000001 9.42 c1.88 0 3.12 1.12 3.38 1.8 l0 -1.62 l2.16 0 l0 10.4 l-2.16 0 l0 -1.72 c-0.26 0.84 -1.5 1.92 -3.38 1.92 c-2.36 0 -5.18 -1.76 -5.18 -5.4 c0 -3.58 2.82 -5.38 5.18 -5.38 z M402.84000000000015 11.34 c-1.62 0 -3.36 1.16 -3.36 3.46 c0 2.32 1.74 3.48 3.36 3.48 s3.2 -1.14 3.2 -3.48 c0 -2.32 -1.58 -3.46 -3.2 -3.46 z M412.4600000000001 5.859999999999999 l0 1.88 l-2.16 0 l0 -1.88 l2.16 0 z M412.4600000000001 9.6 l0 10.4 l-2.16 0 l0 -10.4 l2.16 0 z M416.8200000000001 5.859999999999999 l0 14.14 l-2.16 0 l0 -14.14 l2.16 0 z M424.0000000000001 9.42 c2.36 0 5.56 1.8 5.06 6.16 l-8.28 0 c0.32 1.86 1.8 2.78 3.48 2.78 c1.38 0 2.12 -0.36 2.88 -0.96 l1.22 1.16 c-0.92 1.04 -2.24 1.64 -4.16 1.64 c-2.64 0 -5.58 -1.8 -5.58 -5.38 c0 -3.6 3.02 -5.4 5.38 -5.4 z M424.0000000000001 11.28 c-1.34 0 -2.84 0.9 -3.2 2.72 l6.36 0 c-0.24 -1.82 -1.82 -2.72 -3.16 -2.72 z M436.8200000000001 9.44 c0.22 0 0.42 0 0.62 0.04 l0 2.06 c-0.2 -0.04 -0.4 -0.04 -0.56 -0.04 c-1.96 0 -3.56 1.4 -3.8 3.6 l0 4.9 l-2.16 0 l0 -10.4 l2.16 0 l0 2.66 c0.44 -1.54 1.78 -2.82 3.74 -2.82 z M455.84000000000015 20 l-2.36 0 l-3.3 -4.88 l-0.24 0 l-2.5 0 l0 4.88 l-2.2 0 l0 -14 l4.7 0 c3.14 0 5.06 1.92 5.06 4.62 c0 1.96 -1.02 3.46 -2.78 4.12 z M447.4400000000001 8.04 l0 5.16 l2.4 0 c1.78 0 2.96 -0.84 2.96 -2.58 s-1.18 -2.58 -2.96 -2.58 l-2.4 0 z M462.5200000000001 9.42 c2.36 0 5.56 1.8 5.06 6.16 l-8.28 0 c0.32 1.86 1.8 2.78 3.48 2.78 c1.38 0 2.12 -0.36 2.88 -0.96 l1.22 1.16 c-0.92 1.04 -2.24 1.64 -4.16 1.64 c-2.64 0 -5.58 -1.8 -5.58 -5.38 c0 -3.6 3.02 -5.4 5.38 -5.4 z M462.5200000000001 11.28 c-1.34 0 -2.84 0.9 -3.2 2.72 l6.36 0 c-0.24 -1.82 -1.82 -2.72 -3.16 -2.72 z M474.9800000000001 9.42 c2.36 0 5.18 1.8 5.18 5.38 c0 3.64 -2.82 5.4 -5.18 5.4 c-1.88 0 -3.12 -1.08 -3.38 -1.92 l0 5.52 l-2.16 0 l0 -6.34 l0 -7.86 l2.16 0 l0 1.62 c0.26 -0.68 1.5 -1.8 3.38 -1.8 z M474.7000000000001 18.28 c1.62 0 3.36 -1.16 3.36 -3.48 c0 -2.3 -1.74 -3.46 -3.36 -3.46 s-3.2 1.14 -3.2 3.46 c0 2.34 1.58 3.48 3.2 3.48 z M486.74000000000007 9.42 c1.88 0 3.12 1.12 3.38 1.8 l0 -1.62 l2.16 0 l0 10.4 l-2.16 0 l0 -1.72 c-0.26 0.84 -1.5 1.92 -3.38 1.92 c-2.36 0 -5.18 -1.76 -5.18 -5.4 c0 -3.58 2.82 -5.38 5.18 -5.38 z M487.0200000000001 11.34 c-1.62 0 -3.36 1.16 -3.36 3.46 c0 2.32 1.74 3.48 3.36 3.48 s3.2 -1.14 3.2 -3.48 c0 -2.32 -1.58 -3.46 -3.2 -3.46 z M496.64000000000004 5.859999999999999 l0 1.88 l-2.16 0 l0 -1.88 l2.16 0 z M496.64000000000004 9.6 l0 10.4 l-2.16 0 l0 -10.4 l2.16 0 z M504.74000000000007 9.44 c0.22 0 0.42 0 0.62 0.04 l0 2.06 c-0.2 -0.04 -0.4 -0.04 -0.56 -0.04 c-1.96 0 -3.56 1.4 -3.8 3.6 l0 4.9 l-2.16 0 l0 -10.4 l2.16 0 l0 2.66 c0.44 -1.54 1.78 -2.82 3.74 -2.82 z"></path>
	</g>
	<g id="SvgjsG1311" featurekey="rMoqOW-0"
		transform="matrix(0.18838754115581008,0,0,0.18838754115581008,136.8492898413131,66.0392235580714)"
		fill="#0c056d">
		<path
			d="M10.6 6 l0 2.42 l-3.6 0 l0 11.58 l-2.62 0 l0 -11.58 l-3.58 0 l0 -2.42 l9.8 0 z M37.28 20 l-2.78 0 l-3.12 -4.76 l-0.12 0 l-2.2 0 l0 4.76 l-2.62 0 l0 -14 l4.82 0 c3.14 0 5.12 1.92 5.12 4.7 c0 1.94 -0.96 3.38 -2.6 4.08 z M29.060000000000002 8.42 l0 4.56 l2.06 0 c1.58 0 2.64 -0.68 2.64 -2.28 c0 -1.58 -1.06 -2.28 -2.64 -2.28 l-2.06 0 z M60.96 6 l2.62 0 l0 8.92 c0 3.4 -2.42 5.38 -5.32 5.38 c-2.92 0 -5.34 -1.98 -5.34 -5.38 l0 -8.92 l2.62 0 l0 8.92 c0 2.2 1.4 2.92 2.72 2.92 s2.7 -0.72 2.7 -2.92 l0 -8.92 z M91.54 18.5 c-1.26 1.1 -2.9 1.7 -4.76 1.7 c-3.84 0 -7.26 -2.96 -7.26 -7.2 s3.42 -7.2 7.26 -7.2 c1.84 0 3.46 0.6 4.68 1.66 l-1.58 1.8 c-0.8 -0.6 -1.86 -1 -2.94 -1 c-2.6 0 -4.7 1.98 -4.7 4.74 s2.1 4.74 4.7 4.74 c1.1 0 2.2 -0.42 3.02 -1.08 z M116.36000000000001 20 l-4.6 -6.1 l-1.78 2 l0 4.1 l-2.7 0 l0 -14 l2.7 0 l0 6.4 l5.56 -6.4 l3.24 0 l-5.38 6.06 l6 7.94 l-3.04 0 z M159.22 5.859999999999999 c2.94 0 4.72 2.02 4.72 4.28 c0 1.96 -1.02 2.94 -3.54 5.96 l-1.36 1.62 l4.9 0 l0 2.28 l-9.48 0 l0 -0.38 l3.58 -4.28 c2.62 -3.12 3.22 -3.86 3.22 -5.08 c0 -1.62 -1.2 -2.08 -2.04 -2.08 c-0.92 0 -2.04 0.54 -2.04 2.26 l0 0.36 l-2.68 0 l0 -0.36 c0 -2.48 1.68 -4.58 4.72 -4.58 z M189.64000000000001 14.52 l0 2.24 l-1.5 0 l0 3.24 l-2.62 0 l0 -3.24 l-6.04 0 l0 -2.24 l6.04 -8.52 l2.62 0 l0 8.52 l1.5 0 z M182.16 14.52 l3.36 0 l0 -4.98 z M214.46 5.1 l-6.8 17.5 l-2.68 0 l6.8 -17.5 l2.68 0 z M238.78000000000003 6 l-5.76 14 l-2.54 0 l4.9 -11.76 l-5.68 0 l0 -2.24 l9.08 0 z M285.1 20 l-2.78 0 l-3.12 -4.76 l-0.12 0 l-2.2 0 l0 4.76 l-2.62 0 l0 -14 l4.82 0 c3.14 0 5.12 1.92 5.12 4.7 c0 1.94 -0.96 3.38 -2.6 4.08 z M276.88 8.42 l0 4.56 l2.06 0 c1.58 0 2.64 -0.68 2.64 -2.28 c0 -1.58 -1.06 -2.28 -2.64 -2.28 l-2.06 0 z M303.36 17.58 l6.1 0 l0 2.42 l-6.5 0 l-2.22 0 l0 -14 l2.62 0 l5.92 0 l0 2.42 l-5.92 0 l0 3.36 l4.5 0 l0 2.36 l-4.5 0 l0 3.44 z M330.22 6 c3.14 0 5.12 1.92 5.12 4.7 s-1.98 4.54 -5.12 4.54 l-2.2 0 l0 4.76 l-2.62 0 l0 -14 l4.82 0 z M330.08000000000004 12.98 c1.58 0 2.64 -0.68 2.64 -2.28 c0 -1.58 -1.06 -2.28 -2.64 -2.28 l-2.06 0 l0 4.56 l2.06 0 z M362.30000000000007 20 l-1.16 -2.7 l-6.92 0 l-1.16 2.7 l-2.78 0 l6.24 -14 l2.34 0 l6.22 14 l-2.78 0 z M355.14000000000004 15.16 l5.08 0 l-2.54 -5.92 z M383.14000000000004 6 l0 14 l-2.62 0 l0 -14 l2.62 0 z M410.2200000000001 20 l-2.78 0 l-3.12 -4.76 l-0.12 0 l-2.2 0 l0 4.76 l-2.62 0 l0 -14 l4.82 0 c3.14 0 5.12 1.92 5.12 4.7 c0 1.94 -0.96 3.38 -2.6 4.08 z M402.00000000000006 8.42 l0 4.56 l2.06 0 c1.58 0 2.64 -0.68 2.64 -2.28 c0 -1.58 -1.06 -2.28 -2.64 -2.28 l-2.06 0 z"></path>
	</g>
</svg>