<svg xmlns="http://www.w3.org/2000/svg" viewBox="0 0 350 146.14431369263062" preserveAspectRatio="xMidYMid meet" class="css-8aabad"
	id="edbdegdc">
	<defs id="SvgjsDefs1517"></defs>
	<g id="SvgjsG1518" featurekey="symbolFeature-0"
		transform="matrix(0.9259259259259258,0,0,0.9259259259259258,129.37037125340214,-4.629629629629629)"
		fill="#fff">
		<g xmlns="http://www.w3.org/2000/svg">
			<path
				d="M78.4,66.5c-5.5,4.8-9.9,15.2-9.9,15.2s-6.9-11.4-12.9-15.3c-9.5-6.1-13.6-6.2-13.6-6.2V65c0,0,7.8,1.2,11.7,4.6   c8.2,7.1,14.8,18.5,14.8,18.5S74.4,75,80.1,70.5C88.1,64.3,95,65,95,65v-4.8C95,60.1,85.1,60.7,78.4,66.5z"></path>
			<path
				d="M42,80c-6.4-3.6-17.8-4.3-17.8-4.3s8.7-10.1,10.5-17C37.5,47.9,36.2,44,36.2,44l-4.6,1.6c0,0,1.3,7.7-0.6,12.4   c-4.1,9.9-13,19.8-13,19.8s14.6,1.3,20.7,5.1c8.6,5.4,10.2,12,10.2,12l4.6-1.6C53.5,93.4,49.7,84.4,42,80z"></path>
			<path
				d="M35.3,36.8c11.3-0.9,14.6-3.4,14.6-3.4l-3-3.8c0,0-6.9,3.7-12.1,3.4c-10.9-0.6-23.3-5.6-23.3-5.6s3.5,14,1.8,20.9   C10.9,58.2,5,61.8,5,61.8l3,3.8c0,0,7.5-6.5,9.1-15.1c1.3-7.1-1.7-18-1.7-18S28,37.4,35.3,36.8z"></path>
			<path
				d="M37.4,17.8c7.3-1.1,16.7-7.4,16.7-7.4s-0.6,13.2,2.4,19.8c4.6,10.2,8,12.5,8,12.5l2.7-4c0,0-5.9-5.2-7.3-10.2   C56.9,18.2,57.7,5,57.7,5s-12.3,7.8-19.5,8.5c-10.2,1-15.6-3.3-15.6-3.3l-2.7,4.1C19.9,14.2,28.6,19.1,37.4,17.8z"></path>
			<path
				d="M65,60.5c0,0,3.1-7.2,7.4-10.1c9-6.1,21.9-9.7,21.9-9.7s-11.5-8.9-14.5-15.4c-4.2-9.1-1.9-15.6-1.9-15.6l-4.8-1.2   c0,0-1.9,9.6,2.2,17.4c3.4,6.4,12.5,13.2,12.5,13.2S75,42.9,69.6,47.8c-8.3,7.6-9.4,11.5-9.4,11.5L65,60.5z"></path>
		</g>
	</g>
	<g id="SvgjsG1519" featurekey="fiAKjI-0"
		transform="matrix(1.4432988782556984,0,0,1.4432988782556984,-0.7793813392005943,94.31133940399236)"
		fill="#fff">
		<path
			d="M11.06 8.9 l-6.64 8.32 l6.76 0 l0 2.78 l-10.64 0 l0 -2.56 l6.62 -8.36 l-6.6 0 l0 -2.78 l10.5 0 l0 2.6 z M15.7 20 l-3.1 0 l0 -13.7 l3.1 0 l0 13.7 z M24.3 20.28 c-4 0 -7.26 -3.06 -7.26 -7.12 c0 -4.08 3.26 -7.14 7.26 -7.14 c4.1 0 7.26 3.06 7.26 7.12 c0 4.08 -3.16 7.14 -7.26 7.14 z M24.3 17.4 c2.32 0 4.1 -1.84 4.1 -4.26 c0 -2.38 -1.78 -4.24 -4.1 -4.24 s-4.1 1.86 -4.1 4.26 s1.78 4.24 4.1 4.24 z M41.42 20 l-5.52 -8.68 l0 8.68 l-2.98 0 l0 -13.7 l3.38 0 l5.52 8.7 l0 -8.7 l2.98 0 l0 13.7 l-3.38 0 z M59.32 20 l0 -5.36 l-5.8 0 l0 5.36 l-3.1 0 l0 -13.7 l3.1 0 l0 5.5 l5.8 0 l0 -5.5 l3.1 0 l0 13.7 l-3.1 0 z M64.1 20 l0 -13.7 l10.02 0 l0 2.8 l-6.92 0 l0 2.58 l6.4 0 l0 2.72 l-6.4 0 l0 2.8 l6.94 0 l0 2.8 l-10.04 0 z M83.22 14.9 l-1.78 -5.36 l-1.78 5.36 l3.56 0 z M84.91999999999999 20 l-0.78 -2.36 l-5.38 0 l-0.78 2.36 l-3.18 0 l4.84 -13.7 l3.8 0 l4.82 13.7 l-3.34 0 z M97.03999999999999 20 l-3.8 0 l-4.74 -13.7 l3.34 0 l3.38 10.36 l3.38 -10.36 l3.2 0 z M110.2 20 l-3.12 0 l0 -5.12 l-4.98 -8.58 l3.42 0 l3.16 5.76 l3.18 -5.76 l3.32 0 l-4.98 8.6 l0 5.1 z M121.86 15.64 l-5.9 0 l0 -2.62 l5.9 0 l0 2.62 z M123.32000000000001 20 l0 -13.7 l5.6 0 c4.22 0 6.98 3 6.98 6.78 c0 3.86 -2.88 6.92 -7.14 6.92 l-5.44 0 z M128.76 9.14 l-2.34 0 l0 8.02 l2.44 0 c2.22 0 3.92 -1.72 3.92 -4.04 c0 -2.28 -1.7 -3.98 -4.02 -3.98 z M143.12 20.24 c-3.84 0 -5.94 -2.28 -5.94 -5.68 l0 -8.26 l3.1 0 l0 7.84 c0 2.08 1.02 3.22 2.82 3.22 c1.78 0 2.78 -1.14 2.78 -3.22 l0 -7.84 l3.1 0 l0 8.26 c0 3.4 -2.08 5.68 -5.86 5.68 z M157.22 20 l-3.1 0 l0 -10.86 l-4.08 0 l0 -2.84 l11.26 0 l0 2.84 l-4.08 0 l0 10.86 z M169.88000000000002 20 l-3.12 0 l0 -5.12 l-4.98 -8.58 l3.42 0 l3.16 5.76 l3.18 -5.76 l3.32 0 l-4.98 8.6 l0 5.1 z M186.44 20 l-3.1 0 l0 -10.86 l-4.08 0 l0 -2.84 l11.26 0 l0 2.84 l-4.08 0 l0 10.86 z M198.6 20.28 c-4 0 -7.26 -3.06 -7.26 -7.12 c0 -4.08 3.26 -7.14 7.26 -7.14 c4.1 0 7.26 3.06 7.26 7.12 c0 4.08 -3.16 7.14 -7.26 7.14 z M198.6 17.4 c2.32 0 4.1 -1.84 4.1 -4.26 c0 -2.38 -1.78 -4.24 -4.1 -4.24 s-4.1 1.86 -4.1 4.26 s1.78 4.24 4.1 4.24 z M218.34 20 l-2.4 -8.46 l-2.36 8.46 l-3.68 0 l-3.34 -13.7 l3.26 0 l2.1 9.84 l2.74 -9.84 l2.74 0 l2.72 9.94 l2.18 -9.94 l3.08 0 l-3.34 13.7 l-3.7 0 z M229.5 20 l-3.1 0 l0 -13.7 l3.1 0 l0 13.7 z M239.66 20 l-5.52 -8.68 l0 8.68 l-2.98 0 l0 -13.7 l3.38 0 l5.52 8.7 l0 -8.7 l2.98 0 l0 13.7 l-3.38 0 z"></path>
	</g>
	<g id="SvgjsG1520" featurekey="sloganFeature-0"
		transform="matrix(0.8433548606191388,0,0,0.8433548606191388,109.93737248151982,129.10854486469532)"
		fill="#fff">
		<path
			d="M9.54 9.42 c0 1.84 -1.08 3.3 -2.28 4.78 l-3.32 4.08 l6 0 l-0.12 1.72 l-8.38 0 l0 -1.52 l4.5 -5.6 c0.96 -1.2 1.64 -2.18 1.64 -3.34 c0 -1.12 -0.98 -1.94 -2.18 -1.94 c-1.26 0 -2.42 0.9 -2.94 1.42 l-1.2 -1.4 c0.38 -0.38 1.86 -1.82 4.12 -1.82 c2.64 0 4.16 1.66 4.16 3.62 z M24.487000000000002 15.4 l-0.12 1.7 l-1.64 0 l0 2.9 l-1.78 0 l0 -2.9 l-6.7 0 l0 -1.24 l7.4 -10.06 l1.08 0 l0 9.6 l1.76 0 z M16.667 15.440000000000001 l4.28 -0.02 l0 -5.9 z M34.734 6 l-3.92 14 l-1.66 0 l3.92 -14 l1.66 0 z M48.400999999999996 6 l0 0.16 l-5.44 13.84 l-1.84 0 l4.8 -12.3 l-6.08 0 l0.12 -1.7 l8.44 0 z M71.83500000000001 7.720000000000001 l-4.08 0 l0 12.28 l-1.8 0 l0 -12.28 l-4.1 0 l0.12 -1.72 l9.74 0 z M83.18200000000002 20.2 c-4 0 -7.18 -3.2 -7.18 -7.2 s3.18 -7.2 7.18 -7.2 s7.18 3.2 7.18 7.2 s-3.18 7.2 -7.18 7.2 z M83.18200000000002 18.48 c3.04 0 5.32 -2.38 5.32 -5.48 s-2.28 -5.48 -5.32 -5.48 c-3.06 0 -5.34 2.38 -5.34 5.48 s2.28 5.48 5.34 5.48 z M94.549 6 l1.88 0 l3.08 9.54 l3.66 -9.74 l0.22 0 l3.7 9.74 l3.06 -9.54 l1.9 0 l-4.7 14.2 l-0.22 0 l-3.84 -10 l-3.86 10 l-0.2 0 z M116.77600000000001 20 l0 -14 l1.8 0 l0 14 l-1.8 0 z M134.103 6 l1.8 0 l0 14.2 l-0.22 0 l-9.4 -9.98 l0 9.78 l-1.78 0 l0 -14.2 l0.2 0 l9.4 9.98 l0 -9.78 z M153.43000000000004 11.88 l0 6.86 c-1.08 0.82 -2.56 1.46 -4.9 1.46 c-4.4 0 -7.26 -3.2 -7.26 -7.2 s3.02 -7.2 7.22 -7.2 c1.94 0 3.54 0.7 4.8 1.7 l-0.94 1.36 c-1.1 -0.88 -2.46 -1.34 -3.86 -1.34 c-3 0 -5.34 2.28 -5.34 5.48 s2.16 5.46 5.38 5.46 c1.22 0 2.26 -0.26 3.1 -0.66 l0 -4.18 l-2.7 0 l0.12 -1.74 l4.38 0 z"></path>
	</g>
</svg>