<svg xmlns="http://www.w3.org/2000/svg" width="397.2" height="184.7001583752045" viewBox="0 0 350 162.75190189154475"
	class="looka-1j8o68f">
	<defs id="SvgjsDefs1339"></defs>
	<g id="SvgjsG1340" featurekey="MI9fam-0"
		transform="matrix(0.28101164191087913,0,0,0.28101164191087913,128.4456041750301,-7.587314331593737)"
		fill="#ffb26b">
		<defs xmlns="http://www.w3.org/2000/svg"></defs>
		<g xmlns="http://www.w3.org/2000/svg">
			<g>
				<path class="fil0"
					d="M91 290c-1,10 -6,17 -11,17l-5 0c-1,-1 -1,-1 -1,-2 -2,-4 -4,-10 -4,-15l-2 0c0,6 2,12 4,17l-3 0c-1,-1 -1,-1 -1,-2 -2,-4 -3,-10 -4,-15l-2 0c0,6 2,12 4,17l-2 0c0,-1 0,-1 -1,-2 -2,-4 -3,-10 -4,-15l-2 0c1,6 2,12 4,17l0 0c-6,0 -10,-7 -11,-17l-11 0 -5 -7 0 -39 5 0c4,-40 8,-55 52,-53l0 -5 -22 -3 0 -34c7,-4 15,-6 24,-3 0,-1 0,-2 0,-2 -7,-3 -12,-6 -19,-9l0 2c0,10 -16,10 -16,0l0 -26c0,-11 16,-11 16,0l0 1 13 0 0 -57 -7 -9c-2,-6 -1,-13 0,-19 6,8 13,17 17,26l0 54c1,-11 3,-21 5,-31 40,-11 89,-11 130,0 2,10 3,20 5,31l0 -54c3,-9 11,-18 16,-26 2,6 2,13 0,19l-6 9 0 57 12 0 0 -1c0,-11 16,-11 16,0l0 26c0,10 -16,10 -16,0l0 -2c-6,3 -12,6 -18,9 0,0 0,1 0,2 9,-3 16,-1 23,3l0 34 -22 3 0 5c45,-2 49,13 53,53l4 0 0 39 -5 7 -11 0c-1,10 -5,17 -10,17l-1 0c2,-5 4,-11 4,-17l-2 0c0,5 -2,11 -4,15 0,1 0,1 -1,2l-2 0c3,-5 4,-11 5,-17l-3 0c0,5 -2,11 -4,15 0,1 0,1 0,2l-4 0c3,-5 4,-11 5,-17l-2 0c-1,5 -2,11 -5,15 0,1 0,1 0,2l-6 0c-5,0 -9,-7 -10,-17l-152 0zm11 -143c2,-20 4,-41 8,-61l0 -2 3 -1c34,-8 73,-8 108,0l2 1 0 2c4,20 6,41 8,61l0 7 -5 -3c-18,-10 -39,-16 -59,-16 -21,0 -41,6 -60,16l-5 3 0 -7zm-8 58l-3 -1c-8,0 -25,-1 -31,6 -2,2 -4,7 -5,10 0,2 0,4 -1,6l39 0 0 -15c0,-2 0,-4 1,-6zm146 0c0,2 0,4 0,6l0 15 39 0c0,-2 -1,-4 -1,-6 -1,-3 -2,-8 -5,-10 -6,-7 -22,-6 -30,-6l-3 1zm-133 76c0,-2 0,-4 0,-6l0 -64c0,-54 120,-50 120,0l0 64c0,2 0,4 -1,6 -39,0 -79,0 -119,0zm-58 -42c0,2 0,4 0,6l-1 8 -4 0 0 27 1 0 55 0 0 -41 -51 0zm184 41l56 0 0 0 0 -27 -3 0 -1 -8c0,-2 -1,-4 -1,-6l-51 0 0 41z"
					style="fill: #ffb26b;"></path>
				<path class="fil0"
					d="M220 86c-34,-7 -73,-7 -107,0 -3,21 -6,41 -7,62 18,-10 39,-16 61,-16 22,0 43,6 61,16 -2,-21 -4,-41 -8,-62zm-110 56c17,-9 37,-13 57,-13 20,0 39,4 57,13 -2,-18 -4,-35 -7,-53 -32,-7 -69,-7 -101,0 -3,18 -5,35 -6,53z"
					style="fill: #ffb26b;"></path>
				<path class="fil0"
					d="M52 242c0,1 0,2 0,3l-1 12 -3 0 0 20 49 0 0 -35 -45 0zm3 4l-1 14 -3 0 0 13 42 0 0 -27 -38 0zm185 27l42 0 0 -13 -2 0 -2 -14 -38 0 0 27zm-3 4l49 0 0 -20 -3 0 -1 -12c-1,-1 -1,-2 -1,-3l-44 0 0 35z"
					style="fill: #ffb26b;"></path>
				<path class="fil0"
					d="M110 278c38,0 76,0 113,0 0,-1 0,-2 0,-3l0 -7 -113 0 0 7c0,1 0,2 0,3zm113 -13l0 -7 -113 0 0 7 113 0zm0 -10l0 -7 -113 0 0 7 113 0zm0 -10l0 -7 -113 0 0 7 113 0zm0 -10l0 -7 -113 0 0 7 113 0zm0 -10l0 -7 -113 0 0 7 113 0zm0 -10l0 -4c0,-1 0,-2 0,-3l-113 0c0,1 0,2 0,3l0 4 113 0zm0 -10c-1,-2 -2,-5 -3,-7l-107 0c-1,2 -2,5 -3,7l113 0zm-5 -10c-2,-2 -4,-5 -7,-7l-90 0c-3,2 -5,5 -6,7l103 0zm-12 -10c-22,-13 -60,-14 -81,0l81 0z"
					style="fill: #ffb26b;"></path>
			</g>
		</g>
	</g>
	<g id="SvgjsG1341" featurekey="EI8VXn-0"
		transform="matrix(2.939694332076164,0,0,2.939694332076164,-3.5276368430556744,80.95027859529938)"
		fill="#ffffff">
		<path
			d="M5.28 6.140000000000001 q0.36 0.66 0.83 1.63 t0.98 2.1 t1.01 2.31 t0.94 2.22 q0.44 -1.04 0.94 -2.22 t1.01 -2.31 t0.98 -2.1 t0.83 -1.63 l2.84 0 q0.2 1.38 0.37 3.09 t0.3 3.56 t0.24 3.71 t0.19 3.5 l-3.04 0 q-0.06 -2.02 -0.16 -4.4 t-0.3 -4.8 q-0.36 0.84 -0.8 1.86 t-0.87 2.04 t-0.83 1.95 t-0.68 1.59 l-2.18 0 q-0.28 -0.66 -0.68 -1.59 t-0.83 -1.95 t-0.87 -2.04 t-0.8 -1.86 q-0.2 2.42 -0.3 4.8 t-0.16 4.4 l-3.04 0 q0.08 -1.64 0.19 -3.5 t0.24 -3.71 t0.3 -3.56 t0.37 -3.09 l2.98 0 z M19.540000000000003 6.140000000000001 l3.12 0 l0 13.86 l-3.12 0 l0 -13.86 z M35.120000000000005 17.32 l0 2.68 l-9.26 0 l0 -13.86 l3.12 0 l0 11.18 l6.14 0 z M46.42 7.619999999999999 q0.24 0.82 0.53 1.85 t0.62 2.13 t0.67 2.2 t0.66 2.04 q0.26 -1.02 0.53 -2.22 t0.51 -2.48 t0.47 -2.55 t0.43 -2.45 l3.24 0 q-0.7 3.48 -1.61 7.06 t-1.97 6.8 l-2.86 0 q-0.7 -1.92 -1.36 -4.03 t-1.3 -4.23 q-0.64 2.12 -1.28 4.23 t-1.34 4.03 l-2.86 0 q-1.06 -3.22 -1.97 -6.8 t-1.61 -7.06 l3.38 0 q0.2 1.18 0.44 2.45 t0.5 2.55 t0.53 2.48 t0.55 2.22 q0.36 -0.98 0.7 -2.08 t0.66 -2.2 t0.59 -2.12 t0.49 -1.82 l2.66 0 z M65.36 20 q-0.22 -0.72 -0.49 -1.48 t-0.53 -1.52 l-5.4 0 q-0.26 0.76 -0.53 1.52 t-0.49 1.48 l-3.24 0 q0.78 -2.24 1.48 -4.14 t1.37 -3.58 t1.32 -3.19 t1.35 -2.95 l2.98 0 q0.68 1.44 1.34 2.95 t1.33 3.19 t1.37 3.58 t1.48 4.14 l-3.34 0 z M61.620000000000005 9.28 q-0.1 0.3 -0.3 0.82 t-0.46 1.2 t-0.57 1.5 t-0.63 1.72 l3.94 0 q-0.32 -0.9 -0.62 -1.72 t-0.57 -1.5 t-0.47 -1.2 t-0.32 -0.82 z M75.92 20.28 q-1.46 0 -2.52 -0.41 t-1.75 -1.14 t-1.02 -1.74 t-0.33 -2.23 l0 -8.62 l3.12 0 l0 8.36 q0 0.84 0.19 1.43 t0.52 0.96 t0.8 0.53 t1.03 0.16 q1.14 0 1.85 -0.7 t0.71 -2.38 l0 -8.36 l3.12 0 l0 8.62 q0 1.22 -0.34 2.24 t-1.04 1.75 t-1.78 1.13 t-2.56 0.4 z M92.82000000000001 20 q-0.42 -0.68 -0.99 -1.47 t-1.24 -1.58 t-1.39 -1.52 t-1.44 -1.29 l0 5.86 l-3.12 0 l0 -13.86 l3.12 0 l0 5.24 q1.22 -1.28 2.45 -2.67 t2.29 -2.57 l3.7 0 q-1.42 1.68 -2.85 3.24 t-3.01 3.14 q1.66 1.38 3.21 3.28 t2.97 4.2 l-3.7 0 z M98.32 20 l0 -13.86 l9.36 0 l0 2.62 l-6.24 0 l0 2.72 l5.54 0 l0 2.56 l-5.54 0 l0 3.34 l6.7 0 l0 2.62 l-9.82 0 z M110.44 20 l0 -13.86 l9.36 0 l0 2.62 l-6.24 0 l0 2.72 l5.54 0 l0 2.56 l-5.54 0 l0 3.34 l6.7 0 l0 2.62 l-9.82 0 z"></path>
	</g>
	<g id="SvgjsG1342" featurekey="EI8VXn-1"
		transform="matrix(0.8426425566819068,0,0,0.8426425566819068,-1.0111721127068216,146.09582138087197)"
		fill="#ffffff">
		<path
			d="M5.28 6.140000000000001 q0.36 0.66 0.83 1.63 t0.98 2.1 t1.01 2.31 t0.94 2.22 q0.44 -1.04 0.94 -2.22 t1.01 -2.31 t0.98 -2.1 t0.83 -1.63 l2.84 0 q0.2 1.38 0.37 3.09 t0.3 3.56 t0.24 3.71 t0.19 3.5 l-3.04 0 q-0.06 -2.02 -0.16 -4.4 t-0.3 -4.8 q-0.36 0.84 -0.8 1.86 t-0.87 2.04 t-0.83 1.95 t-0.68 1.59 l-2.18 0 q-0.28 -0.66 -0.68 -1.59 t-0.83 -1.95 t-0.87 -2.04 t-0.8 -1.86 q-0.2 2.42 -0.3 4.8 t-0.16 4.4 l-3.04 0 q0.08 -1.64 0.19 -3.5 t0.24 -3.71 t0.3 -3.56 t0.37 -3.09 l2.98 0 z M22.16 13.059999999999999 q0 1.02 0.25 1.84 t0.72 1.41 t1.15 0.91 t1.56 0.32 q0.86 0 1.55 -0.32 t1.16 -0.91 t0.72 -1.41 t0.25 -1.84 t-0.25 -1.85 t-0.72 -1.42 t-1.16 -0.91 t-1.55 -0.32 q-0.88 0 -1.56 0.33 t-1.15 0.92 t-0.72 1.42 t-0.25 1.83 z M32.74 13.059999999999999 q0 1.78 -0.53 3.13 t-1.45 2.26 t-2.19 1.37 t-2.73 0.46 q-1.42 0 -2.68 -0.46 t-2.2 -1.37 t-1.48 -2.26 t-0.54 -3.13 t0.56 -3.13 t1.51 -2.27 t2.2 -1.38 t2.63 -0.46 q1.42 0 2.68 0.46 t2.2 1.38 t1.48 2.27 t0.54 3.13 z M39.96 20.18 q-1.14 0 -2.27 -0.07 t-2.35 -0.33 l0 -13.44 q0.96 -0.18 2.1 -0.27 t2.12 -0.09 q1.32 0 2.43 0.19 t1.91 0.65 t1.25 1.21 t0.45 1.85 q0 1.66 -1.6 2.62 q1.32 0.5 1.8 1.36 t0.48 1.94 q0 2.18 -1.59 3.28 t-4.73 1.1 z M38.38 13.96 l0 3.58 q0.34 0.04 0.74 0.06 t0.88 0.02 q1.4 0 2.26 -0.4 t0.86 -1.48 q0 -0.96 -0.72 -1.37 t-2.06 -0.41 l-1.96 0 z M38.38 11.58 l1.52 0 q1.44 0 2.06 -0.37 t0.62 -1.19 q0 -0.84 -0.64 -1.18 t-1.88 -0.34 q-0.4 0 -0.86 0.01 t-0.82 0.05 l0 3.02 z M48.78 6.140000000000001 l3.12 0 l0 13.86 l-3.12 0 l0 -13.86 z M64.36 17.32 l0 2.68 l-9.26 0 l0 -13.86 l3.12 0 l0 11.18 l6.14 0 z M66.36 20 l0 -13.86 l9.36 0 l0 2.62 l-6.24 0 l0 2.72 l5.54 0 l0 2.56 l-5.54 0 l0 3.34 l6.7 0 l0 2.62 l-9.82 0 z M85.9 13.059999999999999 q0 1.02 0.25 1.84 t0.72 1.41 t1.15 0.91 t1.56 0.32 q0.86 0 1.55 -0.32 t1.16 -0.91 t0.72 -1.41 t0.25 -1.84 t-0.25 -1.85 t-0.72 -1.42 t-1.16 -0.91 t-1.55 -0.32 q-0.88 0 -1.56 0.33 t-1.15 0.92 t-0.72 1.42 t-0.25 1.83 z M96.48 13.059999999999999 q0 1.78 -0.53 3.13 t-1.45 2.26 t-2.19 1.37 t-2.73 0.46 q-1.42 0 -2.68 -0.46 t-2.2 -1.37 t-1.48 -2.26 t-0.54 -3.13 t0.56 -3.13 t1.51 -2.27 t2.2 -1.38 t2.63 -0.46 q1.42 0 2.68 0.46 t2.2 1.38 t1.48 2.27 t0.54 3.13 z M108.38000000000001 20 q-1.34 -2.38 -2.9 -4.7 t-3.32 -4.38 l0 9.08 l-3.08 0 l0 -13.86 l2.54 0 q0.66 0.66 1.46 1.62 t1.63 2.05 t1.65 2.26 t1.54 2.25 l0 -8.18 l3.1 0 l0 13.86 l-2.62 0 z M113.10000000000001 12.68 l5.8 0 l0 2.7 l-5.8 0 l0 -2.7 z M124.78 17.62 q0.66 0 1.09 -0.11 t0.69 -0.3 t0.36 -0.45 t0.1 -0.58 q0 -0.68 -0.64 -1.13 t-2.2 -0.97 q-0.68 -0.24 -1.36 -0.55 t-1.22 -0.78 t-0.88 -1.14 t-0.34 -1.63 t0.36 -1.73 t1.02 -1.31 t1.6 -0.83 t2.12 -0.29 q1.4 0 2.42 0.3 t1.68 0.66 l-0.9 2.46 q-0.58 -0.3 -1.29 -0.53 t-1.71 -0.23 q-1.12 0 -1.61 0.31 t-0.49 0.95 q0 0.38 0.18 0.64 t0.51 0.47 t0.76 0.38 t0.95 0.35 q1.08 0.4 1.88 0.79 t1.33 0.91 t0.79 1.22 t0.26 1.7 q0 1.94 -1.36 3.01 t-4.1 1.07 q-0.92 0 -1.66 -0.11 t-1.31 -0.27 t-0.98 -0.34 t-0.69 -0.34 l0.88 -2.48 q0.62 0.34 1.53 0.61 t2.23 0.27 z M132.64000000000001 6.140000000000001 l3.12 0 l0 13.86 l-3.12 0 l0 -13.86 z M149.24 6.140000000000001 l0 2.66 l-4.18 0 l0 11.2 l-3.12 0 l0 -11.2 l-4.18 0 l0 -2.66 l11.48 0 z M151.24 20 l0 -13.86 l9.36 0 l0 2.62 l-6.24 0 l0 2.72 l5.54 0 l0 2.56 l-5.54 0 l0 3.34 l6.7 0 l0 2.62 l-9.82 0 z M178.44000000000003 6.140000000000001 l0 2.66 l-4.18 0 l0 11.2 l-3.12 0 l0 -11.2 l-4.18 0 l0 -2.66 l11.48 0 z M184.50000000000003 5.98 q3.12 0 4.78 1.11 t1.66 3.45 q0 1.46 -0.67 2.37 t-1.93 1.43 q0.42 0.52 0.88 1.19 t0.91 1.4 t0.87 1.52 t0.78 1.55 l-3.5 0 q-0.38 -0.68 -0.77 -1.38 t-0.8 -1.36 t-0.81 -1.25 t-0.8 -1.07 l-1.54 0 l0 5.06 l-3.12 0 l0 -13.66 q1.02 -0.2 2.11 -0.28 t1.95 -0.08 z M184.68000000000004 8.64 q-0.34 0 -0.61 0.02 t-0.51 0.04 l0 3.76 l0.88 0 q1.76 0 2.52 -0.44 t0.76 -1.5 q0 -1.02 -0.77 -1.45 t-2.27 -0.43 z M199.20000000000005 20.28 q-1.46 0 -2.52 -0.41 t-1.75 -1.14 t-1.02 -1.74 t-0.33 -2.23 l0 -8.62 l3.12 0 l0 8.36 q0 0.84 0.19 1.43 t0.52 0.96 t0.8 0.53 t1.03 0.16 q1.14 0 1.85 -0.7 t0.71 -2.38 l0 -8.36 l3.12 0 l0 8.62 q0 1.22 -0.34 2.24 t-1.04 1.75 t-1.78 1.13 t-2.56 0.4 z M214.24000000000004 20.28 q-3.38 0 -5.15 -1.88 t-1.77 -5.34 q0 -1.72 0.54 -3.07 t1.48 -2.28 t2.24 -1.41 t2.82 -0.48 q0.88 0 1.6 0.13 t1.26 0.3 t0.9 0.35 t0.52 0.28 l-0.9 2.52 q-0.64 -0.34 -1.49 -0.58 t-1.93 -0.24 q-0.72 0 -1.41 0.24 t-1.22 0.77 t-0.85 1.37 t-0.32 2.04 q0 0.96 0.21 1.79 t0.68 1.43 t1.23 0.95 t1.84 0.35 q0.68 0 1.22 -0.08 t0.96 -0.19 t0.74 -0.25 t0.58 -0.26 l0.86 2.5 q-0.66 0.4 -1.86 0.72 t-2.78 0.32 z M229.06000000000006 20 q-0.42 -0.68 -0.99 -1.47 t-1.24 -1.58 t-1.39 -1.52 t-1.44 -1.29 l0 5.86 l-3.12 0 l0 -13.86 l3.12 0 l0 5.24 q1.22 -1.28 2.45 -2.67 t2.29 -2.57 l3.7 0 q-1.42 1.68 -2.85 3.24 t-3.01 3.14 q1.66 1.38 3.21 3.28 t2.97 4.2 l-3.7 0 z M238.46000000000006 16.32 q0 -0.76 0.22 -1.39 t0.59 -1.14 t0.86 -0.9 t1.03 -0.69 q-0.48 -0.58 -0.86 -1.25 t-0.38 -1.47 q0 -1.76 1.06 -2.71 t2.92 -0.95 q0.94 0 1.64 0.25 t1.17 0.68 t0.71 1 t0.24 1.23 q0 1.22 -0.69 2.17 t-1.75 1.59 l2.24 2.24 q0.18 -0.4 0.35 -1.01 t0.21 -1.07 l2.48 0.32 q-0.04 0.38 -0.14 0.83 t-0.25 0.91 t-0.34 0.92 t-0.41 0.84 q0.64 0.72 1.25 1.57 t1.05 1.71 l-3.06 0 q-0.16 -0.26 -0.44 -0.65 t-0.56 -0.67 q-0.8 0.64 -1.86 1.07 t-2.38 0.43 q-1.4 0 -2.34 -0.35 t-1.51 -0.9 t-0.81 -1.24 t-0.24 -1.37 z M241.24000000000007 16.02 q0 0.3 0.12 0.62 t0.39 0.59 t0.69 0.44 t1.02 0.17 q0.84 0 1.47 -0.22 t1.05 -0.58 l-3.2 -3.22 q-0.28 0.14 -0.55 0.34 t-0.49 0.47 t-0.36 0.61 t-0.14 0.78 z M245.1200000000001 9.12 q0 -0.46 -0.3 -0.82 t-1 -0.36 q-0.64 0 -0.99 0.39 t-0.35 1.01 q0 0.52 0.3 1.01 t0.78 0.93 q0.64 -0.36 1.1 -0.86 t0.46 -1.3 z M268.5400000000001 6.140000000000001 l0 2.66 l-4.18 0 l0 11.2 l-3.12 0 l0 -11.2 l-4.18 0 l0 -2.66 l11.48 0 z M274.6000000000001 5.98 q3.12 0 4.78 1.11 t1.66 3.45 q0 1.46 -0.67 2.37 t-1.93 1.43 q0.42 0.52 0.88 1.19 t0.91 1.4 t0.87 1.52 t0.78 1.55 l-3.5 0 q-0.38 -0.68 -0.77 -1.38 t-0.8 -1.36 t-0.81 -1.25 t-0.8 -1.07 l-1.54 0 l0 5.06 l-3.12 0 l0 -13.66 q1.02 -0.2 2.11 -0.28 t1.95 -0.08 z M274.78000000000003 8.64 q-0.34 0 -0.61 0.02 t-0.51 0.04 l0 3.76 l0.88 0 q1.76 0 2.52 -0.44 t0.76 -1.5 q0 -1.02 -0.77 -1.45 t-2.27 -0.43 z M293.16 20 q-0.22 -0.72 -0.49 -1.48 t-0.53 -1.52 l-5.4 0 q-0.26 0.76 -0.53 1.52 t-0.49 1.48 l-3.24 0 q0.78 -2.24 1.48 -4.14 t1.37 -3.58 t1.32 -3.19 t1.35 -2.95 l2.98 0 q0.68 1.44 1.34 2.95 t1.33 3.19 t1.37 3.58 t1.48 4.14 l-3.34 0 z M289.42 9.28 q-0.1 0.3 -0.3 0.82 t-0.46 1.2 t-0.57 1.5 t-0.63 1.72 l3.94 0 q-0.32 -0.9 -0.62 -1.72 t-0.57 -1.5 t-0.47 -1.2 t-0.32 -0.82 z M298.30000000000007 6.140000000000001 l3.12 0 l0 13.86 l-3.12 0 l0 -13.86 z M313.88000000000005 17.32 l0 2.68 l-9.26 0 l0 -13.86 l3.12 0 l0 11.18 l6.14 0 z M315.88000000000005 20 l0 -13.86 l9.36 0 l0 2.62 l-6.24 0 l0 2.72 l5.54 0 l0 2.56 l-5.54 0 l0 3.34 l6.7 0 l0 2.62 l-9.82 0 z M332.06000000000006 5.98 q3.12 0 4.78 1.11 t1.66 3.45 q0 1.46 -0.67 2.37 t-1.93 1.43 q0.42 0.52 0.88 1.19 t0.91 1.4 t0.87 1.52 t0.78 1.55 l-3.5 0 q-0.38 -0.68 -0.77 -1.38 t-0.8 -1.36 t-0.81 -1.25 t-0.8 -1.07 l-1.54 0 l0 5.06 l-3.12 0 l0 -13.66 q1.02 -0.2 2.11 -0.28 t1.95 -0.08 z M332.24 8.64 q-0.34 0 -0.61 0.02 t-0.51 0.04 l0 3.76 l0.88 0 q1.76 0 2.52 -0.44 t0.76 -1.5 q0 -1.02 -0.77 -1.45 t-2.27 -0.43 z M350.20000000000005 5.98 q3.12 0 4.78 1.11 t1.66 3.45 q0 1.46 -0.67 2.37 t-1.93 1.43 q0.42 0.52 0.88 1.19 t0.91 1.4 t0.87 1.52 t0.78 1.55 l-3.5 0 q-0.38 -0.68 -0.77 -1.38 t-0.8 -1.36 t-0.81 -1.25 t-0.8 -1.07 l-1.54 0 l0 5.06 l-3.12 0 l0 -13.66 q1.02 -0.2 2.11 -0.28 t1.95 -0.08 z M350.38 8.64 q-0.34 0 -0.61 0.02 t-0.51 0.04 l0 3.76 l0.88 0 q1.76 0 2.52 -0.44 t0.76 -1.5 q0 -1.02 -0.77 -1.45 t-2.27 -0.43 z M359.48 20 l0 -13.86 l9.36 0 l0 2.62 l-6.24 0 l0 2.72 l5.54 0 l0 2.56 l-5.54 0 l0 3.34 l6.7 0 l0 2.62 l-9.82 0 z M375.76 5.98 q3.1 0 4.76 1.09 t1.66 3.57 q0 2.5 -1.68 3.61 t-4.8 1.11 l-0.98 0 l0 4.64 l-3.12 0 l0 -13.66 q1.02 -0.2 2.16 -0.28 t2 -0.08 z M375.96 8.64 q-0.34 0 -0.67 0.02 t-0.57 0.04 l0 4 l0.98 0 q1.62 0 2.44 -0.44 t0.82 -1.64 q0 -0.58 -0.21 -0.96 t-0.6 -0.61 t-0.95 -0.32 t-1.24 -0.09 z M393.76 20 q-0.22 -0.72 -0.49 -1.48 t-0.53 -1.52 l-5.4 0 q-0.26 0.76 -0.53 1.52 t-0.49 1.48 l-3.24 0 q0.78 -2.24 1.48 -4.14 t1.37 -3.58 t1.32 -3.19 t1.35 -2.95 l2.98 0 q0.68 1.44 1.34 2.95 t1.33 3.19 t1.37 3.58 t1.48 4.14 l-3.34 0 z M390.02 9.28 q-0.1 0.3 -0.3 0.82 t-0.46 1.2 t-0.57 1.5 t-0.63 1.72 l3.94 0 q-0.32 -0.9 -0.62 -1.72 t-0.57 -1.5 t-0.47 -1.2 t-0.32 -0.82 z M398.90000000000003 6.140000000000001 l3.12 0 l0 13.86 l-3.12 0 l0 -13.86 z M409.28000000000003 5.98 q3.12 0 4.78 1.11 t1.66 3.45 q0 1.46 -0.67 2.37 t-1.93 1.43 q0.42 0.52 0.88 1.19 t0.91 1.4 t0.87 1.52 t0.78 1.55 l-3.5 0 q-0.38 -0.68 -0.77 -1.38 t-0.8 -1.36 t-0.81 -1.25 t-0.8 -1.07 l-1.54 0 l0 5.06 l-3.12 0 l0 -13.66 q1.02 -0.2 2.11 -0.28 t1.95 -0.08 z M409.46 8.64 q-0.34 0 -0.61 0.02 t-0.51 0.04 l0 3.76 l0.88 0 q1.76 0 2.52 -0.44 t0.76 -1.5 q0 -1.02 -0.77 -1.45 t-2.27 -0.43 z"></path>
	</g>
</svg>