<svg xmlns="http://www.w3.org/2000/svg" viewBox="0 0 350 153.13576312313828" preserveAspectRatio="xMidYMid meet" class="css-8aabad"
	id="ffffdgaf">
	<defs id="SvgjsDefs1298"></defs>
	<g id="SvgjsG1299" featurekey="symbolFeature-0"
		transform="matrix(1.1575996505883643,0,0,1.1575996505883643,117.56576227507514,-25.875136852285003)"
		fill="#fff">
		<path xmlns="http://www.w3.org/2000/svg" fill="#fff"
			d="M49.322,42.754c0,0.78,0.633,1.415,1.412,1.415c0.416,0,0.791-0.182,1.049-0.468h3.455  c1.254,0,1.254-1.878,0-1.878h-3.442c-0.259-0.296-0.64-0.479-1.062-0.479C49.955,41.344,49.322,41.975,49.322,42.754z   M53.352,33.249c-0.777,0-1.406,0.631-1.406,1.407v2.716c0,0.779,0.629,1.41,1.406,1.41h13.395c0.779,0,0.965-0.631,0.414-1.41  l-2.204-3.11c-0.712-0.94-1.001-1.012-1.785-1.012L53.352,33.249z M24.289,43.687h9.884L15.482,32.27L24.289,43.687z M75.695,43.657  h14.1c2.072,0,3.757,1.685,3.757,3.759v7.312l2.49,0.006c0.778,0,1.409,0.632,1.409,1.408v3.717c0,0.777-0.631,1.41-1.409,1.41  l-5.69-0.008c-0.266-5.85-5.092-10.509-11.007-10.509c-5.905,0-10.726,4.646-11.003,10.481L42.96,61.186v-0.293  c0-1.297-1.054-2.349-2.349-2.349H23.23c-1.299,0-2.349,1.052-2.349,2.349v0.269l-10.573-0.013c-0.779,0-1.41-0.631-1.41-1.41  v-3.715c0-0.78,0.631-1.41,1.41-1.41l2.488-0.006l0.006-6.225c0-2.596,2.104-4.698,4.696-4.698h1.448L7.443,28.759v8.476  c1.914,0.388,3.283,2.242,3.283,4.173c0,2.229-1.807,4.036-4.037,4.036c-1.609,0-2.984-0.941-3.641-2.294  c-0.412-0.845,0.855-1.46,1.266-0.614c0.437,0.893,1.334,1.5,2.375,1.5c1.452,0,2.631-1.178,2.631-2.628  c0-1.503-1.207-2.821-2.605-2.837c-0.208-0.006-0.37-0.082-0.48-0.196c-0.119-0.117-0.201-0.287-0.201-0.507l0.01-10.927  l-0.725-0.937c-1.723-1.603,0.354-4.684,2.607-3.306l34.359,20.988h0.479c1.296,0,2.349-1.052,2.349-2.349l0.006-6.684  c0-2.594,2.104-4.697,4.697-4.697l13.687,0.003c1.942,0,3.159,0.659,4.431,2.349L75.695,43.657z M75.331,61.775  c0,2.22,1.796,4.017,4.014,4.017c2.22,0,4.017-1.797,4.017-4.017c0-2.215-1.797-4.01-4.017-4.01  C77.127,57.766,75.331,59.562,75.331,61.775z M71.139,61.775c0-4.529,3.674-8.203,8.206-8.203c4.533,0,8.207,3.674,8.207,8.203  c0,4.535-3.674,8.209-8.207,8.209C74.812,69.984,71.139,66.311,71.139,61.775z M23.71,61.775c0-0.486,0.044-0.965,0.126-1.432h4.334  c-0.172,0.443-0.266,0.93-0.266,1.432c0,2.22,1.797,4.017,4.015,4.017s4.013-1.797,4.013-4.017c0-0.502-0.094-0.987-0.265-1.432  h4.332c0.084,0.467,0.127,0.944,0.127,1.432c0,4.535-3.675,8.209-8.207,8.209C27.386,69.984,23.71,66.311,23.71,61.775z"></path>
	</g>
	<g id="SvgjsG1300" featurekey="nameFeature-0"
		transform="matrix(1.2468831454749552,0,0,1.2468831454749552,-3.940150549441589,58.32995968541989)"
		fill="#fff">
		<path
			d="M3.16 27.32 c0 -7.72 4.44 -13.24 11.84 -13.24 c4.6 0 9.08 2.24 9.96 8.4 l-4.92 0.76 l-0.16 -0.96 c0.88 0.68 1.16 -1.28 1.16 -2.12 c0 -2.84 -3.12 -4.44 -5.72 -4.44 c-4.72 0 -6.84 4.32 -6.84 11.6 s2.16 11.76 6.8 11.76 c2.64 0 5.8 -2.16 5.8 -5.24 c0 -0.88 -0.4 -2.2 -1.2 -1.56 l0.36 -1.12 l5.08 0.76 c-0.2 6.16 -5.36 8.8 -10.32 8.8 c-7.28 0 -11.84 -5.64 -11.84 -13.4 z M27.652 36.12 c0 -4.2 4.88 -7.12 12.04 -7.56 c0 -3.24 -0.24 -6.6 -3.44 -6.6 c-2.08 0 -3.44 1.36 -3.44 3.08 c0 0.84 0 2.32 0.92 2.4 l-0.52 0.28 c-2.88 -0.2 -2.88 -2.16 -5.12 -1.84 c0.68 -2.84 3.48 -5.2 8.28 -5.2 c4.84 0 7.72 2.36 7.72 7.88 l0 11.44 l-1.72 0 c-0.24 -5.84 -2 -7.2 -2 -7.2 c-0.64 2.44 -2.64 7.76 -7.56 7.76 c-3 0 -5.16 -1.64 -5.16 -4.44 z M39.652 29.92 c-4.84 0.44 -7.28 2.72 -7.28 5.36 c0 1.8 1.12 2.68 2.44 2.68 c2.72 0 4.6 -3.64 4.84 -8.04 z M46.06400000000001 34.64 c0.04 -6.88 0.04 -16.16 -0.12 -21.04 c2.64 -0.68 2.92 0.4 4.72 0 c-0.2 6.56 -0.28 13.36 -0.04 21.04 c0.08 2.68 0.48 4 1.6 4 c0.84 0 1.36 -0.72 1.36 -1.84 c0 -0.32 0 -0.64 -0.12 -1 c0.68 0.28 1.24 -0.44 1.88 0.36 c0 2.6 -1.64 4.4 -4.24 4.4 c-2.92 0 -5.08 -1.6 -5.04 -5.92 z M70.956 34.32 c0.96 0.4 2.16 0.36 2.16 0.36 c-0.68 3.68 -3.76 5.88 -8.08 5.88 c-5.96 0 -9.68 -4.2 -9.68 -10.12 c0 -5.72 3.68 -9.72 9.32 -9.72 c5.16 0 8.44 3.4 8.28 9.44 l-12.64 1.76 c0.12 4.4 1.4 7.28 4.76 7.28 c1.64 0 3.92 -0.72 3.92 -3.44 c0 -0.52 0.04 -1.56 -0.8 -1.48 l0.56 -0.32 s1.28 -0.04 2.2 0.36 z M60.27600000000001 31.16 l0 0 l7.84 -2.16 c0.16 -1.04 0.24 -1.84 0.24 -3.04 c0.04 -2.72 -1.24 -4.28 -3.48 -3.88 c-2.52 0.48 -4.44 4.48 -4.6 9.08 z M92.48800000000001 40 l-1.08 0 c-0.48 -3.8 -2.68 -6.16 -2.68 -6.16 c-0.24 3.36 -3.4 6.72 -6.44 6.72 c-4.76 0 -7.96 -3.88 -7.96 -10.16 c0 -6.24 3.8 -9.72 7.72 -9.72 c2.52 0 4.68 1.28 5.96 3.88 c0.12 -4.52 0.04 -8.96 -0.32 -11.04 c1.56 -0.36 2.8 0.44 4.72 0 c-0.4 6.44 -0.4 20.16 0.08 26.48 z M87.60800000000002 30.64 c0 -4.96 -1.68 -7.6 -4.24 -7.6 c-2.6 0 -4.24 2.92 -4.24 7.56 c0 4.68 1.64 7.76 4.24 7.76 c2.56 0 4.24 -3 4.24 -7.72 z M104.34 20.68 c5.6 0 9.32 4.12 9.32 9.8 c0 5.92 -3.72 10.08 -9.28 10.08 c-5.6 0 -9.32 -4.16 -9.32 -10.08 c0 -5.68 3.72 -9.8 9.28 -9.8 z M107.26 38.68 c0 0 4.04 -0.88 1.24 -9.48 s-6.92 -6.68 -7.04 -6.64 c0 0 -4.28 1.08 -1.28 9.6 c3 8.56 7.08 6.52 7.08 6.52 z M127.51200000000003 28.880000000000003 c-0.08 -2.96 -0.8 -5.84 -3.56 -5.84 c-2.48 0 -4.12 2.76 -4.12 7.6 c0 2.64 0.04 6 0.04 9.36 c-2.28 0.24 -3.2 -0.32 -4.72 0 c0.2 -6.32 0.28 -11.2 -0.04 -17.92 l1.04 -0.84 c-0.04 4.36 2.84 6.04 2.84 6.04 c1.04 -3.48 3.2 -6.6 6.44 -6.6 c4.2 0 6.76 2.92 6.76 8.6 c0 3.36 0.08 6.96 0.08 10.72 c-2.24 0.28 -2.92 -0.28 -4.72 0 c0.12 -3.96 0.08 -7.88 -0.04 -11.12 z M135.68400000000003 21.24 c1.56 0.16 2.68 -0.36 4.68 0 c-0.12 6.24 -0.12 12.48 0 18.76 c-2.24 0.2 -3.08 -0.24 -4.68 0 c0.12 -6.28 0.12 -12.52 0 -18.76 z M136.00400000000002 14.079999999999998 c3 -1 3.28 0.72 4.08 0 l0 3.32 c-2.68 0.68 -3.4 -0.56 -4.08 0 l0 -3.32 z M143.45600000000005 36.12 c0 -4.2 4.88 -7.12 12.04 -7.56 c0 -3.24 -0.24 -6.6 -3.44 -6.6 c-2.08 0 -3.44 1.36 -3.44 3.08 c0 0.84 0 2.32 0.92 2.4 l-0.52 0.28 c-2.88 -0.2 -2.88 -2.16 -5.12 -1.84 c0.68 -2.84 3.48 -5.2 8.28 -5.2 c4.84 0 7.72 2.36 7.72 7.88 l0 11.44 l-1.72 0 c-0.24 -5.84 -2 -7.2 -2 -7.2 c-0.64 2.44 -2.64 7.76 -7.56 7.76 c-3 0 -5.16 -1.64 -5.16 -4.44 z M155.45600000000002 29.92 c-4.84 0.44 -7.28 2.72 -7.28 5.36 c0 1.8 1.12 2.68 2.44 2.68 c2.72 0 4.6 -3.64 4.84 -8.04 z M191.28000000000003 17.96 c-2.16 -0.48 -5.76 -1.4 -8.36 -1.36 c-0.48 8.72 -0.52 14.52 0 23.4 c-1.6 0.32 -2.92 -0.56 -4.84 0 c0.4 -8.88 0.48 -14.68 0 -23.4 c-2.36 -0.04 -6.2 0.88 -8.36 1.36 c0.64 -1.36 0 -2.48 0.36 -3.68 c4 0.2 8 0.68 10.4 0.68 c2.28 0 6.36 -0.44 10.44 -0.68 c0.36 1.2 -0.24 2.44 0.36 3.68 z M199.17200000000003 20.68 c5.6 0 9.32 4.12 9.32 9.8 c0 5.92 -3.72 10.08 -9.28 10.08 c-5.6 0 -9.32 -4.16 -9.32 -10.08 c0 -5.68 3.72 -9.8 9.28 -9.8 z M202.09200000000004 38.68 c0 0 4.04 -0.88 1.24 -9.48 s-6.92 -6.68 -7.04 -6.64 c0 0 -4.28 1.08 -1.28 9.6 c3 8.56 7.08 6.52 7.08 6.52 z M218.58400000000006 39.92 c-1.2 -0.24 -1.32 0.08 -3.44 0 c-1.68 -5.6 -4.4 -13.36 -6.48 -18.68 c3.12 -0.44 3.32 0.8 5.16 0 c1.24 5.76 2.36 9.52 4.28 14.68 c1.48 -4.72 2.56 -8.72 3.4 -11.88 c-0.24 -1 -0.64 -2 -1 -2.8 c2.48 -0.36 3.28 0.56 5 0 c1.04 5.12 1.96 8.92 3.96 14.68 c1.64 -6.04 2.88 -11.12 3.64 -14.68 c1.48 -0.12 1.8 0.44 3.28 0 c-2.48 6.04 -4.56 12.28 -6.28 18.68 c-1.84 0.08 -1.92 -0.32 -3.28 0 c-1.2 -4 -2.16 -7.8 -3.88 -11.56 c-1.56 3.92 -3.16 8.16 -4.36 11.56 z M237.71600000000007 21.24 c1.56 0.16 2.68 -0.36 4.68 0 c-0.12 6.24 -0.12 12.48 0 18.76 c-2.24 0.2 -3.08 -0.24 -4.68 0 c0.12 -6.28 0.12 -12.52 0 -18.76 z M238.03600000000006 14.079999999999998 c3 -1 3.28 0.72 4.08 0 l0 3.32 c-2.68 0.68 -3.4 -0.56 -4.08 0 l0 -3.32 z M258.5280000000001 28.880000000000003 c-0.08 -2.96 -0.8 -5.84 -3.56 -5.84 c-2.48 0 -4.12 2.76 -4.12 7.6 c0 2.64 0.04 6 0.04 9.36 c-2.28 0.24 -3.2 -0.32 -4.72 0 c0.2 -6.32 0.28 -11.2 -0.04 -17.92 l1.04 -0.84 c-0.04 4.36 2.84 6.04 2.84 6.04 c1.04 -3.48 3.2 -6.6 6.44 -6.6 c4.2 0 6.76 2.92 6.76 8.6 c0 3.36 0.08 6.96 0.08 10.72 c-2.24 0.28 -2.92 -0.28 -4.72 0 c0.12 -3.96 0.08 -7.88 -0.04 -11.12 z M266.22 30.4 c0 -5.64 3.52 -9.72 9.4 -9.72 c3.56 0 7.16 1.48 7.88 5.92 l-3.92 0.56 l-0.48 -0.2 c0.4 -0.12 0.4 -1.48 0.4 -2.08 c0 -2.2 -1.76 -2.96 -3.64 -2.96 c-3.68 0 -5.4 3.08 -5.4 8.48 c0 5.6 1.84 8.92 5.96 8.92 c2.12 0 3.64 -1.8 3.72 -4.28 c0.08 -2.68 -1.24 -4.8 -2.6 -4.12 l0.12 -0.44 l4.36 0 c1.16 0.72 1.84 2.16 1.84 3.44 c0 4.52 -4.48 6.64 -7.96 6.64 c-5.76 0 -9.68 -4.24 -9.68 -10.16 z"></path>
	</g>
	<g id="SvgjsG1301" featurekey="sloganFeature-0"
		transform="matrix(1.801085393991917,0,0,1.801085393991917,89.5231109559865,116.60974923745057)"
		fill="#fff">
		<path
			d="M9.82 19.94 c-3.3 0.04 -8.18 0.08 -8.72 0.06 c-0.02 -0.58 -0.28 -0.68 -0.28 -1.4 c3.82 -2.22 6.3 -4.14 6.3 -7.86 c0 -2.08 -0.74 -2.96 -2.1 -2.96 c-1.02 0 -1.88 0.52 -1.88 1.98 c0 0.9 0.2 2.16 0.78 1.7 l-0.24 0.46 l-2.52 0 c-0.24 -0.5 -0.3 -1.08 -0.28 -1.56 c0.06 -2.06 1.6 -3.32 4.32 -3.32 c2.86 0 4.58 1.36 4.58 3.58 c0 3.44 -4.1 6.44 -7.84 8.08 c2.32 -0.24 7.58 -0.8 8.14 -0.94 c-0.42 1.12 0.18 1.24 -0.26 2.18 z M10.446 16.36 c2.78 -2.48 5.28 -5.6 7.38 -9.2 c0.6 0.26 0.7 -0.2 1.66 0 c-0.08 3.04 -0.1 6.14 -0.06 9.22 l1.74 0 c0.12 0.66 -0.14 0.9 0 1.4 l-1.72 -0.16 c0 0.76 0.02 1.64 0.04 2.38 c-1.12 0.14 -1.64 -0.16 -2.44 0 l0.06 -2.36 c-2.14 0.04 -4.02 0.12 -6.66 0.14 l0 -1.42 z M17.086 10.44 c-1.52 2.28 -3.28 4.44 -5.02 5.92 c1.82 0.02 3.4 0.02 5.04 0.02 c0.02 -2 0.02 -4.12 -0.02 -5.94 z M28.392000000000003 6.92 c0 0 -2.98 7.08 -5.06 13.04 l-2.02 0 s2.96 -6.52 5.04 -13.04 l2.04 0 z M36.978 7.24 c0.8 0.76 0.26 1.24 0.36 2 c0 0 -2.88 5.1 -4.16 10.76 c-1.34 0.44 -1.46 -0.4 -2.48 0 c0 0 3.1 -7 5.92 -11.2 c0 0 -5.1 0.24 -7.68 0.72 c-0.08 -1.4 0.38 -1.44 0.34 -2.28 l7.7 0 z M42.35 11.48 c-0.3 0 -0.8 0.04 -1.14 0.04 c-0.08 -0.36 0.1 -0.58 0 -0.84 c0.4 0 0.78 0.04 1.14 0.04 l-0.02 -1.92 c0.92 0.14 0.84 -0.72 2.26 -0.72 c-0.12 1 -0.1 1.64 -0.12 2.64 l2.38 -0.04 c-0.04 0.24 0.04 0.5 0 0.84 l-2.38 -0.04 c-0.02 2.42 0.04 4.7 0.08 5.9 c0.04 1.26 0.22 1.98 0.8 1.98 c0.4 0 0.76 -0.42 0.76 -0.9 c0 -0.14 0 -0.28 -0.16 -0.44 c0.36 0.14 0.7 -0.1 1.04 0.16 c0 1.42 -0.82 2.1 -2.2 2.1 c-1.68 0 -2.56 -0.88 -2.56 -2.9 c0 -1.78 0.22 -3.62 0.12 -5.9 z M51.995999999999995 10.34 c2.8 0 4.66 2.06 4.66 4.9 c0 2.96 -1.86 5.04 -4.64 5.04 c-2.8 0 -4.66 -2.08 -4.66 -5.04 c0 -2.84 1.86 -4.9 4.64 -4.9 z M53.455999999999996 19.34 c0 0 2.02 -0.44 0.62 -4.74 s-3.46 -3.34 -3.52 -3.32 c0 0 -2.14 0.54 -0.64 4.8 c1.5 4.28 3.54 3.26 3.54 3.26 z M61.702 19.96 c-0.6 -0.12 -0.66 0.04 -1.72 0 c-0.84 -2.8 -2.2 -6.68 -3.24 -9.34 c1.56 -0.22 1.66 0.4 2.58 0 c0.62 2.88 1.18 4.76 2.14 7.34 c0.74 -2.36 1.28 -4.36 1.7 -5.94 c-0.12 -0.5 -0.32 -1 -0.5 -1.4 c1.24 -0.18 1.64 0.28 2.5 0 c0.52 2.56 0.98 4.46 1.98 7.34 c0.82 -3.02 1.44 -5.56 1.82 -7.34 c0.74 -0.06 0.9 0.22 1.64 0 c-1.24 3.02 -2.28 6.14 -3.14 9.34 c-0.92 0.04 -0.96 -0.16 -1.64 0 c-0.6 -2 -1.08 -3.9 -1.94 -5.78 c-0.78 1.96 -1.58 4.08 -2.18 5.78 z M71.268 10.62 c0.78 0.08 1.34 -0.18 2.34 0 c-0.06 3.12 -0.06 6.24 0 9.38 c-1.12 0.1 -1.54 -0.12 -2.34 0 c0.06 -3.14 0.06 -6.26 0 -9.38 z M71.428 7.039999999999999 c1.5 -0.5 1.64 0.36 2.04 0 l0 1.66 c-1.34 0.34 -1.7 -0.28 -2.04 0 l0 -1.66 z M81.674 14.440000000000001 c-0.04 -1.48 -0.4 -2.92 -1.78 -2.92 c-1.24 0 -2.06 1.38 -2.06 3.8 c0 1.32 0.02 3 0.02 4.68 c-1.14 0.12 -1.6 -0.16 -2.36 0 c0.1 -3.16 0.14 -5.6 -0.02 -8.96 l0.52 -0.42 c-0.02 2.18 1.42 3.02 1.42 3.02 c0.52 -1.74 1.6 -3.3 3.22 -3.3 c2.1 0 3.38 1.46 3.38 4.3 c0 1.68 0.04 3.48 0.04 5.36 c-1.12 0.14 -1.46 -0.14 -2.36 0 c0.06 -1.98 0.04 -3.94 -0.02 -5.56 z M85.52000000000001 15.2 c0 -2.82 1.76 -4.86 4.7 -4.86 c1.78 0 3.58 0.74 3.94 2.96 l-1.96 0.28 l-0.24 -0.1 c0.2 -0.06 0.2 -0.74 0.2 -1.04 c0 -1.1 -0.88 -1.48 -1.82 -1.48 c-1.84 0 -2.7 1.54 -2.7 4.24 c0 2.8 0.92 4.46 2.98 4.46 c1.06 0 1.82 -0.9 1.86 -2.14 c0.04 -1.34 -0.62 -2.4 -1.3 -2.06 l0.06 -0.22 l2.18 0 c0.58 0.36 0.92 1.08 0.92 1.72 c0 2.26 -2.24 3.32 -3.98 3.32 c-2.88 0 -4.84 -2.12 -4.84 -5.08 z"></path>
	</g>
</svg>