<svg xmlns="http://www.w3.org/2000/svg" viewBox="0 0 350 124.03759682587605" preserveAspectRatio="xMidYMid meet" class="css-8aabad"
	id="bafcaebh">
	<defs id="SvgjsDefs1255"></defs>
	<g id="SvgjsG1256" featurekey="nameFeature-0"
		transform="matrix(0.3921471279346496,0,0,0.3921471279346496,-0.6309222693283968,-4.454790864723944)"
		fill="#111">
		<path
			d="M37.24 38.64 c0.32 0.04 0.08 1.36 -0.2 1.36 l-10.44 0 c-0.28 0 -0.48 -1.32 -0.24 -1.36 c1.68 -0.28 2.92 -1.08 2.8 -3.6 l-0.76 -13.44 l-6.48 13.2 c-0.84 1.72 -1.48 3.48 -1.6 4.12 c-0.08 0.48 -0.92 0.72 -1.56 0.72 c-0.6 0 -1 -0.24 -1.24 -0.72 l-9.24 -17.52 l-0.6 13.64 c-0.12 2.8 1.52 3.44 2.8 3.6 c0.32 0.04 0.08 1.36 -0.2 1.36 l-8.28 0 c-0.32 0 -0.56 -1.32 -0.24 -1.36 c1.72 -0.2 3.16 -0.8 3.32 -3.6 l1.28 -22.96 c0.04 -0.68 1.56 -0.72 1.96 0 l11.6 21.68 l10.76 -21.68 c0.36 -0.72 1.96 -0.68 2 0 l1.28 22.96 c0.16 2.8 1.6 3.4 3.28 3.6 z M53.69 40.64 c-8.32 0 -14.44 -6.16 -14.44 -14.48 c0 -8.08 5.76 -14.8 14.52 -14.8 c8.36 0 14.44 6.12 14.44 14.44 c0 8.12 -5.72 14.84 -14.52 14.84 z M55.25 37.92 c3.52 0 8.2 -2.32 8.2 -9.88 c0 -8.08 -5.48 -13.96 -11.24 -13.96 c-3.52 0 -8.16 2.32 -8.16 9.84 c0 8.16 5.48 14 11.2 14 z M81.66 38.64 c0.32 0.04 0.08 1.36 -0.24 1.36 l-10.96 0 c-0.32 0 -0.56 -1.32 -0.24 -1.36 c2.04 -0.28 3.32 -1.08 3.32 -3.6 l0 -18.08 c0 -2.52 -1.28 -3.32 -3.32 -3.6 c-0.32 -0.04 -0.08 -1.36 0.24 -1.36 l10.96 0 c0.32 0 0.56 1.32 0.24 1.36 c-1.72 0.24 -3.32 0.8 -3.32 3.6 l0 18.08 c0 2.8 1.6 3.36 3.32 3.6 z M98.66 39 c0.32 0 0.24 1.08 0 1.16 c-2.52 0.84 -6.08 0.56 -8.52 -2.08 l-11.32 -12.24 l9.04 -9.28 c1.92 -1.96 1.8 -2.84 -0.32 -3.2 c-0.48 -0.08 -0.28 -1.36 0.04 -1.36 l9.2 0 c0.32 0 0.56 1.32 0.16 1.36 c-1.76 0.24 -3.84 1.04 -6.36 3.64 l-7.08 7.28 l10.32 11.08 c2.6 2.76 4 3.64 4.84 3.64 z M100.11 40.08 c-0.4 0.04 -0.56 -1.36 -0.24 -1.44 c2.32 -0.6 4.12 -0.96 4.12 -3.92 l0 -17.76 c0 -2.56 -1.64 -3.24 -3.36 -3.68 c-0.32 -0.08 -0.12 -1.4 0.2 -1.36 c2.92 0.32 7.96 0.24 10.4 0.24 c3.64 0 6.28 -0.16 9.56 -0.24 c0.96 0 0.96 0.64 0.76 1.56 l-0.96 3.8 c-0.12 0.56 -1.12 0.56 -1.28 0 c-0.6 -1.96 -1.8 -3.08 -6.8 -3.08 c-2.8 0 -3.72 0.72 -3.72 2.8 l0 6.52 c0 1.04 0.52 1.24 1.32 1.24 l0.88 0 c3.24 0 6.04 -0.32 7.68 -1.8 c0.4 -0.36 1.28 -0.28 0.92 0.52 l-2.28 5.04 c-0.32 0.72 -0.92 0.64 -1.36 0.04 c-0.92 -1.28 -2.96 -1.8 -5.28 -1.8 l-0.56 0 c-0.8 0 -1.32 0.2 -1.32 1.24 l0 6.72 c0 2.28 0.96 3.12 4.28 3.12 c6.04 0 8.44 -2.76 9.4 -4.28 c0.28 -0.44 1.36 -0.24 1.36 0.44 c0 2.04 -1.72 6.08 -4.24 6.08 c-2.24 -0.12 -4.44 -0.24 -7.8 -0.24 c-3.68 0 -8.04 -0.12 -11.68 0.24 z M151.6 40.4 c-0.68 0 -1.04 -0.28 -1.48 -0.76 l-19.04 -19.92 l0 15.2 c0 2.72 1.6 3.16 3.88 3.72 c0.32 0.08 0.16 1.36 -0.24 1.36 l-9.48 0 c-0.32 0 -0.56 -1.24 -0.2 -1.36 c1.68 -0.56 3.28 -0.88 3.28 -3.72 l0 -15.52 c0 -2.84 -0.44 -4.2 -1.48 -5.6 c-0.36 -0.48 -0.72 -0.8 -0.72 -0.92 c0 -0.36 0.24 -0.88 0.8 -0.88 l2.96 0 c0.4 0 0.68 0.04 0.96 0.36 l18.64 19.72 l0 -15.04 c0 -2.84 -1.8 -3.16 -3.88 -3.68 c-0.32 -0.08 -0.16 -1.36 0.24 -1.36 l9.48 0 c0.32 0 0.52 1.28 0.2 1.36 c-1.76 0.52 -3.28 0.84 -3.28 3.68 l0 15.56 c0 2.64 0.08 5.56 0.48 7.04 c0.16 0.6 -0.48 0.76 -1.12 0.76 z M186.20999999999998 38.64 c0.56 0.08 0.4 1.36 -0.08 1.36 l-10.56 0 c-0.52 0 -0.56 -1.28 -0.12 -1.36 c1.48 -0.28 3.08 -0.8 1.6 -4.24 l-0.44 -1 c-0.4 -0.96 -1.08 -1.04 -2.28 -1.04 l-8.16 0 c-1.2 0 -1.88 0.08 -2.28 1.04 l-0.4 1 c-1.4 3.44 0.12 3.96 2.04 4.24 c0.52 0.08 0.4 1.36 -0.12 1.36 l-8.64 0 c-0.48 0 -0.6 -1.28 -0.12 -1.36 c1.64 -0.28 2.6 -0.84 4.08 -4.24 l6.76 -15.52 c1.56 -3.52 2.04 -5.16 2.04 -6.68 c0 -0.24 2.8 -0.88 2.92 -0.6 l9.76 22.76 c1.44 3.4 2.4 4.04 4 4.28 z M174.04999999999998 30.119999999999997 c0.56 0 1.16 -0.08 0.92 -0.64 l-4.68 -11.2 l-4.72 11.2 c-0.24 0.56 0.36 0.64 0.92 0.64 l7.56 0 z M228.70999999999998 38.64 c0.32 0.04 0.08 1.36 -0.2 1.36 l-10.44 0 c-0.28 0 -0.48 -1.32 -0.24 -1.36 c1.68 -0.28 2.92 -1.08 2.8 -3.6 l-0.76 -13.44 l-6.48 13.2 c-0.84 1.72 -1.48 3.48 -1.6 4.12 c-0.08 0.48 -0.92 0.72 -1.56 0.72 c-0.6 0 -1 -0.24 -1.24 -0.72 l-9.24 -17.52 l-0.6 13.64 c-0.12 2.8 1.52 3.44 2.8 3.6 c0.32 0.04 0.08 1.36 -0.2 1.36 l-8.28 0 c-0.32 0 -0.56 -1.32 -0.24 -1.36 c1.72 -0.2 3.16 -0.8 3.32 -3.6 l1.28 -22.96 c0.04 -0.68 1.56 -0.72 1.96 0 l11.6 21.68 l10.76 -21.68 c0.36 -0.72 1.96 -0.68 2 0 l1.28 22.96 c0.16 2.8 1.6 3.4 3.28 3.6 z M245.15999999999997 40.64 c-8.32 0 -14.44 -6.16 -14.44 -14.48 c0 -8.08 5.76 -14.8 14.52 -14.8 c8.36 0 14.44 6.12 14.44 14.44 c0 8.12 -5.72 14.84 -14.52 14.84 z M246.71999999999997 37.92 c3.52 0 8.2 -2.32 8.2 -9.88 c0 -8.08 -5.48 -13.96 -11.24 -13.96 c-3.52 0 -8.16 2.32 -8.16 9.84 c0 8.16 5.48 14 11.2 14 z M278.61 24.759999999999998 c3.72 0 7.32 2.68 7.32 7.16 c0 4.96 -4.52 8.16 -11.2 8.16 c-1.92 0 -4.16 -0.24 -7.12 -0.24 c-2.52 0 -4.44 0.04 -6.28 0.24 c-0.36 0.04 -0.56 -1.36 -0.24 -1.44 c2.32 -0.6 4.12 -0.96 4.12 -3.92 l0 -17.76 c0 -2.56 -1.64 -3.24 -3.36 -3.68 c-0.32 -0.08 -0.12 -1.4 0.2 -1.36 c1.64 0.2 3.56 0.24 4.84 0.24 c3.2 0 5.56 -0.24 7.32 -0.24 c5.16 0 9.4 2.16 9.44 6.56 c0.04 3.24 -2.24 5.48 -5.04 6.04 l0 0.24 z M272.85 14 c-2.12 0 -2.84 0.72 -2.84 2.96 l0 7.12 l4.12 0 c2.88 0 4.56 -1.44 4.56 -4.52 c0 -3.8 -2.56 -5.56 -5.84 -5.56 z M274.61 38 c3.52 0 6.16 -1.04 6.16 -5.2 c0 -4.4 -2.92 -6.72 -6.64 -6.72 l-4.12 0 l0 8.64 c0 2.2 1.12 3.28 4.6 3.28 z M288.18 40 c-0.32 0 -0.56 -1.32 -0.24 -1.36 c2.04 -0.28 3.32 -1.08 3.32 -3.6 l0 -18.08 c0 -2.52 -1.28 -3.32 -3.32 -3.6 c-0.32 -0.04 -0.08 -1.36 0.24 -1.36 l10.96 0 c0.32 0 0.56 1.32 0.24 1.36 c-1.72 0.24 -3.32 0.8 -3.32 3.6 l0 18.08 c0 2.8 1.6 3.36 3.32 3.6 c0.32 0.04 0.08 1.36 -0.24 1.36 l-10.96 0 z M300.59 40.08 c-0.4 0.04 -0.56 -1.36 -0.24 -1.44 c2.32 -0.6 4.12 -0.96 4.12 -3.92 l0 -17.76 c0 -2.8 -1.64 -3.36 -3.36 -3.6 c-0.32 -0.04 -0.08 -1.36 0.2 -1.36 l11.04 0 c0.28 0 0.48 1.32 0.2 1.36 c-1.68 0.2 -3.28 0.8 -3.28 3.6 l0 17.76 c0 2.28 0.96 3.12 4.28 3.12 c6.04 0 8.44 -2.76 9.4 -4.28 c0.28 -0.44 1.36 -0.24 1.36 0.44 c0 2.04 -1.72 6.08 -4.24 6.08 c-2.24 -0.12 -4.44 -0.24 -7.8 -0.24 c-3.68 0 -8.04 -0.12 -11.68 0.24 z M324.96 40.08 c-0.4 0.04 -0.56 -1.36 -0.24 -1.44 c2.32 -0.6 4.12 -0.96 4.12 -3.92 l0 -17.76 c0 -2.56 -1.64 -3.24 -3.36 -3.68 c-0.32 -0.08 -0.12 -1.4 0.2 -1.36 c2.92 0.32 7.96 0.24 10.4 0.24 c3.64 0 6.28 -0.16 9.56 -0.24 c0.96 0 0.96 0.64 0.76 1.56 l-0.96 3.8 c-0.12 0.56 -1.12 0.56 -1.28 0 c-0.6 -1.96 -1.8 -3.08 -6.8 -3.08 c-2.8 0 -3.72 0.72 -3.72 2.8 l0 6.52 c0 1.04 0.52 1.24 1.32 1.24 l0.88 0 c3.24 0 6.04 -0.32 7.68 -1.8 c0.4 -0.36 1.28 -0.28 0.92 0.52 l-2.28 5.04 c-0.32 0.72 -0.92 0.64 -1.36 0.04 c-0.92 -1.28 -2.96 -1.8 -5.28 -1.8 l-0.56 0 c-0.8 0 -1.32 0.2 -1.32 1.24 l0 6.72 c0 2.28 0.96 3.12 4.28 3.12 c6.04 0 8.44 -2.76 9.4 -4.28 c0.28 -0.44 1.36 -0.24 1.36 0.44 c0 2.04 -1.72 6.08 -4.24 6.08 c-2.24 -0.12 -4.44 -0.24 -7.8 -0.24 c-3.68 0 -8.04 -0.12 -11.68 0.24 z M370.82 40.64 c-8.32 0 -14.44 -6.16 -14.44 -14.48 c0 -8.08 5.76 -14.8 14.52 -14.8 c8.36 0 14.44 6.12 14.44 14.44 c0 8.12 -5.72 14.84 -14.52 14.84 z M372.38 37.92 c3.52 0 8.2 -2.32 8.2 -9.88 c0 -8.08 -5.48 -13.96 -11.24 -13.96 c-3.52 0 -8.16 2.32 -8.16 9.84 c0 8.16 5.48 14 11.2 14 z M413.71000000000004 40.4 c-0.68 0 -1.04 -0.28 -1.48 -0.76 l-19.04 -19.92 l0 15.2 c0 2.72 1.6 3.16 3.88 3.72 c0.32 0.08 0.16 1.36 -0.24 1.36 l-9.48 0 c-0.32 0 -0.56 -1.24 -0.2 -1.36 c1.68 -0.56 3.28 -0.88 3.28 -3.72 l0 -15.52 c0 -2.84 -0.44 -4.2 -1.48 -5.6 c-0.36 -0.48 -0.72 -0.8 -0.72 -0.92 c0 -0.36 0.24 -0.88 0.8 -0.88 l2.96 0 c0.4 0 0.68 0.04 0.96 0.36 l18.64 19.72 l0 -15.04 c0 -2.84 -1.8 -3.16 -3.88 -3.68 c-0.32 -0.08 -0.16 -1.36 0.24 -1.36 l9.48 0 c0.32 0 0.52 1.28 0.2 1.36 c-1.76 0.52 -3.28 0.84 -3.28 3.68 l0 15.56 c0 2.64 0.08 5.56 0.48 7.04 c0.16 0.6 -0.48 0.76 -1.12 0.76 z M420.72 31.68 c-0.72 0.12 -0.96 -2.4 -0.24 -2.52 l11.28 -1.84 c0.72 -0.12 0.96 2.4 0.24 2.52 z M443.33000000000004 40.64 c-3.28 0 -8.28 -1.44 -7.8 -3.2 l0.4 -1.48 c1.12 -4.2 2.44 1.96 9.04 1.96 c3.36 0 5 -1.64 5 -3.96 c0 -1.88 -1.2 -2.68 -4.04 -4.44 l-3.88 -2.44 c-4.32 -2.72 -6.08 -4.4 -6.08 -7.4 c0 -4.92 4.8 -8.32 9.76 -8.32 c3.04 0 6.92 1.32 6.48 2.68 l-0.48 1.52 c-1.24 3.88 -2.24 -1.48 -7.72 -1.48 c-2.84 0 -4.32 1.44 -4.32 3.56 c0 1.8 1.08 2.8 3.76 4.44 l4.2 2.6 c4.24 2.64 5.96 4.44 5.96 7.32 c0 5 -4.92 8.64 -10.28 8.64 z M455.66 40 c-0.32 0 -0.56 -1.32 -0.24 -1.36 c2.04 -0.28 3.32 -1.08 3.32 -3.6 l0 -18.08 c0 -2.52 -1.28 -3.32 -3.32 -3.6 c-0.32 -0.04 -0.08 -1.36 0.24 -1.36 l10.96 0 c0.32 0 0.56 1.32 0.24 1.36 c-1.72 0.24 -3.32 0.8 -3.32 3.6 l0 18.08 c0 2.8 1.6 3.36 3.32 3.6 c0.32 0.04 0.08 1.36 -0.24 1.36 l-10.96 0 z M474.23 40 c-0.36 0 -0.6 -1.28 -0.28 -1.32 c2.76 -0.36 4.6 -0.92 4.6 -3.08 l0 -19.72 c0 -1 -0.36 -1.32 -1.32 -1.32 l-1.08 0 c-3.8 0 -5.92 0.88 -6.72 2.6 c-0.36 0.8 -1.72 0.68 -1.56 0 c0.36 -1.44 0.68 -2.68 0.92 -4.8 c0.08 -0.76 0.52 -0.72 1.24 -0.64 c1.84 0.2 3.52 0.28 11.12 0.28 s10.28 -0.08 12.2 -0.28 c0.72 -0.08 1.4 -0.12 1.16 0.64 c-0.6 1.88 -1 3.36 -1.24 4.8 c-0.12 0.68 -1.2 0.72 -1.36 0 c-0.4 -1.68 -2.16 -2.6 -5.6 -2.6 l-1.24 0 c-0.96 0 -1.56 0.32 -1.56 1.32 l0 19.72 c0 2.16 1.84 2.72 4.6 3.08 c0.32 0.04 0.08 1.32 -0.28 1.32 l-13.6 0 z M495.2 40.08 c-0.4 0.04 -0.56 -1.36 -0.24 -1.44 c2.32 -0.6 4.12 -0.96 4.12 -3.92 l0 -17.76 c0 -2.56 -1.64 -3.24 -3.36 -3.68 c-0.32 -0.08 -0.12 -1.4 0.2 -1.36 c2.92 0.32 7.96 0.24 10.4 0.24 c3.64 0 6.28 -0.16 9.56 -0.24 c0.96 0 0.96 0.64 0.76 1.56 l-0.96 3.8 c-0.12 0.56 -1.12 0.56 -1.28 0 c-0.6 -1.96 -1.8 -3.08 -6.8 -3.08 c-2.8 0 -3.72 0.72 -3.72 2.8 l0 6.52 c0 1.04 0.52 1.24 1.32 1.24 l0.88 0 c3.24 0 6.04 -0.32 7.68 -1.8 c0.4 -0.36 1.28 -0.28 0.92 0.52 l-2.28 5.04 c-0.32 0.72 -0.92 0.64 -1.36 0.04 c-0.92 -1.28 -2.96 -1.8 -5.28 -1.8 l-0.56 0 c-0.8 0 -1.32 0.2 -1.32 1.24 l0 6.72 c0 2.28 0.96 3.12 4.28 3.12 c6.04 0 8.44 -2.76 9.4 -4.28 c0.28 -0.44 1.36 -0.24 1.36 0.44 c0 2.04 -1.72 6.08 -4.24 6.08 c-2.24 -0.12 -4.44 -0.24 -7.8 -0.24 c-3.68 0 -8.04 -0.12 -11.68 0.24 z M531.98 40 c-0.36 0 -0.6 -1.28 -0.28 -1.32 c2.76 -0.36 4.6 -0.92 4.6 -3.08 l0 -19.72 c0 -1 -0.36 -1.32 -1.32 -1.32 l-1.08 0 c-3.8 0 -5.92 0.88 -6.72 2.6 c-0.36 0.8 -1.72 0.68 -1.56 0 c0.36 -1.44 0.68 -2.68 0.92 -4.8 c0.08 -0.76 0.52 -0.72 1.24 -0.64 c1.84 0.2 3.52 0.28 11.12 0.28 s10.28 -0.08 12.2 -0.28 c0.72 -0.08 1.4 -0.12 1.16 0.64 c-0.6 1.88 -1 3.36 -1.24 4.8 c-0.12 0.68 -1.2 0.72 -1.36 0 c-0.4 -1.68 -2.16 -2.6 -5.6 -2.6 l-1.24 0 c-0.96 0 -1.56 0.32 -1.56 1.32 l0 19.72 c0 2.16 1.84 2.72 4.6 3.08 c0.32 0.04 0.08 1.32 -0.28 1.32 l-13.6 0 z M582.5500000000001 39 c0.32 0 0.24 1.08 0 1.16 c-2.52 0.84 -6 0.72 -8.4 -2.36 l-6.16 -7.92 c-1.72 -2.24 -3.76 -2.56 -6.56 -2.6 l0 7.76 c0 2.8 1.92 3.28 4.48 3.6 c0.28 0.04 0.08 1.36 -0.24 1.36 l-12.12 0 c-0.32 0 -0.56 -1.32 -0.24 -1.36 c2.04 -0.28 3.32 -1.08 3.32 -3.6 l0 -17.84 c0 -2.64 -1.4 -3.4 -3.32 -3.92 c-0.32 -0.08 -0.12 -1.4 0.24 -1.36 c1.56 0.2 3.32 0.24 4.6 0.24 c2.96 0 5.72 -0.24 7.64 -0.24 c6.04 0 10.08 2.48 10.08 7.4 c0 4.64 -3.76 6.92 -7.12 7.12 l0 0.2 c1.6 0 2.76 0.68 4.52 2.88 l5.96 7.48 c1.24 1.56 2.44 2 3.32 2 z M562.59 25.439999999999998 c5.96 0 8.24 -1.04 8.24 -5.04 c0 -4.28 -2.72 -6.4 -6.28 -6.4 c-2.36 0 -3.12 0.96 -3.12 3.2 l0 8.24 l1.16 0 z M598.1600000000001 40.64 c-5.64 0 -11.96 -3 -11.96 -11.12 l0 -12.56 c0 -2.52 -1.28 -3.36 -3.24 -3.6 c-0.32 -0.04 -0.08 -1.36 0.24 -1.36 l10.92 0 c0.32 0 0.56 1.32 0.24 1.36 c-1.6 0.2 -3.2 0.8 -3.2 3.6 l0 12.76 c0 5.6 3.24 8.2 7.48 8.2 c4.36 0 7.84 -2.6 7.84 -8.2 l0 -12.76 c0 -2.6 -1.48 -3.32 -3.44 -3.6 c-0.28 -0.04 -0.08 -1.36 0.24 -1.36 l9 0 c0.28 0 0.52 1.32 0.2 1.36 c-1.6 0.2 -3.2 0.8 -3.2 3.6 l0 12.52 c0 7.36 -4.76 11.16 -11.12 11.16 z M630.0900000000001 40.64 c-6.72 0 -15.8 -3.92 -15.8 -14.12 c0 -6.92 4.24 -15.16 15.44 -15.16 c4.64 0 8.64 1.44 8.16 2.84 l-0.52 1.56 c-1.44 4.28 -3 -1.2 -10.12 -1.2 c-5.72 0 -8.52 3.72 -8.52 9.48 c0 9 6.84 12.76 12.32 12.76 c0.72 0 4.36 -0.56 6.44 -1.88 c0.32 -0.2 1.16 0.72 0.92 1.08 c-1.72 2.52 -7.08 4.64 -8.32 4.64 z M651.7000000000002 38.64 c0.32 0.04 0.08 1.36 -0.24 1.36 l-10.96 0 c-0.32 0 -0.56 -1.32 -0.24 -1.36 c2.04 -0.28 3.32 -1.08 3.32 -3.6 l0 -18.08 c0 -2.52 -1.28 -3.32 -3.32 -3.6 c-0.32 -0.04 -0.08 -1.36 0.24 -1.36 l10.96 0 c0.32 0 0.56 1.32 0.24 1.36 c-1.72 0.24 -3.32 0.8 -3.32 3.6 l0 18.08 c0 2.8 1.6 3.36 3.32 3.6 z M668.7000000000002 39 c0.32 0 0.24 1.08 0 1.16 c-2.52 0.84 -6.08 0.56 -8.52 -2.08 l-11.32 -12.24 l9.04 -9.28 c1.92 -1.96 1.8 -2.84 -0.32 -3.2 c-0.48 -0.08 -0.28 -1.36 0.04 -1.36 l9.2 0 c0.32 0 0.56 1.32 0.16 1.36 c-1.76 0.24 -3.84 1.04 -6.36 3.64 l-7.08 7.28 l10.32 11.08 c2.6 2.76 4 3.64 4.84 3.64 z M707.2000000000002 37.52 c0.4 0 0.6 0.24 0.6 0.64 c0 1.04 -1.6 1.8 -2.36 2.16 c-2.6 1.24 -7.28 -1.24 -11.84 -4.96 c-1.8 2.2 -5.56 5.28 -7.92 5.28 c-2.72 0 -9.28 -3 -9.28 -8.04 c0 -3.52 3.28 -6.64 7.76 -7.52 c-1.4 -2.16 -2.24 -4.12 -2.24 -5.56 c0 -2.52 2.44 -8.16 9.92 -8.16 c2.88 0 5.8 0.84 5 2.2 l-0.88 1.48 c-2.04 3.44 -2.52 -0.88 -6.68 -0.88 c-2.92 0 -3.32 2.12 -3.32 3.08 c0 5.56 14.16 20.76 19.04 20.76 c1.12 0 1.72 -0.48 2.2 -0.48 z M695.2400000000001 26.84 c-2.28 0 1.08 -2.72 5.52 -2.72 c2.32 0 7.04 1.16 1.48 4.36 c-0.56 0.32 -1.28 0 -1.64 -0.16 c-2.08 -0.92 -3.8 -1.48 -5.36 -1.48 z M687.0000000000001 37.72 c2.84 0 4.52 -3.08 2.6 -6.04 c-1.48 -1.52 -2.84 -3.08 -4 -4.6 c-3.68 0.44 -4.88 2 -4.88 4.2 c0 3.72 3.4 6.44 6.28 6.44 z M721.0600000000001 40 c-0.36 0 -0.6 -1.28 -0.28 -1.32 c2.76 -0.36 4.6 -0.92 4.6 -3.08 l0 -19.72 c0 -1 -0.36 -1.32 -1.32 -1.32 l-1.08 0 c-3.8 0 -5.92 0.88 -6.72 2.6 c-0.36 0.8 -1.72 0.68 -1.56 0 c0.36 -1.44 0.68 -2.68 0.92 -4.8 c0.08 -0.76 0.52 -0.72 1.24 -0.64 c1.84 0.2 3.52 0.28 11.12 0.28 s10.28 -0.08 12.2 -0.28 c0.72 -0.08 1.4 -0.12 1.16 0.64 c-0.6 1.88 -1 3.36 -1.24 4.8 c-0.12 0.68 -1.2 0.72 -1.36 0 c-0.4 -1.68 -2.16 -2.6 -5.6 -2.6 l-1.24 0 c-0.96 0 -1.56 0.32 -1.56 1.32 l0 19.72 c0 2.16 1.84 2.72 4.6 3.08 c0.32 0.04 0.08 1.32 -0.28 1.32 l-13.6 0 z M771.6300000000001 39 c0.32 0 0.24 1.08 0 1.16 c-2.52 0.84 -6 0.72 -8.4 -2.36 l-6.16 -7.92 c-1.72 -2.24 -3.76 -2.56 -6.56 -2.6 l0 7.76 c0 2.8 1.92 3.28 4.48 3.6 c0.28 0.04 0.08 1.36 -0.24 1.36 l-12.12 0 c-0.32 0 -0.56 -1.32 -0.24 -1.36 c2.04 -0.28 3.32 -1.08 3.32 -3.6 l0 -17.84 c0 -2.64 -1.4 -3.4 -3.32 -3.92 c-0.32 -0.08 -0.12 -1.4 0.24 -1.36 c1.56 0.2 3.32 0.24 4.6 0.24 c2.96 0 5.72 -0.24 7.64 -0.24 c6.04 0 10.08 2.48 10.08 7.4 c0 4.64 -3.76 6.92 -7.12 7.12 l0 0.2 c1.6 0 2.76 0.68 4.52 2.88 l5.96 7.48 c1.24 1.56 2.44 2 3.32 2 z M751.6700000000001 25.439999999999998 c5.96 0 8.24 -1.04 8.24 -5.04 c0 -4.28 -2.72 -6.4 -6.28 -6.4 c-2.36 0 -3.12 0.96 -3.12 3.2 l0 8.24 l1.16 0 z M801.3600000000001 38.64 c0.56 0.08 0.4 1.36 -0.08 1.36 l-10.56 0 c-0.52 0 -0.56 -1.28 -0.12 -1.36 c1.48 -0.28 3.08 -0.8 1.6 -4.24 l-0.44 -1 c-0.4 -0.96 -1.08 -1.04 -2.28 -1.04 l-8.16 0 c-1.2 0 -1.88 0.08 -2.28 1.04 l-0.4 1 c-1.4 3.44 0.12 3.96 2.04 4.24 c0.52 0.08 0.4 1.36 -0.12 1.36 l-8.64 0 c-0.48 0 -0.6 -1.28 -0.12 -1.36 c1.64 -0.28 2.6 -0.84 4.08 -4.24 l6.76 -15.52 c1.56 -3.52 2.04 -5.16 2.04 -6.68 c0 -0.24 2.8 -0.88 2.92 -0.6 l9.76 22.76 c1.44 3.4 2.4 4.04 4 4.28 z M789.2000000000002 30.119999999999997 c0.56 0 1.16 -0.08 0.92 -0.64 l-4.68 -11.2 l-4.72 11.2 c-0.24 0.56 0.36 0.64 0.92 0.64 l7.56 0 z M802.7700000000001 40 c-0.32 0 -0.56 -1.32 -0.24 -1.36 c2.04 -0.28 3.32 -1.08 3.32 -3.6 l0 -18.08 c0 -2.52 -1.28 -3.32 -3.32 -3.6 c-0.32 -0.04 -0.08 -1.36 0.24 -1.36 l10.96 0 c0.32 0 0.56 1.32 0.24 1.36 c-1.72 0.24 -3.32 0.8 -3.32 3.6 l0 18.08 c0 2.8 1.6 3.36 3.32 3.6 c0.32 0.04 0.08 1.36 -0.24 1.36 l-10.96 0 z M815.1800000000001 40.08 c-0.4 0.04 -0.56 -1.36 -0.24 -1.44 c2.32 -0.6 4.12 -0.96 4.12 -3.92 l0 -17.76 c0 -2.8 -1.64 -3.36 -3.36 -3.6 c-0.32 -0.04 -0.08 -1.36 0.2 -1.36 l11.04 0 c0.28 0 0.48 1.32 0.2 1.36 c-1.68 0.2 -3.28 0.8 -3.28 3.6 l0 17.76 c0 2.28 0.96 3.12 4.28 3.12 c6.04 0 8.44 -2.76 9.4 -4.28 c0.28 -0.44 1.36 -0.24 1.36 0.44 c0 2.04 -1.72 6.08 -4.24 6.08 c-2.24 -0.12 -4.44 -0.24 -7.8 -0.24 c-3.68 0 -8.04 -0.12 -11.68 0.24 z M839.5500000000001 40.08 c-0.4 0.04 -0.56 -1.36 -0.24 -1.44 c2.32 -0.6 4.12 -0.96 4.12 -3.92 l0 -17.76 c0 -2.56 -1.64 -3.24 -3.36 -3.68 c-0.32 -0.08 -0.12 -1.4 0.2 -1.36 c2.92 0.32 7.96 0.24 10.4 0.24 c3.64 0 6.28 -0.16 9.56 -0.24 c0.96 0 0.96 0.64 0.76 1.56 l-0.96 3.8 c-0.12 0.56 -1.12 0.56 -1.28 0 c-0.6 -1.96 -1.8 -3.08 -6.8 -3.08 c-2.8 0 -3.72 0.72 -3.72 2.8 l0 6.52 c0 1.04 0.52 1.24 1.32 1.24 l0.88 0 c3.24 0 6.04 -0.32 7.68 -1.8 c0.4 -0.36 1.28 -0.28 0.92 0.52 l-2.28 5.04 c-0.32 0.72 -0.92 0.64 -1.36 0.04 c-0.92 -1.28 -2.96 -1.8 -5.28 -1.8 l-0.56 0 c-0.8 0 -1.32 0.2 -1.32 1.24 l0 6.72 c0 2.28 0.96 3.12 4.28 3.12 c6.04 0 8.44 -2.76 9.4 -4.28 c0.28 -0.44 1.36 -0.24 1.36 0.44 c0 2.04 -1.72 6.08 -4.24 6.08 c-2.24 -0.12 -4.44 -0.24 -7.8 -0.24 c-3.68 0 -8.04 -0.12 -11.68 0.24 z M893.9200000000001 39 c0.32 0 0.24 1.08 0 1.16 c-2.52 0.84 -6 0.72 -8.4 -2.36 l-6.16 -7.92 c-1.72 -2.24 -3.76 -2.56 -6.56 -2.6 l0 7.76 c0 2.8 1.92 3.28 4.48 3.6 c0.28 0.04 0.08 1.36 -0.24 1.36 l-12.12 0 c-0.32 0 -0.56 -1.32 -0.24 -1.36 c2.04 -0.28 3.32 -1.08 3.32 -3.6 l0 -17.84 c0 -2.64 -1.4 -3.4 -3.32 -3.92 c-0.32 -0.08 -0.12 -1.4 0.24 -1.36 c1.56 0.2 3.32 0.24 4.6 0.24 c2.96 0 5.72 -0.24 7.64 -0.24 c6.04 0 10.08 2.48 10.08 7.4 c0 4.64 -3.76 6.92 -7.12 7.12 l0 0.2 c1.6 0 2.76 0.68 4.52 2.88 l5.96 7.48 c1.24 1.56 2.44 2 3.32 2 z M873.96 25.439999999999998 c5.96 0 8.24 -1.04 8.24 -5.04 c0 -4.28 -2.72 -6.4 -6.28 -6.4 c-2.36 0 -3.12 0.96 -3.12 3.2 l0 8.24 l1.16 0 z"></path>
	</g>
	<g id="SvgjsG1257" featurekey="nameFeature-1"
		transform="matrix(2.2878600664606115,0,0,2.2878600664606115,-3.6598116869965733,-5.380053617730596)"
		fill="#111">
		<path
			d="M31 39 c0.32 0 0.24 1.08 0 1.16 c-2.52 0.84 -6 0.72 -8.4 -2.36 l-6.16 -7.92 c-1.72 -2.24 -3.76 -2.56 -6.56 -2.6 l0 7.76 c0 2.8 1.92 3.28 4.48 3.6 c0.28 0.04 0.08 1.36 -0.24 1.36 l-12.12 0 c-0.32 0 -0.56 -1.32 -0.24 -1.36 c2.04 -0.28 3.32 -1.08 3.32 -3.6 l0 -17.84 c0 -2.64 -1.4 -3.4 -3.32 -3.92 c-0.32 -0.08 -0.12 -1.4 0.24 -1.36 c1.56 0.2 3.32 0.24 4.6 0.24 c2.96 0 5.72 -0.24 7.64 -0.24 c6.04 0 10.08 2.48 10.08 7.4 c0 4.64 -3.76 6.92 -7.12 7.12 l0 0.2 c1.6 0 2.76 0.68 4.52 2.88 l5.96 7.48 c1.24 1.56 2.44 2 3.32 2 z M11.04 25.439999999999998 c5.96 0 8.24 -1.04 8.24 -5.04 c0 -4.28 -2.72 -6.4 -6.28 -6.4 c-2.36 0 -3.12 0.96 -3.12 3.2 l0 8.24 l1.16 0 z M31.25 40.08 c-0.4 0.04 -0.56 -1.36 -0.24 -1.44 c2.32 -0.6 4.12 -0.96 4.12 -3.92 l0 -17.76 c0 -2.56 -1.64 -3.24 -3.36 -3.68 c-0.32 -0.08 -0.12 -1.4 0.2 -1.36 c2.92 0.32 7.96 0.24 10.4 0.24 c3.64 0 6.28 -0.16 9.56 -0.24 c0.96 0 0.96 0.64 0.76 1.56 l-0.96 3.8 c-0.12 0.56 -1.12 0.56 -1.28 0 c-0.6 -1.96 -1.8 -3.08 -6.8 -3.08 c-2.8 0 -3.72 0.72 -3.72 2.8 l0 6.52 c0 1.04 0.52 1.24 1.32 1.24 l0.88 0 c3.24 0 6.04 -0.32 7.68 -1.8 c0.4 -0.36 1.28 -0.28 0.92 0.52 l-2.28 5.04 c-0.32 0.72 -0.92 0.64 -1.36 0.04 c-0.92 -1.28 -2.96 -1.8 -5.28 -1.8 l-0.56 0 c-0.8 0 -1.32 0.2 -1.32 1.24 l0 6.72 c0 2.28 0.96 3.12 4.28 3.12 c6.04 0 8.44 -2.76 9.4 -4.28 c0.28 -0.44 1.36 -0.24 1.36 0.44 c0 2.04 -1.72 6.08 -4.24 6.08 c-2.24 -0.12 -4.44 -0.24 -7.8 -0.24 c-3.68 0 -8.04 -0.12 -11.68 0.24 z M80.02000000000001 20.48 c0 7.12 -6.68 10.12 -15.52 8.8 l0 5.76 c0 2.8 1.92 3.28 4.48 3.6 c0.28 0.04 0.08 1.36 -0.24 1.36 l-12.12 0 c-0.32 0 -0.56 -1.32 -0.24 -1.36 c2.04 -0.28 3.32 -1.08 3.32 -3.6 l0 -17.84 c0 -2.64 -1.4 -3.4 -3.32 -3.92 c-0.32 -0.08 -0.12 -1.4 0.24 -1.36 c1.56 0.2 3.32 0.24 4.6 0.24 c2.96 0 5.44 -0.24 7.48 -0.24 c6.2 0 11.32 2.28 11.32 8.56 z M67.7 14 c-2.52 0 -3.2 0.88 -3.2 3.2 l0 10.12 c6.8 0.96 10.36 -0.68 10.36 -5.92 c0 -4.76 -3.04 -7.4 -7.16 -7.4 z M110.95 38.64 c0.56 0.08 0.4 1.36 -0.08 1.36 l-10.56 0 c-0.52 0 -0.56 -1.28 -0.12 -1.36 c1.48 -0.28 3.08 -0.8 1.6 -4.24 l-0.44 -1 c-0.4 -0.96 -1.08 -1.04 -2.28 -1.04 l-8.16 0 c-1.2 0 -1.88 0.08 -2.28 1.04 l-0.4 1 c-1.4 3.44 0.12 3.96 2.04 4.24 c0.52 0.08 0.4 1.36 -0.12 1.36 l-8.64 0 c-0.48 0 -0.6 -1.28 -0.12 -1.36 c1.64 -0.28 2.6 -0.84 4.08 -4.24 l6.76 -15.52 c1.56 -3.52 2.04 -5.16 2.04 -6.68 c0 -0.24 2.8 -0.88 2.92 -0.6 l9.76 22.76 c1.44 3.4 2.4 4.04 4 4.28 z M98.79 30.119999999999997 c0.56 0 1.16 -0.08 0.92 -0.64 l-4.68 -11.2 l-4.72 11.2 c-0.24 0.56 0.36 0.64 0.92 0.64 l7.56 0 z M112.36000000000001 40 c-0.32 0 -0.56 -1.32 -0.24 -1.36 c2.04 -0.28 3.32 -1.08 3.32 -3.6 l0 -18.08 c0 -2.52 -1.28 -3.32 -3.32 -3.6 c-0.32 -0.04 -0.08 -1.36 0.24 -1.36 l10.96 0 c0.32 0 0.56 1.32 0.24 1.36 c-1.72 0.24 -3.32 0.8 -3.32 3.6 l0 18.08 c0 2.8 1.6 3.36 3.32 3.6 c0.32 0.04 0.08 1.36 -0.24 1.36 l-10.96 0 z M154.37 39 c0.32 0 0.24 1.08 0 1.16 c-2.52 0.84 -6 0.72 -8.4 -2.36 l-6.16 -7.92 c-1.72 -2.24 -3.76 -2.56 -6.56 -2.6 l0 7.76 c0 2.8 1.92 3.28 4.48 3.6 c0.28 0.04 0.08 1.36 -0.24 1.36 l-12.12 0 c-0.32 0 -0.56 -1.32 -0.24 -1.36 c2.04 -0.28 3.32 -1.08 3.32 -3.6 l0 -17.84 c0 -2.64 -1.4 -3.4 -3.32 -3.92 c-0.32 -0.08 -0.12 -1.4 0.24 -1.36 c1.56 0.2 3.32 0.24 4.6 0.24 c2.96 0 5.72 -0.24 7.64 -0.24 c6.04 0 10.08 2.48 10.08 7.4 c0 4.64 -3.76 6.92 -7.12 7.12 l0 0.2 c1.6 0 2.76 0.68 4.52 2.88 l5.96 7.48 c1.24 1.56 2.44 2 3.32 2 z M134.41000000000003 25.439999999999998 c5.96 0 8.24 -1.04 8.24 -5.04 c0 -4.28 -2.72 -6.4 -6.28 -6.4 c-2.36 0 -3.12 0.96 -3.12 3.2 l0 8.24 l1.16 0 z"></path>
	</g>
	<g id="SvgjsG1258" featurekey="sloganFeature-0"
		transform="matrix(0.7957299058291059,0,0,0.7957299058291059,107.37125246029385,104.81805229581666)"
		fill="#111">
		<path
			d="M8.98 20.12 c-1.16 -0.1 -2.34 -0.2 -3.46 -0.2 c-1.26 0 -2.52 0 -4.46 0.12 c-0.24 0.02 -0.38 -0.26 -0.16 -0.52 l4.58 -5.44 c1.94 -2.3 2.22 -4.02 2.22 -4.96 c0 -0.98 -0.3 -2.22 -1.94 -2.22 c-2.74 0 -4.22 3.36 -4.22 1.5 l0 -0.74 c0 -1.06 1.72 -1.98 3.96 -1.98 c2.88 0 4.52 1.54 4.52 3.58 c0 1.64 -1.12 2.98 -3.14 5.1 l-3.14 3.26 c-0.3 0.3 -0.24 0.6 0.12 0.6 l0.34 0 c3.76 0 4.84 -0.12 5.56 -0.92 c0.24 -0.28 0.72 -0.08 0.6 0.26 l-0.78 2.2 c-0.08 0.24 -0.28 0.38 -0.6 0.36 z M25.432000000000002 14.780000000000001 c0.34 -0.08 0.62 -0.04 0.46 0.5 l-0.34 1.22 c-0.14 0.48 -0.4 0.48 -0.74 0.38 c-0.38 -0.12 -0.82 -0.16 -1.48 -0.18 c0.02 1.52 0.04 2.4 0.08 3.16 c0.02 0.4 -2.38 0.6 -2.34 0.32 c0.12 -0.92 0.22 -1.9 0.26 -3.5 l-5.48 0 c-0.2 0 -0.76 -1.2 -0.68 -1.3 l6.92 -9.68 c0.18 -0.24 1.64 0.18 1.64 0.3 c-0.24 1.24 -0.4 2.62 -0.4 4.24 l0 4.84 c0.76 -0.04 1.36 -0.12 2.1 -0.3 z M21.012 8.96 l-4.38 6.14 l4.72 0 l0 -6.1 c0 -0.24 -0.18 -0.26 -0.34 -0.04 z M36.744 4.140000000000001 c0.12 -0.36 1.16 0.04 1.04 0.4 l-6.38 19.46 c-0.12 0.38 -1.18 -0.02 -1.06 -0.4 z M42.736000000000004 7.9399999999999995 c-0.98 0.08 -0.02 -1.98 0.1 -2.18 c0.18 -0.32 0.46 -0.26 0.64 -0.14 c0.3 0.2 0.72 0.38 1.98 0.38 l5.14 0 c0.82 0 0.24 0.84 -0.72 3.24 l-4.14 10.38 c-0.32 0.78 -2.82 0.94 -2.54 0.38 l6.3 -11.98 c0.18 -0.36 0.2 -0.66 -0.22 -0.62 z M66.54 20.32 c-1.66 0 -4.06 -0.76 -3.84 -1.6 l0.18 -0.7 c0.54 -1.94 1.14 0.98 4.44 0.98 c1.74 0 2.72 -0.84 2.72 -2.1 c0 -1.04 -0.76 -1.5 -2.04 -2.26 l-2.24 -1.36 c-2.04 -1.24 -2.84 -2.12 -2.84 -3.5 c0 -2.38 2.28 -4.1 4.82 -4.1 c1.54 0 3.42 0.64 3.22 1.32 l-0.24 0.74 c-0.56 1.8 -1.08 -0.76 -3.82 -0.76 c-1.54 0 -2.32 0.8 -2.32 1.88 c0 0.88 0.54 1.4 1.88 2.22 l2.34 1.4 c2.04 1.22 2.86 2.14 2.86 3.52 c0 2.44 -2.44 4.32 -5.12 4.32 z M76.25200000000001 20.04 c-0.2 0.02 -0.28 -0.6 -0.12 -0.64 c1.18 -0.3 2.08 -0.48 2.08 -1.96 l0 -8.96 c0 -1.34 -0.82 -1.68 -1.7 -1.9 c-0.16 -0.04 -0.08 -0.64 0.12 -0.62 c1.46 0.12 3.6 0.12 5.08 0.12 c1.82 0 3.18 -0.08 4.76 -0.12 c0.46 0 0.46 0.32 0.36 0.76 l-0.5 1.9 c-0.06 0.26 -0.54 0.26 -0.62 0 c-0.28 -0.94 -0.92 -1.6 -3.46 -1.6 c-1.5 0 -1.96 0.36 -1.96 1.46 l0 3.32 c0 0.52 0.26 0.62 0.66 0.62 l0.38 0 c1.78 0 3.12 -0.12 4 -0.96 c0.18 -0.18 0.6 -0.14 0.44 0.24 l-1.18 2.52 c-0.14 0.34 -0.42 0.3 -0.64 0 c-0.48 -0.62 -1.52 -0.86 -2.78 -0.86 l-0.22 0 c-0.4 0 -0.66 0.1 -0.66 0.62 l0 3.46 c0 1.16 0.52 1.54 2.24 1.54 c3.24 0 4.28 -1.3 4.78 -2.14 c0.16 -0.26 0.64 -0.2 0.64 0.18 c0 1.1 -0.84 3 -2.06 3.02 c-0.96 -0.06 -2.24 -0.12 -3.96 -0.12 c-1.84 0 -3.84 -0.06 -5.68 0.12 z M106.684 19.54 c0.16 0 0.14 0.5 0 0.56 c-1.12 0.42 -2.78 0.28 -3.88 -1.14 l-3.12 -4 c-0.84 -1.08 -1.94 -1.28 -3.4 -1.3 l0 3.92 c0 1.4 0.92 1.64 2.26 1.8 c0.14 0.02 0.04 0.62 -0.12 0.62 l-5.78 0 c-0.16 0 -0.28 -0.6 -0.12 -0.62 c0.98 -0.14 1.68 -0.5 1.68 -1.8 l0 -9.04 c0 -1.32 -0.7 -1.7 -1.68 -1.96 c-0.16 -0.04 -0.06 -0.64 0.12 -0.62 c0.8 0.1 1.68 0.12 2.28 0.12 c1.34 0 2.62 -0.12 3.54 -0.12 c2.86 0 4.96 1.2 4.96 3.7 c0 2.38 -1.98 3.52 -3.5 3.62 l0 0.1 c0.74 0 1.24 0.32 2.08 1.38 l3.08 3.84 c0.56 0.72 1.1 0.94 1.6 0.94 z M96.90400000000001 12.8 c3 0 4.32 -0.52 4.32 -2.62 c0 -2.18 -1.44 -3.26 -3.28 -3.26 c-1.22 0 -1.66 0.48 -1.66 1.62 l0 4.26 l0.62 0 z M125.55600000000001 6 c0.22 0 0.3 0.6 0.04 0.64 c-0.82 0.12 -1.32 0.44 -2.06 2.16 l-3.38 7.8 c-0.72 1.68 -1.02 2.6 -1.02 3.4 c0 0.12 -1.4 0.44 -1.46 0.3 l-4.86 -11.48 c-0.72 -1.76 -1.3 -2.06 -2.06 -2.18 c-0.26 -0.04 -0.2 -0.64 0.06 -0.64 l4.96 0 c0.26 0 0.32 0.6 0.06 0.64 c-0.74 0.16 -1.48 0.42 -0.76 2.16 l3.58 8.66 l3.62 -8.66 c0.74 -1.76 -0.06 -1.96 -1 -2.16 c-0.26 -0.04 -0.2 -0.64 0.06 -0.64 l4.22 0 z M130.24800000000002 20 c-0.16 0 -0.28 -0.6 -0.12 -0.62 c0.98 -0.14 1.68 -0.5 1.68 -1.8 l0 -9.16 c0 -1.3 -0.7 -1.66 -1.68 -1.8 c-0.16 -0.02 -0.04 -0.62 0.12 -0.62 l5.18 0 c0.16 0 0.28 0.6 0.12 0.62 c-0.86 0.12 -1.66 0.4 -1.66 1.8 l0 9.16 c0 1.4 0.8 1.68 1.66 1.8 c0.16 0.02 0.04 0.62 -0.12 0.62 l-5.18 0 z M148.38000000000002 20.32 c-3.36 0 -7.96 -1.98 -7.96 -7.08 c0 -3.5 2.16 -7.56 7.68 -7.56 c2.28 0 4.3 0.7 4.06 1.4 l-0.24 0.74 c-0.62 1.9 -1.54 -0.68 -4.96 -0.68 c-2.92 0 -4.52 1.88 -4.52 4.92 c0 4.48 3.4 6.5 6.34 6.5 c0.34 0 1.98 -0.26 3.22 -1.04 c0.16 -0.1 0.54 0.3 0.42 0.48 c-0.86 1.24 -3.48 2.32 -4.04 2.32 z M157.032 20.04 c-0.2 0.02 -0.28 -0.6 -0.12 -0.64 c1.18 -0.3 2.08 -0.48 2.08 -1.96 l0 -8.96 c0 -1.34 -0.82 -1.68 -1.7 -1.9 c-0.16 -0.04 -0.08 -0.64 0.12 -0.62 c1.46 0.12 3.6 0.12 5.08 0.12 c1.82 0 3.18 -0.08 4.76 -0.12 c0.46 0 0.46 0.32 0.36 0.76 l-0.5 1.9 c-0.06 0.26 -0.54 0.26 -0.62 0 c-0.28 -0.94 -0.92 -1.6 -3.46 -1.6 c-1.5 0 -1.96 0.36 -1.96 1.46 l0 3.32 c0 0.52 0.26 0.62 0.66 0.62 l0.38 0 c1.78 0 3.12 -0.12 4 -0.96 c0.18 -0.18 0.6 -0.14 0.44 0.24 l-1.18 2.52 c-0.14 0.34 -0.42 0.3 -0.64 0 c-0.48 -0.62 -1.52 -0.86 -2.78 -0.86 l-0.22 0 c-0.4 0 -0.66 0.1 -0.66 0.62 l0 3.46 c0 1.16 0.52 1.54 2.24 1.54 c3.24 0 4.28 -1.3 4.78 -2.14 c0.16 -0.26 0.64 -0.2 0.64 0.18 c0 1.1 -0.84 3 -2.06 3.02 c-0.96 -0.06 -2.24 -0.12 -3.96 -0.12 c-1.84 0 -3.84 -0.06 -5.68 0.12 z"></path>
	</g>
</svg>