<!-- <svg xmlns="http://www.w3.org/2000/svg" width="500.99999999999994" height="149.74441289312136"
	viewBox="0 0 350 104.61186529459577" class="looka-1j8o68f">
	<defs id="SvgjsDefs1711"></defs>
	<g id="SvgjsG1712" featurekey="AgVF85-0"
		transform="matrix(0.5049741503676067,0,0,0.5049741503676067,152,0)" fill="#fef4e8">
		<g xmlns="http://www.w3.org/2000/svg">
			<path fill="#fef4e8"
				d="M90.497,96.011c0,1.907-1.903,3.453-4.249,3.453l0,0c-2.349,0-4.25-1.546-4.25-3.453V78.638
c0-1.907,1.903-3.454,4.25-3.454l0,0c2.346,0,4.249,1.547,4.249,3.454V96.011L90.497,96.011z"></path>
			<path fill="#fef4e8"
				d="M10.129,96.547c0,1.908-1.905,3.453-4.25,3.453l0,0c-2.348,0-4.249-1.545-4.249-3.453V79.173
c0-1.906,1.902-3.453,4.249-3.453l0,0c2.346,0,4.25,1.547,4.25,3.453V96.547z"></path>
			<path fill="#fef4e8"
				d="M80.783,97.386c0,1.127-1.928,2.04-4.308,2.04l0,0c-2.379,0-4.308-0.913-4.308-2.04V87.11
c0-1.127,1.928-2.042,4.308-2.042l0,0c2.377,0,4.308,0.915,4.308,2.042V97.386z"></path>
			<path fill="#fef4e8"
				d="M19.668,97.767c0,1.233-1.904,2.233-4.25,2.233l0,0c-2.347,0-4.25-1-4.25-2.233V86.53
c0-1.233,1.905-2.233,4.25-2.233l0,0c2.346,0,4.25,1,4.25,2.233V97.767z"></path>
			<g>
				<path fill="#fef4e8"
d="M82.667,8.803V41.69h-1.643c-0.776,1.041-2.734,0-7.5,0H12.241H7.728V8.803H4.18v37.615h82.059V8.803
H82.667z"></path>
				<rect x="7.727" fill="#fef4e8" width="74.94" height="10.209"></rect>
				<path fill="#fef4e8"
					d="M12.239,41.69c-4.359,0-3.19-5.309-3.19-11.856v-4.446c0-6.548,3.535-11.856,7.892-11.856h56.584
c4.358,0,7.892,5.307,7.892,11.856v4.446c0,7.855,0.364,10.842-0.392,11.856h1.643V8.803H7.727V41.69H12.239z"></path>
				<path fill="#fef4e8"
					d="M12.239,41.69c-4.359,0-3.19-5.309-3.19-11.856v-4.446c0-6.548,3.535-11.856,7.892-11.856h56.584
c4.358,0,7.892,5.307,7.892,11.856v4.446c0,7.855,0.364,10.842-0.392,11.856h1.643V8.803H7.727V41.69H12.239z"></path>
				<path fill="#fef4e8" d="M81.025,41.69h-7.5C78.289,41.69,80.249,42.731,81.025,41.69z"></path>
				<path fill="#fef4e8" d="M81.025,41.69h-7.5C78.289,41.69,80.249,42.731,81.025,41.69z"></path>
				<path fill="#fef4e8"
d="M81.417,29.833v-4.446c0-6.548-3.534-11.856-7.893-11.856H16.942c-4.359,0-7.892,5.307-7.892,11.856v4.446
c0,6.548-1.169,11.856,3.19,11.856h61.284h7.5C81.783,40.676,81.417,37.688,81.417,29.833z
M77.459,36.007H47.797l-2.563,0.332
l-0.037-0.367l-0.035,0.367l-2.564-0.332H12.77V19.213h31.358v16.242l1.069,0.14l0.907-0.117V19.213h31.357v16.794H77.459z"></path>
				<path fill="#fef4e8"
d="M81.417,29.833v-4.446c0-6.548-3.534-11.856-7.893-11.856H16.942c-4.359,0-7.892,5.307-7.892,11.856v4.446
c0,6.548-1.169,11.856,3.19,11.856h61.284h7.5C81.783,40.676,81.417,37.688,81.417,29.833z
M77.459,36.007H47.797l-2.563,0.332
l-0.037-0.367l-0.035,0.367l-2.564-0.332H12.77V19.213h31.358v16.242l1.069,0.14l0.907-0.117V19.213h31.357v16.794H77.459z"></path>
				<path fill="#fef4e8"
d="M81.417,29.833v-4.446c0-6.548-3.534-11.856-7.893-11.856H16.942c-4.359,0-7.892,5.307-7.892,11.856v4.446
c0,6.548-1.169,11.856,3.19,11.856h61.284h7.5C81.783,40.676,81.417,37.688,81.417,29.833z
M77.459,36.007H47.797l-2.563,0.332
l-0.037-0.367l-0.035,0.367l-2.564-0.332H12.77V19.213h31.358v16.242l1.069,0.14l0.907-0.117V19.213h31.357v16.794H77.459z"></path>
				<polygon fill="#fef4e8"
					points="65.849,32.92 46.103,35.476 45.197,35.594 44.128,35.455 24.542,32.922 24.469,33.663
42.596,36.007 45.16,36.339 45.197,35.973 45.234,36.339 47.797,36.007 65.926,33.663   "></polygon>
			</g>
			<path fill="#fef4e8"
				d="M7.768,75.29c0,2.144-1.738,3.883-3.884,3.883l0,0C1.739,79.173,0,77.434,0,75.29V64.751
c0-2.144,1.737-3.883,3.883-3.883l0,0c2.145,0,3.884,1.739,3.884,3.883V75.29z"></path>
			<path fill="#fef4e8"
				d="M91.198,75.702c0,2.144-1.738,3.883-3.882,3.883l0,0c-2.146,0-3.885-1.739-3.885-3.883V65.163
c0-2.144,1.738-3.883,3.885-3.883l0,0c2.144,0,3.882,1.736,3.882,3.883V75.702z"></path>
			<g>
				<path fill="#fef4e8"
d="M76.632,43.164H13.8c-5.308,0-9.611,3.989-9.611,8.91v28.219c0,4.921,4.303,8.912,9.611,8.912h62.835
c5.308,0,9.612-3.991,9.612-8.912V52.074C86.245,47.153,81.943,43.164,76.632,43.164z M10.542,53.195
c0-2.922,2.368-5.291,5.289-5.291c2.921,0,5.291,2.369,5.291,5.291c0,2.92-2.369,5.29-5.291,5.29
C12.91,58.483,10.542,56.115,10.542,53.195z
M19.111,62.714c0,1.02-0.827,1.847-1.847,1.847s-1.847-0.827-1.847-1.847
c0-1.019,0.827-1.846,1.847-1.846S19.111,61.695,19.111,62.714z
M24.478,81.311H12.312v-3.453h12.166V81.311z M63.613,70.797
H26.821c-0.672,0-1.218-0.811-1.218-1.81c0-0.998,0.547-1.809,1.218-1.809H63.61c0.675,0,1.219,0.809,1.219,1.809
C64.83,69.986,64.285,70.797,63.613,70.797z M63.613,65.172H26.821c-0.672,0-1.218-0.81-1.218-1.81
c0-0.997,0.547-1.808,1.218-1.808H63.61c0.675,0,1.219,0.81,1.219,1.808C64.83,64.362,64.285,65.172,63.613,65.172z
M63.613,59.605H26.821c-0.672,0-1.218-0.809-1.218-1.809c0-0.999,0.547-1.808,1.218-1.808H63.61c0.675,0,1.219,0.809,1.219,1.808
C64.829,58.797,64.285,59.605,63.613,59.605z M63.613,53.962H26.821c-0.672,0-1.218-0.811-1.218-1.81
c0-0.998,0.547-1.809,1.218-1.809H63.61c0.675,0,1.219,0.811,1.219,1.809C64.83,53.151,64.285,53.962,63.613,53.962z
M79.619,81.93H67.454v-3.453h12.165V81.93z
M70.61,62.714c0-1.019,0.827-1.846,1.847-1.846c1.019,0,1.848,0.827,1.848,1.846
c0,1.02-0.829,1.847-1.848,1.847S70.61,63.733,70.61,62.714z
M75.41,58.566c-2.965,0-5.369-2.404-5.369-5.371
c0-2.967,2.404-5.373,5.369-5.373c2.967,0,5.371,2.404,5.371,5.373C80.783,56.162,78.379,58.566,75.41,58.566z"></path>
			</g>
			<path fill="#fef4e8"
				d="M6.952,49.775c0,1.452-1.179,2.631-2.632,2.631H3.445c-1.453,0-2.63-1.177-2.63-2.631v-13.22
c0-1.454,1.177-2.632,2.63-2.632H4.32c1.453,0,2.632,1.177,2.632,2.632V49.775z"></path>
			<path fill="#fef4e8"
				d="M90.383,52.04c0,1.453-1.177,2.63-2.63,2.63h-0.877c-1.453,0-2.629-1.177-2.629-2.63V38.818
c0-1.453,1.176-2.63,2.629-2.63h0.877c1.453,0,2.63,1.177,2.63,2.63V52.04z"></path>
		</g>
	</g>
	<g id="SvgjsG1713" featurekey="vRT5cH-0"
		transform="matrix(0.9592614168861893,0,0,0.9592614168861893,-1.59237392001227,65.66417729394736)"
		fill="#ffffff">
		<path
			d="M7.88 20.3 l-5.34 0 c-0.24 0 -0.44666 -0.08666 -0.62 -0.26 s-0.26 -0.38 -0.26 -0.62 l0 -14.02 c0
-0.25334 0.08666 -0.46334 0.26 -0.63 s0.38 -0.25 0.62 -0.25 c0.25334 0 0.46334 0.08334 0.63 0.25
s0.25 0.37666 0.25 0.63 l0 13.14 l4.46 0 c0.25334 0 0.46668 0.08666 0.64002 0.26 s0.26 0.38 0.26
0.62 s-0.08666 0.44666 -0.26 0.62 s-0.38668 0.26 -0.64002 0.26 z M18.88 20.3 c-0.25334 0 -0.46668
-0.0867 -0.64002 -0.26004 s-0.26 -0.38 -0.26 -0.62 l0 -0.38 c-0.46666 0.4 -0.98666 0.71 -1.56 0.93
s-1.1733 0.33 -1.8 0.33 c-0.70666 0 -1.3733 -0.13666 -2 -0.41 s-1.1733 -0.64334 -1.64 -1.11
s-0.83666 -1.01 -1.11 -1.63 s-0.41 -1.2833 -0.41 -1.99 s0.13666 -1.3733 0.41 -2 s0.64334 -1.1733
1.11 -1.64 s1.0133 -0.83666 1.64 -1.11 s1.2933 -0.41 2 -0.41 c0.62666 0 1.2267 0.11 1.8 0.33 s1.0933
0.53 1.56 0.93 l0 -0.38 c0 -0.24 0.08666 -0.44666 0.26 -0.62 s0.38668 -0.26 0.64002 -0.26 c0.24 0
0.44666 0.08666 0.62 0.26 s0.26 0.38 0.26 0.62 l0 8.54 c0 0.24 -0.08666 0.44666 -0.26 0.62 s-0.38
0.26 -0.62 0.26 z M14.620000000000001 11.78 c-0.46666 0 -0.90332 0.09 -1.31 0.27 s-0.76332 0.42334
-1.07 0.73 s-0.55 0.66332 -0.73 1.07 s-0.27 0.84332 -0.27 1.31 s0.09 0.90332 0.27 1.31 s0.42334
0.76332 0.73 1.07 s0.66332 0.54666 1.07 0.72 s0.84332 0.26 1.31 0.26 s0.90332 -0.08666 1.31 -0.26
s0.76332 -0.41334 1.07 -0.72 s0.54666 -0.66332 0.72 -1.07 s0.26 -0.84332 0.26 -1.31 s-0.08666
-0.90332 -0.26 -1.31 s-0.41334 -0.76332 -0.72 -1.07 s-0.66332 -0.55 -1.07 -0.73 s-0.84332 -0.27
-1.31 -0.27 z M29.94 11.48 l-3.8 3.64 l3.8 3.66 c0.18666 0.16 0.28 0.37334 0.28 0.64 c0 0.24
-0.08666 0.44666 -0.26 0.62 s-0.38 0.26 -0.62 0.26 c-0.25334 0 -0.46 -0.08 -0.62 -0.24 l-3.88 -3.72
l0 3.08 c0 0.24 -0.08666 0.44666 -0.26 0.62 s-0.38 0.26 -0.62 0.26 s-0.44666 -0.08666 -0.62 -0.26
s-0.26 -0.38 -0.26 -0.62 l0 -14.02 c0 -0.24 0.08666 -0.44666 0.26 -0.62 s0.38 -0.26 0.62 -0.26
s0.44666 0.08666 0.62 0.26 s0.26 0.38 0.26 0.62 l0 8.52 l3.88 -3.72 c0.16 -0.16 0.36666 -0.24 0.62
-0.24 c0.24 0 0.44666 0.08666 0.62 0.26 s0.26 0.38 0.26 0.62 s-0.09334 0.45334 -0.28 0.64 z M40.74
15.620000000000001 l-7.58 -0.000058594 c0.05334 0.41334 0.17668 0.79668 0.37002 1.15 s0.44 0.66 0.74
0.92 s0.64 0.46334 1.02 0.61 s0.78334 0.22 1.21 0.22 c0.25334 0 0.48334 -0.02 0.69 -0.06 s0.4
-0.10334 0.58 -0.19 s0.36 -0.19332 0.54 -0.31998 s0.37666 -0.27 0.59 -0.43 c0.08 -0.06666 0.16334
-0.12332 0.25 -0.16998 s0.20332 -0.07 0.34998 -0.07 c0.25334 0 0.46668 0.08666 0.64002 0.26 s0.26
0.38 0.26 0.62 c0 0.14666 -0.02666 0.26666 -0.08 0.36 s-0.11334 0.18 -0.18 0.26 c-0.21334 0.24
-0.46334 0.45666 -0.75 0.65 s-0.59332 0.35334 -0.91998 0.48 s-0.66 0.22332 -1 0.28998 s-0.66334 0.1
-0.97 0.1 c-0.70666 0 -1.3733 -0.13666 -2 -0.41 s-1.1733 -0.64334 -1.64 -1.11 s-0.83666 -1.01 -1.11
-1.63 s-0.41 -1.2833 -0.41 -1.99 s0.13666 -1.3733 0.41 -2 s0.64334 -1.1733 1.11 -1.64 s1.0133
-0.83666 1.64 -1.11 s1.2933 -0.41 2 -0.41 c0.68 0 1.32 0.11334 1.92 0.34 s1.1333 0.55 1.6 0.97 s0.84
0.92 1.12 1.5 s0.44 1.2167 0.48 1.91 c0.01334 0.26666 -0.07 0.48332 -0.25 0.64998 s-0.39 0.25 -0.63
0.25 z M36.5 11.78 c-0.69334 0 -1.32 0.19 -1.88 0.57 s-0.97334 0.87666 -1.24 1.49 l6.22 0 c-0.25334
-0.62666 -0.66334 -1.1267 -1.23 -1.5 s-1.19 -0.56 -1.87 -0.56 z M56.24000000000001 20.3 l-4.26
0.000019531 c-0.25334 0 -0.46668 -0.08666 -0.64002 -0.26 s-0.26 -0.38 -0.26 -0.62 l0 -14.02 c0 -0.24
0.08666 -0.44666 0.26 -0.62 s0.38668 -0.26 0.64002 -0.26 l2.92 0 c0.50666 0 0.98666 0.09666 1.44
0.29 s0.84668 0.45668 1.18 0.79002 s0.59668 0.72668 0.79002 1.18 s0.29 0.93334 0.29 1.44 c0 0.8
-0.24 1.5333 -0.72 2.2 c0.52 0.17334 0.99334 0.41 1.42 0.71 s0.79332 0.65666 1.1 1.07 s0.54666 0.87
0.72 1.37 s0.26 1.03 0.26 1.59 c0 0.70666 -0.13334 1.3733 -0.4 2 s-0.63332 1.1733 -1.1 1.64 s-1.0133
0.83332 -1.64 1.1 s-1.2933 0.4 -2 0.4 z M54.900000000000006 6.279999999999999 l-2.04 0 l0 3.86 l2.24
0 c0.21334 0 0.42334 -0.05666 0.63 -0.17 s0.39 -0.26 0.55 -0.44 s0.29 -0.38334 0.39 -0.61 s0.15
-0.46 0.15 -0.7 c0 -0.26666 -0.05 -0.51666 -0.15 -0.75 s-0.23666 -0.44 -0.41 -0.62 s-0.37668 -0.32
-0.61002 -0.42 s-0.48334 -0.15 -0.75 -0.15 z M56.24000000000001 11.92 l-3.38 -0.000039062 l0 6.6
l3.38 0 c0.46666 0 0.90332 -0.08666 1.31 -0.26 s0.76332 -0.41334 1.07 -0.72 s0.54666 -0.66332 0.72
-1.07 s0.26 -0.84332 0.26 -1.31 s-0.09 -0.9 -0.27 -1.3 s-0.42 -0.74334 -0.72 -1.03 s-0.65666 -0.51
-1.07 -0.67 s-0.84668 -0.24 -1.3 -0.24 z M64.70000000000002 20.3 c-0.24 0 -0.44666 -0.08666 -0.62
-0.26 s-0.26 -0.38 -0.26 -0.62 l0 -14.02 c0 -0.24 0.08666 -0.44666 0.26 -0.62 s0.38 -0.26 0.62 -0.26
s0.44666 0.08666 0.62 0.26 s0.26 0.38 0.26 0.62 l0 14.02 c0 0.24 -0.08666 0.44666 -0.26 0.62 s-0.38
0.26 -0.62 0.26 z M72.46000000000001 20.26 c-0.54666 0 -1.0633 -0.10334 -1.55 -0.31 s-0.91 -0.49
-1.27 -0.85 s-0.64334 -0.78334 -0.85 -1.27 s-0.31 -1.0033 -0.31 -1.55 l0 -5.3 c0 -0.25334 0.08666
-0.46668 0.26 -0.64002 s0.38668 -0.26 0.64002 -0.26 c0.24 0 0.44666 0.08666 0.62 0.26 s0.26 0.38668
0.26 0.64002 l0 5.3 c0 0.30666 0.05666 0.59332 0.17 0.85998 s0.27 0.5 0.47 0.7 s0.43334 0.35666 0.7
0.47 s0.55332 0.17 0.85998 0.17 c0.29334 0 0.57334 -0.05666 0.84 -0.17 s0.5 -0.27 0.7 -0.47 s0.36
-0.43334 0.48 -0.7 s0.18 -0.55332 0.18 -0.85998 l0 -5.3 c0 -0.25334 0.08666 -0.46668 0.26 -0.64002
s0.38 -0.26 0.62 -0.26 s0.44666 0.08666 0.62 0.26 s0.26 0.38668 0.26 0.64002 l0 5.3 c0 0.54666
-0.10334 1.0633 -0.31 1.55 s-0.49 0.91 -0.85 1.27 s-0.78 0.64334 -1.26 0.85 s-0.99334 0.31 -1.54
0.31 z M84.44000000000001 11.78 l-2.58 0 l0 7.64 c0 0.24 -0.08666 0.44666 -0.26 0.62 s-0.38 0.26
-0.62 0.26 c-0.25334 0 -0.46668 -0.08666 -0.64002 -0.26 s-0.26 -0.38 -0.26 -0.62 l0 -7.64 l-1.2 0
c-0.24 0 -0.44666 -0.08666 -0.62 -0.26 s-0.26 -0.38668 -0.26 -0.64002 c0 -0.24 0.08666 -0.44666 0.26
-0.62 s0.38 -0.26 0.62 -0.26 l1.2 0 l0 -2.86 c0 -0.36 0.07 -0.7 0.21 -1.02 s0.32666 -0.59666 0.56
-0.83 s0.51 -0.42 0.83 -0.56 s0.66 -0.21 1.02 -0.21 s0.7 0.07 1.02 0.21 s0.59666 0.32666 0.83 0.56
s0.42 0.51 0.56 0.83 s0.21 0.66 0.21 1.02 c0 0.24 -0.08666 0.44666 -0.26 0.62 s-0.38 0.26 -0.62 0.26
s-0.44666 -0.08666 -0.62 -0.26 s-0.26 -0.38 -0.26 -0.62 c0 -0.22666 -0.08666 -0.42666 -0.26 -0.6
s-0.37334 -0.26 -0.6 -0.26 s-0.42332 0.08666 -0.58998 0.26 s-0.25 0.37334 -0.25 0.6 l0 2.86 l2.58 0
c0.24 0 0.44666 0.08666 0.62 0.26 s0.26 0.38 0.26 0.62 c0 0.25334 -0.08666 0.46668 -0.26 0.64002
s-0.38 0.26 -0.62 0.26 z M92.12 11.78 l-2.58 0 l0 7.64 c0 0.24 -0.08666 0.44666 -0.26 0.62 s-0.38
0.26 -0.62 0.26 c-0.25334 0 -0.46668 -0.08666 -0.64002 -0.26 s-0.26 -0.38 -0.26 -0.62 l0 -7.64 l-1.2
0 c-0.24 0 -0.44666 -0.08666 -0.62 -0.26 s-0.26 -0.38668 -0.26 -0.64002 c0 -0.24 0.08666 -0.44666
0.26 -0.62 s0.38 -0.26 0.62 -0.26 l1.2 0 l0 -2.86 c0 -0.36 0.07 -0.7 0.21 -1.02 s0.32666 -0.59666
0.56 -0.83 s0.51 -0.42 0.83 -0.56 s0.66 -0.21 1.02 -0.21 s0.7 0.07 1.02 0.21 s0.59666 0.32666 0.83
0.56 s0.42 0.51 0.56 0.83 s0.21 0.66 0.21 1.02 c0 0.24 -0.08666 0.44666 -0.26 0.62 s-0.38 0.26 -0.62
0.26 s-0.44666 -0.08666 -0.62 -0.26 s-0.26 -0.38 -0.26 -0.62 c0 -0.22666 -0.08666 -0.42666 -0.26
-0.6 s-0.37334 -0.26 -0.6 -0.26 s-0.42332 0.08666 -0.58998 0.26 s-0.25 0.37334 -0.25 0.6 l0 2.86
l2.58 0 c0.24 0 0.44666 0.08666 0.62 0.26 s0.26 0.38 0.26 0.62 c0 0.25334 -0.08666 0.46668 -0.26
0.64002 s-0.38 0.26 -0.62 0.26 z M116.42 20.3 c-0.24 0 -0.44666 -0.08666 -0.62 -0.26 s-0.26 -0.38
-0.26 -0.62 l0 -10.42 l-5.24 10.8 c-0.08 0.14666 -0.19334 0.26666 -0.34 0.36 s-0.3 0.14 -0.46 0.14
s-0.31334 -0.04666 -0.46 -0.14 s-0.26 -0.21334 -0.34 -0.36 l-5.24 -10.8 l0 10.42 c0 0.24 -0.08334
0.44666 -0.25 0.62 s-0.37666 0.26 -0.63 0.26 c-0.24 0 -0.44666 -0.08666 -0.62 -0.26 s-0.26 -0.38
-0.26 -0.62 l0 -14.02 c0 -0.24 0.08666 -0.44666 0.26 -0.62 s0.38 -0.26 0.62 -0.26 c0.36 0 0.62666
0.16 0.8 0.48 l6.12 12.42 l6.12 -12.42 c0.17334 -0.32 0.44 -0.48 0.8 -0.48 c0.24 0 0.44666 0.08666
0.62 0.26 s0.26 0.38 0.26 0.62 l0 14.02 c0 0.24 -0.08666 0.44666 -0.26 0.62 s-0.38 0.26 -0.62 0.26 z
M124.9 20.3 c-0.70666 0 -1.3733 -0.13666 -2 -0.41 s-1.1733 -0.64334 -1.64 -1.11 s-0.83666 -1.01
-1.11 -1.63 s-0.41 -1.2833 -0.41 -1.99 s0.13666 -1.3733 0.41 -2 s0.64334 -1.1733 1.11 -1.64 s1.0133
-0.83666 1.64 -1.11 s1.2933 -0.41 2 -0.41 s1.37 0.13666 1.99 0.41 s1.1633 0.64334 1.63 1.11 s0.83666
1.0133 1.11 1.64 s0.41 1.2933 0.41 2 s-0.13666 1.37 -0.41 1.99 s-0.64334 1.1633 -1.11 1.63 s-1.01
0.83666 -1.63 1.11 s-1.2833 0.41 -1.99 0.41 z M124.9 11.78 c-0.46666 0 -0.90326 0.09 -1.3099 0.27
s-0.76332 0.42334 -1.07 0.73 s-0.55 0.66332 -0.73 1.07 s-0.27 0.84332 -0.27 1.31 s0.09 0.90332 0.27
1.31 s0.42334 0.76332 0.73 1.07 s0.66332 0.54666 1.07 0.72 s0.84332 0.26 1.31 0.26 s0.90332 -0.08666
1.31 -0.26 s0.76332 -0.41334 1.07 -0.72 s0.54666 -0.66332 0.72 -1.07 s0.26 -0.84332 0.26 -1.31
s-0.09 -0.90332 -0.27 -1.31 s-0.42 -0.76332 -0.72 -1.07 s-0.65666 -0.55 -1.07 -0.73 s-0.84668 -0.27
-1.3 -0.27 z M137.64 20.3 c-0.64 0 -1.2466 -0.10996 -1.82 -0.32996 s-1.0933 -0.53 -1.56 -0.93 l0
0.38 c0 0.24 -0.08666 0.44666 -0.26 0.62 s-0.38 0.26 -0.62 0.26 c-0.25334 0 -0.46668 -0.08666
-0.64002 -0.26 s-0.26 -0.38 -0.26 -0.62 l-0.08 -14.02 c-0.01334 -0.24 0.07 -0.44666 0.25 -0.62 s0.39
-0.26 0.63 -0.26 c0.25334 0 0.46334 0.08666 0.63 0.26 s0.25 0.38 0.25 0.62 l0.08 5.88 c0.46666
-0.41334 0.99 -0.73 1.57 -0.95 s1.19 -0.33 1.83 -0.33 c0.70666 0 1.3733 0.13666 2 0.41 s1.1733
0.64334 1.64 1.11 s0.83332 1.0133 1.1 1.64 s0.4 1.2933 0.4 2 s-0.13334 1.37 -0.4 1.99 s-0.63332
1.1633 -1.1 1.63 s-1.0133 0.83666 -1.64 1.11 s-1.2933 0.41 -2 0.41 z M137.64 11.78 c-0.46666 0
-0.90332 0.09 -1.31 0.27 s-0.76332 0.42334 -1.07 0.73 s-0.55 0.66332 -0.73 1.07 s-0.27 0.84332 -0.27
1.31 s0.09 0.90332 0.27 1.31 s0.42334 0.76332 0.73 1.07 s0.66332 0.54666 1.07 0.72 s0.84332 0.26
1.31 0.26 s0.90332 -0.08666 1.31 -0.26 s0.76332 -0.41334 1.07 -0.72 s0.54666 -0.66332 0.72 -1.07
s0.26 -0.84332 0.26 -1.31 s-0.08666 -0.90332 -0.26 -1.31 s-0.41334 -0.76332 -0.72 -1.07 s-0.66332
-0.55 -1.07 -0.73 s-0.84332 -0.27 -1.31 -0.27 z M146.4 8.64 c-0.32 0 -0.59666 -0.11666 -0.83 -0.35
s-0.35 -0.51 -0.35 -0.83 c0 -0.33334 0.11666 -0.61 0.35 -0.83 s0.51 -0.33 0.83 -0.33 c0.33334 0
0.61334 0.11 0.84 0.33 s0.34 0.49666 0.34 0.83 c0 0.32 -0.11666 0.59666 -0.35 0.83 s-0.51 0.35 -0.83
0.35 z M146.4 20.3 c-0.24 0 -0.44666 -0.08666 -0.62 -0.26 s-0.26 -0.38 -0.26 -0.62 l0 -8.54 c0 -0.24
0.08666 -0.44666 0.26 -0.62 s0.38 -0.26 0.62 -0.26 s0.45 0.08666 0.63 0.26 s0.27 0.38 0.27 0.62 l0
8.54 c0 0.24 -0.09 0.44666 -0.27 0.62 s-0.39 0.26 -0.63 0.26 z M151.78 20.3 c-0.24 0 -0.44666
-0.08666 -0.62 -0.26 s-0.26 -0.38 -0.26 -0.62 l0 -14.02 c0 -0.24 0.08666 -0.44666 0.26 -0.62 s0.38
-0.26 0.62 -0.26 s0.44666 0.08666 0.62 0.26 s0.26 0.38 0.26 0.62 l0 14.02 c0 0.24 -0.08666 0.44666
-0.26 0.62 s-0.38 0.26 -0.62 0.26 z M164.52 15.620000000000001 l-7.58 -0.000058594 c0.05334 0.41334
0.17668 0.79668 0.37002 1.15 s0.44 0.66 0.74 0.92 s0.64 0.46334 1.02 0.61 s0.78334 0.22 1.21 0.22
c0.25334 0 0.48334 -0.02 0.69 -0.06 s0.4 -0.10334 0.58 -0.19 s0.36 -0.19332 0.54 -0.31998 s0.37666
-0.27 0.59 -0.43 c0.08 -0.06666 0.16334 -0.12332 0.25 -0.16998 s0.20332 -0.07 0.34998 -0.07 c0.25334
0 0.46668 0.08666 0.64002 0.26 s0.26 0.38 0.26 0.62 c0 0.14666 -0.02666 0.26666 -0.08 0.36 s-0.11334
0.18 -0.18 0.26 c-0.21334 0.24 -0.46334 0.45666 -0.75 0.65 s-0.59332 0.35334 -0.91998 0.48 s-0.66
0.22332 -1 0.28998 s-0.66334 0.1 -0.97 0.1 c-0.70666 0 -1.3733 -0.13666 -2 -0.41 s-1.1733 -0.64334
-1.64 -1.11 s-0.83666 -1.01 -1.11 -1.63 s-0.41 -1.2833 -0.41 -1.99 s0.13666 -1.3733 0.41 -2 s0.64334
-1.1733 1.11 -1.64 s1.0133 -0.83666 1.64 -1.11 s1.2933 -0.41 2 -0.41 c0.68 0 1.32 0.11334 1.92 0.34
s1.1333 0.55 1.6 0.97 s0.84 0.92 1.12 1.5 s0.44 1.2167 0.48 1.91 c0.01334 0.26666 -0.07 0.48332
-0.25 0.64998 s-0.39 0.25 -0.63 0.25 z M160.28 11.78 c-0.69334 0 -1.32 0.19 -1.88 0.57 s-0.97334
0.87666 -1.24 1.49 l6.22 0 c-0.25334 -0.62666 -0.66334 -1.1267 -1.23 -1.5 s-1.19 -0.56 -1.87 -0.56 z
M182.32000000000002 20.3 c-1.0933 0 -2.12 -0.20666 -3.08 -0.62 s-1.7967 -0.97668 -2.51 -1.69
s-1.2767 -1.55 -1.69 -2.51 s-0.62 -1.9867 -0.62 -3.08 c0 -1.08 0.20666 -2.1 0.62 -3.06 s0.97668
-1.7967 1.69 -2.51 s1.55 -1.2767 2.51 -1.69 s1.9867 -0.62 3.08 -0.62 c1.08 0 2.1 0.20666 3.06 0.62
s1.7967 0.97668 2.51 1.69 s1.2767 1.55 1.69 2.51 s0.62 1.98 0.62 3.06 c0 1.0933 -0.20666 2.12 -0.62
3.08 s-0.97668 1.7967 -1.69 2.51 s-1.55 1.2767 -2.51 1.69 s-1.98 0.62 -3.06 0.62 z
M182.32000000000002 6.279999999999999 c-0.84 0 -1.6333 0.16 -2.38 0.48 s-1.4 0.75666 -1.96 1.31 s-1
1.2033 -1.32 1.95 s-0.48 1.54 -0.48 2.38 s0.16 1.6333 0.48 2.38 s0.76 1.4 1.32 1.96 s1.2133 1 1.96
1.32 s1.54 0.48 2.38 0.48 s1.6333 -0.16 2.38 -0.48 s1.3967 -0.76 1.95 -1.32 s0.99 -1.2133 1.31 -1.96
s0.48 -1.54 0.48 -2.38 s-0.16 -1.6333 -0.48 -2.38 s-0.75666 -1.3967 -1.31 -1.95 s-1.2033 -0.99 -1.95
-1.31 s-1.54 -0.48 -2.38 -0.48 z M194.84000000000003 10.6 c0.62666 -0.4 1.3 -0.59998 2.02 -0.59998
c0.50666 0 0.98666 0.09666 1.44 0.29 s0.85 0.46 1.19 0.8 s0.60666 0.73666 0.8 1.19 s0.29 0.93334
0.29 1.44 l0 5.7 c0 0.24 -0.08666 0.44666 -0.26 0.62 s-0.38 0.26 -0.62 0.26 c-0.25334 0 -0.46668
-0.08666 -0.64002 -0.26 s-0.26 -0.38 -0.26 -0.62 l0 -5.7 c0 -0.26666 -0.05 -0.51666 -0.15 -0.75
s-0.24 -0.44 -0.42 -0.62 s-0.38666 -0.32 -0.62 -0.42 s-0.48334 -0.15 -0.75 -0.15 s-0.52 0.05 -0.76
0.15 s-0.44666 0.24 -0.62 0.42 s-0.31 0.38666 -0.41 0.62 s-0.15 0.48334 -0.15 0.75 c0 0.04 -0.01334
0.1 -0.04 0.18 l0 5.52 c0 0.24 -0.08666 0.44666 -0.26 0.62 s-0.38 0.26 -0.62 0.26 c-0.25334 0
-0.46668 -0.08666 -0.64002 -0.26 s-0.26 -0.38 -0.26 -0.62 l0 -8.66 c0 -0.25334 0.08666 -0.46668 0.26
-0.64002 s0.38668 -0.26 0.64002 -0.26 c0.48 0 0.76 0.24666 0.84 0.74 z M210.04000000000002 16.04
l-7.02 0 c-0.24 0 -0.44666 -0.08666 -0.62 -0.26 s-0.26 -0.38668 -0.26 -0.64002 c0 -0.24 0.08666
-0.44666 0.26 -0.62 s0.38 -0.26 0.62 -0.26 l7.02 0 c0.24 0 0.44666 0.08666 0.62 0.26 s0.26 0.38 0.26
0.62 c0 0.25334 -0.08666 0.46668 -0.26 0.64002 s-0.38 0.26 -0.62 0.26 z M215.48000000000002 20.3
c-0.4 0 -0.8033 -0.06666 -1.21 -0.2 s-0.77332 -0.32668 -1.1 -0.58002 s-0.59332 -0.56668 -0.79998
-0.94002 s-0.31 -0.79334 -0.31 -1.26 c0 -0.24 0.08666 -0.44666 0.26 -0.62 s0.38 -0.26 0.62 -0.26
c0.25334 0 0.46668 0.08666 0.64002 0.26 s0.26 0.38 0.26 0.62 c0 0.38666 0.16666 0.68332 0.5 0.88998
s0.71334 0.31 1.14 0.31 c0.46666 0 0.82332 -0.09666 1.07 -0.29 s0.37 -0.51 0.37 -0.95 c0 -0.26666
-0.05 -0.48 -0.15 -0.64 s-0.24334 -0.3 -0.43 -0.42 c-0.10666 -0.06666 -0.21666 -0.12332 -0.33
-0.16998 s-0.23668 -0.09666 -0.37002 -0.15 s-0.27 -0.1 -0.41 -0.14 s-0.28334 -0.08666 -0.43 -0.14
c-0.29334 -0.09334 -0.59 -0.20334 -0.89 -0.33 s-0.57334 -0.29 -0.82 -0.49 s-0.44666 -0.45334 -0.6
-0.76 s-0.23 -0.69332 -0.23 -1.16 c0 -0.42666 0.08 -0.81666 0.24 -1.17 s0.38 -0.65668 0.66 -0.91002
s0.60334 -0.45 0.97 -0.59 s0.75 -0.21 1.15 -0.21 s0.78334 0.07 1.15 0.21 s0.68666 0.33666 0.96 0.59
s0.49334 0.55668 0.66 0.91002 s0.25 0.74334 0.25 1.17 c0 0.24 -0.08666 0.44666 -0.26 0.62 s-0.38668
0.26 -0.64002 0.26 c-0.24 0 -0.44666 -0.08666 -0.62 -0.26 s-0.26 -0.38 -0.26 -0.62 c0 -0.33334 -0.12
-0.6 -0.36 -0.8 s-0.53334 -0.3 -0.88 -0.3 s-0.64 0.1 -0.88 0.3 s-0.36 0.46666 -0.36 0.8 c0 0.30666
0.18666 0.55332 0.56 0.73998 c0.21334 0.12 0.45334 0.22 0.72 0.3 c0.13334 0.06666 0.27334 0.12 0.42
0.16 s0.29332 0.09334 0.43998 0.16 c0.29334 0.10666 0.59 0.23666 0.89 0.39 s0.57 0.34668 0.81
0.58002 s0.43666 0.51668 0.59 0.85002 s0.23 0.74 0.23 1.22 s-0.08334 0.90666 -0.25 1.28 s-0.39666
0.69 -0.69 0.95 s-0.63668 0.45666 -1.03 0.59 s-0.81 0.2 -1.25 0.2 z M222.34000000000003 8.64 c-0.32
0 -0.59666 -0.11666 -0.83 -0.35 s-0.35 -0.51 -0.35 -0.83 c0 -0.33334 0.11666 -0.61 0.35 -0.83 s0.51
-0.33 0.83 -0.33 c0.33334 0 0.61334 0.11 0.84 0.33 s0.34 0.49666 0.34 0.83 c0 0.32 -0.11666 0.59666
-0.35 0.83 s-0.51 0.35 -0.83 0.35 z M222.34000000000003 20.3 c-0.24 0 -0.44666 -0.08666 -0.62 -0.26
s-0.26 -0.38 -0.26 -0.62 l0 -8.54 c0 -0.24 0.08666 -0.44666 0.26 -0.62 s0.38 -0.26 0.62 -0.26 s0.45
0.08666 0.63 0.26 s0.27 0.38 0.27 0.62 l0 8.54 c0 0.24 -0.09 0.44666 -0.27 0.62 s-0.39 0.26 -0.63
0.26 z M231.50000000000003 11.78 l-1.62 0 l0 7.64 c0 0.24 -0.08666 0.44666 -0.26 0.62 s-0.38668 0.26
-0.64002 0.26 c-0.24 0 -0.44666 -0.08666 -0.62 -0.26 s-0.26 -0.38 -0.26 -0.62 l0 -7.64 l-1.64 0
c-0.24 0 -0.44666 -0.08666 -0.62 -0.26 s-0.26 -0.38 -0.26 -0.62 c0 -0.25334 0.08666 -0.46668 0.26
-0.64002 s0.38 -0.26 0.62 -0.26 l1.64 0 l0 -2.94 c0 -0.25334 0.08666 -0.46334 0.26 -0.63 s0.38 -0.25
0.62 -0.25 c0.25334 0 0.46668 0.08334 0.64002 0.25 s0.26 0.37666 0.26 0.63 l0 2.94 l1.62 0 c0.25334
0 0.46668 0.08666 0.64002 0.26 s0.26 0.38668 0.26 0.64002 c0 0.24 -0.08666 0.44666 -0.26 0.62
s-0.38668 0.26 -0.64002 0.26 z M242.98000000000005 15.620000000000001 l-7.58 -0.000058594 c0.05334
0.41334 0.17668 0.79668 0.37002 1.15 s0.44 0.66 0.74 0.92 s0.64 0.46334 1.02 0.61 s0.78334 0.22 1.21
0.22 c0.25334 0 0.48334 -0.02 0.69 -0.06 s0.4 -0.10334 0.58 -0.19 s0.36 -0.19332 0.54 -0.31998
s0.37666 -0.27 0.59 -0.43 c0.08 -0.06666 0.16334 -0.12332 0.25 -0.16998 s0.20332 -0.07 0.34998 -0.07
c0.25334 0 0.46668 0.08666 0.64002 0.26 s0.26 0.38 0.26 0.62 c0 0.14666 -0.02666 0.26666 -0.08 0.36
s-0.11334 0.18 -0.18 0.26 c-0.21334 0.24 -0.46334 0.45666 -0.75 0.65 s-0.59332 0.35334 -0.91998 0.48
s-0.66 0.22332 -1 0.28998 s-0.66334 0.1 -0.97 0.1 c-0.70666 0 -1.3733 -0.13666 -2 -0.41 s-1.1733
-0.64334 -1.64 -1.11 s-0.83666 -1.01 -1.11 -1.63 s-0.41 -1.2833 -0.41 -1.99 s0.13666 -1.3733 0.41 -2
s0.64334 -1.1733 1.11 -1.64 s1.0133 -0.83666 1.64 -1.11 s1.2933 -0.41 2 -0.41 c0.68 0 1.32 0.11334
1.92 0.34 s1.1333 0.55 1.6 0.97 s0.84 0.92 1.12 1.5 s0.44 1.2167 0.48 1.91 c0.01334 0.26666 -0.07
0.48332 -0.25 0.64998 s-0.39 0.25 -0.63 0.25 z M238.74000000000004 11.78 c-0.69334 0 -1.32 0.19
-1.88 0.57 s-0.97334 0.87666 -1.24 1.49 l6.22 0 c-0.25334 -0.62666 -0.66334 -1.1267 -1.23 -1.5
s-1.19 -0.56 -1.87 -0.56 z M260.9200000000001 6.279999999999999 l-3.24 0 l0 13.14 c0 0.24 -0.08666
0.44666 -0.26 0.62 s-0.38 0.26 -0.62 0.26 c-0.25334 0 -0.46668 -0.08666 -0.64002 -0.26 s-0.26 -0.38
-0.26 -0.62 l0 -13.14 l-3.24 0 c-0.24 0 -0.44666 -0.08334 -0.62 -0.25 s-0.26 -0.37666 -0.26 -0.63 c0
-0.24 0.08666 -0.44666 0.26 -0.62 s0.38 -0.26 0.62 -0.26 l8.26 0 c0.24 0 0.44666 0.08666 0.62 0.26
s0.26 0.38 0.26 0.62 c0 0.25334 -0.08666 0.46334 -0.26 0.63 s-0.38 0.25 -0.62 0.25 z
M263.70000000000005 10.58 c0.21334 -0.18666 0.45006 -0.33002 0.71006 -0.43002 s0.52334 -0.15 0.79
-0.15 c0.65334 0 1.19 0.16 1.61 0.48 s0.74334 0.78 0.97 1.38 c0.05334 0.13334 0.07334 0.27334 0.06
0.42 s-0.05668 0.28 -0.13002 0.4 s-0.17334 0.21666 -0.3 0.29 s-0.27666 0.11 -0.45 0.11 c-0.14666 0
-0.27666 -0.03334 -0.39 -0.1 s-0.21 -0.14666 -0.29 -0.24 c-0.06666 -0.08 -0.12332 -0.16334 -0.16998
-0.25 s-0.09666 -0.17666 -0.15 -0.27 c-0.09334 -0.14666 -0.19668 -0.26666 -0.31002 -0.36 s-0.30334
-0.12668 -0.57 -0.10002 c-0.17334 0.01334 -0.34 0.06668 -0.5 0.16002 s-0.3 0.20668 -0.42 0.34002
s-0.21666 0.28334 -0.29 0.45 s-0.11 0.33666 -0.11 0.51 l0 6.2 c0 0.24 -0.08666 0.44666 -0.26 0.62
s-0.38 0.26 -0.62 0.26 c-0.25334 0 -0.46668 -0.08666 -0.64002 -0.26 s-0.26 -0.38 -0.26 -0.62 l0
-8.54 c0 -0.24 0.08666 -0.44666 0.26 -0.62 s0.38668 -0.26 0.64002 -0.26 c0.18666 0 0.35332 0.05334
0.49998 0.16 s0.25332 0.24666 0.31998 0.42 z M273.34000000000003 20.26 c-0.54666 0 -1.0633 -0.10334
-1.55 -0.31 s-0.91 -0.49 -1.27 -0.85 s-0.64334 -0.78334 -0.85 -1.27 s-0.31 -1.0033 -0.31 -1.55 l0
-5.3 c0 -0.25334 0.08666 -0.46668 0.26 -0.64002 s0.38668 -0.26 0.64002 -0.26 c0.24 0 0.44666 0.08666
0.62 0.26 s0.26 0.38668 0.26 0.64002 l0 5.3 c0 0.30666 0.05666 0.59332 0.17 0.85998 s0.27 0.5 0.47
0.7 s0.43334 0.35666 0.7 0.47 s0.55332 0.17 0.85998 0.17 c0.29334 0 0.57334 -0.05666 0.84 -0.17 s0.5
-0.27 0.7 -0.47 s0.36 -0.43334 0.48 -0.7 s0.18 -0.55332 0.18 -0.85998 l0 -5.3 c0 -0.25334 0.08666
-0.46668 0.26 -0.64002 s0.38 -0.26 0.62 -0.26 s0.44666 0.08666 0.62 0.26 s0.26 0.38668 0.26 0.64002
l0 5.3 c0 0.54666 -0.10334 1.0633 -0.31 1.55 s-0.49 0.91 -0.85 1.27 s-0.78 0.64334 -1.26 0.85
s-0.99334 0.31 -1.54 0.31 z M287.48 13.02 c-0.13334 0 -0.24668 -0.0233 -0.34002 -0.069962 s-0.18
-0.10332 -0.26 -0.16998 c-0.38666 -0.33334 -0.76 -0.58334 -1.12 -0.75 s-0.78666 -0.25 -1.28 -0.25
c-0.46666 0 -0.90332 0.09 -1.31 0.27 s-0.76332 0.42334 -1.07 0.73 s-0.55 0.66332 -0.73 1.07 s-0.27
0.84332 -0.27 1.31 s0.09 0.90332 0.27 1.31 s0.42334 0.76332 0.73 1.07 s0.66332 0.54666 1.07 0.72
s0.84332 0.26 1.31 0.26 c0.49334 0 0.92 -0.08334 1.28 -0.25 s0.73334 -0.41666 1.12 -0.75 c0.08
-0.06666 0.16666 -0.12332 0.26 -0.16998 s0.20668 -0.07 0.34002 -0.07 c0.25334 0 0.46668 0.08666
0.64002 0.26 s0.26 0.38 0.26 0.62 c0 0.13334 -0.02666 0.25 -0.08 0.35 s-0.11334 0.19 -0.18 0.27
c-0.22666 0.24 -0.48332 0.45666 -0.76998 0.65 s-0.59 0.35334 -0.91 0.48 s-0.64666 0.22332 -0.98
0.28998 s-0.66 0.1 -0.98 0.1 c-0.70666 0 -1.3733 -0.13666 -2 -0.41 s-1.1733 -0.64334 -1.64 -1.11
s-0.83666 -1.01 -1.11 -1.63 s-0.41 -1.2833 -0.41 -1.99 s0.13666 -1.3733 0.41 -2 s0.64334 -1.1733
1.11 -1.64 s1.0133 -0.83666 1.64 -1.11 s1.2933 -0.41 2 -0.41 c0.32 0 0.64666 0.03334 0.98 0.1 s0.66
0.16332 0.98 0.28998 s0.62334 0.28666 0.91 0.48 s0.54332 0.41 0.76998 0.65 c0.06666 0.08 0.12666
0.17 0.18 0.27 s0.08 0.21666 0.08 0.35 c0 0.24 -0.08666 0.44666 -0.26 0.62 s-0.38668 0.26 -0.64002
0.26 z M297.5 11.48 l-3.8 3.64 l3.8 3.66 c0.18666 0.16 0.28 0.37334 0.28 0.64 c0 0.24 -0.08666
0.44666 -0.26 0.62 s-0.38 0.26 -0.62 0.26 c-0.25334 0 -0.46 -0.08 -0.62 -0.24 l-3.88 -3.72 l0 3.08
c0 0.24 -0.08666 0.44666 -0.26 0.62 s-0.38 0.26 -0.62 0.26 s-0.44666 -0.08666 -0.62 -0.26 s-0.26
-0.38 -0.26 -0.62 l0 -14.02 c0 -0.24 0.08666 -0.44666 0.26 -0.62 s0.38 -0.26 0.62 -0.26 s0.44666
0.08666 0.62 0.26 s0.26 0.38 0.26 0.62 l0 8.52 l3.88 -3.72 c0.16 -0.16 0.36666 -0.24 0.62 -0.24
c0.24 0 0.44666 0.08666 0.62 0.26 s0.26 0.38 0.26 0.62 s-0.09334 0.45334 -0.28 0.64 z
M311.21999999999997 13.36 l-0.24 -0.000039062 l0.26 -0.46 l3.62 6.06 c0.08 0.14666 0.12 0.3 0.12
0.46 c0 0.24 -0.08666 0.44666 -0.26 0.62 s-0.38 0.26 -0.62 0.26 c-0.16 0 -0.31 -0.04 -0.45 -0.12
s-0.25 -0.18666 -0.33 -0.32 l-3.88 -6.5 l-0.86 0 l0 6.06 c0 0.24 -0.08666 0.44666 -0.26 0.62 s-0.38
0.26 -0.62 0.26 c-0.25334 0 -0.46668 -0.08666 -0.64002 -0.26 s-0.26 -0.38 -0.26 -0.62 l0 -14.02 c0
-0.24 0.08666 -0.44666 0.26 -0.62 s0.38668 -0.26 0.64002 -0.26 l3.52 0 c0.61334 0 1.19 0.11666 1.73
0.35 s1.01 0.55 1.41 0.95 s0.71666 0.86666 0.95 1.4 s0.35 1.1067 0.35 1.72 s-0.11666 1.1867 -0.35
1.72 s-0.55 1 -0.95 1.4 s-0.87 0.71666 -1.41 0.95 s-1.1167 0.35 -1.73 0.35 z M311.21999999999997
6.279999999999999 l-2.64 0 l0 5.3 l2.64 0 c0.36 0 0.70334 -0.07 1.03 -0.21 s0.61 -0.33 0.85 -0.57
s0.43 -0.52 0.57 -0.84 s0.21 -0.66 0.21 -1.02 s-0.07 -0.70334 -0.21 -1.03 s-0.33 -0.61 -0.57 -0.85
s-0.52334 -0.43 -0.85 -0.57 s-0.67 -0.21 -1.03 -0.21 z M326.18 15.620000000000001 l-7.58
-0.000058594 c0.05334 0.41334 0.17668 0.79668 0.37002 1.15 s0.44 0.66 0.74 0.92 s0.64 0.46334 1.02
0.61 s0.78334 0.22 1.21 0.22 c0.25334 0 0.48334 -0.02 0.69 -0.06 s0.4 -0.10334 0.58 -0.19 s0.36
-0.19332 0.54 -0.31998 s0.37666 -0.27 0.59 -0.43 c0.08 -0.06666 0.16334 -0.12332 0.25 -0.16998
s0.20332 -0.07 0.34998 -0.07 c0.25334 0 0.46668 0.08666 0.64002 0.26 s0.26 0.38 0.26 0.62 c0 0.14666
-0.02666 0.26666 -0.08 0.36 s-0.11334 0.18 -0.18 0.26 c-0.21334 0.24 -0.46334 0.45666 -0.75 0.65
s-0.59332 0.35334 -0.91998 0.48 s-0.66 0.22332 -1 0.28998 s-0.66334 0.1 -0.97 0.1 c-0.70666 0
-1.3733 -0.13666 -2 -0.41 s-1.1733 -0.64334 -1.64 -1.11 s-0.83666 -1.01 -1.11 -1.63 s-0.41 -1.2833
-0.41 -1.99 s0.13666 -1.3733 0.41 -2 s0.64334 -1.1733 1.11 -1.64 s1.0133 -0.83666 1.64 -1.11 s1.2933
-0.41 2 -0.41 c0.68 0 1.32 0.11334 1.92 0.34 s1.1333 0.55 1.6 0.97 s0.84 0.92 1.12 1.5 s0.44 1.2167
0.48 1.91 c0.01334 0.26666 -0.07 0.48332 -0.25 0.64998 s-0.39 0.25 -0.63 0.25 z M321.94 11.78
c-0.69334 0 -1.32 0.19 -1.88 0.57 s-0.97334 0.87666 -1.24 1.49 l6.22 0 c-0.25334 -0.62666 -0.66334
-1.1267 -1.23 -1.5 s-1.19 -0.56 -1.87 -0.56 z M334.65999999999997 20.3 c-0.64 0 -1.2467 -0.10996
-1.82 -0.32996 s-1.0933 -0.53 -1.56 -0.93 l0 4.86 c0 0.25334 -0.08666 0.46668 -0.26 0.64002 s-0.38
0.26 -0.62 0.26 c-0.25334 0 -0.46668 -0.08666 -0.64002 -0.26 s-0.26 -0.38668 -0.26 -0.64002 l0
-13.02 c0 -0.24 0.08666 -0.44666 0.26 -0.62 s0.38668 -0.26 0.64002 -0.26 c0.24 0 0.44666 0.08666
0.62 0.26 s0.26 0.38 0.26 0.62 l0 0.38 c0.46666 -0.4 0.98666 -0.71 1.56 -0.93 s1.18 -0.33 1.82 -0.33
c0.70666 0 1.3733 0.13666 2 0.41 s1.1733 0.64334 1.64 1.11 s0.83332 1.01 1.1 1.63 s0.4 1.2833 0.4
1.99 s-0.13334 1.3733 -0.4 2 s-0.63332 1.1733 -1.1 1.64 s-1.0133 0.83666 -1.64 1.11 s-1.2933 0.41 -2
0.41 z M334.65999999999997 11.78 c-0.46666 0 -0.90332 0.08666 -1.31 0.26 s-0.76332 0.41334 -1.07
0.72 s-0.55 0.66332 -0.73 1.07 s-0.27 0.84332 -0.27 1.31 s0.09 0.90332 0.27 1.31 s0.42334 0.76332
0.73 1.07 s0.66332 0.55 1.07 0.73 s0.84332 0.27 1.31 0.27 s0.90332 -0.09 1.31 -0.27 s0.76332
-0.42334 1.07 -0.73 s0.54666 -0.66332 0.72 -1.07 s0.26 -0.84332 0.26 -1.31 s-0.08666 -0.90332 -0.26
-1.31 s-0.41334 -0.76332 -0.72 -1.07 s-0.66332 -0.54666 -1.07 -0.72 s-0.84332 -0.26 -1.31 -0.26 z
M350.78 20.3 c-0.25334 0 -0.46668 -0.0867 -0.64002 -0.26004 s-0.26 -0.38 -0.26 -0.62 l0 -0.38
c-0.46666 0.4 -0.98666 0.71 -1.56 0.93 s-1.1733 0.33 -1.8 0.33 c-0.70666 0 -1.3733 -0.13666 -2 -0.41
s-1.1733 -0.64334 -1.64 -1.11 s-0.83666 -1.01 -1.11 -1.63 s-0.41 -1.2833 -0.41 -1.99 s0.13666
-1.3733 0.41 -2 s0.64334 -1.1733 1.11 -1.64 s1.0133 -0.83666 1.64 -1.11 s1.2933 -0.41 2 -0.41
c0.62666 0 1.2267 0.11 1.8 0.33 s1.0933 0.53 1.56 0.93 l0 -0.38 c0 -0.24 0.08666 -0.44666 0.26 -0.62
s0.38668 -0.26 0.64002 -0.26 c0.24 0 0.44666 0.08666 0.62 0.26 s0.26 0.38 0.26 0.62 l0 8.54 c0 0.24
-0.08666 0.44666 -0.26 0.62 s-0.38 0.26 -0.62 0.26 z M346.52 11.78 c-0.46666 0 -0.90332 0.09 -1.31
0.27 s-0.76332 0.42334 -1.07 0.73 s-0.55 0.66332 -0.73 1.07 s-0.27 0.84332 -0.27 1.31 s0.09 0.90332
0.27 1.31 s0.42334 0.76332 0.73 1.07 s0.66332 0.54666 1.07 0.72 s0.84332 0.26 1.31 0.26 s0.90332
-0.08666 1.31 -0.26 s0.76332 -0.41334 1.07 -0.72 s0.54666 -0.66332 0.72 -1.07 s0.26 -0.84332 0.26
-1.31 s-0.08666 -0.90332 -0.26 -1.31 s-0.41334 -0.76332 -0.72 -1.07 s-0.66332 -0.55 -1.07 -0.73
s-0.84332 -0.27 -1.31 -0.27 z M356.15999999999997 8.64 c-0.32 0 -0.59666 -0.11666 -0.83 -0.35 s-0.35
-0.51 -0.35 -0.83 c0 -0.33334 0.11666 -0.61 0.35 -0.83 s0.51 -0.33 0.83 -0.33 c0.33334 0 0.61334
0.11 0.84 0.33 s0.34 0.49666 0.34 0.83 c0 0.32 -0.11666 0.59666 -0.35 0.83 s-0.51 0.35 -0.83 0.35 z
M356.15999999999997 20.3 c-0.24 0 -0.44666 -0.08666 -0.62 -0.26 s-0.26 -0.38 -0.26 -0.62 l0 -8.54 c0
-0.24 0.08666 -0.44666 0.26 -0.62 s0.38 -0.26 0.62 -0.26 s0.45 0.08666 0.63 0.26 s0.27 0.38 0.27
0.62 l0 8.54 c0 0.24 -0.09 0.44666 -0.27 0.62 s-0.39 0.26 -0.63 0.26 z M362.38 10.58 c0.21334
-0.18666 0.45006 -0.33002 0.71006 -0.43002 s0.52334 -0.15 0.79 -0.15 c0.65334 0 1.19 0.16 1.61 0.48
s0.74334 0.78 0.97 1.38 c0.05334 0.13334 0.07334 0.27334 0.06 0.42 s-0.05668 0.28 -0.13002 0.4
s-0.17334 0.21666 -0.3 0.29 s-0.27666 0.11 -0.45 0.11 c-0.14666 0 -0.27666 -0.03334 -0.39 -0.1
s-0.21 -0.14666 -0.29 -0.24 c-0.06666 -0.08 -0.12332 -0.16334 -0.16998 -0.25 s-0.09666 -0.17666
-0.15 -0.27 c-0.09334 -0.14666 -0.19668 -0.26666 -0.31002 -0.36 s-0.30334 -0.12668 -0.57 -0.10002
c-0.17334 0.01334 -0.34 0.06668 -0.5 0.16002 s-0.3 0.20668 -0.42 0.34002 s-0.21666 0.28334 -0.29
0.45 s-0.11 0.33666 -0.11 0.51 l0 6.2 c0 0.24 -0.08666 0.44666 -0.26 0.62 s-0.38 0.26 -0.62 0.26
c-0.25334 0 -0.46668 -0.08666 -0.64002 -0.26 s-0.26 -0.38 -0.26 -0.62 l0 -8.54 c0 -0.24 0.08666
-0.44666 0.26 -0.62 s0.38668 -0.26 0.64002 -0.26 c0.18666 0 0.35332 0.05334 0.49998 0.16 s0.25332
0.24666 0.31998 0.42 z"></path>
	</g>
	<g id="SvgjsG1714" featurekey="dDj50M-0"
		transform="matrix(0.3766352643134714,0,0,0.3766352643134714,136.79661688184137,96.99630140676074)"
		fill="#fef4e8">
		<path
			d="M4.3 20 l0 -12.48 l-3.76 0 l0 -1.76 l9.32 0 l0 1.76 l-3.76 0 l0 12.48 l-1.8 0 z M23.94 12.42
l5.5 7.58 l-2.06 0 l-5.44 -7.48 l-2.04 0 l0 7.48 l-1.72 0 l0 -14.24 l4.94 0 c0.9 0 1.74 0.36 2.38 1
s1 1.48 1 2.38 c0 1.58 -1.1 2.9 -2.56 3.28 z M19.900000000000002 7.48 l0 3.32 l3.22 0 c0.92 0 1.66
-0.74 1.66 -1.66 s-0.74 -1.66 -1.66 -1.66 l-3.22 0 z M45.540000000000006 5.76 l1.8 0 l0 9.02 c0 3
-2.44 5.42 -5.44 5.42 c-2.98 0 -5.42 -2.42 -5.42 -5.42 l0 -9.02 l1.78 0 l0 9.02 c0 2.02 1.64 3.68
3.64 3.68 c2.02 0 3.64 -1.66 3.64 -3.68 l0 -9.02 z M63.36000000000001 18.46 c1.78 0 3.44 -0.82 4.54
-2.26 l1.4 1.04 c-1.42 1.9 -3.6 2.98 -5.94 2.98 c-4.12 0 -7.46 -3.34 -7.46 -7.46 c0 -4.1 3.34 -7.44
7.46 -7.44 c2.36 0 4.54 1.1 5.96 3 l-1.42 1.04 c-1.08 -1.46 -2.74 -2.28 -4.54 -2.28 c-3.16 0 -5.7
2.54 -5.7 5.68 c0 3.16 2.54 5.7 5.7 5.7 z M88.80000000000001 20 l-5.9 -8.28 l-3.08 2.9 l0 5.38
l-1.78 0 l0 -14.24 l1.78 0 l0 6.46 l6.86 -6.46 l2.56 0 l-4.98 4.7 l6.8 9.54 l-2.26 0 z
M115.88000000000001 12.42 l5.5 7.58 l-2.06 0 l-5.44 -7.48 l-2.04 0 l0 7.48 l-1.72 0 l0 -14.24 l4.94
0 c0.9 0 1.74 0.36 2.38 1 s1 1.48 1 2.38 c0 1.58 -1.1 2.9 -2.56 3.28 z M111.84 7.48 l0 3.32 l3.22 0
c0.92 0 1.66 -0.74 1.66 -1.66 s-0.74 -1.66 -1.66 -1.66 l-3.22 0 z M128.86 20 l0 -14.24 l9 0 l0 1.72
l-7.2 0 l0 3.34 l6.28 0 l0 1.78 l-6.28 0 l0 5.64 l7.02 0 l0 1.76 l-8.82 0 z M146.62 20 l0 -14.24
l4.96 0 c0.9 0 1.76 0.36 2.4 1 s1 1.5 1 2.4 c0 1.88 -1.54 3.38 -3.4 3.38 l-3.18 0 l0 7.46 l-1.78 0 z
M151.58 10.8 c0.88 0 1.6 -0.74 1.6 -1.64 s-0.72 -1.66 -1.6 -1.66 l-3.18 0 l0 3.3 l3.18 0 z
M172.16000000000003 20 l-1.58 -4.14 l-5.82 0 l-1.58 4.14 l-1.92 0 l5.48 -14.24 l1.86 0 l5.5 14.24
l-1.94 0 z M169.88000000000002 14.1 l-2.2 -5.76 l-2.22 5.76 l4.42 0 z M182.78000000000003 20 l0
-14.24 l1.8 0 l0 14.24 l-1.8 0 z M200.46 12.42 l5.5 7.58 l-2.06 0 l-5.44 -7.48 l-2.04 0 l0 7.48
l-1.72 0 l0 -14.24 l4.94 0 c0.9 0 1.74 0.36 2.38 1 s1 1.48 1 2.38 c0 1.58 -1.1 2.9 -2.56 3.28 z
M196.42000000000002 7.48 l0 3.32 l3.22 0 c0.92 0 1.66 -0.74 1.66 -1.66 s-0.74 -1.66 -1.66 -1.66
l-3.22 0 z"></path>
	</g>
</svg> -->

<svg xmlns="http://www.w3.org/2000/svg" width="397.2" height="200.7569855388065" viewBox="0 0 350 176.90066701556466"
	class="looka-1j8o68f">
	<defs id="SvgjsDefs1323"></defs>
	<g id="SvgjsG1324" featurekey="symbolFeature-0"
		transform="matrix(1.023391812865497,0,0,1.023391812865497,123.88304093567251,-5.117982381965682)"
		fill="#f8b500">
		<path xmlns="http://www.w3.org/2000/svg"
			d="M31.171,18.399v-0.917c0-0.634-0.515-1.147-1.148-1.147h-9.735c-0.634,0-1.148,0.514-1.148,1.147v0.917H31.171z"></path>
		<path xmlns="http://www.w3.org/2000/svg"
			d="M18.56,21.3v-2.54c0,0-1.025,0.137-1.073,0.343c-0.049,0.206,0.097,0.801,0.438,1.189C18.267,20.682,18.56,21.3,18.56,21.3z  "></path>
		<path xmlns="http://www.w3.org/2000/svg"
			d="M18.56,23.039v2.54c0,0-1.025-0.138-1.073-0.344c-0.049-0.206,0.097-0.801,0.438-1.189  C18.267,23.656,18.56,23.039,18.56,23.039z"></path>
		<path xmlns="http://www.w3.org/2000/svg"
			d="M18.56,21.415L18.56,21.415c-0.27,0-0.488,0.103-0.488,0.228v1.054c0,0.126,0.218,0.229,0.488,0.229l0,0V21.415z"></path>
		<path xmlns="http://www.w3.org/2000/svg"
			d="M26.457,21.62c1.815,0,3.465,0.692,4.714,1.821V18.76H19.139v6.818h0.834C21.381,23.311,23.886,21.62,26.457,21.62z   M29.642,19.404c0.503,0,0.912,0.182,0.912,0.407s-0.409,0.406-0.912,0.406c-0.504,0-0.911-0.182-0.911-0.406  S29.138,19.404,29.642,19.404z M26.747,19.404c0.503,0,0.911,0.182,0.911,0.407s-0.408,0.406-0.911,0.406  c-0.504,0-0.912-0.182-0.912-0.406S26.242,19.404,26.747,19.404z M23.85,19.404c0.502,0,0.911,0.182,0.911,0.407  s-0.409,0.406-0.911,0.406c-0.504,0-0.912-0.182-0.912-0.406S23.345,19.404,23.85,19.404z M20.954,19.404  c0.503,0,0.911,0.182,0.911,0.407s-0.408,0.406-0.911,0.406c-0.504,0-0.911-0.182-0.911-0.406S20.45,19.404,20.954,19.404z"></path>
		<path xmlns="http://www.w3.org/2000/svg"
			d="M76.59,23.219c-3.112,0-5.635,2.522-5.635,5.635s2.522,5.635,5.635,5.635c3.111,0,5.634-2.522,5.634-5.635  S79.701,23.219,76.59,23.219z M76.59,31.937c-1.703,0-3.084-1.38-3.084-3.083c0-1.704,1.381-3.083,3.084-3.083  c1.702,0,3.083,1.379,3.083,3.083C79.673,30.557,78.292,31.937,76.59,31.937z"></path>
		<path xmlns="http://www.w3.org/2000/svg"
			d="M89.366,23.219c-3.112,0-5.635,2.522-5.635,5.635s2.522,5.635,5.635,5.635c3.111,0,5.634-2.522,5.634-5.635  S92.478,23.219,89.366,23.219z M89.366,31.937c-1.703,0-3.083-1.38-3.083-3.083c0-1.704,1.38-3.083,3.083-3.083  c1.702,0,3.083,1.379,3.083,3.083C92.449,30.557,91.068,31.937,89.366,31.937z"></path>
		<rect xmlns="http://www.w3.org/2000/svg" x="53.422" y="21.785" width="16.461" height="8.039"></rect>
		<path xmlns="http://www.w3.org/2000/svg"
			d="M26.379,23.218c-3.112,0-5.635,2.522-5.635,5.635c0,3.111,2.523,5.636,5.635,5.636s5.634-2.524,5.634-5.636  C32.013,25.741,29.491,23.218,26.379,23.218z M26.379,31.936c-1.703,0-3.083-1.381-3.083-3.083c0-1.703,1.381-3.084,3.083-3.084  s3.083,1.381,3.083,3.084C29.462,30.555,28.082,31.936,26.379,31.936z"></path>
		<path xmlns="http://www.w3.org/2000/svg"
			d="M15.152,29.798h4.16v-1.017c0.064-0.944,0.267-1.739,0.547-2.433h-4.707V29.798z"></path>
		<path xmlns="http://www.w3.org/2000/svg"
			d="M12.422,6.35L5,21.315l10.152,5.034l2.091-4.217c-2.951-3.325-0.832-7.63-0.832-7.63l0.085-0.171c0,0,2.916-5.879,9-3.367  l0.911,0.452l0.569-1.147L12.422,6.35z M14.055,23.9l-2.779-1.378l2.498-5.038C13.774,17.484,15.868,21.12,14.055,23.9z"></path>
		<path xmlns="http://www.w3.org/2000/svg"
			d="M51.475,5.001H40.84c0,0-6.581,0.2-8.387,3.966l8.679-0.187c0,0,1.665,0,1.665,0.712c0,0.659-0.716,4.964-8.972,5.525v0.001  h-1.969l2.957,14.78l16.662,0.001V5.001z"></path>
	</g>
	<g id="SvgjsG1325" featurekey="nameFeature-0"
		transform="matrix(0.49567344607403274,0,0,0.49567344607403274,-0.39653424246884345,43.47693563445536)"
		fill="#393e46">
		<path
			d="M21.92 32.08 c0.4 0 0.72 0.32 0.72 0.76 l0 7.16 l-21.072 0 c-0.44 0 -0.76 -0.32 -0.76 -0.76 c0 -0.4 0.32 -0.72 0.76 -0.72 l0.56 0 c0.816 0 1.432 -0.572 1.432 -1.244 l-0.008008 -20.896 c0 -0.676 -0.608 -1.26 -1.432 -1.26 l-0.56 0 c-0.44 0 -0.76 -0.32 -0.76 -0.72 c0 -0.44 0.32 -0.76 0.76 -0.76 l10.792 0 c0.44 0 0.76 0.32 0.76 0.76 c0 0.4 -0.32 0.72 -0.76 0.72 l-0.56 0 c-0.816 0 -1.432 0.584 -1.432 1.244 l0.008008 20.896 c0 0.668 0.608 1.26 1.432 1.26 l4.44 0 c3.16 0 4.92 -2.8 4.92 -5.24 l0 -0.44 c0 -0.44 0.32 -0.76 0.76 -0.76 z M50.685 38.52 c0.4 0 0.76 0.32 0.76 0.76 c0 0.4 -0.36 0.72 -0.76 0.72 l-12.56 0 c-0.4 0 -0.76 -0.32 -0.76 -0.72 c0 -0.44 0.36 -0.76 0.76 -0.76 l1.44 0 c0.82 0 1.312 -0.628 0.96 -1.4 l-2.164 -4.88 l-9.016 0 l-2.02 4.88 c-0.28 0.736 0.16398 1.4 0.96 1.4 l1.44 0 c0.4 0 0.76 0.32 0.76 0.76 c0 0.4 -0.36 0.72 -0.76 0.72 l-7 0 c-0.4 0 -0.76 -0.32 -0.76 -0.72 c0 -0.44 0.36 -0.76 0.76 -0.76 l0.96 0 c1.04 0 1.48 -0.52 1.84 -1.4 l9.84 -23.72 l2.12 0 l10.36 23.76 c0.32 0.72 0.84 1.36 1.96 1.36 l0.88 0 z M29.941000000000003 30.8 l7.784 0 l-4.024 -9.076 z M62.97 38.52 c0.44 0 0.76 0.32 0.76 0.72 c0 0.44 -0.32 0.76 -0.76 0.76 l-10.792 0 c-0.44 0 -0.76 -0.32 -0.76 -0.76 c0 -0.4 0.32 -0.72 0.76 -0.72 l0.56 0 c0.816 0 1.432 -0.572 1.432 -1.244 l-0.008008 -20.896 c0 -0.676 -0.608 -1.26 -1.432 -1.26 l-0.56 0 c-0.44 0 -0.76 -0.32 -0.76 -0.72 c0 -0.44 0.32 -0.76 0.76 -0.76 l10.792 0 c0.44 0 0.76 0.32 0.76 0.76 c0 0.4 -0.32 0.72 -0.76 0.72 l-0.56 0 c-0.816 0 -1.432 0.584 -1.432 1.244 l0.008008 20.896 c0 0.668 0.608 1.26 1.432 1.26 l0.56 0 z M78.69 38.52 c0.44 0 0.76 0.32 0.76 0.76 c0 0.4 -0.32 0.72 -0.76 0.72 l-11.416 0 c-0.44 0 -0.76 -0.32 -0.76 -0.76 c0 -0.4 0.32 -0.72 0.76 -0.72 l0.2 0 c0.912 0 1.12 -0.64 0.6 -1.4 l-6.84 -10.12 l11.4 -10.6 c0.588 -0.54 0.32801 -1.28 -0.6 -1.28 l-0.8 0 c-0.44 0 -0.76 -0.32 -0.76 -0.76 c0 -0.4 0.32 -0.72 0.76 -0.72 l6.96 0 c0.44 0 0.76 0.32 0.76 0.76 c0 0.4 -0.32 0.72 -0.76 0.72 l-0.36 0 c-1.08 0 -1.76 0.28 -2.84 1.28 l-7.912 7.324 l9.472 13.876 c0.44 0.64 0.96 0.92 1.8 0.92 l0.33602 0 z M100.975 32.08 c0.4 0 0.72004 0.32 0.72004 0.76 l0 7.16 l-21.392 0 c-0.44 0 -0.76 -0.32 -0.76 -0.76 c0 -0.4 0.32 -0.72 0.76 -0.72 l0.56 0 c0.816 0 1.432 -0.584 1.432 -1.244 l-0.008008 -20.896 c0 -0.668 -0.608 -1.26 -1.432 -1.26 l-0.56 0 c-0.44 0 -0.76 -0.32 -0.76 -0.72 c0 -0.44 0.32 -0.76 0.76 -0.76 l21.4 0 l0 7.16 c0 0.44 -0.32 0.76 -0.76 0.76 c-0.4 0 -0.72 -0.32 -0.72 -0.76 l0 -0.16 c0 -2.76 -1.64 -5.52 -4.92 -5.52 l-4.768 0 c-0.816 0 -1.432 0.572 -1.432 1.244 l0.0039844 9.156 l0.47602 0 c2.88 0 4.32 -1.04 4.32 -3.88 l0 -0.08 c0 -0.4 0.36 -0.76 0.76 -0.76 s0.76 0.36 0.76 0.76 l0 9.48 c0 0.4 -0.36 0.76 -0.76 0.76 s-0.76 -0.32 -0.76 -0.88 l0 -0.08 c0 -2.64 -1.36 -3.76 -4.32 -3.76 l-0.47602 0 l0.0039844 10.18 c0 0.676 0.608 1.26 1.432 1.26 l4.76 0 c3.28 0 4.92 -2.76 4.92 -5.52 l0 -0.16 c0 -0.44 0.32 -0.76 0.76 -0.76 z M130.561 26.112000000000002 c5.448 0.444 8.864 2.24 8.864 6.528 c0 4.8 -4 7.36 -11.44 7.36 l-13.832 0 c-0.44 0 -0.76 -0.32 -0.76 -0.76 c0 -0.4 0.32 -0.72 0.76 -0.72 l0.56 0 c0.88 0 1.44 -0.68 1.44 -1.4 l-0.008008 -20.6 c0 -0.72 -0.56 -1.4 -1.44 -1.4 l-0.56 0 c-0.44 0 -0.76 -0.32 -0.76 -0.72 c0 -0.44 0.32 -0.76 0.76 -0.76 l12.92 0 c5.96 0 10.8 1.4 10.8 5.92 c0 3.188 -2.26 5.768 -7.304 6.552 z M122.977 16.52 l0 9.2 l1.688 0 c3.2 0 5.72 -1.64 5.72 -5.52 c0 -3.052 -1.768 -5.044 -5.968 -5.08 l-0.08 0 c-0.812 0 -1.36 0.712 -1.36 1.4 z M125.22500000000001 38.52 c3.76 0 6.68 -2.08 6.68 -5.76 c0 -3.52 -2.64 -5.48 -6.68 -5.48 l-2.24 0 l0 9.84 c0 0.72 0.56 1.4 1.44 1.4 l0.8 0 z M161.75 32.08 c0.4 0 0.72 0.32 0.72 0.76 l0 7.16 l-21.072 0 c-0.44 0 -0.76 -0.32 -0.76 -0.76 c0 -0.4 0.32 -0.72 0.76 -0.72 l0.56 0 c0.816 0 1.432 -0.572 1.432 -1.244 l-0.008008 -20.896 c0 -0.676 -0.608 -1.26 -1.432 -1.26 l-0.56 0 c-0.44 0 -0.76 -0.32 -0.76 -0.72 c0 -0.44 0.32 -0.76 0.76 -0.76 l10.792 0 c0.44 0 0.76 0.32 0.76 0.76 c0 0.4 -0.32 0.72 -0.76 0.72 l-0.56 0 c-0.816 0 -1.432 0.584 -1.432 1.244 l0.008008 20.896 c0 0.668 0.608 1.26 1.432 1.26 l4.44 0 c3.16 0 4.92 -2.8 4.92 -5.24 l0 -0.44 c0 -0.44 0.32 -0.76 0.76 -0.76 z M189.315 13.64 c0.44 0 0.76 0.32 0.76 0.72 c0 0.44 -0.32 0.76 -0.76 0.76 l-0.56 0 c-0.88 0 -1.44 0.68 -1.44 1.4 l0 13.44 c0 7.52 -4.44 10.52 -10.56 10.52 c-6.04 0 -11.48 -3.12 -11.48 -10.52 l0 -13.44 c0 -0.72 -0.56 -1.4 -1.44 -1.4 l-0.56 0 c-0.44 0 -0.76 -0.32 -0.76 -0.72 c0 -0.44 0.32 -0.76 0.76 -0.76 l10.8 0 c0.44 0 0.76 0.32 0.76 0.76 c0 0.4 -0.32 0.72 -0.76 0.72 l-0.56 0 c-0.88 0 -1.44 0.68 -1.44 1.4 l0 13.88 c0 5.28 2.6 7.76 6.56 7.76 s6.88 -2.44 6.88 -7.76 l0 -13.88 c0 -0.72 -0.56 -1.4 -1.44 -1.4 l-0.56 0 c-0.44 0 -0.76 -0.32 -0.76 -0.76 c0 -0.4 0.32 -0.72 0.76 -0.72 l5.8 0 z M191.52 13.64 l21 0 l0 7.16 c0 0.44 -0.32 0.76 -0.76 0.76 c-0.4 0 -0.72 -0.32 -0.72 -0.76 l0 -0.16 c0 -2.76 -1.64 -5.52 -4.92 -5.52 l-4.368 0 c-0.816 0 -1.432 0.584 -1.432 1.244 l0.0039844 9.156 l1.076 0 c2.88 0 4.32 -1.04 4.32 -3.88 l0 -0.08 c0 -0.4 0.36 -0.76 0.76 -0.76 s0.76 0.36 0.76 0.76 l0 9.48 c0 0.4 -0.36 0.76 -0.76 0.76 s-0.76 -0.32 -0.76 -0.88 l0 -0.08 c0 -2.64 -1.36 -3.76 -4.32 -3.76 l-1.076 0 l0.0039844 10.18 c0 0.668 0.608 1.26 1.432 1.26 l1.6 0 c0.44 0 0.76 0.32 0.76 0.76 c0 0.4 -0.32 0.72 -0.76 0.72 l-11.832 0 c-0.44 0 -0.76 -0.32 -0.76 -0.76 c0 -0.4 0.32 -0.72 0.76 -0.72 l0.56 0 c0.816 0 1.432 -0.572 1.432 -1.244 l-0.008008 -20.896 c0 -0.676 -0.608 -1.26 -1.432 -1.26 l-0.56 0 c-0.44 0 -0.76 -0.32 -0.76 -0.72 c0 -0.44 0.32 -0.76 0.76 -0.76 z M215.28500000000003 13.64 l21 0 l0 7.16 c0 0.44 -0.32 0.76 -0.76 0.76 c-0.4 0 -0.72 -0.32 -0.72 -0.76 l0 -0.16 c0 -2.76 -1.64 -5.52 -4.92 -5.52 l-4.368 0 c-0.816 0 -1.432 0.584 -1.432 1.244 l0.0039844 9.156 l1.076 0 c2.88 0 4.32 -1.04 4.32 -3.88 l0 -0.08 c0 -0.4 0.36 -0.76 0.76 -0.76 s0.76 0.36 0.76 0.76 l0 9.48 c0 0.4 -0.36 0.76 -0.76 0.76 s-0.76 -0.32 -0.76 -0.88 l0 -0.08 c0 -2.64 -1.36 -3.76 -4.32 -3.76 l-1.076 0 l0.0039844 10.18 c0 0.668 0.608 1.26 1.432 1.26 l1.6 0 c0.44 0 0.76 0.32 0.76 0.76 c0 0.4 -0.32 0.72 -0.76 0.72 l-11.832 0 c-0.44 0 -0.76 -0.32 -0.76 -0.76 c0 -0.4 0.32 -0.72 0.76 -0.72 l0.56 0 c0.816 0 1.432 -0.572 1.432 -1.244 l-0.008008 -20.896 c0 -0.676 -0.608 -1.26 -1.432 -1.26 l-0.56 0 c-0.44 0 -0.76 -0.32 -0.76 -0.72 c0 -0.44 0.32 -0.76 0.76 -0.76 z M263.295 40.24 l-2.12 0 l-9.64 -23.468 l0 20.348 c0 0.72 0.56 1.4 1.44 1.4 l0.56 0 c0.44 0 0.76 0.32 0.76 0.76 c0 0.4 -0.32 0.72 -0.76 0.72 l-5.8 0 c-0.44 0 -0.76 -0.32 -0.76 -0.72 c0 -0.44 0.32 -0.76 0.76 -0.76 l0.56 0 c0.88 0 1.44 -0.68 1.44 -1.4 l0 -20.6 c0 -0.72 -0.56 -1.4 -1.44 -1.4 l-0.56 0 c-0.44 0 -0.76 -0.32 -0.76 -0.76 c0 -0.4 0.32 -0.72 0.76 -0.72 l9.72 0 l7.396 17.908 l7.044 -17.908 l9.312 0 c0.44 0 0.76 0.32 0.76 0.76 c0 0.4 -0.32 0.72 -0.76 0.72 l-0.56 0 c-0.88 0 -1.44 0.68 -1.44 1.4 l0.008008 20.6 c0 0.72 0.56 1.4 1.44 1.4 l0.56 0 c0.44 0 0.76 0.32 0.76 0.72 c0 0.44 -0.32 0.76 -0.76 0.76 l-10.8 0 c-0.44 0 -0.76 -0.32 -0.76 -0.76 c0 -0.4 0.32 -0.72 0.76 -0.72 l0.56 0 c0.86 0 1.416 -0.648 1.44 -1.352 l-0.008008 -20.22 z M297.54 13.2 c8.6 0 14.28 6 14.28 13.64 s-5.68 13.64 -14.28 13.64 c-8.64 0 -14.28 -6 -14.28 -13.64 s5.64 -13.64 14.28 -13.64 z M297.54 39 c5.24 0 6.76 -5.44 6.76 -12.16 s-1.52 -12.16 -6.76 -12.16 s-6.76 5.44 -6.76 12.16 s1.52 12.16 6.76 12.16 z M330.281 26.112000000000002 c5.448 0.444 8.864 2.24 8.864 6.528 c0 4.8 -4 7.36 -11.44 7.36 l-13.832 0 c-0.44 0 -0.76 -0.32 -0.76 -0.76 c0 -0.4 0.32 -0.72 0.76 -0.72 l0.56 0 c0.88 0 1.44 -0.68 1.44 -1.4 l-0.008008 -20.6 c0 -0.72 -0.56 -1.4 -1.44 -1.4 l-0.56 0 c-0.44 0 -0.76 -0.32 -0.76 -0.72 c0 -0.44 0.32 -0.76 0.76 -0.76 l12.92 0 c5.96 0 10.8 1.4 10.8 5.92 c0 3.188 -2.26 5.768 -7.304 6.552 z M322.697 16.52 l0 9.2 l1.688 0 c3.2 0 5.72 -1.64 5.72 -5.52 c0 -3.052 -1.768 -5.044 -5.968 -5.08 l-0.08 0 c-0.812 0 -1.36 0.712 -1.36 1.4 z M324.945 38.52 c3.76 0 6.68 -2.08 6.68 -5.76 c0 -3.52 -2.64 -5.48 -6.68 -5.48 l-2.24 0 l0 9.84 c0 0.72 0.56 1.4 1.44 1.4 l0.8 0 z M351.91 38.52 c0.44 0 0.76 0.32 0.76 0.72 c0 0.44 -0.32 0.76 -0.76 0.76 l-10.792 0 c-0.44 0 -0.76 -0.32 -0.76 -0.76 c0 -0.4 0.32 -0.72 0.76 -0.72 l0.56 0 c0.816 0 1.432 -0.572 1.432 -1.244 l-0.008008 -20.896 c0 -0.676 -0.608 -1.26 -1.432 -1.26 l-0.56 0 c-0.44 0 -0.76 -0.32 -0.76 -0.72 c0 -0.44 0.32 -0.76 0.76 -0.76 l10.792 0 c0.44 0 0.76 0.32 0.76 0.76 c0 0.4 -0.32 0.72 -0.76 0.72 l-0.56 0 c-0.816 0 -1.432 0.584 -1.432 1.244 l0.008008 20.896 c0 0.668 0.608 1.26 1.432 1.26 l0.56 0 z M374.475 32.08 c0.4 0 0.72 0.32 0.72 0.76 l0 7.16 l-21.072 0 c-0.44 0 -0.76 -0.32 -0.76 -0.76 c0 -0.4 0.32 -0.72 0.76 -0.72 l0.56 0 c0.816 0 1.432 -0.572 1.432 -1.244 l-0.008008 -20.896 c0 -0.676 -0.608 -1.26 -1.432 -1.26 l-0.56 0 c-0.44 0 -0.76 -0.32 -0.76 -0.72 c0 -0.44 0.32 -0.76 0.76 -0.76 l10.792 0 c0.44 0 0.76 0.32 0.76 0.76 c0 0.4 -0.32 0.72 -0.76 0.72 l-0.56 0 c-0.816 0 -1.432 0.584 -1.432 1.244 l0.008008 20.896 c0 0.668 0.608 1.26 1.432 1.26 l4.44 0 c3.16 0 4.92 -2.8 4.92 -5.24 l0 -0.44 c0 -0.44 0.32 -0.76 0.76 -0.76 z M396.68 32.08 c0.4 0 0.72004 0.32 0.72004 0.76 l0 7.16 l-21.392 0 c-0.44 0 -0.76 -0.32 -0.76 -0.76 c0 -0.4 0.32 -0.72 0.76 -0.72 l0.56 0 c0.816 0 1.432 -0.584 1.432 -1.244 l-0.008008 -20.896 c0 -0.668 -0.608 -1.26 -1.432 -1.26 l-0.56 0 c-0.44 0 -0.76 -0.32 -0.76 -0.72 c0 -0.44 0.32 -0.76 0.76 -0.76 l21.4 0 l0 7.16 c0 0.44 -0.32 0.76 -0.76 0.76 c-0.4 0 -0.72 -0.32 -0.72 -0.76 l0 -0.16 c0 -2.76 -1.64 -5.52 -4.92 -5.52 l-4.768 0 c-0.816 0 -1.432 0.572 -1.432 1.244 l0.0039844 9.156 l0.47602 0 c2.88 0 4.32 -1.04 4.32 -3.88 l0 -0.08 c0 -0.4 0.36 -0.76 0.76 -0.76 s0.76 0.36 0.76 0.76 l0 9.48 c0 0.4 -0.36 0.76 -0.76 0.76 s-0.76 -0.32 -0.76 -0.88 l0 -0.08 c0 -2.64 -1.36 -3.76 -4.32 -3.76 l-0.47602 0 l0.0039844 10.18 c0 0.676 0.608 1.26 1.432 1.26 l4.76 0 c3.28 0 4.92 -2.76 4.92 -5.52 l0 -0.16 c0 -0.44 0.32 -0.76 0.76 -0.76 z M423.97 13.2 c8.6 0 14.28 6 14.28 13.64 s-5.68 13.64 -14.28 13.64 c-8.64 0 -14.28 -6 -14.28 -13.64 s5.64 -13.64 14.28 -13.64 z M423.97 39 c5.24 0 6.76 -5.44 6.76 -12.16 s-1.52 -12.16 -6.76 -12.16 s-6.76 5.44 -6.76 12.16 s1.52 12.16 6.76 12.16 z M464.375 13.64 c0.44 0 0.76 0.32 0.76 0.72 c0 0.44 -0.32 0.76 -0.76 0.76 l-0.56 0 c-0.88 0 -1.44 0.68 -1.44 1.4 l0 23.48 l-3.36 0 l-14.92 -19.3 l0 16.42 c0 0.72 0.56 1.4 1.44 1.4 l0.56 0 c0.44 0 0.76 0.32 0.76 0.76 c0 0.4 -0.32 0.72 -0.76 0.72 l-5.8 0 c-0.44 0 -0.76 -0.32 -0.76 -0.72 c0 -0.44 0.32 -0.76 0.76 -0.76 l0.56 0 c0.88 0 1.44 -0.68 1.44 -1.4 l0 -20.6 c0 -0.72 -0.56 -1.4 -1.44 -1.4 l-0.56 0 c-0.44 0 -0.76 -0.32 -0.76 -0.76 c0 -0.4 0.32 -0.72 0.76 -0.72 l6.36 0 l13.92 17.888 l0 -15.008 c0 -0.72 -0.56 -1.4 -1.44 -1.4 l-0.56 0 c-0.44 0 -0.76 -0.32 -0.76 -0.76 c0 -0.4 0.32 -0.72 0.76 -0.72 l5.8 0 z M476.22 29.4 c0.44 0 0.76 0.32 0.76 0.76 c0 0.4 -0.32 0.72 -0.76 0.72 l-9.44 0 c-0.44 0 -0.76 -0.32 -0.76 -0.76 c0 -0.4 0.32 -0.72 0.76 -0.72 l9.44 0 z M488.46500000000003 40.48 c-5.68 0 -9.8 -3.28 -9.8 -7.16 c0 -2.08 1.48 -3.08 2.92 -3.08 c1.28 0 2.56 0.84 2.56 2.48 c0 1.52 -1.4 2.24 -1.4 3.24 c0 1.76 2.72 3 5.04 3 c2.88 0 6.04 -1.32 6.04 -4.76 c0 -5.72 -14.48 -3.08 -14.48 -12.92 c0 -5.92 5.16 -8.12 10.72 -8.12 c4.88 0 9.44 2.76 9.44 6.48 c0 2.2 -1.48 3.24 -2.88 3.24 c-1.32 0 -2.6 -0.88 -2.6 -2.52 c0 -1.68 1.36 -2.08 1.36 -3.08 c0 -1.64 -2.72 -2.6 -5 -2.6 c-3.04 0 -5.72 1.24 -5.72 4.44 c0 5.48 15.48 3.44 15.48 13.08 c0 4.44 -4.36 8.28 -11.68 8.28 z M513.19 38.52 c0.44 0 0.76 0.32 0.76 0.72 c0 0.44 -0.32 0.76 -0.76 0.76 l-10.792 0 c-0.44 0 -0.76 -0.32 -0.76 -0.76 c0 -0.4 0.32 -0.72 0.76 -0.72 l0.56 0 c0.816 0 1.432 -0.572 1.432 -1.244 l-0.008008 -20.896 c0 -0.676 -0.608 -1.26 -1.432 -1.26 l-0.56 0 c-0.44 0 -0.76 -0.32 -0.76 -0.72 c0 -0.44 0.32 -0.76 0.76 -0.76 l10.792 0 c0.44 0 0.76 0.32 0.76 0.76 c0 0.4 -0.32 0.72 -0.76 0.72 l-0.56 0 c-0.816 0 -1.432 0.584 -1.432 1.244 l0.008008 20.896 c0 0.668 0.608 1.26 1.432 1.26 l0.56 0 z M538.2750000000001 13.64 l0 7.16 c0 0.44 -0.32 0.76 -0.76 0.76 c-0.4 0 -0.72 -0.32 -0.72 -0.76 l0 -0.16 c0 -2.76 -1.64 -5.52 -4.92 -5.52 l-0.68801 0 c-0.816 0 -1.432 0.584 -1.432 1.244 l0.008008 20.896 c0 0.668 0.608 1.26 1.432 1.26 l0.56 0 c0.44 0 0.76 0.32 0.76 0.72 c0 0.44 -0.32 0.76 -0.76 0.76 l-10.792 0 c-0.44 0 -0.76 -0.32 -0.76 -0.76 c0 -0.4 0.32 -0.72 0.76 -0.72 l0.56 0 c0.816 0 1.432 -0.572 1.432 -1.244 l-0.008008 -20.896 c0 -0.676 -0.608 -1.26 -1.432 -1.26 l-0.68 0 c-3.28 0 -4.92 2.76 -4.92 5.52 l0 0.16 c0 0.44 -0.32 0.76 -0.76 0.76 c-0.4 0 -0.72 -0.32 -0.72 -0.76 l0 -7.16 l23.84 0 z M560.2 32.08 c0.4 0 0.72004 0.32 0.72004 0.76 l0 7.16 l-21.392 0 c-0.44 0 -0.76 -0.32 -0.76 -0.76 c0 -0.4 0.32 -0.72 0.76 -0.72 l0.56 0 c0.816 0 1.432 -0.584 1.432 -1.244 l-0.008008 -20.896 c0 -0.668 -0.608 -1.26 -1.432 -1.26 l-0.56 0 c-0.44 0 -0.76 -0.32 -0.76 -0.72 c0 -0.44 0.32 -0.76 0.76 -0.76 l21.4 0 l0 7.16 c0 0.44 -0.32 0.76 -0.76 0.76 c-0.4 0 -0.72 -0.32 -0.72 -0.76 l0 -0.16 c0 -2.76 -1.64 -5.52 -4.92 -5.52 l-4.768 0 c-0.816 0 -1.432 0.572 -1.432 1.244 l0.0039844 9.156 l0.47602 0 c2.88 0 4.32 -1.04 4.32 -3.88 l0 -0.08 c0 -0.4 0.36 -0.76 0.76 -0.76 s0.76 0.36 0.76 0.76 l0 9.48 c0 0.4 -0.36 0.76 -0.76 0.76 s-0.76 -0.32 -0.76 -0.88 l0 -0.08 c0 -2.64 -1.36 -3.76 -4.32 -3.76 l-0.47602 0 l0.0039844 10.18 c0 0.676 0.608 1.26 1.432 1.26 l4.76 0 c3.28 0 4.92 -2.76 4.92 -5.52 l0 -0.16 c0 -0.44 0.32 -0.76 0.76 -0.76 z M596.25 13.64 l0 7.16 c0 0.44 -0.32 0.76 -0.76 0.76 c-0.4 0 -0.72 -0.32 -0.72 -0.76 l0 -0.16 c0 -2.76 -1.64 -5.52 -4.92 -5.52 l-0.68801 0 c-0.816 0 -1.432 0.584 -1.432 1.244 l0.008008 20.896 c0 0.668 0.608 1.26 1.432 1.26 l0.56 0 c0.44 0 0.76 0.32 0.76 0.72 c0 0.44 -0.32 0.76 -0.76 0.76 l-10.792 0 c-0.44 0 -0.76 -0.32 -0.76 -0.76 c0 -0.4 0.32 -0.72 0.76 -0.72 l0.56 0 c0.816 0 1.432 -0.572 1.432 -1.244 l-0.008008 -20.896 c0 -0.676 -0.608 -1.26 -1.432 -1.26 l-0.68 0 c-3.28 0 -4.92 2.76 -4.92 5.52 l0 0.16 c0 0.44 -0.32 0.76 -0.76 0.76 c-0.4 0 -0.72 -0.32 -0.72 -0.76 l0 -7.16 l23.84 0 z M624.0949999999999 38.04 c0.36 0 0.56004 0.28 0.56004 0.6 c0 1.076 -1.888 1.82 -4.08 1.82 c-11.296 0 -2.936 -12.3 -12.68 -12.3 l-1.596 0 l0.0039844 9.1 c0 0.668 0.608 1.26 1.432 1.26 l0.56 0 c0.44 0 0.76 0.32 0.76 0.72 c0 0.44 -0.32 0.76 -0.76 0.76 l-10.792 0 c-0.44 0 -0.76 -0.32 -0.76 -0.76 c0 -0.4 0.32 -0.72 0.76 -0.72 l0.56 0 c0.816 0 1.432 -0.572 1.432 -1.244 l-0.008008 -20.896 c0 -0.676 -0.608 -1.26 -1.432 -1.26 l-0.56 0 c-0.44 0 -0.76 -0.32 -0.76 -0.72 c0 -0.44 0.32 -0.76 0.76 -0.76 l13.24 0 c6.92 0 10.28 2.56 10.28 6.8 c0 3.356 -2.628 5.788 -7.084 6.728 c9.368 1.9 4.8 11.392 8.364 11.392 c0.92 0 1.16 -0.52 1.8 -0.52 z M606.299 26.64 l2.5561 0 c3.96 0 4.92 -3.04 4.92 -5.96 c0 -2.8 -1.56 -5.56 -5.72 -5.56 l-0.32801 0 c-0.816 0 -1.432 0.584 -1.432 1.244 z M651.14 13.64 c0.44 0 0.76 0.32 0.76 0.72 c0 0.44 -0.32 0.76 -0.76 0.76 l-0.56 0 c-0.88 0 -1.44 0.68 -1.44 1.4 l0 13.44 c0 7.52 -4.44 10.52 -10.56 10.52 c-6.04 0 -11.48 -3.12 -11.48 -10.52 l0 -13.44 c0 -0.72 -0.56 -1.4 -1.44 -1.4 l-0.56 0 c-0.44 0 -0.76 -0.32 -0.76 -0.72 c0 -0.44 0.32 -0.76 0.76 -0.76 l10.8 0 c0.44 0 0.76 0.32 0.76 0.76 c0 0.4 -0.32 0.72 -0.76 0.72 l-0.56 0 c-0.88 0 -1.44 0.68 -1.44 1.4 l0 13.88 c0 5.28 2.6 7.76 6.56 7.76 s6.88 -2.44 6.88 -7.76 l0 -13.88 c0 -0.72 -0.56 -1.4 -1.44 -1.4 l-0.56 0 c-0.44 0 -0.76 -0.32 -0.76 -0.76 c0 -0.4 0.32 -0.72 0.76 -0.72 l5.8 0 z M673.305 17.56 c0 -1.56 -2.28 -2.76 -5.08 -2.76 c-3.76 0 -7.52 2.6 -7.52 12.04 c0 7.04 2.88 11.6 7.76 11.6 c2.88 0 5.44 -1.28 6.96 -3.72 c0.52 -0.84 0.8 -0.96 1.12 -0.96 c0.4 0 0.72 0.32 0.72 0.72 c0 0.44 -0.36 1.04 -0.96 1.84 c-1.56 2 -4.52 4.16 -9.28 4.16 c-8.84 0 -13.84 -5.96 -13.84 -13.64 c0 -7.64 5.4 -13.68 14.04 -13.68 c6.08 0 10.08 3.16 10.08 6.84 c0 2.56 -1.56 3.68 -3.04 3.68 c-1.36 0 -2.68 -0.92 -2.68 -2.56 c0 -1.72 1.72 -2.32 1.72 -3.56 z M690.43 38.52 c0.44 0 0.76 0.32 0.76 0.72 c0 0.44 -0.32 0.76 -0.76 0.76 l-10.792 0 c-0.44 0 -0.76 -0.32 -0.76 -0.76 c0 -0.4 0.32 -0.72 0.76 -0.72 l0.56 0 c0.816 0 1.432 -0.572 1.432 -1.244 l-0.008008 -20.896 c0 -0.676 -0.608 -1.26 -1.432 -1.26 l-0.56 0 c-0.44 0 -0.76 -0.32 -0.76 -0.72 c0 -0.44 0.32 -0.76 0.76 -0.76 l10.792 0 c0.44 0 0.76 0.32 0.76 0.76 c0 0.4 -0.32 0.72 -0.76 0.72 l-0.56 0 c-0.816 0 -1.432 0.584 -1.432 1.244 l0.008008 20.896 c0 0.668 0.608 1.26 1.432 1.26 l0.56 0 z M706.15 38.52 c0.44 0 0.76 0.32 0.76 0.76 c0 0.4 -0.32 0.72 -0.76 0.72 l-11.416 0 c-0.44 0 -0.76 -0.32 -0.76 -0.76 c0 -0.4 0.32 -0.72 0.76 -0.72 l0.2 0 c0.912 0 1.12 -0.64 0.6 -1.4 l-6.84 -10.12 l11.4 -10.6 c0.588 -0.54 0.32801 -1.28 -0.6 -1.28 l-0.8 0 c-0.44 0 -0.76 -0.32 -0.76 -0.76 c0 -0.4 0.32 -0.72 0.76 -0.72 l6.96 0 c0.44 0 0.76 0.32 0.76 0.76 c0 0.4 -0.32 0.72 -0.76 0.72 l-0.36 0 c-1.08 0 -1.76 0.28 -2.84 1.28 l-7.912 7.324 l9.472 13.876 c0.44 0.64 0.96 0.92 1.8 0.92 l0.33602 0 z"></path>
	</g>
	<g id="SvgjsG1326" featurekey="nameFeature-1"
		transform="matrix(2.3734441139256486,0,0,2.3734441139256486,-1.8987947890880095,42.19584977879339)"
		fill="#393e46">
		<path
			d="M28.16 38.04 c0.36 0 0.56004 0.28 0.56004 0.6 c0 1.076 -1.888 1.82 -4.08 1.82 c-11.296 0 -2.936 -12.3 -12.68 -12.3 l-1.596 0 l0.0039844 9.1 c0 0.668 0.608 1.26 1.432 1.26 l0.56 0 c0.44 0 0.76 0.32 0.76 0.72 c0 0.44 -0.32 0.76 -0.76 0.76 l-10.792 0 c-0.44 0 -0.76 -0.32 -0.76 -0.76 c0 -0.4 0.32 -0.72 0.76 -0.72 l0.56 0 c0.816 0 1.432 -0.572 1.432 -1.244 l-0.008008 -20.896 c0 -0.676 -0.608 -1.26 -1.432 -1.26 l-0.56 0 c-0.44 0 -0.76 -0.32 -0.76 -0.72 c0 -0.44 0.32 -0.76 0.76 -0.76 l13.24 0 c6.92 0 10.28 2.56 10.28 6.8 c0 3.356 -2.628 5.788 -7.084 6.728 c9.368 1.9 4.8 11.392 8.364 11.392 c0.92 0 1.16 -0.52 1.8 -0.52 z M10.364 26.64 l2.5561 0 c3.96 0 4.92 -3.04 4.92 -5.96 c0 -2.8 -1.56 -5.56 -5.72 -5.56 l-0.32801 0 c-0.816 0 -1.432 0.584 -1.432 1.244 z M49.845 32.08 c0.4 0 0.72004 0.32 0.72004 0.76 l0 7.16 l-21.392 0 c-0.44 0 -0.76 -0.32 -0.76 -0.76 c0 -0.4 0.32 -0.72 0.76 -0.72 l0.56 0 c0.816 0 1.432 -0.584 1.432 -1.244 l-0.008008 -20.896 c0 -0.668 -0.608 -1.26 -1.432 -1.26 l-0.56 0 c-0.44 0 -0.76 -0.32 -0.76 -0.72 c0 -0.44 0.32 -0.76 0.76 -0.76 l21.4 0 l0 7.16 c0 0.44 -0.32 0.76 -0.76 0.76 c-0.4 0 -0.72 -0.32 -0.72 -0.76 l0 -0.16 c0 -2.76 -1.64 -5.52 -4.92 -5.52 l-4.768 0 c-0.816 0 -1.432 0.572 -1.432 1.244 l0.0039844 9.156 l0.47602 0 c2.88 0 4.32 -1.04 4.32 -3.88 l0 -0.08 c0 -0.4 0.36 -0.76 0.76 -0.76 s0.76 0.36 0.76 0.76 l0 9.48 c0 0.4 -0.36 0.76 -0.76 0.76 s-0.76 -0.32 -0.76 -0.88 l0 -0.08 c0 -2.64 -1.36 -3.76 -4.32 -3.76 l-0.47602 0 l0.0039844 10.18 c0 0.676 0.608 1.26 1.432 1.26 l4.76 0 c3.28 0 4.92 -2.76 4.92 -5.52 l0 -0.16 c0 -0.44 0.32 -0.76 0.76 -0.76 z M78.25 21.6 c0 4.76 -3.48 8.48 -11.52 8.48 l-3.596 0 l0.0039844 7.18 c0 0.668 0.608 1.26 1.432 1.26 l1.6 0 c0.44 0 0.76 0.32 0.76 0.76 c0 0.4 -0.32 0.72 -0.76 0.72 l-11.832 0 c-0.44 0 -0.76 -0.32 -0.76 -0.76 c0 -0.4 0.32 -0.72 0.76 -0.72 l0.56 0 c0.816 0 1.432 -0.572 1.432 -1.244 l-0.008008 -20.896 c0 -0.676 -0.608 -1.26 -1.432 -1.26 l-0.56 0 c-0.44 0 -0.76 -0.32 -0.76 -0.72 c0 -0.44 0.32 -0.76 0.76 -0.76 l12.4 0 c8.04 0 11.52 3.6 11.52 7.96 z M63.134 28.6 l2.0761 0 c3.72 0 5.64 -2.68 5.64 -7 c0 -3.64 -1.52 -6.48 -5.64 -6.48 l-0.64801 0 c-0.816 0 -1.432 0.584 -1.432 1.244 z M106.615 38.52 c0.4 0 0.76 0.32 0.76 0.76 c0 0.4 -0.36 0.72 -0.76 0.72 l-12.56 0 c-0.4 0 -0.76 -0.32 -0.76 -0.72 c0 -0.44 0.36 -0.76 0.76 -0.76 l1.44 0 c0.82 0 1.312 -0.628 0.96 -1.4 l-2.164 -4.88 l-9.016 0 l-2.02 4.88 c-0.28 0.736 0.16398 1.4 0.96 1.4 l1.44 0 c0.4 0 0.76 0.32 0.76 0.76 c0 0.4 -0.36 0.72 -0.76 0.72 l-7 0 c-0.4 0 -0.76 -0.32 -0.76 -0.72 c0 -0.44 0.36 -0.76 0.76 -0.76 l0.96 0 c1.04 0 1.48 -0.52 1.84 -1.4 l9.84 -23.72 l2.12 0 l10.36 23.76 c0.32 0.72 0.84 1.36 1.96 1.36 l0.88 0 z M85.871 30.8 l7.784 0 l-4.024 -9.076 z M118.89999999999999 38.52 c0.44 0 0.76 0.32 0.76 0.72 c0 0.44 -0.32 0.76 -0.76 0.76 l-10.792 0 c-0.44 0 -0.76 -0.32 -0.76 -0.76 c0 -0.4 0.32 -0.72 0.76 -0.72 l0.56 0 c0.816 0 1.432 -0.572 1.432 -1.244 l-0.008008 -20.896 c0 -0.676 -0.608 -1.26 -1.432 -1.26 l-0.56 0 c-0.44 0 -0.76 -0.32 -0.76 -0.72 c0 -0.44 0.32 -0.76 0.76 -0.76 l10.792 0 c0.44 0 0.76 0.32 0.76 0.76 c0 0.4 -0.32 0.72 -0.76 0.72 l-0.56 0 c-0.816 0 -1.432 0.584 -1.432 1.244 l0.008008 20.896 c0 0.668 0.608 1.26 1.432 1.26 l0.56 0 z M147.70499999999998 38.04 c0.36 0 0.56004 0.28 0.56004 0.6 c0 1.076 -1.888 1.82 -4.08 1.82 c-11.296 0 -2.936 -12.3 -12.68 -12.3 l-1.596 0 l0.0039844 9.1 c0 0.668 0.608 1.26 1.432 1.26 l0.56 0 c0.44 0 0.76 0.32 0.76 0.72 c0 0.44 -0.32 0.76 -0.76 0.76 l-10.792 0 c-0.44 0 -0.76 -0.32 -0.76 -0.76 c0 -0.4 0.32 -0.72 0.76 -0.72 l0.56 0 c0.816 0 1.432 -0.572 1.432 -1.244 l-0.008008 -20.896 c0 -0.676 -0.608 -1.26 -1.432 -1.26 l-0.56 0 c-0.44 0 -0.76 -0.32 -0.76 -0.72 c0 -0.44 0.32 -0.76 0.76 -0.76 l13.24 0 c6.92 0 10.28 2.56 10.28 6.8 c0 3.356 -2.628 5.788 -7.084 6.728 c9.368 1.9 4.8 11.392 8.364 11.392 c0.92 0 1.16 -0.52 1.8 -0.52 z M129.909 26.64 l2.5561 0 c3.96 0 4.92 -3.04 4.92 -5.96 c0 -2.8 -1.56 -5.56 -5.72 -5.56 l-0.32801 0 c-0.816 0 -1.432 0.584 -1.432 1.244 z"></path>
	</g>
	<g id="SvgjsG1327" featurekey="sloganFeature-0"
		transform="matrix(0.9377855141074741,0,0,0.9377855141074741,97.25900649670807,154.25000337203423)"
		fill="#f8b500">
		<path
			d="M9.16 20.12 c-1.08 -0.1 -2.38 -0.2 -3.56 -0.2 c-1.34 0 -2.6 0 -4.54 0.12 c-0.24 0.02 -0.38 -0.26 -0.16 -0.52 l4.66 -5.42 c1.9 -2.2 2.16 -4.02 2.16 -4.9 c0 -0.98 -0.32 -2.18 -1.9 -2.18 c-2.76 0 -4.24 3.48 -4.24 1.54 l0 -0.84 c0 -1.14 1.78 -2.04 4.04 -2.04 c2.86 0 4.62 1.56 4.62 3.62 c0 1.62 -1.1 3 -3.22 5.12 l-3.02 3.04 c-0.3 0.3 -0.24 0.58 0.16 0.58 l0.36 0 c3.64 0 4.7 -0.1 5.44 -0.9 c0.24 -0.26 0.76 -0.1 0.64 0.26 l-0.74 2.26 c-0.1 0.3 -0.3 0.5 -0.7 0.46 z M25.5975 14.86 c0.36 -0.08 0.68 -0.08 0.52 0.48 l-0.38 1.36 c-0.14 0.52 -0.44 0.48 -0.78 0.38 c-0.36 -0.1 -0.84 -0.16 -1.52 -0.18 c0.02 1.4 0.06 2.22 0.08 2.96 c0.02 0.4 -2.68 0.6 -2.64 0.32 c0.12 -0.88 0.22 -1.82 0.26 -3.3 l-5.5 0 c-0.2 0 -0.76 -1.34 -0.68 -1.44 l6.88 -9.74 c0.18 -0.26 2 0.18 2 0.3 c-0.24 1.26 -0.4 2.6 -0.4 4.24 l0 4.9 c0.78 -0.04 1.42 -0.12 2.16 -0.28 z M20.7775 9.12 l-4.32 6.04 l4.7 0 l0 -6.02 c0 -0.24 -0.2 -0.26 -0.38 -0.02 z M36.495000000000005 4.140000000000001 c0.12 -0.36 1.28 0.04 1.16 0.4 l-6.38 19.46 c-0.12 0.38 -1.3 -0.02 -1.18 -0.4 z M42.112500000000004 8.14 c-1 0.08 0.06 -2.18 0.18 -2.4 c0.18 -0.32 0.48 -0.24 0.64 -0.14 c0.28 0.18 0.8 0.4 2.06 0.4 l5.16 0 c0.82 0 0.24 0.82 -0.72 3.24 l-4.14 10.38 c-0.32 0.8 -3.08 0.94 -2.78 0.38 l6.36 -11.78 c0.2 -0.36 0.2 -0.66 -0.22 -0.62 z M65.2475 20.32 c-1.64 0 -4.14 -0.72 -3.9 -1.6 l0.2 -0.74 c0.56 -2.1 1.22 0.98 4.52 0.98 c1.68 0 2.5 -0.82 2.5 -1.98 c0 -0.94 -0.6 -1.34 -2.02 -2.22 l-1.94 -1.22 c-2.16 -1.36 -3.04 -2.2 -3.04 -3.7 c0 -2.46 2.4 -4.16 4.88 -4.16 c1.52 0 3.46 0.66 3.24 1.34 l-0.24 0.76 c-0.62 1.94 -1.12 -0.74 -3.86 -0.74 c-1.42 0 -2.16 0.72 -2.16 1.78 c0 0.9 0.54 1.4 1.88 2.22 l2.1 1.3 c2.12 1.32 2.98 2.22 2.98 3.66 c0 2.5 -2.46 4.32 -5.14 4.32 z M74.525 20.04 c-0.2 0.02 -0.28 -0.68 -0.12 -0.72 c1.16 -0.3 2.06 -0.48 2.06 -1.96 l0 -8.88 c0 -1.28 -0.82 -1.62 -1.68 -1.84 c-0.16 -0.04 -0.06 -0.7 0.1 -0.68 c1.46 0.16 3.98 0.12 5.2 0.12 c1.82 0 3.14 -0.08 4.78 -0.12 c0.48 0 0.48 0.32 0.38 0.78 l-0.48 1.9 c-0.06 0.28 -0.56 0.28 -0.64 0 c-0.3 -0.98 -0.9 -1.54 -3.4 -1.54 c-1.4 0 -1.86 0.36 -1.86 1.4 l0 3.26 c0 0.52 0.26 0.62 0.66 0.62 l0.44 0 c1.62 0 3.02 -0.16 3.84 -0.9 c0.2 -0.18 0.64 -0.14 0.46 0.26 l-1.14 2.52 c-0.16 0.36 -0.46 0.32 -0.68 0.02 c-0.46 -0.64 -1.48 -0.9 -2.64 -0.9 l-0.28 0 c-0.4 0 -0.66 0.1 -0.66 0.62 l0 3.36 c0 1.14 0.48 1.56 2.14 1.56 c3.02 0 4.22 -1.38 4.7 -2.14 c0.14 -0.22 0.68 -0.12 0.68 0.22 c0 1.02 -0.86 3.04 -2.12 3.04 c-1.12 -0.06 -2.22 -0.12 -3.9 -0.12 c-1.84 0 -4.02 -0.06 -5.84 0.12 z M105.1225 19.5 c0.16 0 0.12 0.54 0 0.58 c-1.26 0.42 -3 0.36 -4.2 -1.18 l-3.08 -3.96 c-0.86 -1.12 -1.88 -1.28 -3.28 -1.3 l0 3.88 c0 1.4 0.96 1.64 2.24 1.8 c0.14 0.02 0.04 0.68 -0.12 0.68 l-6.06 0 c-0.16 0 -0.28 -0.66 -0.12 -0.68 c1.02 -0.14 1.66 -0.54 1.66 -1.8 l0 -8.92 c0 -1.32 -0.7 -1.7 -1.66 -1.96 c-0.16 -0.04 -0.06 -0.7 0.12 -0.68 c0.78 0.1 1.66 0.12 2.3 0.12 c1.48 0 2.86 -0.12 3.82 -0.12 c3.02 0 5.04 1.24 5.04 3.7 c0 2.32 -1.88 3.46 -3.56 3.56 l0 0.1 c0.8 0 1.38 0.34 2.26 1.44 l2.98 3.74 c0.62 0.78 1.22 1 1.66 1 z M95.1425 12.719999999999999 c2.98 0 4.12 -0.52 4.12 -2.52 c0 -2.14 -1.36 -3.2 -3.14 -3.2 c-1.18 0 -1.56 0.48 -1.56 1.6 l0 4.12 l0.58 0 z M123.46000000000001 6 c0.22 0 0.3 0.64 0.04 0.68 c-0.8 0.12 -1.32 0.44 -2.04 2.12 l-3.38 7.86 c-0.7 1.62 -1.02 2.54 -1.02 3.34 c0 0.12 -1.38 0.44 -1.44 0.3 l-4.86 -11.48 c-0.72 -1.72 -1.26 -2.02 -2.04 -2.14 c-0.26 -0.04 -0.2 -0.68 0.06 -0.68 l5.26 0 c0.26 0 0.3 0.64 0.06 0.68 c-0.74 0.12 -1.48 0.44 -0.78 2.12 l3.38 8.12 l3.38 -8.12 c0.72 -1.72 -0.08 -1.98 -1 -2.12 c-0.26 -0.04 -0.2 -0.68 0.06 -0.68 l4.32 0 z M127.6975 20 c-0.16 0 -0.28 -0.66 -0.12 -0.68 c1.02 -0.14 1.66 -0.54 1.66 -1.8 l0 -9.04 c0 -1.26 -0.64 -1.66 -1.66 -1.8 c-0.16 -0.02 -0.04 -0.68 0.12 -0.68 l5.48 0 c0.16 0 0.28 0.66 0.12 0.68 c-0.86 0.12 -1.66 0.4 -1.66 1.8 l0 9.04 c0 1.4 0.8 1.68 1.66 1.8 c0.16 0.02 0.04 0.68 -0.12 0.68 l-5.48 0 z M145.615 20.32 c-3.36 0 -7.9 -1.96 -7.9 -7.06 c0 -3.46 2.12 -7.58 7.72 -7.58 c2.32 0 4.32 0.72 4.08 1.42 l-0.26 0.78 c-0.72 2.14 -1.5 -0.6 -5.06 -0.6 c-2.86 0 -4.26 1.86 -4.26 4.74 c0 4.5 3.42 6.38 6.16 6.38 c0.36 0 2.18 -0.28 3.22 -0.94 c0.16 -0.1 0.58 0.36 0.46 0.54 c-0.86 1.26 -3.54 2.32 -4.16 2.32 z M153.9325 20.04 c-0.2 0.02 -0.28 -0.68 -0.12 -0.72 c1.16 -0.3 2.06 -0.48 2.06 -1.96 l0 -8.88 c0 -1.28 -0.82 -1.62 -1.68 -1.84 c-0.16 -0.04 -0.06 -0.7 0.1 -0.68 c1.46 0.16 3.98 0.12 5.2 0.12 c1.82 0 3.14 -0.08 4.78 -0.12 c0.48 0 0.48 0.32 0.38 0.78 l-0.48 1.9 c-0.06 0.28 -0.56 0.28 -0.64 0 c-0.3 -0.98 -0.9 -1.54 -3.4 -1.54 c-1.4 0 -1.86 0.36 -1.86 1.4 l0 3.26 c0 0.52 0.26 0.62 0.66 0.62 l0.44 0 c1.62 0 3.02 -0.16 3.84 -0.9 c0.2 -0.18 0.64 -0.14 0.46 0.26 l-1.14 2.52 c-0.16 0.36 -0.46 0.32 -0.68 0.02 c-0.46 -0.64 -1.48 -0.9 -2.64 -0.9 l-0.28 0 c-0.4 0 -0.66 0.1 -0.66 0.62 l0 3.36 c0 1.14 0.48 1.56 2.14 1.56 c3.02 0 4.22 -1.38 4.7 -2.14 c0.14 -0.22 0.68 -0.12 0.68 0.22 c0 1.02 -0.86 3.04 -2.12 3.04 c-1.12 -0.06 -2.22 -0.12 -3.9 -0.12 c-1.84 0 -4.02 -0.06 -5.84 0.12 z"></path>
	</g>
</svg>