<svg xmlns="http://www.w3.org/2000/svg" viewBox="0 0 349.99999999999994 103.26908674337623" preserveAspectRatio="xMidYMid meet"
	class="css-8aabad" id="hdhccfaa">
	<defs id="SvgjsDefs2193">
		<linearGradient id="SvgjsLinearGradient2200">
			<stop id="SvgjsStop2201" stop-color="#b98947" offset="0"></stop>
			<stop id="SvgjsStop2202" stop-color="#faf0a1" offset="1"></stop>
		</linearGradient>
		<linearGradient id="SvgjsLinearGradient2203">
			<stop id="SvgjsStop2204" stop-color="#b98947" offset="0"></stop>
			<stop id="SvgjsStop2205" stop-color="#faf0a1" offset="1"></stop>
		</linearGradient>
	</defs>
	<g id="SvgjsG2194" featurekey="symbolFeature-0"
		transform="matrix(0.6324342337299209,0,0,0.6324342337299209,143.2113043971511,-6.324342337299209)"
		fill="#fff">
		<path xmlns="http://www.w3.org/2000/svg" fill="none" stroke="url(#SvgjsLinearGradient2200)"
			stroke-linecap="round" stroke-linejoin="round" stroke-miterlimit="10"
			d="M64.119,71.175  H35.884V47.21c0-1.297,1.005-2.691,2.23-3.097l9.653-3.22c1.229-0.408,3.239-0.408,4.465,0l9.652,3.22  c1.229,0.405,2.234,1.8,2.234,3.097V71.175z"></path>
		<rect xmlns="http://www.w3.org/2000/svg" x="39.412" y="47.645" fill="none"
			stroke="url(#SvgjsLinearGradient2200)" stroke-linecap="round" stroke-linejoin="round"
			stroke-miterlimit="10" width="4.234" height="23.53"></rect>
		<rect xmlns="http://www.w3.org/2000/svg" x="43.646" y="47.645" fill="none"
			stroke="url(#SvgjsLinearGradient2200)" stroke-linecap="round" stroke-linejoin="round"
			stroke-miterlimit="10" width="4.238" height="23.53"></rect>
		<rect xmlns="http://www.w3.org/2000/svg" x="47.884" y="47.645" fill="none"
			stroke="url(#SvgjsLinearGradient2200)" stroke-linecap="round" stroke-linejoin="round"
			stroke-miterlimit="10" width="4.235" height="23.53"></rect>
		<rect xmlns="http://www.w3.org/2000/svg" x="52.119" y="47.645" fill="none"
			stroke="url(#SvgjsLinearGradient2200)" stroke-linecap="round" stroke-linejoin="round"
			stroke-miterlimit="10" width="4.234" height="23.53"></rect>
		<rect xmlns="http://www.w3.org/2000/svg" x="56.354" y="47.645" fill="none"
			stroke="url(#SvgjsLinearGradient2200)" stroke-linecap="round" stroke-linejoin="round"
			stroke-miterlimit="10" width="4.234" height="23.53"></rect>
		<rect xmlns="http://www.w3.org/2000/svg" x="20.59" y="61.765" fill="none"
			stroke="url(#SvgjsLinearGradient2200)" stroke-linecap="round" stroke-linejoin="round"
			stroke-miterlimit="10" width="5.882" height="4.705"></rect>
		<rect xmlns="http://www.w3.org/2000/svg" x="26.472" y="61.765" fill="none"
			stroke="url(#SvgjsLinearGradient2200)" stroke-linecap="round" stroke-linejoin="round"
			stroke-miterlimit="10" width="5.881" height="4.705"></rect>
		<path xmlns="http://www.w3.org/2000/svg" fill="none" stroke="url(#SvgjsLinearGradient2200)"
			stroke-linecap="round" stroke-linejoin="round" stroke-miterlimit="10"
			d="M32.353,25.291  h35.293v-1.173c0-1.297-1.057-2.354-2.351-2.354H34.707c-1.293,0-2.354,1.057-2.354,2.354V25.291z"></path>
		<path xmlns="http://www.w3.org/2000/svg" fill="none" stroke="url(#SvgjsLinearGradient2200)"
			stroke-linecap="round" stroke-linejoin="round" stroke-miterlimit="10"
			d="M67.646,38.235  l-17.645-2.354l-17.648,2.354V24.118c0-1.297,1.061-2.354,2.354-2.354h30.589c1.294,0,2.351,1.057,2.351,2.354V38.235z"></path>
		<path xmlns="http://www.w3.org/2000/svg" fill="none" stroke="url(#SvgjsLinearGradient2200)"
			stroke-linecap="round" stroke-linejoin="round" stroke-miterlimit="10"
			d="M50.001,25.291v10.59  V25.291z"></path>
		<polygon xmlns="http://www.w3.org/2000/svg" fill="none"
			stroke="url(#SvgjsLinearGradient2200)" stroke-linecap="round" stroke-linejoin="round"
			stroke-miterlimit="10"
			points="  17.059,71.175 82.941,71.175 82.941,77.06 73.528,82.941 26.472,82.941 17.059,77.06 "></polygon>
		<rect xmlns="http://www.w3.org/2000/svg" x="21.767" y="40.585" fill="none"
			stroke="url(#SvgjsLinearGradient2200)" stroke-linecap="round" stroke-linejoin="round"
			stroke-miterlimit="10" width="7.059" height="14.118"></rect>
		<circle xmlns="http://www.w3.org/2000/svg" fill="none"
			stroke="url(#SvgjsLinearGradient2200)" stroke-linecap="round" stroke-linejoin="round"
			stroke-miterlimit="10" cx="30.001" cy="77.06" r="2.352"></circle>
		<path xmlns="http://www.w3.org/2000/svg" fill="none" stroke="url(#SvgjsLinearGradient2200)"
			stroke-linecap="round" stroke-linejoin="round" stroke-miterlimit="10"
			d="M26.472,82.941  l-9.413-5.882v11.764c0,0.645,0.532,1.177,1.177,1.177h9.413c0.645,0,1.177-0.532,1.177-1.177v-5.882H26.472z"></path>
		<path xmlns="http://www.w3.org/2000/svg" fill="none" stroke="url(#SvgjsLinearGradient2200)"
			stroke-linecap="round" stroke-linejoin="round" stroke-miterlimit="10"
			d="M19.413,13.528  c3.248,0,5.882,2.633,5.882,5.882v21.176h3.531V19.41c0-5.198-4.215-9.41-9.413-9.41V13.528z"></path>
		<rect xmlns="http://www.w3.org/2000/svg" x="73.528" y="61.765" fill="none"
			stroke="url(#SvgjsLinearGradient2200)" stroke-linecap="round" stroke-linejoin="round"
			stroke-miterlimit="10" width="5.882" height="4.705"></rect>
		<rect xmlns="http://www.w3.org/2000/svg" x="67.646" y="61.765" fill="none"
			stroke="url(#SvgjsLinearGradient2200)" stroke-linecap="round" stroke-linejoin="round"
			stroke-miterlimit="10" width="5.882" height="4.705"></rect>
		<path xmlns="http://www.w3.org/2000/svg" fill="none" stroke="url(#SvgjsLinearGradient2200)"
			stroke-linecap="round" stroke-linejoin="round" stroke-miterlimit="10"
			d="M64.119,17.059  c3.897,0,7.059,3.158,7.059,7.059v30.585h7.059c2.598,0,4.705,2.107,4.705,4.708v11.764H17.059V59.411  c0-2.601,2.108-4.708,4.708-4.708h7.059V24.118c0-3.901,3.158-7.059,7.059-7.059H64.119z"></path>
		<rect xmlns="http://www.w3.org/2000/svg" x="71.178" y="40.585" fill="none"
			stroke="url(#SvgjsLinearGradient2200)" stroke-linecap="round" stroke-linejoin="round"
			stroke-miterlimit="10" width="7.059" height="14.118"></rect>
		<circle xmlns="http://www.w3.org/2000/svg" fill="none"
			stroke="url(#SvgjsLinearGradient2200)" stroke-linecap="round" stroke-linejoin="round"
			stroke-miterlimit="10" cx="69.999" cy="77.06" r="2.353"></circle>
		<path xmlns="http://www.w3.org/2000/svg" fill="none" stroke="url(#SvgjsLinearGradient2200)"
			stroke-linecap="round" stroke-linejoin="round" stroke-miterlimit="10"
			d="M73.528,82.941  l9.413-5.882v11.764c0,0.645-0.528,1.177-1.177,1.177h-9.413c-0.646,0-1.174-0.532-1.174-1.177v-5.882H73.528z"></path>
		<path xmlns="http://www.w3.org/2000/svg" fill="none" stroke="url(#SvgjsLinearGradient2200)"
			stroke-linecap="round" stroke-linejoin="round" stroke-miterlimit="10"
			d="M80.587,13.528  c-3.248,0-5.882,2.633-5.882,5.882v21.176h-3.527V19.41c0-5.198,4.212-9.41,9.409-9.41V13.528z"></path>
	</g>
	<g id="SvgjsG2195" featurekey="nameFeature-0"
		transform="matrix(0.2770172759961419,0,0,0.2770172759961419,-0.29917916530961497,67.48028391801044)"
		fill="#fff">
		<path
			d="M18.12 30.52 c0.48 0 0.84 0.4 0.84 0.88 l0 0.2 l-0.88 8.4 l-17 0 l13.96 -25.4 l-1.8 0 c-6.4 0 -9.48 1.48 -10.68 6.12 c0.48 0 0.88 0.36 0.88 0.84 c0 0.52 -0.4 0.88 -0.88 0.88 s-0.92 -0.36 -0.92 -0.88 c0 -0.08 0.04 -0.12 0.08 -0.12 l0.6 -7.28 l16.8 0 l-13.04 25.36 l0.84 0 c7.28 0 10.2 -2.6 11.24 -7.24 l-0.04 0 c-0.52 0 -0.88 -0.4 -0.88 -0.88 s0.36 -0.88 0.88 -0.88 z M40.498999999999995 15.96 c-0.44 0 -0.88 -0.4 -0.88 -0.84 c0 -0.16 0.08 -0.24 0.08 -0.36 c-1.08 0.28 -1.76 0.92 -1.76 2.8 l0 18.52 c0 2.56 1.08 3.44 2.56 3.44 l0 0.48 l-8.88 0 l0 -0.48 c1.56 0 2.56 -0.88 2.56 -3.44 l0 -18.52 c0 -1.88 -0.6 -2.6 -1.76 -2.8 c0.04 0.04 0.04 0.16 0.04 0.36 c0 0.44 -0.36 0.84 -0.84 0.84 s-0.88 -0.4 -0.88 -0.84 c0 -0.52 0.4 -0.92 0.88 -0.92 l8.88 0 c0.48 0 0.92 0.4 0.92 0.92 c0 0.44 -0.44 0.84 -0.92 0.84 z M64.118 14.280000000000001 c7.96 0 11.76 6.08 11.76 13.28 s-3.8 12.88 -11.76 12.88 c-7.92 0 -11.76 -5.68 -11.76 -12.88 s3.84 -13.28 11.76 -13.28 z M64.118 14.760000000000002 c-4.28 0 -7.56 2.88 -7.56 12.68 l15.12 0 c0 -9.8 -3.28 -12.68 -7.56 -12.68 z M71.678 27.880000000000003 l-15.12 0 l0 0.56 l15.12 0 l0 -0.56 z M64.118 39.96 c4.12 0 7.24 -2.2 7.56 -11.04 l-15.12 0 c0.32 8.84 3.4 11.04 7.56 11.04 z M104.737 14.16 l10.52 0 l0 0.4 c-5.36 0 -5.24 5.32 -5.24 8.72 l0 16.72 l-1.16 0 l-15.6 -20.12 l0 10.96 c0 3.24 0 8.68 4.8 8.68 l0 0.48 l-10.64 0 l0 -0.48 c5.36 0 5.36 -5.4 5.36 -8.68 l0 -11.48 l-1.52 -1.96 c-1.24 -1.56 -2.08 -2.24 -2.76 -2.56 l0 0.2 c0 0.48 -0.44 0.84 -0.92 0.84 s-0.88 -0.36 -0.88 -0.84 c0 -0.52 0.4 -0.88 0.88 -0.88 l0.08 0 l6.08 0 l15.8 20.48 l0 -11.36 c0 -3.4 0.12 -8.72 -4.8 -8.72 l0 -0.4 z M179.175 15.879999999999999 c-0.48 0 -0.88 -0.36 -0.88 -0.84 c0 -0.16 0.04 -0.24 0.04 -0.36 c-1.16 0.28 -2 1.12 -2 3.2 l0 17.76 c0 2.96 1.48 3.8 3.04 3.8 l0 0.48 l-9.36 0 l0 -0.48 c1.52 0 2.68 -0.84 2.68 -3.8 l0 -20.08 l-8.88 24.68 l-0.44 0 l-10.24 -22.36 l0 12.96 c0 4.28 0.64 8.6 4.72 8.6 l0 0.48 l-10.36 0 l0 -0.48 c4.48 0 5.16 -4.48 5.16 -8.6 l0 -13.8 c-0.6 -1.08 -1.28 -1.64 -1.92 -1.92 c-0.04 0.52 -0.36 0.76 -0.88 0.76 c-0.48 0 -0.88 -0.36 -0.88 -0.84 c0 -0.52 0.4 -0.88 0.88 -0.88 l0.04 0 l5.96 0 l9.52 20.68 l7.32 -20.68 l6.48 0 c0.48 0 0.88 0.36 0.88 0.88 c0 0.48 -0.4 0.84 -0.88 0.84 z M203.274 14.280000000000001 c7.96 0 11.76 6.08 11.76 13.28 s-3.8 12.88 -11.76 12.88 c-7.92 0 -11.76 -5.68 -11.76 -12.88 s3.84 -13.28 11.76 -13.28 z M203.274 14.760000000000002 c-4.28 0 -7.56 2.88 -7.56 12.68 l15.12 0 c0 -9.8 -3.28 -12.68 -7.56 -12.68 z M210.834 27.880000000000003 l-15.12 0 l0 0.56 l15.12 0 l0 -0.56 z M203.274 39.96 c4.12 0 7.24 -2.2 7.56 -11.04 l-15.12 0 c0.32 8.84 3.4 11.04 7.56 11.04 z M237.25300000000001 26.72 c2.4 0 7.84 0.48 7.84 6.72 c0 6.4 -4.76 6.56 -11.16 6.56 l-7.36 0 l0 -0.32 c1.6 0 2.16 -1.52 2.16 -4.08 l0 -17.12 c0 -1.88 -0.36 -3.36 -1.36 -3.88 c0.04 0.2 0.08 0.36 0.08 0.4 c0 0.48 -0.4 0.84 -0.88 0.84 s-0.88 -0.36 -0.88 -0.84 c0 -0.52 0.4 -0.88 0.88 -0.88 l7.36 0 c5.16 0 9.44 0.32 9.44 6.32 c0 5.72 -5.4 6.28 -6.12 6.28 z M232.53300000000002 14.600000000000001 l0 12.08 l2.2 0 c2.24 0 4.68 -0.72 4.68 -6.32 c0 -5.4 -3.08 -5.76 -5.28 -5.76 l-1.6 0 z M232.53300000000002 39.52 l1.6 0 c3.52 0 6.88 0.08 6.88 -6.24 c0 -5.96 -3.6 -6.12 -6.28 -6.12 l-2.2 0 l0 12.36 z M265.432 15.96 c-0.44 0 -0.88 -0.4 -0.88 -0.84 c0 -0.16 0.08 -0.24 0.08 -0.36 c-1.08 0.28 -1.76 0.92 -1.76 2.8 l0 18.52 c0 2.56 1.08 3.44 2.56 3.44 l0 0.48 l-8.88 0 l0 -0.48 c1.56 0 2.56 -0.88 2.56 -3.44 l0 -18.52 c0 -1.88 -0.6 -2.6 -1.76 -2.8 c0.04 0.04 0.04 0.16 0.04 0.36 c0 0.44 -0.36 0.84 -0.84 0.84 s-0.88 -0.4 -0.88 -0.84 c0 -0.52 0.4 -0.92 0.88 -0.92 l8.88 0 c0.48 0 0.92 0.4 0.92 0.92 c0 0.44 -0.44 0.84 -0.92 0.84 z M297.531 32.04 l0 7.96 l-18.28 0 l0 -0.48 c1.56 0 2 -1.36 2 -3.88 l0 -17.88 c0 -1.88 -0.48 -2.76 -1.48 -3.04 c0 0.12 0.04 0.2 0.04 0.32 c0 0.48 -0.4 0.84 -0.88 0.84 s-0.88 -0.36 -0.88 -0.84 c0 -0.52 0.4 -0.88 0.88 -0.88 l8.72 0 c0.52 0 0.88 0.4 0.88 0.88 s-0.4 0.84 -0.92 0.84 c-0.48 0 -0.88 -0.36 -0.88 -0.84 c0 -0.12 0.04 -0.2 0.08 -0.32 c-1.12 0.28 -1.88 1 -1.88 3.2 l0 21.6 l1.32 0 c3.8 0.12 9.68 0 10.76 -6.52 c-0.12 0 -0.16 0.04 -0.28 0.04 c-0.52 0 -0.88 -0.4 -0.88 -0.88 s0.36 -0.88 0.88 -0.88 c0.44 0 0.76 0.32 0.8 0.76 z M327.51000000000005 32.36 l0.48 0 l0 7.64 l-18.44 0 l0 -0.48 c1.56 0 2 -1.24 2 -3.8 l0 -17.6 c0 -1.88 -0.24 -2.96 -1.16 -3.32 c0 0.04 0.04 0.12 0.04 0.24 c0 0.48 -0.4 0.84 -0.88 0.84 s-0.88 -0.36 -0.88 -0.84 s0.4 -0.88 0.88 -0.88 l17.96 0 l0 6.64 c0 0.6 -0.28 0.88 -0.88 0.88 c-0.48 0 -0.84 -0.36 -0.84 -0.88 s0.36 -0.88 0.84 -0.88 c0.12 0 0.24 0 0.32 0.04 c-0.96 -5.28 -6.8 -5.32 -9.64 -5.32 l-1.96 0 l0 11.48 l2.32 0 c1 0 4.88 0.12 5.08 -2.92 l0.48 0 l0 3.44 l-8 0 l0 0.64 l8 0 l0 3.44 l-0.48 0 c-0.2 -3.08 -4.12 -2.92 -5.08 -2.92 l-2.32 0 l0 11.72 l1.64 0 c3.32 0 9.72 0.2 10.52 -7.16 z M372.74800000000005 14.280000000000001 c7.96 0 11.76 6.08 11.76 13.28 s-3.8 12.88 -11.76 12.88 c-7.92 0 -11.76 -5.68 -11.76 -12.88 s3.84 -13.28 11.76 -13.28 z M372.74800000000005 14.760000000000002 c-4.28 0 -7.56 2.88 -7.56 12.68 l15.12 0 c0 -9.8 -3.28 -12.68 -7.56 -12.68 z M380.30800000000005 27.880000000000003 l-15.12 0 l0 0.56 l15.12 0 l0 -0.56 z M372.74800000000005 39.96 c4.12 0 7.24 -2.2 7.56 -11.04 l-15.12 0 c0.32 8.84 3.4 11.04 7.56 11.04 z M413.3670000000001 14.16 l10.52 0 l0 0.4 c-5.36 0 -5.24 5.32 -5.24 8.72 l0 16.72 l-1.16 0 l-15.6 -20.12 l0 10.96 c0 3.24 0 8.68 4.8 8.68 l0 0.48 l-10.64 0 l0 -0.48 c5.36 0 5.36 -5.4 5.36 -8.68 l0 -11.48 l-1.52 -1.96 c-1.24 -1.56 -2.08 -2.24 -2.76 -2.56 l0 0.2 c0 0.48 -0.44 0.84 -0.92 0.84 s-0.88 -0.36 -0.88 -0.84 c0 -0.52 0.4 -0.88 0.88 -0.88 l0.08 0 l6.08 0 l15.8 20.48 l0 -11.36 c0 -3.4 0.12 -8.72 -4.8 -8.72 l0 -0.4 z M449.34600000000006 30.4 l-11.4 0 l0 -2.44 l11.4 0 l0 2.44 z M471.1650000000001 23.16 l6.08 4 c4.88 3.16 5.72 7.32 3.8 10.32 c-0.36 0.56 -0.84 1.04 -1.48 1.48 c-1.12 0.76 -2.88 1.48 -5.76 1.48 c-3.04 0 -5.16 -0.48 -6.6 -1 c-0.84 -0.28 -1.56 -0.64 -2.12 -1.04 l0 -7.04 l0.04 0 l-0.04 -0.04 c0 -0.48 0.4 -0.84 0.88 -0.84 c0.44 0 0.88 0.36 0.88 0.84 c0 0.52 -0.44 0.88 -0.88 0.88 c-0.16 0 -0.28 -0.04 -0.36 -0.08 c0.52 4.16 2.32 7.84 8.2 7.84 c5.6 0 6.24 -6.16 2 -9.24 l-6.08 -3.92 c-3.44 -2.28 -6.76 -5.56 -4 -9.92 c0.36 -0.52 0.88 -1 1.52 -1.44 c1.08 -0.76 2.84 -1.44 5.4 -1.44 c2.68 0 4.72 0.44 6.16 0.88 c0.84 0.28 1.6 0.56 2.2 0.88 l0 6.08 l0 0.08 c0 0.44 -0.36 0.88 -0.84 0.88 c-0.52 0 -0.88 -0.44 -0.88 -0.88 c0 -0.48 0.36 -0.92 0.88 -0.92 c0.04 0 0.12 0.08 0.24 0.08 c-0.52 -3.32 -2.12 -6.6 -7.76 -6.6 c-3.96 0 -6.96 5.12 -1.48 8.68 z M503.18400000000014 15.96 c-0.44 0 -0.88 -0.4 -0.88 -0.84 c0 -0.16 0.08 -0.24 0.08 -0.36 c-1.08 0.28 -1.76 0.92 -1.76 2.8 l0 18.52 c0 2.56 1.08 3.44 2.56 3.44 l0 0.48 l-8.88 0 l0 -0.48 c1.56 0 2.56 -0.88 2.56 -3.44 l0 -18.52 c0 -1.88 -0.6 -2.6 -1.76 -2.8 c0.04 0.04 0.04 0.16 0.04 0.36 c0 0.44 -0.36 0.84 -0.84 0.84 s-0.88 -0.4 -0.88 -0.84 c0 -0.52 0.4 -0.92 0.88 -0.92 l8.88 0 c0.48 0 0.92 0.4 0.92 0.92 c0 0.44 -0.44 0.84 -0.92 0.84 z M537.6830000000002 14.239999999999998 l0 6.44 l0 0.04 c0 0.48 -0.36 0.88 -0.84 0.88 s-0.88 -0.4 -0.88 -0.88 s0.4 -0.88 0.88 -0.88 c0.12 0 0.2 0.04 0.32 0.04 c-0.64 -5.12 -6.2 -5.16 -6.68 -5.16 l-2.2 0 l0 21.72 c0 2.4 1.16 3.08 2.72 3.08 l0 0.48 l-8.96 0 l0 -0.48 c1.56 0 2.64 -0.68 2.64 -3.08 l0 -21.72 l-2.16 0 c-1.08 0 -6.16 0.04 -6.68 5.16 c0.08 -0.04 0.2 -0.04 0.32 -0.04 c0.52 0 0.88 0.36 0.88 0.84 c0 0.6 -0.28 0.88 -0.88 0.88 c-0.48 0 -0.84 -0.36 -0.84 -0.88 l0 -6.44 l22.36 0 z M568.2220000000002 32.36 l0.48 0 l0 7.64 l-18.44 0 l0 -0.48 c1.56 0 2 -1.24 2 -3.8 l0 -17.6 c0 -1.88 -0.24 -2.96 -1.16 -3.32 c0 0.04 0.04 0.12 0.04 0.24 c0 0.48 -0.4 0.84 -0.88 0.84 s-0.88 -0.36 -0.88 -0.84 s0.4 -0.88 0.88 -0.88 l17.96 0 l0 6.64 c0 0.6 -0.28 0.88 -0.88 0.88 c-0.48 0 -0.84 -0.36 -0.84 -0.88 s0.36 -0.88 0.84 -0.88 c0.12 0 0.24 0 0.32 0.04 c-0.96 -5.28 -6.8 -5.32 -9.64 -5.32 l-1.96 0 l0 11.48 l2.32 0 c1 0 4.88 0.12 5.08 -2.92 l0.48 0 l0 3.44 l-8 0 l0 0.64 l8 0 l0 3.44 l-0.48 0 c-0.2 -3.08 -4.12 -2.92 -5.08 -2.92 l-2.32 0 l0 11.72 l1.64 0 c3.32 0 9.72 0.2 10.52 -7.16 z M622.9800000000002 14.239999999999998 l0 6.44 l0 0.04 c0 0.48 -0.36 0.88 -0.84 0.88 s-0.88 -0.4 -0.88 -0.88 s0.4 -0.88 0.88 -0.88 c0.12 0 0.2 0.04 0.32 0.04 c-0.64 -5.12 -6.2 -5.16 -6.68 -5.16 l-2.2 0 l0 21.72 c0 2.4 1.16 3.08 2.72 3.08 l0 0.48 l-8.96 0 l0 -0.48 c1.56 0 2.64 -0.68 2.64 -3.08 l0 -21.72 l-2.16 0 c-1.08 0 -6.16 0.04 -6.68 5.16 c0.08 -0.04 0.2 -0.04 0.32 -0.04 c0.52 0 0.88 0.36 0.88 0.84 c0 0.6 -0.28 0.88 -0.88 0.88 c-0.48 0 -0.84 -0.36 -0.84 -0.88 l0 -6.44 l22.36 0 z M653.6390000000002 36.28 c0.64 2.72 3 3.2 3.92 3.2 l0 0.52 l-2.76 0 c-4.64 0 -4.2 -0.04 -6.2 -8 c-1.08 -3.84 -4.72 -3.84 -5.72 -3.84 l-1.68 0 l0 8.04 c0 2.52 0.76 3.28 2.32 3.28 l0 0.52 l-8.2 0 l0 -0.52 c1.6 0 2.28 -0.72 2.28 -3.76 l0 -18.24 c0 -1.88 -0.36 -2.56 -1.44 -2.72 c0.04 0.08 0.04 0.2 0.04 0.32 c0 0.48 -0.36 0.88 -0.88 0.88 c-0.48 0 -0.84 -0.4 -0.84 -0.88 s0.36 -0.88 0.84 -0.88 l7 0 c7.32 0 11.32 0.92 11.32 7 c0 5 -2.84 6.48 -6.84 6.68 c2.52 0.2 4.92 0.32 6.84 8.4 z M641.1990000000002 27.68 l1.12 0 c4.12 0 7.32 0.04 7.32 -6.48 c0 -6.6 -3.4 -6.48 -7.32 -6.48 l-1.12 0 l0 12.96 z M683.4580000000002 14.239999999999998 l9.48 0 l0 0.44 c-4.8 0 -4.68 3.28 -4.68 6.68 l0 9.96 c0 6.52 -4.4 8.92 -8.88 8.92 c-4.68 0 -8.44 -3.12 -8.44 -9.08 l0 -13.28 c0 -2.04 -0.68 -2.88 -1.76 -3.08 c0.04 0.04 0.04 0.12 0.04 0.32 c0 0.48 -0.36 0.84 -0.88 0.84 c-0.48 0 -0.84 -0.36 -0.84 -0.84 c0 -0.52 0.36 -0.88 0.84 -0.88 l9.08 0 c0.44 0 0.88 0.4 0.88 0.88 s-0.44 0.84 -0.88 0.84 c-0.48 0 -0.92 -0.36 -0.92 -0.84 c0 -0.16 0.08 -0.24 0.12 -0.36 c-1.24 0.16 -2.08 0.76 -2.08 3.16 l0 13.56 c0 4.52 2.68 7.16 6.68 7.16 c3.68 0 6.56 -2.64 6.56 -7.32 l0 -9.96 c0 -3.4 -0.04 -6.68 -4.32 -6.68 l0 -0.44 z M724.8370000000002 31.16 l0 0.2 c0 4.2 0.04 6.64 0.16 8.44 l-0.72 0 c-0.08 -0.68 -0.16 -1.12 -0.28 -1.4 c-2.24 1.36 -4.16 1.76 -7.6 1.76 c-7.48 0 -12.52 -5 -12.52 -13.04 c0 -8.16 5.04 -13 12.52 -13 c3.24 0 5.6 0.6 7.68 1.84 c0.12 -0.32 0.08 -1.08 0.2 -1.68 l0.72 0 c-0.12 1.72 -0.16 3.96 -0.16 8.08 l0 0.08 l0 0.12 c-0.04 0.44 -0.4 0.76 -0.84 0.76 c-0.52 0 -0.88 -0.4 -0.88 -0.88 c0 -0.44 0.36 -0.76 0.84 -0.88 c-0.28 -1.24 -0.44 -2.08 -0.72 -2.76 c-1.6 -3.32 -4.52 -4.24 -6.84 -4.24 c-3.76 0 -7.88 1.64 -7.88 12.56 c0 11.08 4.2 12.56 7.88 12.56 c1.72 0 3.92 -0.6 5.56 -2.24 c0.16 -0.16 0.36 -0.36 0.52 -0.64 c0.92 -1.2 1.2 -2.4 1.52 -4.68 c-0.52 0 -0.88 -0.4 -0.88 -0.88 c0 -0.44 0.36 -0.88 0.88 -0.88 s0.8 0.28 0.84 0.8 z M755.1760000000003 33.72 l2.8 3.76 c1.72 2.12 4.36 2.04 4.88 2.04 l0 0.48 l-3.92 0 c-3.92 0 -4.88 -1.04 -8.68 -6.68 c-1.44 -2.04 -2.8 -3.92 -3.56 -4.92 l-2.48 2.96 l0 4.76 c0 2.56 0.88 3.4 2.48 3.4 l0 0.48 l-8.6 0 l0 -0.48 c1.56 0 2.4 -0.84 2.4 -3.4 l0 -18.64 c0 -1.88 -0.52 -2.6 -1.6 -2.88 c0.04 0.16 0.08 0.28 0.08 0.4 c0 0.44 -0.4 0.8 -0.88 0.8 s-0.88 -0.36 -0.88 -0.8 c0 -0.52 0.4 -0.88 0.88 -0.88 l8.44 0 c0.48 0 0.84 0.4 0.84 0.88 c0 0.44 -0.44 0.8 -0.88 0.8 c-0.52 0 -0.92 -0.36 -0.92 -0.8 c0 -0.12 0.04 -0.24 0.04 -0.28 c-0.84 0.28 -1.4 0.88 -1.4 2.76 l0 12.44 c0.52 -0.64 1.2 -1.32 1.68 -1.92 l0.84 -1 l4.08 -4.92 c2.12 -2.44 6.32 -7.52 0.84 -7.52 l0 -0.44 l10.16 0 c0.48 0 0.84 0.36 0.84 0.88 c0 0.44 -0.36 0.8 -0.84 0.8 s-0.92 -0.36 -0.92 -0.8 c0 -0.12 0.04 -0.28 0.12 -0.4 c-2.36 0.2 -4.72 1.96 -11.88 11.04 c2.12 2.88 4.32 5.84 6.04 8.08 z M819.8940000000003 36.04 l0 0.04 c0 2.56 -2.08 3.8 -3.68 3.92 c-0.6 0.04 -1.2 0 -1.76 -0.12 c-0.96 -0.2 -2.04 -0.6 -2.8 -1.68 l-2 -3.04 c-0.12 0.16 -0.24 0.32 -0.28 0.44 c-1.68 3.8 -8.52 6.72 -12.16 2 c-3.8 -4.88 0.76 -9.16 3.64 -10.84 l2.04 -1.24 l-1.8 -2.68 c-3.64 -4.84 -1.64 -9.24 2.4 -10 c2.4 -0.44 4.12 0.24 5.2 1.48 c1.6 1.8 2.92 6.24 -2.64 10 l4.76 7.08 c0.52 -1.4 1 -3.12 1.36 -5.2 c-0.32 -0.12 -0.6 -0.32 -0.6 -0.68 s0.32 -0.68 0.68 -0.68 s0.68 0.32 0.68 0.68 l0 0.08 c-0.44 2.68 -1.04 4.72 -1.68 6.36 l2.8 4.08 c0.6 0.84 1.28 1.24 1.88 1.44 c0.36 0.12 0.68 0.2 1.04 0.24 c0.92 0 1.76 -0.24 2.2 -1 c-0.32 -0.04 -0.6 -0.32 -0.6 -0.68 s0.28 -0.68 0.64 -0.68 s0.68 0.32 0.68 0.68 z M804.0940000000003 13.600000000000001 c-2.2 0.84 -2.6 4 -0.92 6.56 l2.6 3.72 c4.8 -3 4.24 -7.04 2.48 -9.2 c-1.08 -1.12 -2.72 -1.6 -4.16 -1.08 z M800.0940000000003 36.24 c2.24 2.68 7.28 2.6 9.12 -1.6 l-6.04 -8.72 l-2 1.28 c-2.08 1.48 -4.2 5.36 -1.08 9.04 z M874.7720000000004 14.239999999999998 l0 6.44 l0 0.04 c0 0.48 -0.36 0.88 -0.84 0.88 s-0.88 -0.4 -0.88 -0.88 s0.4 -0.88 0.88 -0.88 c0.12 0 0.2 0.04 0.32 0.04 c-0.64 -5.12 -6.2 -5.16 -6.68 -5.16 l-2.2 0 l0 21.72 c0 2.4 1.16 3.08 2.72 3.08 l0 0.48 l-8.96 0 l0 -0.48 c1.56 0 2.64 -0.68 2.64 -3.08 l0 -21.72 l-2.16 0 c-1.08 0 -6.16 0.04 -6.68 5.16 c0.08 -0.04 0.2 -0.04 0.32 -0.04 c0.52 0 0.88 0.36 0.88 0.84 c0 0.6 -0.28 0.88 -0.88 0.88 c-0.48 0 -0.84 -0.36 -0.84 -0.88 l0 -6.44 l22.36 0 z M905.4310000000004 36.28 c0.64 2.72 3 3.2 3.92 3.2 l0 0.52 l-2.76 0 c-4.64 0 -4.2 -0.04 -6.2 -8 c-1.08 -3.84 -4.72 -3.84 -5.72 -3.84 l-1.68 0 l0 8.04 c0 2.52 0.76 3.28 2.32 3.28 l0 0.52 l-8.2 0 l0 -0.52 c1.6 0 2.28 -0.72 2.28 -3.76 l0 -18.24 c0 -1.88 -0.36 -2.56 -1.44 -2.72 c0.04 0.08 0.04 0.2 0.04 0.32 c0 0.48 -0.36 0.88 -0.88 0.88 c-0.48 0 -0.84 -0.4 -0.84 -0.88 s0.36 -0.88 0.84 -0.88 l7 0 c7.32 0 11.32 0.92 11.32 7 c0 5 -2.84 6.48 -6.84 6.68 c2.52 0.2 4.92 0.32 6.84 8.4 z M892.9910000000003 27.68 l1.12 0 c4.12 0 7.32 0.04 7.32 -6.48 c0 -6.6 -3.4 -6.48 -7.32 -6.48 l-1.12 0 l0 12.96 z M941.2900000000003 36.96 c1.04 2.4 1.88 2.52 2.84 2.52 l0 0.48 l-8.36 0 l0 -0.48 c1.96 0 1.6 -2.08 0.76 -4.08 l-1.16 -3.2 l-9.56 0 c-0.96 2.88 -2.68 7.48 2.44 7.28 l0 0.48 l-8.12 0 l0 -0.48 c1.4 0 2.28 -0.24 5.44 -8.6 l5.36 -14.64 l0.68 -2.04 l2.08 0 l1.52 0 l1.4 0 c0.48 0 0.8 0.4 0.8 0.88 s-0.4 0.84 -0.88 0.84 c-0.44 0 -0.88 -0.36 -0.88 -0.84 c0 -0.16 0.08 -0.24 0.12 -0.36 c-1.4 0.2 -1.48 1.08 -1.04 2.56 c0 0.04 0.04 0.36 6.28 18.8 c0.12 0.32 0.16 0.52 0.2 0.68 c0.04 0.12 0.04 0.16 0.08 0.2 z M934.8900000000003 30.8 l-4.32 -12 l-4.36 12 l8.68 0 z M925.9300000000004 31.72 l9.32 0 l-0.24 -0.44 l-8.96 0 z M964.1490000000005 15.96 c-0.44 0 -0.88 -0.4 -0.88 -0.84 c0 -0.16 0.08 -0.24 0.08 -0.36 c-1.08 0.28 -1.76 0.92 -1.76 2.8 l0 18.52 c0 2.56 1.08 3.44 2.56 3.44 l0 0.48 l-8.88 0 l0 -0.48 c1.56 0 2.56 -0.88 2.56 -3.44 l0 -18.52 c0 -1.88 -0.6 -2.6 -1.76 -2.8 c0.04 0.04 0.04 0.16 0.04 0.36 c0 0.44 -0.36 0.84 -0.84 0.84 s-0.88 -0.4 -0.88 -0.84 c0 -0.52 0.4 -0.92 0.88 -0.92 l8.88 0 c0.48 0 0.92 0.4 0.92 0.92 c0 0.44 -0.44 0.84 -0.92 0.84 z M996.2480000000004 32.04 l0 7.96 l-18.28 0 l0 -0.48 c1.56 0 2 -1.36 2 -3.88 l0 -17.88 c0 -1.88 -0.48 -2.76 -1.48 -3.04 c0 0.12 0.04 0.2 0.04 0.32 c0 0.48 -0.4 0.84 -0.88 0.84 s-0.88 -0.36 -0.88 -0.84 c0 -0.52 0.4 -0.88 0.88 -0.88 l8.72 0 c0.52 0 0.88 0.4 0.88 0.88 s-0.4 0.84 -0.92 0.84 c-0.48 0 -0.88 -0.36 -0.88 -0.84 c0 -0.12 0.04 -0.2 0.08 -0.32 c-1.12 0.28 -1.88 1 -1.88 3.2 l0 21.6 l1.32 0 c3.8 0.12 9.68 0 10.76 -6.52 c-0.12 0 -0.16 0.04 -0.28 0.04 c-0.52 0 -0.88 -0.4 -0.88 -0.88 s0.36 -0.88 0.88 -0.88 c0.44 0 0.76 0.32 0.8 0.76 z M1026.2270000000003 32.36 l0.48 0 l0 7.64 l-18.44 0 l0 -0.48 c1.56 0 2 -1.24 2 -3.8 l0 -17.6 c0 -1.88 -0.24 -2.96 -1.16 -3.32 c0 0.04 0.04 0.12 0.04 0.24 c0 0.48 -0.4 0.84 -0.88 0.84 s-0.88 -0.36 -0.88 -0.84 s0.4 -0.88 0.88 -0.88 l17.96 0 l0 6.64 c0 0.6 -0.28 0.88 -0.88 0.88 c-0.48 0 -0.84 -0.36 -0.84 -0.88 s0.36 -0.88 0.84 -0.88 c0.12 0 0.24 0 0.32 0.04 c-0.96 -5.28 -6.8 -5.32 -9.64 -5.32 l-1.96 0 l0 11.48 l2.32 0 c1 0 4.88 0.12 5.08 -2.92 l0.48 0 l0 3.44 l-8 0 l0 0.64 l8 0 l0 3.44 l-0.48 0 c-0.2 -3.08 -4.12 -2.92 -5.08 -2.92 l-2.32 0 l0 11.72 l1.64 0 c3.32 0 9.72 0.2 10.52 -7.16 z M1057.8860000000002 36.28 c0.64 2.72 3 3.2 3.92 3.2 l0 0.52 l-2.76 0 c-4.64 0 -4.2 -0.04 -6.2 -8 c-1.08 -3.84 -4.72 -3.84 -5.72 -3.84 l-1.68 0 l0 8.04 c0 2.52 0.76 3.28 2.32 3.28 l0 0.52 l-8.2 0 l0 -0.52 c1.6 0 2.28 -0.72 2.28 -3.76 l0 -18.24 c0 -1.88 -0.36 -2.56 -1.44 -2.72 c0.04 0.08 0.04 0.2 0.04 0.32 c0 0.48 -0.36 0.88 -0.88 0.88 c-0.48 0 -0.84 -0.4 -0.84 -0.88 s0.36 -0.88 0.84 -0.88 l7 0 c7.32 0 11.32 0.92 11.32 7 c0 5 -2.84 6.48 -6.84 6.68 c2.52 0.2 4.92 0.32 6.84 8.4 z M1045.4460000000004 27.68 l1.12 0 c4.12 0 7.32 0.04 7.32 -6.48 c0 -6.6 -3.4 -6.48 -7.32 -6.48 l-1.12 0 l0 12.96 z M1113.124 36.28 c0.64 2.72 3 3.2 3.92 3.2 l0 0.52 l-2.76 0 c-4.64 0 -4.2 -0.04 -6.2 -8 c-1.08 -3.84 -4.72 -3.84 -5.72 -3.84 l-1.68 0 l0 8.04 c0 2.52 0.76 3.28 2.32 3.28 l0 0.52 l-8.2 0 l0 -0.52 c1.6 0 2.28 -0.72 2.28 -3.76 l0 -18.24 c0 -1.88 -0.36 -2.56 -1.44 -2.72 c0.04 0.08 0.04 0.2 0.04 0.32 c0 0.48 -0.36 0.88 -0.88 0.88 c-0.48 0 -0.84 -0.4 -0.84 -0.88 s0.36 -0.88 0.84 -0.88 l7 0 c7.32 0 11.32 0.92 11.32 7 c0 5 -2.84 6.48 -6.84 6.68 c2.52 0.2 4.92 0.32 6.84 8.4 z M1100.6840000000002 27.68 l1.12 0 c4.12 0 7.32 0.04 7.32 -6.48 c0 -6.6 -3.4 -6.48 -7.32 -6.48 l-1.12 0 l0 12.96 z M1146.423 32.36 l0.48 0 l0 7.64 l-18.44 0 l0 -0.48 c1.56 0 2 -1.24 2 -3.8 l0 -17.6 c0 -1.88 -0.24 -2.96 -1.16 -3.32 c0 0.04 0.04 0.12 0.04 0.24 c0 0.48 -0.4 0.84 -0.88 0.84 s-0.88 -0.36 -0.88 -0.84 s0.4 -0.88 0.88 -0.88 l17.96 0 l0 6.64 c0 0.6 -0.28 0.88 -0.88 0.88 c-0.48 0 -0.84 -0.36 -0.84 -0.88 s0.36 -0.88 0.84 -0.88 c0.12 0 0.24 0 0.32 0.04 c-0.96 -5.28 -6.8 -5.32 -9.64 -5.32 l-1.96 0 l0 11.48 l2.32 0 c1 0 4.88 0.12 5.08 -2.92 l0.48 0 l0 3.44 l-8 0 l0 0.64 l8 0 l0 3.44 l-0.48 0 c-0.2 -3.08 -4.12 -2.92 -5.08 -2.92 l-2.32 0 l0 11.72 l1.64 0 c3.32 0 9.72 0.2 10.52 -7.16 z M1165.602 28.92 l-0.68 0 l0 6.04 c0 4.36 1.28 4.56 3.64 4.56 l0 0.48 l-9.72 0 l0 -0.48 c1.76 0 2.48 -0.92 2.48 -4.48 l0 -16.96 c0 -2.24 -0.36 -3.12 -1.6 -3.4 c0.04 0.04 0.04 0.16 0.04 0.32 c0 0.48 -0.36 0.84 -0.84 0.84 c-0.52 0 -0.88 -0.36 -0.88 -0.84 c0 -0.6 0.28 -0.88 0.88 -0.88 l6.68 0 c7.24 0 12.16 0.88 12.16 7.4 s-4.92 7.4 -12.16 7.4 z M1164.922 14.600000000000001 l0 13.84 l0.68 0 c4.48 0 8.12 -0.08 8.12 -6.92 c0 -6.96 -3.8 -6.92 -8.12 -6.92 l-0.68 0 z M1205.781 36.96 c1.04 2.4 1.88 2.52 2.84 2.52 l0 0.48 l-8.36 0 l0 -0.48 c1.96 0 1.6 -2.08 0.76 -4.08 l-1.16 -3.2 l-9.56 0 c-0.96 2.88 -2.68 7.48 2.44 7.28 l0 0.48 l-8.12 0 l0 -0.48 c1.4 0 2.28 -0.24 5.44 -8.6 l5.36 -14.64 l0.68 -2.04 l2.08 0 l1.52 0 l1.4 0 c0.48 0 0.8 0.4 0.8 0.88 s-0.4 0.84 -0.88 0.84 c-0.44 0 -0.88 -0.36 -0.88 -0.84 c0 -0.16 0.08 -0.24 0.12 -0.36 c-1.4 0.2 -1.48 1.08 -1.04 2.56 c0 0.04 0.04 0.36 6.28 18.8 c0.12 0.32 0.16 0.52 0.2 0.68 c0.04 0.12 0.04 0.16 0.08 0.2 z M1199.381 30.8 l-4.32 -12 l-4.36 12 l8.68 0 z M1190.421 31.72 l9.32 0 l-0.24 -0.44 l-8.96 0 z M1228.64 15.96 c-0.44 0 -0.88 -0.4 -0.88 -0.84 c0 -0.16 0.08 -0.24 0.08 -0.36 c-1.08 0.28 -1.76 0.92 -1.76 2.8 l0 18.52 c0 2.56 1.08 3.44 2.56 3.44 l0 0.48 l-8.88 0 l0 -0.48 c1.56 0 2.56 -0.88 2.56 -3.44 l0 -18.52 c0 -1.88 -0.6 -2.6 -1.76 -2.8 c0.04 0.04 0.04 0.16 0.04 0.36 c0 0.44 -0.36 0.84 -0.84 0.84 s-0.88 -0.4 -0.88 -0.84 c0 -0.52 0.4 -0.92 0.88 -0.92 l8.88 0 c0.48 0 0.92 0.4 0.92 0.92 c0 0.44 -0.44 0.84 -0.92 0.84 z M1260.619 36.28 c0.64 2.72 3 3.2 3.92 3.2 l0 0.52 l-2.76 0 c-4.64 0 -4.2 -0.04 -6.2 -8 c-1.08 -3.84 -4.72 -3.84 -5.72 -3.84 l-1.68 0 l0 8.04 c0 2.52 0.76 3.28 2.32 3.28 l0 0.52 l-8.2 0 l0 -0.52 c1.6 0 2.28 -0.72 2.28 -3.76 l0 -18.24 c0 -1.88 -0.36 -2.56 -1.44 -2.72 c0.04 0.08 0.04 0.2 0.04 0.32 c0 0.48 -0.36 0.88 -0.88 0.88 c-0.48 0 -0.84 -0.4 -0.84 -0.88 s0.36 -0.88 0.84 -0.88 l7 0 c7.32 0 11.32 0.92 11.32 7 c0 5 -2.84 6.48 -6.84 6.68 c2.52 0.2 4.92 0.32 6.84 8.4 z M1248.179 27.68 l1.12 0 c4.12 0 7.32 0.04 7.32 -6.48 c0 -6.6 -3.4 -6.48 -7.32 -6.48 l-1.12 0 l0 12.96 z"></path>
	</g>
	<g id="SvgjsG2196" featurekey="sloganFeature-0"
		transform="matrix(0.3139034502200907,0,0,0.3139034502200907,139.94349728316465,96.9219591954664)"
		fill="#fff">
		<path
			d="M7.86 15.879999999999999 l0 0.08 c0 0.06 -0.02 0.14 -0.04 0.22 l-0.4 3.8 l-7.24 0 l0 -0.52 c0.24 -0.58 0.56 -1.16 0.98 -1.7 c0.4 -0.56 0.98 -1.2 1.7 -1.92 c0.16 -0.14 0.34 -0.36 0.64 -0.62 c1.54 -1.44 2.3 -2.86 2.3 -4.28 c0 -1.02 -0.2 -1.76 -0.58 -2.24 c-0.4 -0.5 -1 -0.76 -1.8 -0.76 c-0.64 0 -1.24 0.22 -1.82 0.64 c-0.24 0.18 -0.44 0.4 -0.58 0.62 c0.3 0.06 0.5 0.28 0.5 0.58 c0 0.34 -0.28 0.6 -0.6 0.6 c-0.34 0 -0.6 -0.26 -0.6 -0.6 c0 -0.08 0 -0.14 0.02 -0.18 c0.18 -0.44 0.46 -0.82 0.82 -1.14 c0.7 -0.62 1.56 -0.92 2.6 -0.92 c1.16 0 2.12 0.32 2.86 0.96 s1.12 1.46 1.12 2.46 c0 0.5 -0.12 0.98 -0.38 1.48 c-0.24 0.5 -0.58 0.94 -1.02 1.34 c-0.38 0.32 -0.86 0.7 -1.5 1.16 c-0.64 0.44 -1.06 0.74 -1.26 0.9 c-0.58 0.44 -1.08 0.9 -1.52 1.38 c-0.42 0.48 -0.72 0.9 -0.88 1.28 l4.38 0 c0.66 0 1.1 -0.14 1.32 -0.4 c0.18 -0.22 0.32 -0.72 0.46 -1.54 l-0.08 0 c-0.34 0 -0.6 -0.26 -0.6 -0.6 c0 -0.32 0.26 -0.6 0.6 -0.6 c0.3 0 0.52 0.18 0.58 0.48 l0.02 0 l0 0.04 z M26.7835 16.16 l-1.84 0 l0 1.56 c0 2 0.62 2.04 1.42 2.04 l0 0.24 l-4.7 0 l0 -0.24 c0.78 0 1.42 -0.08 1.42 -1.96 l0 -1.64 l-5.06 0 l0 -0.28 l6.2 -9.26 l0.72 0.08 l0 8.46 l1.84 0 l0 1 z M23.0835 15.16 l0 -6.3 l-3.74 5.52 c-0.52 0.78 -0.24 0.78 0.28 0.78 l3.46 0 z M44.547 6.92 l-5.42 13.12 l-1.26 0 l5.42 -13.12 l1.26 0 z M57.7505 7.4399999999999995 l7.2 0 c-1 1.54 -1.76 2.96 -2.3 4.26 c-0.5 1.32 -0.8 2.62 -0.88 3.9 c-0.04 0.42 -0.06 1 -0.06 1.7 c-0.02 1.76 -0.36 2.64 -1 2.64 c-0.32 0 -0.56 -0.14 -0.74 -0.4 s-0.26 -0.62 -0.26 -1.1 c0 -1.08 0.32 -2.4 0.96 -3.96 c0.62 -1.54 1.6 -3.4 2.94 -5.56 l-3.54 0 c-1 0 -1.64 0.14 -1.92 0.44 c-0.22 0.22 -0.42 0.8 -0.58 1.72 l0.08 0 c0.34 0 0.6 0.26 0.6 0.6 c0 0.32 -0.26 0.6 -0.6 0.6 c-0.32 0 -0.6 -0.28 -0.6 -0.6 l0 -0.06 z M94.81749999999998 11.58 l3.04 2 c2.44 1.58 2.86 3.66 1.9 5.16 c-0.18 0.28 -0.42 0.52 -0.74 0.74 c-0.56 0.38 -1.44 0.74 -2.88 0.74 c-1.52 0 -2.58 -0.24 -3.3 -0.5 c-0.42 -0.14 -0.78 -0.32 -1.06 -0.52 l0 -3.52 l0.02 0 l-0.02 -0.02 c0 -0.24 0.2 -0.42 0.44 -0.42 c0.22 0 0.44 0.18 0.44 0.42 c0 0.26 -0.22 0.44 -0.44 0.44 c-0.08 0 -0.14 -0.02 -0.18 -0.04 c0.26 2.08 1.16 3.92 4.1 3.92 c2.8 0 3.12 -3.08 1 -4.62 l-3.04 -1.96 c-1.72 -1.14 -3.38 -2.78 -2 -4.96 c0.18 -0.26 0.44 -0.5 0.76 -0.72 c0.54 -0.38 1.42 -0.72 2.7 -0.72 c1.34 0 2.36 0.22 3.08 0.44 c0.42 0.14 0.8 0.28 1.1 0.44 l0 3.04 l0 0.04 c0 0.22 -0.18 0.44 -0.42 0.44 c-0.26 0 -0.44 -0.22 -0.44 -0.44 c0 -0.24 0.18 -0.46 0.44 -0.46 c0.02 0 0.06 0.04 0.12 0.04 c-0.26 -1.66 -1.06 -3.3 -3.88 -3.3 c-1.98 0 -3.48 2.56 -0.74 4.34 z M120.48099999999998 16.18 l0.24 0 l0 3.82 l-9.22 0 l0 -0.24 c0.78 0 1 -0.62 1 -1.9 l0 -8.8 c0 -0.94 -0.12 -1.48 -0.58 -1.66 c0 0.02 0.02 0.06 0.02 0.12 c0 0.24 -0.2 0.42 -0.44 0.42 s-0.44 -0.18 -0.44 -0.42 s0.2 -0.44 0.44 -0.44 l8.98 0 l0 3.32 c0 0.3 -0.14 0.44 -0.44 0.44 c-0.24 0 -0.42 -0.18 -0.42 -0.44 s0.18 -0.44 0.42 -0.44 c0.06 0 0.12 0 0.16 0.02 c-0.48 -2.64 -3.4 -2.66 -4.82 -2.66 l-0.98 0 l0 5.74 l1.16 0 c0.5 0 2.44 0.06 2.54 -1.46 l0.24 0 l0 1.72 l-4 0 l0 0.32 l4 0 l0 1.72 l-0.24 0 c-0.1 -1.54 -2.06 -1.46 -2.54 -1.46 l-1.16 0 l0 5.86 l0.82 0 c1.66 0 4.86 0.1 5.26 -3.58 z M141.40449999999996 18.14 c0.32 1.36 1.5 1.6 1.96 1.6 l0 0.26 l-1.38 0 c-2.32 0 -2.1 -0.02 -3.1 -4 c-0.54 -1.92 -2.36 -1.92 -2.86 -1.92 l-0.84 0 l0 4.02 c0 1.26 0.38 1.64 1.16 1.64 l0 0.26 l-4.1 0 l0 -0.26 c0.8 0 1.14 -0.36 1.14 -1.88 l0 -9.12 c0 -0.94 -0.18 -1.28 -0.72 -1.36 c0.02 0.04 0.02 0.1 0.02 0.16 c0 0.24 -0.18 0.44 -0.44 0.44 c-0.24 0 -0.42 -0.2 -0.42 -0.44 s0.18 -0.44 0.42 -0.44 l3.5 0 c3.66 0 5.66 0.46 5.66 3.5 c0 2.5 -1.42 3.24 -3.42 3.34 c1.26 0.1 2.46 0.16 3.42 4.2 z M135.18449999999996 13.84 l0.56 0 c2.06 0 3.66 0.02 3.66 -3.24 c0 -3.3 -1.7 -3.24 -3.66 -3.24 l-0.56 0 l0 6.48 z M161.34799999999996 7.08 l4.56 0 l0 0.22 c-1.22 0 -1.7 0 -3.36 4.38 l-3.14 8.32 l-0.28 0 c-1.12 -2.72 -2.26 -5.52 -3.06 -7.7 c-0.5 -1.26 -0.96 -2.48 -1.38 -3.66 c-0.4 -1.02 -0.84 -1.24 -1.32 -1.3 c0.02 0.06 0.06 0.1 0.06 0.18 c0 0.24 -0.22 0.42 -0.46 0.42 s-0.44 -0.18 -0.44 -0.42 s0.18 -0.42 0.42 -0.44 l4.92 0 c0.24 0 0.46 0.18 0.46 0.44 c0 0.24 -0.22 0.42 -0.46 0.42 c-0.22 0 -0.44 -0.18 -0.44 -0.42 c0 -0.06 0.02 -0.1 0.02 -0.16 c-1.04 0.28 -0.68 1.44 -0.68 1.58 l3.28 8.76 l2.28 -6.04 c0.54 -1.7 1.68 -4.36 -0.98 -4.36 l0 -0.22 z M181.19149999999996 7.98 c-0.22 0 -0.44 -0.2 -0.44 -0.42 c0 -0.08 0.04 -0.12 0.04 -0.18 c-0.54 0.14 -0.88 0.46 -0.88 1.4 l0 9.26 c0 1.28 0.54 1.72 1.28 1.72 l0 0.24 l-4.44 0 l0 -0.24 c0.78 0 1.28 -0.44 1.28 -1.72 l0 -9.26 c0 -0.94 -0.3 -1.3 -0.88 -1.4 c0.02 0.02 0.02 0.08 0.02 0.18 c0 0.22 -0.18 0.42 -0.42 0.42 s-0.44 -0.2 -0.44 -0.42 c0 -0.26 0.2 -0.46 0.44 -0.46 l4.44 0 c0.24 0 0.46 0.2 0.46 0.46 c0 0.22 -0.22 0.42 -0.46 0.42 z M202.37499999999994 15.58 l0 0.1 c0 2.1 0.02 3.32 0.08 4.22 l-0.36 0 c-0.04 -0.34 -0.08 -0.56 -0.14 -0.7 c-1.12 0.68 -2.08 0.88 -3.8 0.88 c-3.74 0 -6.26 -2.5 -6.26 -6.52 c0 -4.08 2.52 -6.5 6.26 -6.5 c1.62 0 2.8 0.3 3.84 0.92 c0.06 -0.16 0.04 -0.54 0.1 -0.84 l0.36 0 c-0.06 0.86 -0.08 1.98 -0.08 4.04 l0 0.04 l0 0.06 c-0.02 0.22 -0.2 0.38 -0.42 0.38 c-0.26 0 -0.44 -0.2 -0.44 -0.44 c0 -0.22 0.18 -0.38 0.42 -0.44 c-0.14 -0.62 -0.22 -1.04 -0.36 -1.38 c-0.8 -1.66 -2.26 -2.12 -3.42 -2.12 c-1.88 0 -3.94 0.82 -3.94 6.28 c0 5.54 2.1 6.28 3.94 6.28 c0.86 0 1.96 -0.3 2.78 -1.12 c0.08 -0.08 0.18 -0.18 0.26 -0.32 c0.46 -0.6 0.6 -1.2 0.76 -2.34 c-0.26 0 -0.44 -0.2 -0.44 -0.44 c0 -0.22 0.18 -0.44 0.44 -0.44 s0.4 0.14 0.42 0.4 z M222.93849999999995 16.18 l0.24 0 l0 3.82 l-9.22 0 l0 -0.24 c0.78 0 1 -0.62 1 -1.9 l0 -8.8 c0 -0.94 -0.12 -1.48 -0.58 -1.66 c0 0.02 0.02 0.06 0.02 0.12 c0 0.24 -0.2 0.42 -0.44 0.42 s-0.44 -0.18 -0.44 -0.42 s0.2 -0.44 0.44 -0.44 l8.98 0 l0 3.32 c0 0.3 -0.14 0.44 -0.44 0.44 c-0.24 0 -0.42 -0.18 -0.42 -0.44 s0.18 -0.44 0.42 -0.44 c0.06 0 0.12 0 0.16 0.02 c-0.48 -2.64 -3.4 -2.66 -4.82 -2.66 l-0.98 0 l0 5.74 l1.16 0 c0.5 0 2.44 0.06 2.54 -1.46 l0.24 0 l0 1.72 l-4 0 l0 0.32 l4 0 l0 1.72 l-0.24 0 c-0.1 -1.54 -2.06 -1.46 -2.54 -1.46 l-1.16 0 l0 5.86 l0.82 0 c1.66 0 4.86 0.1 5.26 -3.58 z"></path>
	</g>
</svg>