<svg xmlns="http://www.w3.org/2000/svg" viewBox="0 0 369.9236641221374 43.13243182783362" preserveAspectRatio="xMidYMid meet"
	class="css-8aabad" id="bbffbfab">
	<defs id="SvgjsDefs1289"></defs>
	<g id="SvgjsG1290" featurekey="symbolFeature-0"
		transform="matrix(0.44776601368944274,0,0,0.44776601368944274,-2.2268031806560034,-0.7557231973339027)"
		fill="#fff">
		<path xmlns="http://www.w3.org/2000/svg" fill-rule="evenodd" clip-rule="evenodd"
			d="M15.623,72.469c1.133,0,2.267,0.023,3.399-0.007  c1.46-0.037,2.645-0.64,3.686-1.688c5.708-5.746,11.452-11.456,17.177-17.183c1.249-1.249,2.475-2.521,3.966-4.041  c-3.66-3.545-7.232-6.974-10.768-10.44c-2.675-2.622-5.351-5.247-7.935-7.957c-1.354-1.42-2.921-2.106-4.837-2.115  c-1.084-0.005-2.169-0.001-3.254-0.115c5.6-2.692,8.406-7.537,10.557-13.142c0.104,1.043,0.167,1.936,0.288,2.821  c0.188,1.377,0.706,2.606,1.709,3.608c6.765,6.757,13.525,13.519,20.289,20.278c0.147,0.147,0.312,0.278,0.705,0.622  c0.971-1.06,1.892-2.141,2.892-3.144c6.275-6.288,12.556-12.571,18.864-18.825c1.285-1.274,2.008-2.742,2.114-4.535  c0.028-0.458,0.089-0.915,0.162-1.639c1.997,4.997,4.488,9.29,9.471,11.701c-0.778,0-1.557,0.014-2.334-0.002  c-1.924-0.043-3.472,0.631-4.857,2.034c-6.339,6.425-12.749,12.781-19.128,19.167c-0.397,0.398-0.749,0.842-1.164,1.313  c9.579,9.575,19.152,19.145,28.881,28.869c-3.695,0.887-5.94,3.013-6.694,6.542C69.2,74.998,59.622,65.437,49.958,55.788  c-0.396,0.364-0.654,0.585-0.894,0.825C41.948,63.726,34.86,70.866,27.696,77.93c-1.554,1.532-2.371,3.251-2.455,5.38  c-0.011,0.283-0.04,0.565-0.083,1.155c-2.065-5.062-4.552-9.446-9.57-11.708C15.599,72.66,15.611,72.564,15.623,72.469z"></path>
		<path xmlns="http://www.w3.org/2000/svg" fill-rule="evenodd" clip-rule="evenodd"
			d="M10.613,7.484c0.534-0.23,0.84-0.404,1.169-0.496  c2.994-0.832,6.037-1.1,9.101-0.534c4.3,0.794,6.51,3.719,5.912,8.054c-0.717,5.203-3.303,9.379-7.622,12.369  c-3.241,2.243-6.234,1.811-8.868-1.097c-2.122-2.343-3.661-5.05-4.762-8.134c0.294,0.123,0.6,0.225,0.879,0.374  c1.73,0.921,3.476,1.815,5.172,2.797c0.938,0.544,1.76,0.466,2.578-0.144c2.271-1.695,3.777-3.862,4.044-6.752  c0.129-1.395-0.305-2.485-1.673-3.152c-1.632-0.795-3.213-1.698-4.81-2.564C11.409,8.029,11.108,7.806,10.613,7.484z"></path>
		<path xmlns="http://www.w3.org/2000/svg" fill-rule="evenodd" clip-rule="evenodd"
			d="M9.579,92.105c1.514-0.822,2.752-1.598,4.073-2.19  c3.056-1.372,3.85-2.379,1.999-6.526c-0.55-1.231-1.773-2.192-2.785-3.178c-0.67-0.654-1.497-0.653-2.365-0.153  c-1.606,0.926-3.259,1.771-4.896,2.644c-0.174,0.094-0.368,0.15-0.597,0.241c-0.013-0.186-0.057-0.303-0.021-0.385  c1.333-3.027,2.935-5.887,5.487-8.07c1.772-1.516,3.805-1.561,5.815-0.567c3.588,1.771,5.722,4.845,7.189,8.437  c0.852,2.084,1.248,4.236,0.615,6.481c-0.594,2.108-1.923,3.469-4.042,4.01c-3.157,0.807-6.296,0.6-9.413-0.251  C10.376,92.525,10.137,92.367,9.579,92.105z"></path>
		<path xmlns="http://www.w3.org/2000/svg" fill-rule="evenodd" clip-rule="evenodd"
			d="M89.812,7.452c-0.449,0.271-0.763,0.477-1.092,0.655  c-1.41,0.764-2.809,1.552-4.243,2.267c-1.085,0.54-1.476,1.44-1.4,2.541c0.188,2.756,1.596,4.818,3.816,6.37  c0.684,0.478,1.372,0.429,2.105,0.02c1.766-0.985,3.559-1.923,5.478-2.954c-0.028,0.324,0.012,0.516-0.063,0.636  c-1.435,2.285-2.69,4.716-4.377,6.8c-2.138,2.642-4.883,2.91-7.708,0.982c-3.977-2.714-6.326-6.53-6.925-11.311  c-0.463-3.699,1.53-6.3,5.199-6.982c2.743-0.51,5.467-0.301,8.153,0.428c0.205,0.056,0.406,0.135,0.602,0.22  C89.45,7.162,89.526,7.241,89.812,7.452z"></path>
		<path xmlns="http://www.w3.org/2000/svg" fill-rule="evenodd" clip-rule="evenodd"
			d="M79.063,85.809c0.014-4.136,3.371-7.448,7.524-7.424  c4.147,0.025,7.461,3.36,7.457,7.509c-0.004,4.128-3.357,7.479-7.489,7.486C82.364,93.386,79.051,90.037,79.063,85.809z   M80.127,85.835c-0.013,3.54,2.831,6.45,6.322,6.473c3.596,0.021,6.513-2.829,6.535-6.387c0.022-3.552-2.897-6.48-6.453-6.472  C82.993,79.457,80.14,82.304,80.127,85.835z"></path>
		<g xmlns="http://www.w3.org/2000/svg">
			<path fill-rule="evenodd" clip-rule="evenodd"
				d="M82.753,82.218l-0.679-0.413c-0.439,0.475-0.809,1.014-1.08,1.609l0.676,0.411   C81.932,83.224,82.3,82.68,82.753,82.218z"></path>
			<path fill-rule="evenodd" clip-rule="evenodd"
				d="M81.228,85.943c0-0.432,0.065-0.846,0.162-1.247h-0.825   c-0.079,0.389-0.124,0.79-0.125,1.201c-0.001,0.249,0.018,0.495,0.045,0.737h0.812C81.268,86.406,81.228,86.181,81.228,85.943z"></path>
			<path fill-rule="evenodd" clip-rule="evenodd"
				d="M85.016,80.867l-0.387-0.703c-0.624,0.208-1.202,0.504-1.719,0.891l0.386,0.701   C83.805,81.359,84.384,81.06,85.016,80.867z"></path>
			<path fill-rule="evenodd" clip-rule="evenodd"
				d="M91.519,84.038l0.702-0.387c-0.243-0.595-0.606-1.139-1.034-1.641L90.5,82.389   C90.934,82.869,91.282,83.423,91.519,84.038z"></path>
			<path fill-rule="evenodd" clip-rule="evenodd"
				d="M89.984,81.895l0.403-0.663c-0.51-0.417-1.062-0.758-1.665-0.988l-0.419,0.688   C88.927,81.149,89.49,81.477,89.984,81.895z"></path>
			<path fill-rule="evenodd" clip-rule="evenodd"
				d="M86.556,80.614c0.331,0,0.652,0.04,0.967,0.098v-0.79   c-0.616-0.141-1.366-0.109-1.938,0.001v0.789C85.9,80.654,86.223,80.614,86.556,80.614z"></path>
			<path fill-rule="evenodd" clip-rule="evenodd"
				d="M81.446,87.373l-0.723,0.397c0.196,0.629,0.492,1.211,0.865,1.734l0.708-0.39   C81.91,88.599,81.625,88.011,81.446,87.373z"></path>
			<path fill-rule="evenodd" clip-rule="evenodd"
				d="M92.535,84.698h-0.812c0.097,0.401,0.161,0.814,0.161,1.245   c0,0.237-0.04,0.463-0.069,0.691h0.815c0.024-0.215,0.04-0.432,0.041-0.651C92.674,85.546,92.623,85.117,92.535,84.698z"></path>
			<path fill-rule="evenodd" clip-rule="evenodd"
				d="M90.662,89.302l0.676,0.412c0.404-0.505,0.728-1.073,0.954-1.687l-0.697-0.425   C91.388,88.23,91.072,88.802,90.662,89.302z"></path>
			<path fill-rule="evenodd" clip-rule="evenodd"
				d="M86.556,91.272c-0.333,0-0.655-0.04-0.971-0.098v0.809   c0.281,0.043,0.565,0.073,0.858,0.075c0.369,0,0.729-0.037,1.079-0.098v-0.786C87.208,91.232,86.887,91.272,86.556,91.272z"></path>
			<path fill-rule="evenodd" clip-rule="evenodd"
				d="M82.899,89.804l-0.425,0.698c0.481,0.434,1.025,0.796,1.624,1.058l0.423-0.693   C83.914,90.614,83.369,90.249,82.899,89.804z"></path>
			<path fill-rule="evenodd" clip-rule="evenodd"
				d="M88.352,90.94l0.378,0.687c0.612-0.237,1.179-0.563,1.677-0.968l-0.385-0.698   C89.532,90.384,88.972,90.717,88.352,90.94z"></path>
		</g>
	</g>
	<g id="SvgjsG1291" featurekey="nameFeature-0"
		transform="matrix(0.32221953318853574,0,0,0.32221953318853574,60.00002734903188,-3.454192867238015)"
		fill="#fff">
		<path
			d="M43.2 11.96 l10.8 0 c-0.6 1 -4.64 8.04 -8.52 14.8 c-2.28 3.96 -4.8 8.4 -7.64 13.24 l-3.6 0 l-3.16 -5.4 c-1.6 -2.92 -3.44 -5.92 -4.08 -7.08 c-1.88 3.24 -3.64 6.32 -4.96 8.68 c-0.76 1.36 -1.52 2.64 -2.2 3.8 l-3.6 0 c0.32 -0.64 9.84 -17.28 10.76 -18.68 c0.08 0.08 2.32 3.96 4.56 7.84 l4.48 7.72 c1.92 -3.32 5.04 -8.8 7.72 -13.4 l4.84 -8.4 l-3.6 0 c-3.52 6.2 -6.04 10.6 -8.92 15.48 l-4.48 -7.6 l-4.6 -7.88 c-5 8.64 -7.96 13.92 -12.56 21.8 c-0.28 -0.48 -14.48 -24.88 -14.44 -24.92 l10.8 0 l5.44 9.36 l-1.8 3.12 l-5.44 -9.36 l-3.6 0 c0.8 1.28 8.28 14.32 9.04 15.56 l7.84 -13.6 l2.92 -5.08 l3.6 0 c0.36 0.68 5.56 9.6 7.28 12.4 c2.24 -3.84 3.96 -6.88 5.2 -9.08 z M65.2 30.64 l1.8 -3.12 l5.44 9.36 l3.6 0 c-0.8 -1.28 -8.4 -14.28 -9.04 -15.56 l-7.84 13.6 l-2.92 5.08 l-10.8 0 c0.6 -1 4.64 -8.04 8.52 -14.8 c2.28 -3.96 4.8 -8.4 7.64 -13.24 l3.6 0 l-7.44 12.88 l-6.92 12.04 l3.6 0 c4.92 -8.68 8 -13.8 12.56 -21.8 c0.28 0.48 14.36 24.88 14.44 24.92 l-10.8 0 z M110.71999999999998 11.96 l0 12.88 c0 8.32 -6.8 15.16 -15.2 15.16 c-8.24 0 -14.84 -6.48 -15.16 -14.64 l0 -13.4 l9.16 0 l0 12.88 c0 3.32 2.68 6 6 6 s5.88 -2.6 6 -5.84 l0 -13.04 l3.04 0 l0 12.88 c0 4.96 -4.04 9.04 -9.04 9.04 c-4.92 0 -9 -4 -9 -8.96 l-0.04 0 l0 -9.88 l-3 0 l0 10 c0.12 6.56 5.48 11.84 12.04 11.84 c6.68 0 12.04 -5.4 12.04 -12.04 l0 -12.88 l3.16 0 z  M131.72 30.32 l2.28 -2.12 l12.84 11.8 l-13.8 0 l-10.48 -9.6 l16.24 -15.32 l-4.52 0 l-11.72 11.32 l0 -11.32 l-3.12 0 l0 21.8 l5.52 0 l3.44 3.12 l-12.08 0 l0 -28.04 l9.36 0 l0 6.88 l7.36 -6.88 l13.64 0 l-19.56 18.4 l7.12 6.52 l4.6 0 z M183.04 11.96 l0 9.36 l-21.24 0 l0 3.12 l15.76 0 l0 3.12 l-18.88 0 l0 -9.36 l21.24 0 l0 -3.12 l-24.36 0 l0 21.8 l24.36 0 l0 -3.12 l-21.24 0 l0 -3.12 l24.36 0 l0 9.36 l-30.6 0 l0 -28.04 l30.6 0 z M201.35999999999999 24.4 l17.92 0 l0 15.6 l-17.24 0 c-7.48 -0.32 -13.4 -6.48 -13.4 -14 c0 -7.56 5.92 -13.72 13.4 -14.04 l17.24 0 l0 9.4 l-17.24 0 c-2.36 0.2 -4.16 2.24 -4.16 4.6 c0 2.44 1.8 4.36 4.16 4.68 l10.96 0 l0 3.12 l-10.96 0 c-4.04 -0.32 -7.24 -3.64 -7.24 -7.8 c0 -4 3.08 -7.44 7.08 -7.76 l14.24 0 l0 -3.12 l-14.08 0 c-5.72 0.32 -10.28 5.08 -10.28 10.92 c0 5.8 4.56 10.56 10.28 10.88 l14.08 0 l0 -9.36 l-14.76 0 l0 -3.12 z M244.64 30.64 l1.8 -3.12 l5.44 9.36 l3.6 0 c-0.8 -1.28 -8.4 -14.28 -9.04 -15.56 l-7.84 13.6 l-2.92 5.08 l-10.8 0 c0.6 -1 4.64 -8.04 8.52 -14.8 c2.28 -3.96 4.8 -8.4 7.64 -13.24 l3.6 0 l-7.44 12.88 l-6.92 12.04 l3.6 0 c4.92 -8.68 8 -13.8 12.56 -21.8 c0.28 0.48 14.36 24.88 14.44 24.92 l-10.8 0 z M284.8 25.68 l0 -13.72 l9.36 0 l0 28.04 l-9.36 0 l-15 -17.36 l0 -4.8 l16.44 19.04 l4.8 0 l0 -21.8 l-3.12 0 l0 19 l-16.44 -19 l-4.8 0 l0 21.8 l3.12 0 l0 -9.44 l3.12 3.6 l0 8.96 l-9.36 0 l0 -28.04 l9.36 0 z M335.03999999999996 10.719999999999999 c8.4 0 15.24 6.84 15.24 15.28 s-6.84 15.24 -15.24 15.24 c-8.44 0 -15.28 -6.8 -15.28 -15.24 s6.84 -15.28 15.28 -15.28 z M335.03999999999996 38.16 c6.72 0 12.16 -5.44 12.16 -12.16 s-5.44 -12.2 -12.16 -12.2 c-6.76 0 -12.2 5.48 -12.2 12.2 s5.44 12.16 12.2 12.16 z M335.03999999999996 16.88 c5 0 9.08 4.12 9.08 9.12 s-4.08 9.08 -9.08 9.08 s-9.12 -4.08 -9.12 -9.08 s4.12 -9.12 9.12 -9.12 z M335.03999999999996 32 c3.32 0 6 -2.68 6 -6 c0 -3.36 -2.68 -6.04 -6 -6.04 c-3.36 0 -6.04 2.68 -6.04 6.04 c0 3.32 2.68 6 6.04 6 z M374.6 25.68 l0 -13.72 l9.36 0 l0 28.04 l-9.36 0 l-15 -17.36 l0 -4.8 l16.44 19.04 l4.8 0 l0 -21.8 l-3.12 0 l0 19 l-16.44 -19 l-4.8 0 l0 21.8 l3.12 0 l0 -9.44 l3.12 3.6 l0 8.96 l-9.36 0 l0 -28.04 l9.36 0 z M420.16 21.32 l0 9.36 l-30.6 0 l0 -9.36 l24.36 0 l0 3.12 l-21.28 0 l0 3.12 l24.4 0 l0 -6.24 l3.12 0 z M449.24 27.560000000000002 c-15.88 0 -16.12 -0.04 -16.32 -0.04 l-0.08 0 c-4 -0.32 -7.08 -3.72 -7.08 -7.76 c0 -4.32 3.48 -7.8 7.8 -7.8 l16.8 0 c3.36 0 6.08 2.72 6.08 6.12 l0 3.24 l-22.76 0 l-0.04 0 l-0.04 0 c-0.92 -0.04 -1.52 -0.72 -1.52 -1.56 s0.64 -1.52 1.48 -1.56 l19.76 0 l0 -0.08 c0 -1.72 -1.32 -3.04 -3.04 -3.04 l-16.72 0 c-2.56 0 -4.68 2.08 -4.68 4.68 c0 2.4 1.8 4.32 4.08 4.64 c15.96 0 16.12 0.04 16.4 0.04 c4 0.32 7.08 3.76 7.08 7.76 c0 4.32 -3.48 7.8 -7.76 7.8 l-16.84 0 c-3.36 0 -6.08 -2.72 -6.08 -6.08 l0 -3.28 l22.92 0 c1.96 0.12 1.96 3 0 3.12 l-19.8 0 l0 0.08 c0 1.72 1.32 3.04 3.04 3.04 l16.76 0 c2.52 0 4.68 -2 4.68 -4.68 c0 -2.4 -1.8 -4.32 -4.12 -4.64 z M471.4 40 l-9.36 0 l0 -28.04 l9.36 0 l0 21.8 l-3.12 0 l0 -18.68 l-3.12 0 l0 21.8 l6.24 0 l0 3.12 z M476.99999999999994 21.32 l0 -9.36 l30.6 0 l0 9.36 l-7.52 0 l0 -3.12 l4.4 0 l0 -3.12 l-24.36 0 l0 3.12 l10.64 0 l-0.04 18.68 l3.12 0 l0 -18.68 l3.12 0 l0 21.8 l-9.36 0 l0 -18.68 l-10.6 0 z M543.8 11.96 l0 9.36 l-21.24 0 l0 3.12 l15.76 0 l0 3.12 l-18.88 0 l0 -9.36 l21.24 0 l0 -3.12 l-24.36 0 l0 21.8 l24.36 0 l0 -3.12 l-21.24 0 l0 -3.12 l24.36 0 l0 9.36 l-30.6 0 l0 -28.04 l30.6 0 z M569.4 21.32 l0 -9.36 l30.6 0 l0 9.36 l-7.52 0 l0 -3.12 l4.4 0 l0 -3.12 l-24.36 0 l0 3.12 l10.64 0 l-0.04 18.68 l3.12 0 l0 -18.68 l3.12 0 l0 21.8 l-9.36 0 l0 -18.68 l-10.6 0 z M636.36 40 l-10.8 0 l-3.64 -6.28 l-7 0 l0 6.28 l-9.32 0 l0 -15.6 l22.88 0.04 c2.6 0 4.68 -2.12 4.68 -4.68 c0 -2.6 -2.08 -4.68 -4.68 -4.68 l-19.76 0 l0 3.12 l19.76 0 c0.84 0.04 1.48 0.72 1.48 1.56 s-0.64 1.52 -1.48 1.56 l-0.04 0 l-0.04 0 l-22.8 0 l0 -9.36 l22.88 0 c4.32 0 7.8 3.48 7.8 7.8 c0 4.28 -3.48 7.8 -7.8 7.8 l-19.76 -0.04 l0 9.36 l3.12 0 l0 -6.28 l11.88 0 c1.28 2.32 3.44 5.88 3.64 6.28 l3.6 0 c-0.32 -0.44 -2.16 -3.72 -3.64 -6.28 l3.6 0 c1.32 2.28 2.64 4.64 3.72 6.4 z M671.08 11.96 l0 12.88 c0 8.32 -6.8 15.16 -15.2 15.16 c-8.24 0 -14.84 -6.48 -15.16 -14.64 l0 -13.4 l9.16 0 l0 12.88 c0 3.32 2.68 6 6 6 s5.88 -2.6 6 -5.84 l0 -13.04 l3.04 0 l0 12.88 c0 4.96 -4.04 9.04 -9.04 9.04 c-4.92 0 -9 -4 -9 -8.96 l-0.04 0 l0 -9.88 l-3 0 l0 10 c0.12 6.56 5.48 11.84 12.04 11.84 c6.68 0 12.04 -5.4 12.04 -12.04 l0 -12.88 l3.16 0 z  M707.2800000000001 11.96 l0 9.4 l-17.2 0 c-2.36 0.2 -4.16 2.24 -4.16 4.64 s1.8 4.36 4.16 4.64 l10.96 0 l0 3.12 l-10.96 0 c-4.04 -0.32 -7.24 -3.64 -7.24 -7.8 c0 -4 3.08 -7.4 7.08 -7.72 l14.24 0 l0 -3.16 l-14.08 0 l0 0.04 c-5.72 0.32 -10.28 5.04 -10.28 10.88 c0 5.8 4.56 10.56 10.28 10.88 l14.08 0 l0 -6.24 l3.12 0 l0 9.36 l-17.2 0 c-7.48 -0.32 -13.4 -6.48 -13.4 -14 c0 -7.56 5.92 -13.68 13.4 -14 z M728.2800000000001 30.32 l2.28 -2.12 l12.84 11.8 l-13.8 0 l-10.48 -9.6 l16.24 -15.32 l-4.52 0 l-11.72 11.32 l0 -11.32 l-3.12 0 l0 21.8 l5.52 0 l3.44 3.12 l-12.08 0 l0 -28.04 l9.36 0 l0 6.88 l7.36 -6.88 l13.64 0 l-19.56 18.4 l7.12 6.52 l4.6 0 z M799.7600000000001 40 l-10.8 0 l-3.64 -6.28 l-7 0 l0 6.28 l-9.32 0 l0 -15.6 l22.88 0.04 c2.6 0 4.68 -2.12 4.68 -4.68 c0 -2.6 -2.08 -4.68 -4.68 -4.68 l-19.76 0 l0 3.12 l19.76 0 c0.84 0.04 1.48 0.72 1.48 1.56 s-0.64 1.52 -1.48 1.56 l-0.04 0 l-0.04 0 l-22.8 0 l0 -9.36 l22.88 0 c4.32 0 7.8 3.48 7.8 7.8 c0 4.28 -3.48 7.8 -7.8 7.8 l-19.76 -0.04 l0 9.36 l3.12 0 l0 -6.28 l11.88 0 c1.28 2.32 3.44 5.88 3.64 6.28 l3.6 0 c-0.32 -0.44 -2.16 -3.72 -3.64 -6.28 l3.6 0 c1.32 2.28 2.64 4.64 3.72 6.4 z M834.3200000000002 11.96 l0 9.36 l-21.24 0 l0 3.12 l15.76 0 l0 3.12 l-18.88 0 l0 -9.36 l21.24 0 l0 -3.12 l-24.36 0 l0 21.8 l24.36 0 l0 -3.12 l-21.24 0 l0 -3.12 l24.36 0 l0 9.36 l-30.6 0 l0 -28.04 l30.6 0 z M839.9200000000002 11.96 l22.84 0 c4.28 0 7.76 3.48 7.76 7.8 c0 4.28 -3.48 7.8 -7.76 7.8 l-19.72 -0.04 l0 9.36 l3.12 0 l0 -6.24 l3.08 0 l0 9.36 l-9.32 0 l0 -15.6 l22.84 0.04 c2.56 0 4.64 -2.12 4.64 -4.68 c0 -2.6 -2.08 -4.68 -4.64 -4.68 l-19.72 0 l0 3.12 l19.72 0 c0.8 0.04 1.48 0.72 1.48 1.56 s-0.64 1.52 -1.56 1.56 l-0.04 0 l-22.72 0 l0 -9.36 z M894.2800000000002 30.64 l1.8 -3.12 l5.44 9.36 l3.6 0 c-0.8 -1.28 -8.4 -14.28 -9.04 -15.56 l-7.84 13.6 l-2.92 5.08 l-10.8 0 c0.6 -1 4.64 -8.04 8.52 -14.8 c2.28 -3.96 4.8 -8.4 7.64 -13.24 l3.6 0 l-7.44 12.88 l-6.92 12.04 l3.6 0 c4.92 -8.68 8 -13.8 12.56 -21.8 c0.28 0.48 14.36 24.88 14.44 24.92 l-10.8 0 z M925.4800000000002 40 l-9.36 0 l0 -28.04 l9.36 0 l0 21.8 l-3.12 0 l0 -18.68 l-3.12 0 l0 21.8 l6.24 0 l0 3.12 z M961.8400000000003 40 l-10.8 0 l-3.64 -6.28 l-7 0 l0 6.28 l-9.32 0 l0 -15.6 l22.88 0.04 c2.6 0 4.68 -2.12 4.68 -4.68 c0 -2.6 -2.08 -4.68 -4.68 -4.68 l-19.76 0 l0 3.12 l19.76 0 c0.84 0.04 1.48 0.72 1.48 1.56 s-0.64 1.52 -1.48 1.56 l-0.04 0 l-0.04 0 l-22.8 0 l0 -9.36 l22.88 0 c4.32 0 7.8 3.48 7.8 7.8 c0 4.28 -3.48 7.8 -7.8 7.8 l-19.76 -0.04 l0 9.36 l3.12 0 l0 -6.28 l11.88 0 c1.28 2.32 3.44 5.88 3.64 6.28 l3.6 0 c-0.32 -0.44 -2.16 -3.72 -3.64 -6.28 l3.6 0 c1.32 2.28 2.64 4.64 3.72 6.4 z"></path>
	</g>
	<g id="SvgjsG1292" featurekey="sloganFeature-0"
		transform="matrix(0.6920912550103693,0,0,0.6920912550103693,59.32417319573614,26.53982093740305)"
		fill="#fff">
		<path
			d="M4.9121 17.4902 l6.0156 0 l0 2.5098 l-9.9512 0 l0 -2.1191 l5.6152 -5.7324 c0.9082 -0.91797 1.2207 -1.7188 1.2207 -2.4316 c0 -1.1035 -0.69336 -1.7871 -1.9238 -1.7871 c-1.1621 0 -2.002 0.5957 -2.002 2.2754 l0 1.0449 l-2.8027 -0.2832 l0 -0.70313 c0 -2.9785 1.8945 -4.5898 4.7852 -4.5898 c2.7148 0 4.7168 1.4746 4.7168 4.0625 c0 1.4551 -0.625 2.5391 -1.8555 3.8184 z M22.89840234375 14.814499999999999 l0 2.5098 l-1.6992 0 l0 2.6758 l-2.8125 0 l0 -2.6758 l-6.4941 0 l0 -2.5195 l5 -8.916 l4.3066 0 l0 8.9258 l1.6992 0 z M14.49950234375 14.814499999999999 l3.8867 0 l0 -7.2363 z M22.6806646875 23.9746 l9.7363 -18.975 l2.6465 0 l-9.7266 18.975 l-2.6563 0 z M35.43214453125 5.888999999999999 l9.9316 0 l0 2.168 l-6.377 11.943 l-3.1836 0 l6.3965 -11.611 l-6.7676 0 l0 -2.5 z M57.03860234375 20.19531 c-3.0273 0 -5.3906 -1.4551 -5.8203 -4.1016 l3.0273 -0.69336 c0.19531 1.582 1.3574 2.4023 2.9102 2.4023 c1.1914 0 2.1387 -0.52734 2.1289 -1.7188 c-0.0097656 -1.3281 -1.5723 -1.748 -3.291 -2.2754 c-2.0703 -0.64453 -4.2871 -1.4063 -4.2871 -4.0039 c0 -2.627 2.1484 -4.1113 4.9805 -4.1113 c2.4805 0 4.9805 1.0059 5.5469 3.7109 l-2.832 0.70313 c-0.26367 -1.4063 -1.2109 -2.0215 -2.5391 -2.0215 c-1.1816 0 -2.1875 0.48828 -2.1875 1.6504 c0 1.084 1.3867 1.4453 2.9883 1.9238 c2.1289 0.64453 4.6484 1.4648 4.6484 4.2773 c0 2.998 -2.5098 4.2578 -5.2734 4.2578 z M72.7199609375 8.467 l-5.2344 0 l0 3.2031 l4.6387 0 l0 2.5488 l-4.6387 0 l0 3.1934 l5.2344 0 l0 2.5879 l-8.1836 0 l0 -14.111 l8.1836 0 l0 2.5781 z M82.70747578125 20 l-3.6719 -6.2109 l-0.84961 0 l0 6.2109 l-2.9297 0 l0 -14.111 l5.1172 0 c3.1934 0 4.541 1.8848 4.541 4.2188 c0 1.8945 -1.0742 3.125 -2.9883 3.5352 l4.248 6.3574 l-3.4668 0 z M78.18607578125 8.32 l0 3.3691 l1.7285 0 c1.5625 0 2.1973 -0.66406 2.1973 -1.6797 c0 -1.0059 -0.63477 -1.6895 -2.1973 -1.6895 l-1.7285 0 z M96.816625 5.888999999999999 l3.1152 0 l-5.2148 14.111 l-3.2227 0 l-5.1855 -14.111 l3.1055 0 l3.7012 10.693 z M101.56985234375 20 l0 -14.111 l2.9297 0 l0 14.111 l-2.9297 0 z M113.9111609375 20.19531 c-4.1504 0 -7.2168 -2.8223 -7.2168 -7.2559 s3.0664 -7.2461 7.2168 -7.2461 c3.1445 0 5.6641 1.6113 6.6699 4.2871 l-2.7344 0.99609 c-0.625 -1.6406 -2.1191 -2.5879 -3.9355 -2.5879 c-2.4316 0 -4.2969 1.6992 -4.2969 4.5508 s1.8652 4.5605 4.2969 4.5605 c1.8164 0 3.3105 -0.95703 3.9355 -2.5977 l2.7344 0.99609 c-1.0059 2.6758 -3.5254 4.2969 -6.6699 4.2969 z M130.68626953125 8.467 l-5.2344 0 l0 3.2031 l4.6387 0 l0 2.5488 l-4.6387 0 l0 3.1934 l5.2344 0 l0 2.5879 l-8.1836 0 l0 -14.111 l8.1836 0 l0 2.5781 z"></path>
	</g>
</svg>