<svg xmlns="http://www.w3.org/2000/svg" class="css-ze2te4 css-qd6ojx" viewBox="0 0 109.375 55.138318436922326">
	<g transform="translate(-3.434237724924858, -25.875136852285003) scale(1.1575996505883643)"
		class="css-4muuy3" fill="#364f6b">
		<path xmlns="http://www.w3.org/2000/svg" fill="{{COLOR}}"
			d="M49.322,42.754c0,0.78,0.633,1.415,1.412,1.415c0.416,0,0.791-0.182,1.049-0.468h3.455  c1.254,0,1.254-1.878,0-1.878h-3.442c-0.259-0.296-0.64-0.479-1.062-0.479C49.955,41.344,49.322,41.975,49.322,42.754z   M53.352,33.249c-0.777,0-1.406,0.631-1.406,1.407v2.716c0,0.779,0.629,1.41,1.406,1.41h13.395c0.779,0,0.965-0.631,0.414-1.41  l-2.204-3.11c-0.712-0.94-1.001-1.012-1.785-1.012L53.352,33.249z M24.289,43.687h9.884L15.482,32.27L24.289,43.687z M75.695,43.657  h14.1c2.072,0,3.757,1.685,3.757,3.759v7.312l2.49,0.006c0.778,0,1.409,0.632,1.409,1.408v3.717c0,0.777-0.631,1.41-1.409,1.41  l-5.69-0.008c-0.266-5.85-5.092-10.509-11.007-10.509c-5.905,0-10.726,4.646-11.003,10.481L42.96,61.186v-0.293  c0-1.297-1.054-2.349-2.349-2.349H23.23c-1.299,0-2.349,1.052-2.349,2.349v0.269l-10.573-0.013c-0.779,0-1.41-0.631-1.41-1.41  v-3.715c0-0.78,0.631-1.41,1.41-1.41l2.488-0.006l0.006-6.225c0-2.596,2.104-4.698,4.696-4.698h1.448L7.443,28.759v8.476  c1.914,0.388,3.283,2.242,3.283,4.173c0,2.229-1.807,4.036-4.037,4.036c-1.609,0-2.984-0.941-3.641-2.294  c-0.412-0.845,0.855-1.46,1.266-0.614c0.437,0.893,1.334,1.5,2.375,1.5c1.452,0,2.631-1.178,2.631-2.628  c0-1.503-1.207-2.821-2.605-2.837c-0.208-0.006-0.37-0.082-0.48-0.196c-0.119-0.117-0.201-0.287-0.201-0.507l0.01-10.927  l-0.725-0.937c-1.723-1.603,0.354-4.684,2.607-3.306l34.359,20.988h0.479c1.296,0,2.349-1.052,2.349-2.349l0.006-6.684  c0-2.594,2.104-4.697,4.697-4.697l13.687,0.003c1.942,0,3.159,0.659,4.431,2.349L75.695,43.657z M75.331,61.775  c0,2.22,1.796,4.017,4.014,4.017c2.22,0,4.017-1.797,4.017-4.017c0-2.215-1.797-4.01-4.017-4.01  C77.127,57.766,75.331,59.562,75.331,61.775z M71.139,61.775c0-4.529,3.674-8.203,8.206-8.203c4.533,0,8.207,3.674,8.207,8.203  c0,4.535-3.674,8.209-8.207,8.209C74.812,69.984,71.139,66.311,71.139,61.775z M23.71,61.775c0-0.486,0.044-0.965,0.126-1.432h4.334  c-0.172,0.443-0.266,0.93-0.266,1.432c0,2.22,1.797,4.017,4.015,4.017s4.013-1.797,4.013-4.017c0-0.502-0.094-0.987-0.265-1.432  h4.332c0.084,0.467,0.127,0.944,0.127,1.432c0,4.535-3.675,8.209-8.207,8.209C27.386,69.984,23.71,66.311,23.71,61.775z"></path>
	</g>
</svg>