<svg xmlns="http://www.w3.org/2000/svg" class="css-ze2te4 css-qd6ojx" viewBox="0 0 74.46808510638297 78.68325973504615">
	<g transform="translate(-9.554395824969891, -7.587314331593737) scale(0.28101164191087913)"
		class="css-h6hsk1" fill="#ffb26b">
		<defs xmlns="http://www.w3.org/2000/svg"></defs>
		<g xmlns="http://www.w3.org/2000/svg">
			<g>
				<path class="fil0"
					d="M91 290c-1,10 -6,17 -11,17l-5 0c-1,-1 -1,-1 -1,-2 -2,-4 -4,-10 -4,-15l-2 0c0,6 2,12 4,17l-3 0c-1,-1 -1,-1 -1,-2 -2,-4 -3,-10 -4,-15l-2 0c0,6 2,12 4,17l-2 0c0,-1 0,-1 -1,-2 -2,-4 -3,-10 -4,-15l-2 0c1,6 2,12 4,17l0 0c-6,0 -10,-7 -11,-17l-11 0 -5 -7 0 -39 5 0c4,-40 8,-55 52,-53l0 -5 -22 -3 0 -34c7,-4 15,-6 24,-3 0,-1 0,-2 0,-2 -7,-3 -12,-6 -19,-9l0 2c0,10 -16,10 -16,0l0 -26c0,-11 16,-11 16,0l0 1 13 0 0 -57 -7 -9c-2,-6 -1,-13 0,-19 6,8 13,17 17,26l0 54c1,-11 3,-21 5,-31 40,-11 89,-11 130,0 2,10 3,20 5,31l0 -54c3,-9 11,-18 16,-26 2,6 2,13 0,19l-6 9 0 57 12 0 0 -1c0,-11 16,-11 16,0l0 26c0,10 -16,10 -16,0l0 -2c-6,3 -12,6 -18,9 0,0 0,1 0,2 9,-3 16,-1 23,3l0 34 -22 3 0 5c45,-2 49,13 53,53l4 0 0 39 -5 7 -11 0c-1,10 -5,17 -10,17l-1 0c2,-5 4,-11 4,-17l-2 0c0,5 -2,11 -4,15 0,1 0,1 -1,2l-2 0c3,-5 4,-11 5,-17l-3 0c0,5 -2,11 -4,15 0,1 0,1 0,2l-4 0c3,-5 4,-11 5,-17l-2 0c-1,5 -2,11 -5,15 0,1 0,1 0,2l-6 0c-5,0 -9,-7 -10,-17l-152 0zm11 -143c2,-20 4,-41 8,-61l0 -2 3 -1c34,-8 73,-8 108,0l2 1 0 2c4,20 6,41 8,61l0 7 -5 -3c-18,-10 -39,-16 -59,-16 -21,0 -41,6 -60,16l-5 3 0 -7zm-8 58l-3 -1c-8,0 -25,-1 -31,6 -2,2 -4,7 -5,10 0,2 0,4 -1,6l39 0 0 -15c0,-2 0,-4 1,-6zm146 0c0,2 0,4 0,6l0 15 39 0c0,-2 -1,-4 -1,-6 -1,-3 -2,-8 -5,-10 -6,-7 -22,-6 -30,-6l-3 1zm-133 76c0,-2 0,-4 0,-6l0 -64c0,-54 120,-50 120,0l0 64c0,2 0,4 -1,6 -39,0 -79,0 -119,0zm-58 -42c0,2 0,4 0,6l-1 8 -4 0 0 27 1 0 55 0 0 -41 -51 0zm184 41l56 0 0 0 0 -27 -3 0 -1 -8c0,-2 -1,-4 -1,-6l-51 0 0 41z"
					style="fill: {{COLOR}};"></path>
				<path class="fil0"
					d="M220 86c-34,-7 -73,-7 -107,0 -3,21 -6,41 -7,62 18,-10 39,-16 61,-16 22,0 43,6 61,16 -2,-21 -4,-41 -8,-62zm-110 56c17,-9 37,-13 57,-13 20,0 39,4 57,13 -2,-18 -4,-35 -7,-53 -32,-7 -69,-7 -101,0 -3,18 -5,35 -6,53z"
					style="fill: {{COLOR}};"></path>
				<path class="fil0"
					d="M52 242c0,1 0,2 0,3l-1 12 -3 0 0 20 49 0 0 -35 -45 0zm3 4l-1 14 -3 0 0 13 42 0 0 -27 -38 0zm185 27l42 0 0 -13 -2 0 -2 -14 -38 0 0 27zm-3 4l49 0 0 -20 -3 0 -1 -12c-1,-1 -1,-2 -1,-3l-44 0 0 35z"
					style="fill: {{COLOR}};"></path>
				<path class="fil0"
					d="M110 278c38,0 76,0 113,0 0,-1 0,-2 0,-3l0 -7 -113 0 0 7c0,1 0,2 0,3zm113 -13l0 -7 -113 0 0 7 113 0zm0 -10l0 -7 -113 0 0 7 113 0zm0 -10l0 -7 -113 0 0 7 113 0zm0 -10l0 -7 -113 0 0 7 113 0zm0 -10l0 -7 -113 0 0 7 113 0zm0 -10l0 -4c0,-1 0,-2 0,-3l-113 0c0,1 0,2 0,3l0 4 113 0zm0 -10c-1,-2 -2,-5 -3,-7l-107 0c-1,2 -2,5 -3,7l113 0zm-5 -10c-2,-2 -4,-5 -7,-7l-90 0c-3,2 -5,5 -6,7l103 0zm-12 -10c-22,-13 -60,-14 -81,0l81 0z"
					style="fill: {{COLOR}};"></path>
			</g>
		</g>
	</g>
</svg>