<svg xmlns="http://www.w3.org/2000/svg" class="css-ze2te4 css-qd6ojx" viewBox="0 0 41.66666666666666 50.594743523483956">
	<g transform="translate(-10.788695602848902, -6.324342337299209) scale(0.6324342337299209)"
		stroke="url(#SvgjsLinearGradient2200)" fill="url(#SvgjsLinearGradient2200)">
		<path xmlns="http://www.w3.org/2000/svg" fill="none" stroke="{{COLOR}}"
			stroke-linecap="round" stroke-linejoin="round" stroke-miterlimit="10"
			d="M64.119,71.175  H35.884V47.21c0-1.297,1.005-2.691,2.23-3.097l9.653-3.22c1.229-0.408,3.239-0.408,4.465,0l9.652,3.22  c1.229,0.405,2.234,1.8,2.234,3.097V71.175z"></path>
		<rect xmlns="http://www.w3.org/2000/svg" x="39.412" y="47.645" fill="none"
			stroke="{{COLOR}}" stroke-linecap="round" stroke-linejoin="round" stroke-miterlimit="10"
			width="4.234" height="23.53"></rect>
		<rect xmlns="http://www.w3.org/2000/svg" x="43.646" y="47.645" fill="none"
			stroke="{{COLOR}}" stroke-linecap="round" stroke-linejoin="round" stroke-miterlimit="10"
			width="4.238" height="23.53"></rect>
		<rect xmlns="http://www.w3.org/2000/svg" x="47.884" y="47.645" fill="none"
			stroke="{{COLOR}}" stroke-linecap="round" stroke-linejoin="round" stroke-miterlimit="10"
			width="4.235" height="23.53"></rect>
		<rect xmlns="http://www.w3.org/2000/svg" x="52.119" y="47.645" fill="none"
			stroke="{{COLOR}}" stroke-linecap="round" stroke-linejoin="round" stroke-miterlimit="10"
			width="4.234" height="23.53"></rect>
		<rect xmlns="http://www.w3.org/2000/svg" x="56.354" y="47.645" fill="none"
			stroke="{{COLOR}}" stroke-linecap="round" stroke-linejoin="round" stroke-miterlimit="10"
			width="4.234" height="23.53"></rect>
		<rect xmlns="http://www.w3.org/2000/svg" x="20.59" y="61.765" fill="none" stroke="{{COLOR}}"
			stroke-linecap="round" stroke-linejoin="round" stroke-miterlimit="10" width="5.882"
			height="4.705"></rect>
		<rect xmlns="http://www.w3.org/2000/svg" x="26.472" y="61.765" fill="none"
			stroke="{{COLOR}}" stroke-linecap="round" stroke-linejoin="round" stroke-miterlimit="10"
			width="5.881" height="4.705"></rect>
		<path xmlns="http://www.w3.org/2000/svg" fill="none" stroke="{{COLOR}}"
			stroke-linecap="round" stroke-linejoin="round" stroke-miterlimit="10"
			d="M32.353,25.291  h35.293v-1.173c0-1.297-1.057-2.354-2.351-2.354H34.707c-1.293,0-2.354,1.057-2.354,2.354V25.291z"></path>
		<path xmlns="http://www.w3.org/2000/svg" fill="none" stroke="{{COLOR}}"
			stroke-linecap="round" stroke-linejoin="round" stroke-miterlimit="10"
			d="M67.646,38.235  l-17.645-2.354l-17.648,2.354V24.118c0-1.297,1.061-2.354,2.354-2.354h30.589c1.294,0,2.351,1.057,2.351,2.354V38.235z"></path>
		<path xmlns="http://www.w3.org/2000/svg" fill="none" stroke="{{COLOR}}"
			stroke-linecap="round" stroke-linejoin="round" stroke-miterlimit="10"
			d="M50.001,25.291v10.59  V25.291z"></path>
		<polygon xmlns="http://www.w3.org/2000/svg" fill="none" stroke="{{COLOR}}"
			stroke-linecap="round" stroke-linejoin="round" stroke-miterlimit="10"
			points="  17.059,71.175 82.941,71.175 82.941,77.06 73.528,82.941 26.472,82.941 17.059,77.06 "></polygon>
		<rect xmlns="http://www.w3.org/2000/svg" x="21.767" y="40.585" fill="none"
			stroke="{{COLOR}}" stroke-linecap="round" stroke-linejoin="round" stroke-miterlimit="10"
			width="7.059" height="14.118"></rect>
		<circle xmlns="http://www.w3.org/2000/svg" fill="none" stroke="{{COLOR}}"
			stroke-linecap="round" stroke-linejoin="round" stroke-miterlimit="10" cx="30.001"
			cy="77.06" r="2.352"></circle>
		<path xmlns="http://www.w3.org/2000/svg" fill="none" stroke="{{COLOR}}"
			stroke-linecap="round" stroke-linejoin="round" stroke-miterlimit="10"
			d="M26.472,82.941  l-9.413-5.882v11.764c0,0.645,0.532,1.177,1.177,1.177h9.413c0.645,0,1.177-0.532,1.177-1.177v-5.882H26.472z"></path>
		<path xmlns="http://www.w3.org/2000/svg" fill="none" stroke="{{COLOR}}"
			stroke-linecap="round" stroke-linejoin="round" stroke-miterlimit="10"
			d="M19.413,13.528  c3.248,0,5.882,2.633,5.882,5.882v21.176h3.531V19.41c0-5.198-4.215-9.41-9.413-9.41V13.528z"></path>
		<rect xmlns="http://www.w3.org/2000/svg" x="73.528" y="61.765" fill="none"
			stroke="{{COLOR}}" stroke-linecap="round" stroke-linejoin="round" stroke-miterlimit="10"
			width="5.882" height="4.705"></rect>
		<rect xmlns="http://www.w3.org/2000/svg" x="67.646" y="61.765" fill="none"
			stroke="{{COLOR}}" stroke-linecap="round" stroke-linejoin="round" stroke-miterlimit="10"
			width="5.882" height="4.705"></rect>
		<path xmlns="http://www.w3.org/2000/svg" fill="none" stroke="{{COLOR}}"
			stroke-linecap="round" stroke-linejoin="round" stroke-miterlimit="10"
			d="M64.119,17.059  c3.897,0,7.059,3.158,7.059,7.059v30.585h7.059c2.598,0,4.705,2.107,4.705,4.708v11.764H17.059V59.411  c0-2.601,2.108-4.708,4.708-4.708h7.059V24.118c0-3.901,3.158-7.059,7.059-7.059H64.119z"></path>
		<rect xmlns="http://www.w3.org/2000/svg" x="71.178" y="40.585" fill="none"
			stroke="{{COLOR}}" stroke-linecap="round" stroke-linejoin="round" stroke-miterlimit="10"
			width="7.059" height="14.118"></rect>
		<circle xmlns="http://www.w3.org/2000/svg" fill="none" stroke="{{COLOR}}"
			stroke-linecap="round" stroke-linejoin="round" stroke-miterlimit="10" cx="69.999"
			cy="77.06" r="2.353"></circle>
		<path xmlns="http://www.w3.org/2000/svg" fill="none" stroke="{{COLOR}}"
			stroke-linecap="round" stroke-linejoin="round" stroke-miterlimit="10"
			d="M73.528,82.941  l9.413-5.882v11.764c0,0.645-0.528,1.177-1.177,1.177h-9.413c-0.646,0-1.174-0.532-1.174-1.177v-5.882H73.528z"></path>
		<path xmlns="http://www.w3.org/2000/svg" fill="none" stroke="{{COLOR}}"
			stroke-linecap="round" stroke-linejoin="round" stroke-miterlimit="10"
			d="M80.587,13.528  c-3.248,0-5.882,2.633-5.882,5.882v21.176h-3.527V19.41c0-5.198,4.212-9.41,9.409-9.41V13.528z"></path>
	</g>
</svg>