<svg xmlns="http://www.w3.org/2000/svg" viewBox="0 0 40.0763358778626 39.05666998787817">
	<g transform="translate(-2.2268031806560034, -2.7557231973339027) scale(0.44776601368944274)"
		class="css-v69mm8" fill="#ffb400">
		<path xmlns="http://www.w3.org/2000/svg" fill-rule="evenodd" clip-rule="evenodd"
			d="M15.623,72.469c1.133,0,2.267,0.023,3.399-0.007  c1.46-0.037,2.645-0.64,3.686-1.688c5.708-5.746,11.452-11.456,17.177-17.183c1.249-1.249,2.475-2.521,3.966-4.041  c-3.66-3.545-7.232-6.974-10.768-10.44c-2.675-2.622-5.351-5.247-7.935-7.957c-1.354-1.42-2.921-2.106-4.837-2.115  c-1.084-0.005-2.169-0.001-3.254-0.115c5.6-2.692,8.406-7.537,10.557-13.142c0.104,1.043,0.167,1.936,0.288,2.821  c0.188,1.377,0.706,2.606,1.709,3.608c6.765,6.757,13.525,13.519,20.289,20.278c0.147,0.147,0.312,0.278,0.705,0.622  c0.971-1.06,1.892-2.141,2.892-3.144c6.275-6.288,12.556-12.571,18.864-18.825c1.285-1.274,2.008-2.742,2.114-4.535  c0.028-0.458,0.089-0.915,0.162-1.639c1.997,4.997,4.488,9.29,9.471,11.701c-0.778,0-1.557,0.014-2.334-0.002  c-1.924-0.043-3.472,0.631-4.857,2.034c-6.339,6.425-12.749,12.781-19.128,19.167c-0.397,0.398-0.749,0.842-1.164,1.313  c9.579,9.575,19.152,19.145,28.881,28.869c-3.695,0.887-5.94,3.013-6.694,6.542C69.2,74.998,59.622,65.437,49.958,55.788  c-0.396,0.364-0.654,0.585-0.894,0.825C41.948,63.726,34.86,70.866,27.696,77.93c-1.554,1.532-2.371,3.251-2.455,5.38  c-0.011,0.283-0.04,0.565-0.083,1.155c-2.065-5.062-4.552-9.446-9.57-11.708C15.599,72.66,15.611,72.564,15.623,72.469z"></path>
		<path xmlns="http://www.w3.org/2000/svg" fill-rule="evenodd" clip-rule="evenodd"
			d="M10.613,7.484c0.534-0.23,0.84-0.404,1.169-0.496  c2.994-0.832,6.037-1.1,9.101-0.534c4.3,0.794,6.51,3.719,5.912,8.054c-0.717,5.203-3.303,9.379-7.622,12.369  c-3.241,2.243-6.234,1.811-8.868-1.097c-2.122-2.343-3.661-5.05-4.762-8.134c0.294,0.123,0.6,0.225,0.879,0.374  c1.73,0.921,3.476,1.815,5.172,2.797c0.938,0.544,1.76,0.466,2.578-0.144c2.271-1.695,3.777-3.862,4.044-6.752  c0.129-1.395-0.305-2.485-1.673-3.152c-1.632-0.795-3.213-1.698-4.81-2.564C11.409,8.029,11.108,7.806,10.613,7.484z"></path>
		<path xmlns="http://www.w3.org/2000/svg" fill-rule="evenodd" clip-rule="evenodd"
			d="M9.579,92.105c1.514-0.822,2.752-1.598,4.073-2.19  c3.056-1.372,3.85-2.379,1.999-6.526c-0.55-1.231-1.773-2.192-2.785-3.178c-0.67-0.654-1.497-0.653-2.365-0.153  c-1.606,0.926-3.259,1.771-4.896,2.644c-0.174,0.094-0.368,0.15-0.597,0.241c-0.013-0.186-0.057-0.303-0.021-0.385  c1.333-3.027,2.935-5.887,5.487-8.07c1.772-1.516,3.805-1.561,5.815-0.567c3.588,1.771,5.722,4.845,7.189,8.437  c0.852,2.084,1.248,4.236,0.615,6.481c-0.594,2.108-1.923,3.469-4.042,4.01c-3.157,0.807-6.296,0.6-9.413-0.251  C10.376,92.525,10.137,92.367,9.579,92.105z"></path>
		<path xmlns="http://www.w3.org/2000/svg" fill-rule="evenodd" clip-rule="evenodd"
			d="M89.812,7.452c-0.449,0.271-0.763,0.477-1.092,0.655  c-1.41,0.764-2.809,1.552-4.243,2.267c-1.085,0.54-1.476,1.44-1.4,2.541c0.188,2.756,1.596,4.818,3.816,6.37  c0.684,0.478,1.372,0.429,2.105,0.02c1.766-0.985,3.559-1.923,5.478-2.954c-0.028,0.324,0.012,0.516-0.063,0.636  c-1.435,2.285-2.69,4.716-4.377,6.8c-2.138,2.642-4.883,2.91-7.708,0.982c-3.977-2.714-6.326-6.53-6.925-11.311  c-0.463-3.699,1.53-6.3,5.199-6.982c2.743-0.51,5.467-0.301,8.153,0.428c0.205,0.056,0.406,0.135,0.602,0.22  C89.45,7.162,89.526,7.241,89.812,7.452z"></path>
		<path xmlns="http://www.w3.org/2000/svg" fill-rule="evenodd" clip-rule="evenodd"
			d="M79.063,85.809c0.014-4.136,3.371-7.448,7.524-7.424  c4.147,0.025,7.461,3.36,7.457,7.509c-0.004,4.128-3.357,7.479-7.489,7.486C82.364,93.386,79.051,90.037,79.063,85.809z   M80.127,85.835c-0.013,3.54,2.831,6.45,6.322,6.473c3.596,0.021,6.513-2.829,6.535-6.387c0.022-3.552-2.897-6.48-6.453-6.472  C82.993,79.457,80.14,82.304,80.127,85.835z"></path>
		<g xmlns="http://www.w3.org/2000/svg">
			<path fill-rule="evenodd" clip-rule="evenodd"
				d="M82.753,82.218l-0.679-0.413c-0.439,0.475-0.809,1.014-1.08,1.609l0.676,0.411   C81.932,83.224,82.3,82.68,82.753,82.218z"></path>
			<path fill-rule="evenodd" clip-rule="evenodd"
				d="M81.228,85.943c0-0.432,0.065-0.846,0.162-1.247h-0.825   c-0.079,0.389-0.124,0.79-0.125,1.201c-0.001,0.249,0.018,0.495,0.045,0.737h0.812C81.268,86.406,81.228,86.181,81.228,85.943z"></path>
			<path fill-rule="evenodd" clip-rule="evenodd"
				d="M85.016,80.867l-0.387-0.703c-0.624,0.208-1.202,0.504-1.719,0.891l0.386,0.701   C83.805,81.359,84.384,81.06,85.016,80.867z"></path>
			<path fill-rule="evenodd" clip-rule="evenodd"
				d="M91.519,84.038l0.702-0.387c-0.243-0.595-0.606-1.139-1.034-1.641L90.5,82.389   C90.934,82.869,91.282,83.423,91.519,84.038z"></path>
			<path fill-rule="evenodd" clip-rule="evenodd"
				d="M89.984,81.895l0.403-0.663c-0.51-0.417-1.062-0.758-1.665-0.988l-0.419,0.688   C88.927,81.149,89.49,81.477,89.984,81.895z"></path>
			<path fill-rule="evenodd" clip-rule="evenodd"
				d="M86.556,80.614c0.331,0,0.652,0.04,0.967,0.098v-0.79   c-0.616-0.141-1.366-0.109-1.938,0.001v0.789C85.9,80.654,86.223,80.614,86.556,80.614z"></path>
			<path fill-rule="evenodd" clip-rule="evenodd"
				d="M81.446,87.373l-0.723,0.397c0.196,0.629,0.492,1.211,0.865,1.734l0.708-0.39   C81.91,88.599,81.625,88.011,81.446,87.373z"></path>
			<path fill-rule="evenodd" clip-rule="evenodd"
				d="M92.535,84.698h-0.812c0.097,0.401,0.161,0.814,0.161,1.245   c0,0.237-0.04,0.463-0.069,0.691h0.815c0.024-0.215,0.04-0.432,0.041-0.651C92.674,85.546,92.623,85.117,92.535,84.698z"></path>
			<path fill-rule="evenodd" clip-rule="evenodd"
				d="M90.662,89.302l0.676,0.412c0.404-0.505,0.728-1.073,0.954-1.687l-0.697-0.425   C91.388,88.23,91.072,88.802,90.662,89.302z"></path>
			<path fill-rule="evenodd" clip-rule="evenodd"
				d="M86.556,91.272c-0.333,0-0.655-0.04-0.971-0.098v0.809   c0.281,0.043,0.565,0.073,0.858,0.075c0.369,0,0.729-0.037,1.079-0.098v-0.786C87.208,91.232,86.887,91.272,86.556,91.272z"></path>
			<path fill-rule="evenodd" clip-rule="evenodd"
				d="M82.899,89.804l-0.425,0.698c0.481,0.434,1.025,0.796,1.624,1.058l0.423-0.693   C83.914,90.614,83.369,90.249,82.899,89.804z"></path>
			<path fill-rule="evenodd" clip-rule="evenodd"
				d="M88.352,90.94l0.378,0.687c0.612-0.237,1.179-0.563,1.677-0.968l-0.385-0.698   C89.532,90.384,88.972,90.717,88.352,90.94z"></path>
		</g>
	</g>
</svg>