<svg xmlns="http://www.w3.org/2000/svg" class="css-ze2te4 css-qd6ojx" viewBox="0 0 38.19983539814684 21.13927527331335">
	<g transform="translate(-0.13222095298663217, -8.662474996219846) scale(0.4006695385837689)"
		class="css-1e98oqk" fill="#ffffff">
		<title xmlns="http://www.w3.org/2000/svg">Tow Car</title>
		<g xmlns="http://www.w3.org/2000/svg" data-name="Tow Car">
			<path
				d="M13.64,41.38a3.61,3.61,0,0,0,1.92-6.67,2,2,0,0,0-.5-2l1-3.66a12.88,12.88,0,0,1-1.85-.81l-1,4a2,2,0,0,0,.52,3.94A1.62,1.62,0,1,1,12,37.77a1,1,0,0,0-1-1C9,36.77,10.16,41.38,13.64,41.38Z"></path>
			<path
				d="M15.51,26.68l11.21,4.55c0-2.38-.23-4.56,1.63-6.93L16.89,22.05a2.43,2.43,0,0,0-1.38,4.63Z"></path>
			<path
				d="M39.2,26.1a5.59,5.59,0,0,0-4.83-2.74A5.65,5.65,0,0,0,28.72,29V42.32l18.79-2.4Zm-4.68,6A2.47,2.47,0,1,1,37,29.65,2.47,2.47,0,0,1,34.52,32.12Z"></path>
			<path d="M49.74,44.33V41.65L4,47.48a2.64,2.64,0,0,0-2.3,2.61V51a4.8,4.8,0,0,1,2-.8Z"></path>
			<path
				d="M49.74,46.34,4,52.17a2.64,2.64,0,0,0-2.3,2.61v2.78H2c4.52,0,4.79-.1,5.68.31A12.12,12.12,0,0,1,28,57.39l1.37-2.81a3.41,3.41,0,0,1,3.08-1.92h12a2.43,2.43,0,0,1,2.44,2.43v9.15c1.59,0,2.46.12,3.48-.57a4.89,4.89,0,0,1-.57-2.29Z"></path>
			<path
				d="M44.39,54.66h-12a1.42,1.42,0,0,0-1.28.79l-2,4.08a12.29,12.29,0,0,1,.94,4.71H44.83V55.09A.44.44,0,0,0,44.39,54.66Z"></path>
			<path
				d="M78,52.1a12.14,12.14,0,0,1,10.32,5.76c.9-.41,1.29-.31,5-.31L93.12,52a.94.94,0,0,1-.25-.61,2.36,2.36,0,0,0-1.93-2.27L79.47,47.76a1,1,0,0,1-.88-1.11,1,1,0,0,1,1.11-.88l11.48,1.34a3.74,3.74,0,0,1,1.74.66l-.15-3.28a3.23,3.23,0,0,0-2.86-3.06L78.43,40.09a1.8,1.8,0,0,1-1.52-1.35L73.15,23.81a2.89,2.89,0,0,0-2.79-2.19H54.6a2.87,2.87,0,0,0-2.86,2.87V61.38a2.86,2.86,0,0,0,2.86,2.86H65.9A12.16,12.16,0,0,1,78,52.1ZM65.37,58.6a1.66,1.66,0,0,1-1.5.95H57.45A1.65,1.65,0,0,1,55.8,57.9V26.41a1,1,0,0,1,1-1h12a1,1,0,0,1,1,.78c0,.23,1.43,5.7,2.27,9s.64,5.1.64,15.16a1.62,1.62,0,0,1-.89,1.46A13.9,13.9,0,0,0,65.37,58.6Z"></path>
			<path
				d="M57.8,40.92V57.55h5.85a15.85,15.85,0,0,1,7.15-7.43V40.88C70.5,40.93,71.44,40.92,57.8,40.92Zm5.5,3.74H60.38a1,1,0,1,1,0-2H63.3a1,1,0,0,1,0,2Z"></path>
			<path
				d="M70.73,38.88c-.11-1.78-.27-2.41-2.6-11.51H57.8V38.92C71.41,38.92,70.33,38.93,70.73,38.88Z"></path>
			<path
				d="M18,54.1A10.14,10.14,0,1,0,28.09,64.24,10.14,10.14,0,0,0,18,54.1Zm0,14a3.9,3.9,0,1,1,3.9-3.9A3.91,3.91,0,0,1,18,68.14Z"></path>
			<path
				d="M78,54.1A10.14,10.14,0,1,0,88.19,64.24,10.14,10.14,0,0,0,78,54.1Zm0,14a3.9,3.9,0,1,1,3.9-3.9A3.91,3.91,0,0,1,78,68.14Z"></path>
			<rect x="88.19" y="59.55" width="7.48" height="4.69" rx="1.63"></rect>
			<rect x="0.33" y="59.55" width="7.48" height="4.69" rx="1.63"></rect>
			<path d="M75.17,23.62h1.64v-2H74.3A5.33,5.33,0,0,1,75.17,23.62Z"></path>
			<path
				d="M80.9,30.09H82a1.73,1.73,0,0,0,1.74-1.74V23.62a2,2,0,0,0-2-2h-3V28A2.09,2.09,0,0,0,80.9,30.09Z"></path>
		</g>
	</g>
</svg>