<svg xmlns="http://www.w3.org/2000/svg" class="css-ze2te4 css-qd6ojx" viewBox="0 0 32.40740740740741 24.78614725394359">
	<g transform="translate(-1.637848920055327, -5.10483299740855) scale(0.34995813916252866)"
		class="css-aodu4x" fill="#0c056d">
		<path xmlns="http://www.w3.org/2000/svg"
			d="M53.1983986,41.5314865c-2.0198555-1.0275841-4.0303383-1.2446899-5.9255066-1.6446877  c-1.2502022-0.2645531-2.1588898-0.3919983-2.1588898-0.3919983c-0.622345-5.8777847-4.1274414-8.252676-4.1274414-8.252676  s0.1268959,0.5230331,0.2742043,1.4044094c0.4772415,2.8565483,1.1586189,9.4830208-1.5917206,14.2758369  c-2.1009598-0.214344-3.9321289-0.2325516-5.3748856-0.1782074c-0.0595856,0.1257935-0.1235886,0.2537956-0.1864815,0.381382  c-3.3049469,6.7081184-10.8347626,16.246376-27.593832,20.0713387c-2.5694377,0.5864258-2.387845,4.3104553,0.226141,4.6465836  c19.5988789,2.5202026,37.0173264-5.779335,37.0173264-5.779335s6.517601,6.6357498,6.6756859,18.1918869  c0.0176506,1.2903061,1.7943268,1.6105194,2.240612,0.3997269c3.9149284-10.6213913,9.257431-31.7486839-0.1532784-51.7192802  C52.5203323,32.9364662,53.5945358,37.5717697,53.1983986,41.5314865z"></path>
		<path xmlns="http://www.w3.org/2000/svg"
			d="M55.9062576,36.4418373c0,0,2.4546165,4.6462021,2.8132362,11.3117065  c7.5271568,2.4884529,22.4400826,5.406189,37.8841972-2.997982c1.3046417-0.7099457,0.5782928-2.692852-0.8782883-2.4021912  C87.1517868,44.0642509,72.586792,44.7840042,55.9062576,36.4418373z"></path>
		<path xmlns="http://www.w3.org/2000/svg"
			d="M35.9002228,39.8208656c0.0937958,0.0457954,0.1886902,0.0822067,0.2819328,0.1257935  c0,0-0.3365517,2.3566856-1.7936516,5.7221985c1.0548935-0.2422066,2.6570969-0.4932404,4.225647-0.2946205  c0,0,2.9583397-6.1128159,1.205513-13.0245285c-0.1881371-0.0502052-0.3790321-0.0982056-0.5671692-0.1486893  c-13.1548004-3.42243-23.8203945-0.6257-30.5748329,2.6535873c-1.6405401,0.7964821-0.8182988,3.2798843,0.9760342,2.9541092  C16.7982559,36.5115738,27.1986485,35.7898178,35.9002228,39.8208656z"></path>
		<path xmlns="http://www.w3.org/2000/svg"
			d="M44.7189674,33.6145325c0,0,1.5823402,1.8386192,1.695446,4.5370979c0,0,4.668129,1.0206871,5.9928169,1.7950287  c0,0,0-3.5048218-0.791172-4.6355782C51.6160583,35.3110809,48.177166,34.5850143,44.7189674,33.6145325z"></path>
		<path xmlns="http://www.w3.org/2000/svg"
			d="M52.3443336,23.8575859c2.6968231-2.4864788,1.4532356-5.4253693-0.8082771-5.7652302  c0,0,2.7139282-3.505374-1.8096504-3.505374c-4.5224762,0-6.7828827,2.9387541-6.4452286,5.9919901  C43.6215897,23.6319313,49.6453018,26.3462715,52.3443336,23.8575859z"></path>
	</g>
</svg>