<svg width="31" height="31" viewBox="0 0 31 31" fill="none" xmlns="http://www.w3.org/2000/svg">
<path fill-rule="evenodd" clip-rule="evenodd" d="M30.9675 14.4996L30.9803 14.7945C31.0314 15.8946 30.9652 16.9974 30.7873 18.0762L30.7381 18.3668L27.828 18.9097C27.7106 19.3379 27.5669 19.7664 27.4002 20.1884L29.3989 22.3712L29.2633 22.6335C28.7631 23.5995 28.1524 24.5226 27.4487 25.3735L27.2615 25.6006L24.4704 24.6167C24.1608 24.9209 23.8217 25.2204 23.4617 25.5072L24.1007 28.3967L23.8535 28.5579C22.9309 29.1465 21.9404 29.6414 20.9112 30.0254L20.6353 30.1304L18.7126 27.8845C18.284 27.9957 17.8403 28.0848 17.3932 28.1514L16.5004 30.9736L16.2055 30.9867C15.9684 30.9976 15.7273 31.0034 15.4886 31.0034C14.6272 31.0034 13.7647 30.9309 12.925 30.7891L12.6343 30.7407L12.0911 27.8294C11.6633 27.7109 11.2343 27.5683 10.8143 27.4016L8.62997 29.4007L8.36803 29.2647C7.40045 28.7645 6.47821 28.1534 5.62727 27.4505L5.40098 27.2621L6.38521 24.4718C6.08103 24.1622 5.78188 23.8239 5.49552 23.4631L2.60481 24.1025L2.44555 23.853C1.8554 22.9288 1.36134 21.9391 0.97772 20.9119L0.875809 20.6348L3.11941 18.7132C3.00819 18.2835 2.9183 17.839 2.85203 17.3926L0.0299072 16.5014L0.0167322 16.205C-0.0344171 15.1056 0.0318447 14.0024 0.21358 12.9256L0.263954 12.635L3.1721 12.0921C3.29068 11.6635 3.43405 11.2342 3.5999 10.8138L1.6012 8.6306L1.73605 8.36905C2.23902 7.39837 2.84932 6.47613 3.55107 5.62829L3.7394 5.402L6.52897 6.38546C6.8382 6.08166 7.17725 5.78213 7.53801 5.49499L6.89864 2.60467L7.14664 2.4458C8.07043 1.85525 9.06048 1.3612 10.0881 0.977578L10.3644 0.874504L12.2868 3.11926C12.7173 3.00844 13.1606 2.91854 13.6073 2.85228L14.4986 0.0297646L14.7927 0.016202C15.8897 -0.0341724 17.0045 0.0332519 18.0725 0.213825L18.3631 0.264199L18.9063 3.17312C19.3357 3.29131 19.7639 3.43507 20.1847 3.60053L22.3674 1.60183L22.6294 1.73668C23.6001 2.23926 24.5219 2.84957 25.3698 3.55171L25.5976 3.73848L24.613 6.52999C24.9179 6.8396 25.2175 7.17866 25.5031 7.53864L28.3926 6.89966L28.5523 7.14766C29.1416 8.07145 29.6361 9.06111 30.0197 10.0891L30.0441 10.1538L27.8563 12.2087C27.978 12.6687 28.0752 13.1387 28.1454 13.6084L30.9675 14.4996ZM15.4985 26.5689C21.6125 26.5689 26.5689 21.6125 26.5689 15.4985C26.5689 9.38452 21.6125 4.42814 15.4985 4.42814C9.38451 4.42814 4.42813 9.38452 4.42813 15.4985C4.42813 21.6125 9.38451 26.5689 15.4985 26.5689Z" fill="#A1CDEF"/>
<path d="M14.087 19.7432C13.6079 20.2223 13.1821 20.2755 12.7563 19.7432C12.3305 18.4658 11.4256 16.656 10.361 15.2721C9.98845 14.7399 10.6272 14.1544 11.7982 15.3786C12.4369 16.0705 12.9692 16.8157 13.395 17.5609C15.1515 14.6866 18.2387 11.3865 21.113 9.5768C21.9114 9.09776 22.0178 9.31067 22.1243 9.5768C18.771 12.1317 15.737 15.9641 14.087 19.7432Z" fill="#1F2D4C"/>
</svg>
