<svg width="31" height="30" viewBox="0 0 31 30" fill="none" xmlns="http://www.w3.org/2000/svg">
<path d="M25.5957 16.25C22.8394 16.25 20.5957 18.5563 20.5957 21.3875C20.5957 23.4317 23.0232 26.9804 24.333 28.748H17.471V19.373C17.471 17.9945 16.3495 16.873 14.971 16.873C14.2816 16.873 13.721 16.3124 13.721 15.623V14.998C13.721 13.6195 12.5995 12.498 11.221 12.498H6.85833C8.16818 10.7304 10.5957 7.1817 10.5957 5.13748C10.5957 2.30625 8.35194 0 5.5957 0C2.83943 0 0.595703 2.30625 0.595703 5.13748C0.595703 7.775 4.64569 12.9313 5.10818 13.5125C5.22694 13.6625 5.40821 13.75 5.5957 13.75C5.59879 13.75 5.60127 13.7481 5.60432 13.748H11.221C11.9104 13.748 12.471 14.3086 12.471 14.998V15.623C12.471 17.0015 13.5925 18.123 14.971 18.123C15.6604 18.123 16.221 18.6836 16.221 19.373V29.373C16.221 29.7182 16.5009 29.998 16.846 29.998H25.5872C25.5901 29.9981 25.5927 30 25.5957 30C25.7895 30 25.9644 29.9125 26.0832 29.7625C26.5457 29.1813 30.5957 24.025 30.5957 21.3875C30.5957 18.5563 28.3519 16.25 25.5957 16.25ZM3.7207 5.24376C3.7207 4.20624 4.56444 3.36876 5.5957 3.36876C6.62697 3.36876 7.4707 4.20624 7.4707 5.24376C7.4707 6.27499 6.62697 7.11876 5.5957 7.11876C4.56444 7.11876 3.7207 6.27499 3.7207 5.24376ZM25.5957 23.3688C24.5644 23.3688 23.7207 22.525 23.7207 21.4938C23.7207 20.4562 24.5644 19.6188 25.5957 19.6188C26.627 19.6188 27.4707 20.4562 27.4707 21.4938C27.4707 22.525 26.627 23.3688 25.5957 23.3688Z" fill="#5394DE"/>
</svg>
