<svg width="287" height="53" viewBox="0 0 287 53" fill="none" xmlns="http://www.w3.org/2000/svg">
<path d="M10.9421 36.4966C10.3934 36.4966 9.87387 36.5171 9.38353 36.5579C8.89904 36.5988 8.4554 36.6455 8.05262 36.698C7.65568 36.7506 7.30836 36.8031 7.01066 36.8556C6.71879 36.9023 6.49405 36.9374 6.33644 36.9607C6.33644 36.9549 6.32769 36.9169 6.31018 36.8469C6.2985 36.7768 6.28099 36.6863 6.25764 36.5754C6.23429 36.4645 6.21386 36.3478 6.19635 36.2252C6.17884 36.0968 6.17008 35.9859 6.17008 35.8925C6.17008 35.6998 6.25472 35.5597 6.424 35.4722C6.59912 35.3788 6.83554 35.3175 7.13324 35.2883C7.43094 35.2533 7.77827 35.2416 8.17521 35.2533C8.57214 35.2591 8.99827 35.262 9.45358 35.262H12.0191C12.2876 35.262 12.6174 35.262 13.0085 35.262C13.3996 35.262 13.8345 35.2533 14.3132 35.2358C14.7977 35.2183 15.3143 35.1891 15.863 35.1482C16.4175 35.1073 16.9837 35.049 17.5616 34.9731C17.5616 34.9789 17.5704 35.011 17.5879 35.0694C17.6054 35.1219 17.6229 35.1949 17.6405 35.2883C17.658 35.3759 17.6755 35.478 17.693 35.5948C17.7105 35.7057 17.7193 35.8224 17.7193 35.945C17.7193 36.0909 17.6667 36.2048 17.5616 36.2865C17.4624 36.3682 17.3282 36.4295 17.1589 36.4704C16.9896 36.5054 16.794 36.5287 16.5722 36.5404C16.3562 36.5463 16.1286 36.5492 15.8892 36.5492C15.2238 36.5492 14.6605 36.5433 14.1993 36.5317C13.7382 36.52 13.3413 36.5083 13.0085 36.4966V44.8761C13.0085 45.2497 13.0173 45.5795 13.0348 45.8656C13.0581 46.1516 13.0844 46.4026 13.1136 46.6186C13.1428 46.8287 13.172 47.0068 13.2012 47.1527C13.2303 47.2928 13.2537 47.4066 13.2712 47.4942C13.1836 47.5409 13.0873 47.5847 12.9823 47.6255C12.8772 47.6605 12.7663 47.6897 12.6495 47.7131C12.5386 47.7423 12.4277 47.7627 12.3168 47.7744C12.2059 47.786 12.1008 47.7919 12.0016 47.7919C11.8498 47.7919 11.7068 47.7773 11.5725 47.7481C11.4441 47.7189 11.3332 47.6722 11.2398 47.608C11.1464 47.538 11.0734 47.4475 11.0209 47.3366C10.9684 47.2257 10.9421 47.0856 10.9421 46.9163V36.4966ZM17.2552 38.9045C17.3778 38.852 17.55 38.8024 17.7718 38.7557C17.9936 38.709 18.2359 38.671 18.4985 38.6419C18.7671 38.6127 19.0385 38.5893 19.3128 38.5718C19.593 38.5543 19.847 38.5455 20.0746 38.5455C20.1972 38.5455 20.3052 38.5485 20.3986 38.5543C20.492 38.5601 20.5708 38.5776 20.635 38.6068C20.6992 38.636 20.7459 38.6827 20.7751 38.7469C20.8101 38.8053 20.8276 38.8929 20.8276 39.0096V41.1111L21.9396 39.5262C22.2198 39.1409 22.5292 38.8578 22.8678 38.6769C23.2122 38.4901 23.6004 38.3967 24.0323 38.3967C24.1082 38.3967 24.2045 38.4025 24.3213 38.4142C24.4439 38.42 24.5606 38.4405 24.6715 38.4755C24.7883 38.5105 24.8875 38.5601 24.9692 38.6243C25.051 38.6886 25.0918 38.7761 25.0918 38.887C25.0918 38.9162 25.0918 38.9396 25.0918 38.9571C25.0918 38.9746 25.086 38.9979 25.0743 39.0271L24.6978 40.2617C24.476 40.1917 24.2746 40.1421 24.0936 40.1129C23.9185 40.0837 23.7551 40.0691 23.6033 40.0691C23.2881 40.0691 22.9875 40.1596 22.7014 40.3405C22.4154 40.5156 22.1527 40.7258 21.9134 40.971C21.6741 41.2103 21.461 41.4555 21.2742 41.7065C21.0932 41.9516 20.9444 42.1413 20.8276 42.2756V44.9987C20.8276 45.3606 20.8364 45.6788 20.8539 45.9531C20.8714 46.2275 20.8918 46.4668 20.9152 46.6711C20.9444 46.8754 20.9736 47.0476 21.0028 47.1877C21.0319 47.322 21.0553 47.43 21.0728 47.5117C20.9911 47.5584 20.8977 47.5993 20.7926 47.6343C20.6934 47.6635 20.5854 47.6897 20.4686 47.7131C20.3577 47.7423 20.2439 47.7627 20.1272 47.7744C20.0162 47.786 19.9141 47.7919 19.8207 47.7919C19.6689 47.7919 19.5317 47.7773 19.4092 47.7481C19.2866 47.7248 19.1786 47.681 19.0852 47.6168C18.9918 47.5526 18.9188 47.4679 18.8663 47.3628C18.8196 47.2519 18.7962 47.1148 18.7962 46.9513V39.5612H17.2552V38.9045ZM32.0091 39.5087V38.8432C32.1316 38.7907 32.3038 38.744 32.5257 38.7031C32.7475 38.6565 32.9897 38.6185 33.2524 38.5893C33.5209 38.5601 33.7924 38.5368 34.0667 38.5193C34.3469 38.5018 34.6008 38.493 34.8285 38.493C34.9511 38.493 35.0591 38.4959 35.1525 38.5018C35.2459 38.5076 35.3247 38.5251 35.3889 38.5543C35.4531 38.5835 35.4998 38.6302 35.529 38.6944C35.564 38.7528 35.5815 38.8403 35.5815 38.9571V46.7587H37.1051V47.4154C37.0058 47.4679 36.8686 47.5175 36.6935 47.5642C36.5242 47.6109 36.3345 47.6518 36.1244 47.6868C35.9142 47.7218 35.6953 47.7481 35.4677 47.7656C35.24 47.7831 35.0211 47.7919 34.811 47.7919C34.63 47.7919 34.4637 47.7802 34.3119 47.7569C34.1601 47.7393 34.0259 47.6985 33.9091 47.6343C33.7982 47.5759 33.7106 47.4942 33.6464 47.3891C33.5822 47.2782 33.5501 47.1323 33.5501 46.9513V46.8813C33.5501 46.8754 33.4976 46.8988 33.3925 46.9513C33.2933 46.998 33.1532 47.0593 32.9722 47.1352C32.7971 47.2111 32.5899 47.2928 32.3505 47.3804C32.117 47.4679 31.866 47.5526 31.5975 47.6343C31.329 47.7102 31.0517 47.7744 30.7657 47.8269C30.4797 47.8794 30.2024 47.9057 29.9339 47.9057C29.4085 47.9057 28.9824 47.8357 28.6555 47.6956C28.3286 47.5613 28.0747 47.3716 27.8937 47.1264C27.7186 46.8754 27.5989 46.5806 27.5347 46.2421C27.4705 45.8977 27.4384 45.5241 27.4384 45.1213V39.5087H25.8974V38.8432C26.0199 38.7907 26.1922 38.744 26.414 38.7031C26.6358 38.6565 26.878 38.6185 27.1407 38.5893C27.4034 38.5601 27.6719 38.5368 27.9463 38.5193C28.2265 38.5018 28.4804 38.493 28.708 38.493C28.8306 38.493 28.9386 38.4959 29.032 38.5018C29.1254 38.5076 29.2042 38.5251 29.2684 38.5543C29.3326 38.5835 29.3793 38.6302 29.4085 38.6944C29.4435 38.7528 29.4611 38.8403 29.4611 38.9571V44.9462C29.4611 45.2439 29.4757 45.4978 29.5048 45.708C29.5399 45.9181 29.6012 46.0903 29.6887 46.2246C29.7821 46.3588 29.9076 46.4581 30.0652 46.5223C30.2287 46.5806 30.4359 46.6098 30.6869 46.6098C30.8328 46.6098 31.005 46.5981 31.2035 46.5748C31.4078 46.5456 31.615 46.5135 31.8252 46.4785C32.0412 46.4376 32.2513 46.3968 32.4556 46.3559C32.6658 46.3092 32.8526 46.2683 33.016 46.2333C33.1794 46.1925 33.3079 46.1603 33.4013 46.137C33.5005 46.1078 33.5501 46.0932 33.5501 46.0932V39.5087H32.0091ZM45.8523 40.5332C45.6597 40.4222 45.4466 40.3026 45.2131 40.1742C44.9796 40.0457 44.7345 39.929 44.4776 39.8239C44.2266 39.713 43.9698 39.6225 43.7071 39.5525C43.4444 39.4766 43.1846 39.4387 42.9278 39.4387C42.5309 39.4387 42.1923 39.5379 41.9121 39.7364C41.6377 39.929 41.4101 40.1829 41.2291 40.4981C41.054 40.8075 40.9256 41.1519 40.8439 41.5313C40.7621 41.9108 40.7213 42.2844 40.7213 42.6521C40.7213 43.2242 40.7972 43.7612 40.9489 44.2632C41.1007 44.7652 41.3342 45.203 41.6494 45.5766C41.9646 45.9502 42.3616 46.245 42.8402 46.461C43.3189 46.6711 43.8851 46.7762 44.5389 46.7762C44.9008 46.7762 45.2715 46.7441 45.6509 46.6799C46.0362 46.6157 46.4302 46.5223 46.833 46.3997L47.1219 46.9863C46.8826 47.1498 46.6228 47.2899 46.3426 47.4066C46.0625 47.5234 45.7735 47.6168 45.4758 47.6868C45.1781 47.7627 44.8775 47.8182 44.5739 47.8532C44.2704 47.8882 43.9727 47.9057 43.6808 47.9057C43.0445 47.9057 42.4258 47.8065 41.8245 47.608C41.2291 47.4037 40.6979 47.1089 40.231 46.7237C39.7698 46.3326 39.3991 45.851 39.1189 45.2789C38.8387 44.7069 38.6986 44.0502 38.6986 43.3088C38.6986 42.5441 38.8329 41.8582 39.1014 41.2511C39.3758 40.6441 39.7494 40.1304 40.2222 39.7101C40.7009 39.284 41.2642 38.96 41.9121 38.7382C42.5659 38.5105 43.2751 38.3967 44.0398 38.3967C44.0982 38.3967 44.2003 38.4025 44.3463 38.4142C44.4922 38.42 44.6557 38.4346 44.8366 38.458C45.0234 38.4755 45.216 38.5047 45.4145 38.5455C45.613 38.5806 45.7939 38.6273 45.9574 38.6856C46.1208 38.744 46.2551 38.8141 46.3602 38.8958C46.4652 38.9775 46.5178 39.0738 46.5178 39.1847C46.5178 39.2139 46.5148 39.246 46.509 39.281C46.509 39.3102 46.4973 39.3394 46.474 39.3686L45.8523 40.5332ZM47.9537 35.2095V34.544C48.0763 34.4915 48.2485 34.4419 48.4704 34.3952C48.698 34.3485 48.9432 34.3106 49.2059 34.2814C49.4685 34.2522 49.7371 34.2288 50.0114 34.2113C50.2916 34.1938 50.5455 34.185 50.7732 34.185C50.8958 34.185 51.0038 34.188 51.0972 34.1938C51.1906 34.1996 51.2694 34.2172 51.3336 34.2463C51.3978 34.2755 51.4445 34.3222 51.4737 34.3864C51.5087 34.4448 51.5262 34.5324 51.5262 34.6491V44.9987C51.5262 45.7167 51.5583 46.2742 51.6225 46.6711C51.6867 47.0681 51.7393 47.3482 51.7801 47.5117C51.6984 47.5584 51.605 47.5993 51.4999 47.6343C51.3949 47.6635 51.284 47.6897 51.1672 47.7131C51.0563 47.7423 50.9425 47.7627 50.8257 47.7744C50.7148 47.786 50.6127 47.7919 50.5193 47.7919C50.3733 47.7919 50.2361 47.7773 50.1077 47.7481C49.9851 47.7248 49.8772 47.681 49.7838 47.6168C49.6962 47.5526 49.6261 47.4679 49.5736 47.3628C49.5269 47.2519 49.5036 47.1148 49.5036 46.9513V35.2095H47.9537ZM57.1038 39.0446C57.1038 39.2314 57.0454 39.4299 56.9287 39.64C56.8177 39.8502 56.666 40.0662 56.4733 40.288C56.2866 40.504 56.0706 40.7229 55.8254 40.9447C55.5861 41.1665 55.3351 41.3825 55.0724 41.5926C54.8155 41.7969 54.5616 41.9954 54.3106 42.188C54.0596 42.3748 53.8319 42.547 53.6276 42.7046L56.4033 46.2508L57.6992 45.4103L58.0494 45.9444C57.9444 46.1428 57.7926 46.353 57.5941 46.5748C57.4015 46.7908 57.1855 46.9893 56.9462 47.1702C56.7127 47.3512 56.4704 47.5 56.2194 47.6168C55.9684 47.7335 55.7378 47.7919 55.5277 47.7919C55.3934 47.7919 55.2592 47.7598 55.1249 47.6956C54.9965 47.6314 54.8798 47.5263 54.7747 47.3804L51.9027 43.7028C51.8794 43.6736 51.8589 43.6415 51.8414 43.6065C51.8006 43.5365 51.7801 43.4577 51.7801 43.3701C51.7801 43.3059 51.7947 43.2417 51.8239 43.1775C51.8531 43.1074 51.9027 43.0403 51.9728 42.9761C52.0953 42.8652 52.2529 42.7309 52.4456 42.5733C52.6382 42.4157 52.8396 42.2435 53.0497 42.0567C53.2657 41.8699 53.4817 41.6714 53.6977 41.4613C53.9137 41.2453 54.1063 41.0293 54.2756 40.8133C54.4507 40.5974 54.5908 40.3814 54.6959 40.1654C54.8068 39.9494 54.8622 39.7422 54.8622 39.5437C54.8622 39.3861 54.8389 39.2489 54.7922 39.1322C55.0899 38.9863 55.3263 38.8666 55.5014 38.7732C55.6824 38.674 55.8283 38.5981 55.9392 38.5455C56.0501 38.4872 56.1465 38.4492 56.2282 38.4317C56.3099 38.4084 56.4033 38.3967 56.5084 38.3967C56.7068 38.3967 56.8557 38.4609 56.9549 38.5893C57.0542 38.7119 57.1038 38.8637 57.1038 39.0446ZM73.8978 41.1111C74.0554 41.0352 74.1984 40.9972 74.3268 40.9972C74.5312 40.9972 74.6888 41.0848 74.7997 41.2599C74.9164 41.4292 74.9748 41.6539 74.9748 41.9341C74.9748 42.1734 74.9339 42.442 74.8522 42.7397C74.7763 43.0315 74.6596 43.3409 74.502 43.6678C74.3444 43.9889 74.1488 44.3187 73.9153 44.6572C73.6877 44.9958 73.425 45.3256 73.1273 45.6467C73.2615 45.8043 73.3987 45.9648 73.5388 46.1282C73.6847 46.2859 73.8248 46.4376 73.9591 46.5836C74.0934 46.7237 74.2189 46.855 74.3356 46.9776C74.4582 47.1002 74.5633 47.1994 74.6508 47.2753C74.2889 47.7423 73.9124 47.9758 73.5213 47.9758C73.1185 47.9758 72.7362 47.7598 72.3743 47.3278L71.8752 46.7412C71.3848 47.1206 70.8653 47.4212 70.3166 47.643C69.7737 47.8649 69.1871 47.9758 68.5566 47.9758C67.9846 47.9758 67.4417 47.9028 66.928 47.7569C66.4143 47.6168 65.9619 47.4008 65.5708 47.1089C65.1856 46.817 64.8791 46.4551 64.6515 46.0232C64.4238 45.5854 64.31 45.0717 64.31 44.4821C64.31 44.0618 64.3859 43.6853 64.5376 43.3526C64.6952 43.0199 64.9025 42.7222 65.1593 42.4595C65.422 42.191 65.7255 41.9458 66.0699 41.724C66.4143 41.5022 66.7762 41.2891 67.1557 41.0848L66.3501 40.1216C66.0524 39.7597 65.8364 39.4007 65.7022 39.0446C65.5738 38.6886 65.5095 38.3471 65.5095 38.0202C65.5095 37.5882 65.6088 37.1854 65.8073 36.8119C66.0116 36.4324 66.2801 36.1055 66.6128 35.8312C66.9455 35.551 67.3279 35.3321 67.7598 35.1745C68.1918 35.0169 68.6413 34.9381 69.1083 34.9381C69.5986 34.9381 70.0393 35.0081 70.4304 35.1482C70.8215 35.2825 71.1513 35.4751 71.4199 35.7261C71.6942 35.9771 71.9044 36.2807 72.0503 36.6367C72.1962 36.987 72.2692 37.3781 72.2692 37.81C72.2692 38.2128 72.1933 38.5689 72.0415 38.8783C71.8956 39.1876 71.6913 39.4708 71.4286 39.7276C71.1659 39.9844 70.8565 40.2267 70.5005 40.4544C70.1444 40.6762 69.7591 40.9009 69.3447 41.1286C69.5898 41.4088 69.8409 41.7035 70.0977 42.0129C70.3545 42.3223 70.6114 42.6346 70.8682 42.9498C71.1309 43.265 71.3907 43.5802 71.6475 43.8955C71.9102 44.2107 72.1641 44.5171 72.4093 44.8148C72.5961 44.4996 72.7362 44.1611 72.8296 43.7991C72.923 43.4314 72.9697 43.0666 72.9697 42.7046C72.9697 42.296 72.9142 41.9254 72.8033 41.5926L73.8978 41.1111ZM68.6442 46.8462C69.1579 46.8462 69.6307 46.7733 70.0627 46.6273C70.4946 46.4756 70.8945 46.2683 71.2622 46.0057L67.8912 41.9691C67.611 42.1559 67.3512 42.3427 67.1119 42.5295C66.8784 42.7163 66.677 42.909 66.5077 43.1074C66.3384 43.3059 66.2071 43.5102 66.1137 43.7203C66.0203 43.9305 65.9736 44.1523 65.9736 44.3858C65.9736 44.7886 66.0524 45.1447 66.21 45.454C66.3676 45.7576 66.5719 46.0144 66.8229 46.2246C67.0798 46.4289 67.3658 46.5836 67.681 46.6886C68.0021 46.7937 68.3231 46.8462 68.6442 46.8462ZM68.7668 40.2617C69.0586 40.1041 69.3359 39.9407 69.5986 39.7714C69.8613 39.5963 70.0889 39.4065 70.2816 39.2022C70.48 38.9979 70.6347 38.7761 70.7456 38.5368C70.8624 38.2975 70.9208 38.0319 70.9208 37.74C70.9208 37.4948 70.8711 37.2672 70.7719 37.057C70.6727 36.841 70.5355 36.6513 70.3604 36.4879C70.1853 36.3244 69.9809 36.196 69.7475 36.1026C69.514 36.0092 69.2659 35.9625 69.0032 35.9625C68.7522 35.9625 68.5041 36.0063 68.2589 36.0939C68.0196 36.1814 67.8036 36.304 67.611 36.4616C67.4242 36.6192 67.2724 36.8089 67.1557 37.0308C67.0389 37.2526 66.9806 37.5007 66.9806 37.775C66.9806 37.9326 67.0127 38.0961 67.0769 38.2653C67.1469 38.4288 67.2491 38.6098 67.3833 38.8082C67.5176 39.0067 67.6898 39.2314 67.8999 39.4824C68.1101 39.7276 68.3582 40.0107 68.6442 40.3318L68.7668 40.2617ZM85.5958 36.4966C85.0471 36.4966 84.5276 36.5171 84.0373 36.5579C83.5528 36.5988 83.1091 36.6455 82.7063 36.698C82.3094 36.7506 81.9621 36.8031 81.6644 36.8556C81.3725 36.9023 81.1478 36.9374 80.9902 36.9607C80.9902 36.9549 80.9814 36.9169 80.9639 36.8469C80.9522 36.7768 80.9347 36.6863 80.9114 36.5754C80.888 36.4645 80.8676 36.3478 80.8501 36.2252C80.8326 36.0968 80.8238 35.9859 80.8238 35.8925C80.8238 35.6998 80.9084 35.5597 81.0777 35.4722C81.2528 35.3788 81.4893 35.3175 81.787 35.2883C82.0847 35.2533 82.432 35.2416 82.8289 35.2533C83.2259 35.2591 83.652 35.262 84.1073 35.262H86.6728C86.9413 35.262 87.2711 35.262 87.6622 35.262C88.0533 35.262 88.4882 35.2533 88.9669 35.2358C89.4514 35.2183 89.968 35.1891 90.5167 35.1482C91.0713 35.1073 91.6375 35.049 92.2154 34.9731C92.2154 34.9789 92.2241 35.011 92.2416 35.0694C92.2592 35.1219 92.2767 35.1949 92.2942 35.2883C92.3117 35.3759 92.3292 35.478 92.3467 35.5948C92.3642 35.7057 92.373 35.8224 92.373 35.945C92.373 36.0909 92.3204 36.2048 92.2154 36.2865C92.1161 36.3682 91.9819 36.4295 91.8126 36.4704C91.6433 36.5054 91.4478 36.5287 91.2259 36.5404C91.01 36.5463 90.7823 36.5492 90.543 36.5492C89.8775 36.5492 89.3142 36.5433 88.8531 36.5317C88.3919 36.52 87.995 36.5083 87.6622 36.4966V44.8761C87.6622 45.2497 87.671 45.5795 87.6885 45.8656C87.7119 46.1516 87.7381 46.4026 87.7673 46.6186C87.7965 46.8287 87.8257 47.0068 87.8549 47.1527C87.8841 47.2928 87.9074 47.4066 87.9249 47.4942C87.8374 47.5409 87.7411 47.5847 87.636 47.6255C87.5309 47.6605 87.42 47.6897 87.3033 47.7131C87.1923 47.7423 87.0814 47.7627 86.9705 47.7744C86.8596 47.786 86.7545 47.7919 86.6553 47.7919C86.5035 47.7919 86.3605 47.7773 86.2263 47.7481C86.0978 47.7189 85.9869 47.6722 85.8935 47.608C85.8001 47.538 85.7272 47.4475 85.6746 47.3366C85.6221 47.2257 85.5958 47.0856 85.5958 46.9163V36.4966ZM91.9089 38.9045C92.0315 38.852 92.2037 38.8024 92.4255 38.7557C92.6473 38.709 92.8896 38.671 93.1523 38.6419C93.4208 38.6127 93.6922 38.5893 93.9666 38.5718C94.2468 38.5543 94.5007 38.5455 94.7283 38.5455C94.8509 38.5455 94.9589 38.5485 95.0523 38.5543C95.1457 38.5601 95.2245 38.5776 95.2887 38.6068C95.3529 38.636 95.3996 38.6827 95.4288 38.7469C95.4638 38.8053 95.4814 38.8929 95.4814 39.0096V41.1111L96.5934 39.5262C96.8736 39.1409 97.1829 38.8578 97.5215 38.6769C97.8659 38.4901 98.2541 38.3967 98.6861 38.3967C98.7619 38.3967 98.8583 38.4025 98.975 38.4142C99.0976 38.42 99.2143 38.4405 99.3252 38.4755C99.442 38.5105 99.5412 38.5601 99.6229 38.6243C99.7047 38.6886 99.7455 38.7761 99.7455 38.887C99.7455 38.9162 99.7455 38.9396 99.7455 38.9571C99.7455 38.9746 99.7397 38.9979 99.728 39.0271L99.3515 40.2617C99.1297 40.1917 98.9283 40.1421 98.7473 40.1129C98.5722 40.0837 98.4088 40.0691 98.257 40.0691C97.9418 40.0691 97.6412 40.1596 97.3551 40.3405C97.0691 40.5156 96.8064 40.7258 96.5671 40.971C96.3278 41.2103 96.1147 41.4555 95.9279 41.7065C95.747 41.9516 95.5981 42.1413 95.4814 42.2756V44.9987C95.4814 45.3606 95.4901 45.6788 95.5076 45.9531C95.5251 46.2275 95.5456 46.4668 95.5689 46.6711C95.5981 46.8754 95.6273 47.0476 95.6565 47.1877C95.6857 47.322 95.709 47.43 95.7265 47.5117C95.6448 47.5584 95.5514 47.5993 95.4463 47.6343C95.3471 47.6635 95.2391 47.6897 95.1224 47.7131C95.0115 47.7423 94.8976 47.7627 94.7809 47.7744C94.67 47.786 94.5678 47.7919 94.4744 47.7919C94.3226 47.7919 94.1855 47.7773 94.0629 47.7481C93.9403 47.7248 93.8323 47.681 93.7389 47.6168C93.6455 47.5526 93.5725 47.4679 93.52 47.3628C93.4733 47.2519 93.45 47.1148 93.45 46.9513V39.5612H91.9089V38.9045ZM106.812 46.8637C106.812 46.8637 106.771 46.89 106.689 46.9426C106.613 46.9893 106.505 47.0505 106.365 47.1264C106.231 47.2023 106.07 47.287 105.884 47.3804C105.703 47.4679 105.501 47.5526 105.279 47.6343C105.063 47.7102 104.836 47.7744 104.596 47.8269C104.363 47.8794 104.126 47.9057 103.887 47.9057C103.508 47.9057 103.146 47.8532 102.801 47.7481C102.457 47.6489 102.153 47.4913 101.891 47.2753C101.634 47.0593 101.427 46.7879 101.269 46.461C101.117 46.1341 101.041 45.743 101.041 45.2877C101.041 44.7857 101.152 44.3595 101.374 44.0093C101.602 43.659 101.914 43.3759 102.311 43.16C102.714 42.9381 103.192 42.7805 103.747 42.6871C104.302 42.5879 104.912 42.5383 105.577 42.5383H106.812V41.8816C106.812 41.543 106.797 41.219 106.768 40.9097C106.745 40.5944 106.683 40.3201 106.584 40.0866C106.491 39.8531 106.35 39.6663 106.164 39.5262C105.983 39.3861 105.738 39.3161 105.428 39.3161C105.13 39.3161 104.833 39.3715 104.535 39.4824C104.237 39.5875 103.946 39.7218 103.659 39.8852C103.373 40.0487 103.099 40.2296 102.836 40.4281C102.574 40.6207 102.334 40.8046 102.118 40.9797L101.4 40.0166C101.313 39.9115 101.269 39.8035 101.269 39.6926C101.269 39.4999 101.389 39.3248 101.628 39.1672C101.873 39.0096 102.177 38.8754 102.539 38.7644C102.906 38.6477 103.3 38.5572 103.721 38.493C104.141 38.4288 104.532 38.3967 104.894 38.3967C105.431 38.3967 105.939 38.4609 106.418 38.5893C106.896 38.7177 107.314 38.922 107.67 39.2022C108.032 39.4766 108.318 39.8356 108.528 40.2792C108.738 40.717 108.843 41.2511 108.843 41.8816V46.7587H110.367V47.4154C110.267 47.4679 110.13 47.5175 109.955 47.5642C109.786 47.6109 109.596 47.6518 109.386 47.6868C109.176 47.7218 108.954 47.7481 108.72 47.7656C108.493 47.7831 108.274 47.7919 108.064 47.7919C107.924 47.7919 107.781 47.7831 107.635 47.7656C107.489 47.7481 107.355 47.7072 107.232 47.643C107.115 47.5847 107.016 47.5029 106.934 47.3979C106.858 47.287 106.817 47.1381 106.812 46.9513V46.8637ZM104.5 46.6098C104.704 46.6098 104.938 46.5836 105.201 46.531C105.469 46.4726 105.723 46.4114 105.962 46.3471C106.242 46.2713 106.526 46.1808 106.812 46.0757V43.6153H105.341C105.119 43.6153 104.874 43.6357 104.605 43.6766C104.342 43.7174 104.094 43.7962 103.861 43.913C103.633 44.0239 103.441 44.1815 103.283 44.3858C103.125 44.5901 103.047 44.8586 103.047 45.1914C103.047 45.4015 103.079 45.5941 103.143 45.7692C103.207 45.9385 103.3 46.0874 103.423 46.2158C103.546 46.3384 103.697 46.4347 103.878 46.5048C104.059 46.5748 104.267 46.6098 104.5 46.6098ZM114.815 46.7587H116.338V47.4154C116.239 47.4679 116.102 47.5175 115.927 47.5642C115.757 47.6109 115.568 47.6518 115.357 47.6868C115.147 47.7218 114.928 47.7481 114.701 47.7656C114.473 47.7831 114.254 47.7919 114.044 47.7919C113.863 47.7919 113.697 47.7802 113.545 47.7569C113.393 47.7393 113.259 47.6985 113.142 47.6343C113.031 47.5759 112.944 47.4942 112.88 47.3891C112.815 47.2782 112.783 47.1323 112.783 46.9513V39.5262H111.242V38.8695C111.365 38.817 111.537 38.7674 111.759 38.7207C111.981 38.674 112.223 38.636 112.486 38.6068C112.754 38.5776 113.025 38.5543 113.3 38.5368C113.58 38.5193 113.834 38.5105 114.062 38.5105C114.184 38.5105 114.292 38.5134 114.386 38.5193C114.479 38.5251 114.558 38.5426 114.622 38.5718C114.686 38.601 114.733 38.6477 114.762 38.7119C114.797 38.7703 114.815 38.8578 114.815 38.9746V46.7587ZM112.573 35.621C112.573 35.4576 112.605 35.3029 112.669 35.157C112.734 35.011 112.821 34.8855 112.932 34.7805C113.043 34.6754 113.174 34.5937 113.326 34.5353C113.478 34.4711 113.638 34.439 113.808 34.439C113.977 34.439 114.137 34.4711 114.289 34.5353C114.441 34.5937 114.572 34.6754 114.683 34.7805C114.794 34.8855 114.882 35.011 114.946 35.157C115.01 35.3029 115.042 35.4576 115.042 35.621C115.042 35.7845 115.01 35.9363 114.946 36.0763C114.882 36.2164 114.794 36.339 114.683 36.4441C114.572 36.5492 114.441 36.6338 114.289 36.698C114.137 36.7564 113.977 36.7856 113.808 36.7856C113.638 36.7856 113.478 36.7564 113.326 36.698C113.174 36.6338 113.043 36.5492 112.932 36.4441C112.821 36.339 112.734 36.2164 112.669 36.0763C112.605 35.9363 112.573 35.7845 112.573 35.621ZM120.786 46.7587H122.31V47.4154C122.211 47.4679 122.073 47.5175 121.898 47.5642C121.729 47.6109 121.539 47.6518 121.329 47.6868C121.119 47.7218 120.9 47.7481 120.672 47.7656C120.445 47.7831 120.226 47.7919 120.016 47.7919C119.835 47.7919 119.668 47.7802 119.517 47.7569C119.365 47.7393 119.233 47.6985 119.123 47.6343C119.012 47.5759 118.924 47.4942 118.86 47.3891C118.796 47.2782 118.764 47.1323 118.764 46.9513V35.2095H117.214V34.544C117.336 34.4915 117.509 34.4419 117.73 34.3952C117.958 34.3485 118.203 34.3106 118.466 34.2814C118.729 34.2522 118.997 34.2288 119.271 34.2113C119.552 34.1938 119.806 34.185 120.033 34.185C120.156 34.185 120.264 34.188 120.357 34.1938C120.451 34.1996 120.529 34.2172 120.594 34.2463C120.658 34.2755 120.704 34.3222 120.734 34.3864C120.769 34.4448 120.786 34.5324 120.786 34.6491V46.7587ZM130.497 42.5208C130.532 42.404 130.555 42.2873 130.567 42.1705C130.578 42.0538 130.584 41.9312 130.584 41.8028C130.584 41.5167 130.535 41.2307 130.435 40.9447C130.342 40.6528 130.202 40.3901 130.015 40.1566C129.834 39.9232 129.606 39.7334 129.332 39.5875C129.064 39.4416 128.754 39.3686 128.404 39.3686C127.954 39.3686 127.578 39.4562 127.274 39.6313C126.977 39.8006 126.732 40.0311 126.539 40.323C126.352 40.609 126.215 40.9447 126.127 41.33C126.04 41.7094 125.984 42.1063 125.961 42.5208H130.497ZM123.921 43.1512C123.921 42.4566 124.032 41.8203 124.254 41.2424C124.481 40.6587 124.805 40.1566 125.226 39.7364C125.652 39.3161 126.171 38.9892 126.784 38.7557C127.397 38.5164 128.092 38.3967 128.868 38.3967C129.452 38.3967 129.974 38.4901 130.435 38.6769C130.896 38.8637 131.288 39.1147 131.609 39.4299C131.93 39.7451 132.175 40.1099 132.344 40.5244C132.513 40.9388 132.598 41.3708 132.598 41.8203C132.598 42.0304 132.581 42.2406 132.546 42.4507C132.511 42.6609 132.443 42.8506 132.344 43.0199C132.245 43.1891 132.105 43.3292 131.924 43.4401C131.743 43.5452 131.506 43.5978 131.215 43.5978H125.979C126.037 44.1231 126.174 44.5872 126.39 44.99C126.606 45.3927 126.883 45.7342 127.222 46.0144C127.56 46.2888 127.952 46.496 128.395 46.6361C128.839 46.7762 129.317 46.8462 129.831 46.8462C130.181 46.8462 130.543 46.817 130.917 46.7587C131.291 46.6945 131.676 46.5981 132.073 46.4697L132.362 47.0564C132.122 47.2198 131.865 47.3599 131.591 47.4767C131.317 47.5934 131.034 47.6868 130.742 47.7569C130.45 47.8327 130.152 47.8882 129.849 47.9232C129.545 47.9582 129.247 47.9758 128.956 47.9758C128.313 47.9758 127.689 47.8736 127.082 47.6693C126.481 47.4708 125.944 47.1702 125.471 46.7674C125.004 46.3647 124.627 45.8626 124.341 45.2614C124.061 44.6602 123.921 43.9568 123.921 43.1512ZM134.183 38.9045C134.305 38.852 134.478 38.8024 134.7 38.7557C134.921 38.709 135.164 38.671 135.426 38.6419C135.695 38.6127 135.966 38.5893 136.241 38.5718C136.521 38.5543 136.775 38.5455 137.002 38.5455C137.125 38.5455 137.233 38.5485 137.326 38.5543C137.42 38.5601 137.499 38.5776 137.563 38.6068C137.627 38.636 137.674 38.6827 137.703 38.7469C137.738 38.8053 137.755 38.8929 137.755 39.0096V41.1111L138.867 39.5262C139.148 39.1409 139.457 38.8578 139.796 38.6769C140.14 38.4901 140.528 38.3967 140.96 38.3967C141.036 38.3967 141.132 38.4025 141.249 38.4142C141.372 38.42 141.488 38.4405 141.599 38.4755C141.716 38.5105 141.815 38.5601 141.897 38.6243C141.979 38.6886 142.02 38.7761 142.02 38.887C142.02 38.9162 142.02 38.9396 142.02 38.9571C142.02 38.9746 142.014 38.9979 142.002 39.0271L141.626 40.2617C141.404 40.1917 141.202 40.1421 141.021 40.1129C140.846 40.0837 140.683 40.0691 140.531 40.0691C140.216 40.0691 139.915 40.1596 139.629 40.3405C139.343 40.5156 139.08 40.7258 138.841 40.971C138.602 41.2103 138.389 41.4555 138.202 41.7065C138.021 41.9516 137.872 42.1413 137.755 42.2756V44.9987C137.755 45.3606 137.764 45.6788 137.782 45.9531C137.799 46.2275 137.82 46.4668 137.843 46.6711C137.872 46.8754 137.901 47.0476 137.93 47.1877C137.96 47.322 137.983 47.43 138.001 47.5117C137.919 47.5584 137.825 47.5993 137.72 47.6343C137.621 47.6635 137.513 47.6897 137.396 47.7131C137.285 47.7423 137.172 47.7627 137.055 47.7744C136.944 47.786 136.842 47.7919 136.748 47.7919C136.597 47.7919 136.459 47.7773 136.337 47.7481C136.214 47.7248 136.106 47.681 136.013 47.6168C135.92 47.5526 135.847 47.4679 135.794 47.3628C135.747 47.2519 135.724 47.1148 135.724 46.9513V39.5612H134.183V38.9045ZM151.52 41.4876C151.637 41.5284 151.774 41.5605 151.931 41.5839C152.066 41.6131 152.232 41.6364 152.43 41.6539C152.629 41.6714 152.859 41.6802 153.122 41.6802C153.723 41.6802 154.214 41.6072 154.593 41.4613C154.973 41.3095 155.27 41.1111 155.486 40.8659C155.708 40.6207 155.86 40.3405 155.942 40.0253C156.023 39.7101 156.064 39.3832 156.064 39.0446C156.064 38.671 156.032 38.3179 155.968 37.9852C155.904 37.6466 155.764 37.3489 155.548 37.092C155.337 36.8352 155.025 36.6309 154.611 36.4791C154.202 36.3274 153.65 36.2515 152.956 36.2515C152.74 36.2515 152.506 36.2573 152.255 36.269C152.01 36.2807 151.765 36.304 151.52 36.339V41.4876ZM158.358 46.2508L159.777 45.3227L160.206 45.9093C160.072 46.0961 159.905 46.3004 159.707 46.5223C159.508 46.7382 159.289 46.9396 159.05 47.1264C158.811 47.3132 158.56 47.4708 158.297 47.5993C158.04 47.7277 157.786 47.7919 157.535 47.7919C157.366 47.7919 157.194 47.7481 157.019 47.6605C156.849 47.5788 156.692 47.4212 156.546 47.1877L153.823 42.8097C153.753 42.8097 153.639 42.8097 153.481 42.8097C153.329 42.8097 153.151 42.8068 152.947 42.801C152.743 42.7951 152.518 42.7864 152.273 42.7747C152.028 42.763 151.777 42.7455 151.52 42.7222V44.8761C151.52 45.2497 151.531 45.5795 151.555 45.8656C151.584 46.1516 151.616 46.4026 151.651 46.6186C151.692 46.8287 151.73 47.0068 151.765 47.1527C151.8 47.2928 151.826 47.4066 151.844 47.4942C151.756 47.5409 151.657 47.5847 151.546 47.6255C151.441 47.6605 151.327 47.6897 151.205 47.7131C151.088 47.7423 150.971 47.7627 150.854 47.7744C150.738 47.786 150.627 47.7919 150.522 47.7919C150.37 47.7919 150.227 47.7773 150.093 47.7481C149.964 47.7189 149.853 47.6722 149.76 47.608C149.666 47.538 149.593 47.4475 149.541 47.3366C149.488 47.2257 149.462 47.0856 149.462 46.9163V36.4266L147.772 36.5317V35.7611C147.848 35.7378 147.942 35.7057 148.052 35.6648C148.163 35.6181 148.309 35.5714 148.49 35.5247C148.671 35.4722 148.893 35.4226 149.156 35.3759C149.424 35.3233 149.748 35.2766 150.128 35.2358C150.513 35.1949 150.965 35.1628 151.485 35.1395C152.004 35.1103 152.608 35.0957 153.297 35.0957C153.963 35.0957 154.587 35.154 155.171 35.2708C155.761 35.3817 156.277 35.586 156.721 35.8837C157.165 36.1756 157.515 36.5784 157.772 37.092C158.028 37.5999 158.157 38.2508 158.157 39.0446C158.157 39.9027 157.958 40.6236 157.561 41.2074C157.165 41.7911 156.587 42.2172 155.828 42.4857L158.358 46.2508ZM167.92 42.5208C167.955 42.404 167.978 42.2873 167.99 42.1705C168.002 42.0538 168.007 41.9312 168.007 41.8028C168.007 41.5167 167.958 41.2307 167.859 40.9447C167.765 40.6528 167.625 40.3901 167.438 40.1566C167.257 39.9232 167.03 39.7334 166.755 39.5875C166.487 39.4416 166.177 39.3686 165.827 39.3686C165.378 39.3686 165.001 39.4562 164.698 39.6313C164.4 39.8006 164.155 40.0311 163.962 40.323C163.775 40.609 163.638 40.9447 163.551 41.33C163.463 41.7094 163.408 42.1063 163.384 42.5208H167.92ZM161.344 43.1512C161.344 42.4566 161.455 41.8203 161.677 41.2424C161.904 40.6587 162.228 40.1566 162.649 39.7364C163.075 39.3161 163.594 38.9892 164.207 38.7557C164.82 38.5164 165.515 38.3967 166.291 38.3967C166.875 38.3967 167.397 38.4901 167.859 38.6769C168.32 38.8637 168.711 39.1147 169.032 39.4299C169.353 39.7451 169.598 40.1099 169.767 40.5244C169.937 40.9388 170.021 41.3708 170.021 41.8203C170.021 42.0304 170.004 42.2406 169.969 42.4507C169.934 42.6609 169.867 42.8506 169.767 43.0199C169.668 43.1891 169.528 43.3292 169.347 43.4401C169.166 43.5452 168.93 43.5978 168.638 43.5978H163.402C163.46 44.1231 163.597 44.5872 163.813 44.99C164.029 45.3927 164.307 45.7342 164.645 46.0144C164.984 46.2888 165.375 46.496 165.818 46.6361C166.262 46.7762 166.741 46.8462 167.254 46.8462C167.605 46.8462 167.967 46.817 168.34 46.7587C168.714 46.6945 169.099 46.5981 169.496 46.4697L169.785 47.0564C169.546 47.2198 169.289 47.3599 169.014 47.4767C168.74 47.5934 168.457 47.6868 168.165 47.7569C167.873 47.8327 167.575 47.8882 167.272 47.9232C166.968 47.9582 166.671 47.9758 166.379 47.9758C165.737 47.9758 165.112 47.8736 164.505 47.6693C163.904 47.4708 163.367 47.1702 162.894 46.7674C162.427 46.3647 162.05 45.8626 161.764 45.2614C161.484 44.6602 161.344 43.9568 161.344 43.1512ZM175.179 45.9881C175.342 46.0815 175.514 46.1808 175.695 46.2859C175.882 46.3851 176.075 46.4756 176.273 46.5573C176.472 46.639 176.676 46.7091 176.886 46.7674C177.102 46.82 177.321 46.8462 177.543 46.8462C177.951 46.8462 178.304 46.747 178.602 46.5485C178.9 46.3501 179.145 46.0815 179.338 45.743C179.53 45.3986 179.673 44.9987 179.767 44.5434C179.86 44.0881 179.907 43.6065 179.907 43.0987C179.907 42.5324 179.878 42.0246 179.819 41.5751C179.761 41.1198 179.659 40.7345 179.513 40.4193C179.367 40.1041 179.171 39.8619 178.926 39.6926C178.687 39.5233 178.38 39.4387 178.007 39.4387C177.692 39.4387 177.37 39.4824 177.044 39.57C176.717 39.6576 176.413 39.7539 176.133 39.8589C175.812 39.9815 175.494 40.1216 175.179 40.2792V45.9881ZM175.424 51.6708C175.342 51.7175 175.249 51.7584 175.144 51.7934C175.044 51.8284 174.936 51.8576 174.82 51.8809C174.709 51.9043 174.595 51.9218 174.478 51.9335C174.367 51.951 174.265 51.9597 174.172 51.9597C173.874 51.9597 173.629 51.8926 173.436 51.7584C173.243 51.6299 173.147 51.4023 173.147 51.0754V39.5437H171.589V38.887C171.711 38.8345 171.883 38.7849 172.105 38.7382C172.327 38.6915 172.572 38.6535 172.841 38.6243C173.109 38.5952 173.384 38.5718 173.664 38.5543C173.944 38.5368 174.198 38.528 174.426 38.528C174.548 38.528 174.656 38.5309 174.75 38.5368C174.843 38.5426 174.922 38.5601 174.986 38.5893C175.05 38.6185 175.097 38.6652 175.126 38.7294C175.161 38.7878 175.179 38.8754 175.179 38.9921V39.4036C175.348 39.281 175.546 39.1585 175.774 39.0359C176.007 38.9133 176.258 38.8053 176.527 38.7119C176.795 38.6185 177.079 38.5426 177.376 38.4842C177.674 38.4259 177.98 38.3967 178.296 38.3967C179.014 38.3967 179.615 38.5339 180.099 38.8082C180.584 39.0826 180.975 39.4445 181.273 39.894C181.57 40.3376 181.781 40.8425 181.903 41.4088C182.032 41.9691 182.096 42.5383 182.096 43.1162C182.096 43.5073 182.058 43.8984 181.982 44.2895C181.912 44.6806 181.801 45.0542 181.649 45.4103C181.503 45.7663 181.317 46.0961 181.089 46.3997C180.867 46.7032 180.604 46.9659 180.301 47.1877C180.003 47.4095 179.665 47.5847 179.285 47.7131C178.912 47.8415 178.497 47.9057 178.042 47.9057C177.627 47.9057 177.245 47.8619 176.895 47.7744C176.544 47.6868 176.241 47.5905 175.984 47.4854C175.733 47.3745 175.535 47.2753 175.389 47.1877C175.249 47.0943 175.179 47.0447 175.179 47.0389V49.1578C175.179 49.5197 175.187 49.8379 175.205 50.1122C175.222 50.3866 175.243 50.6259 175.266 50.8302C175.295 51.0345 175.324 51.2038 175.354 51.3381C175.383 51.4782 175.406 51.5891 175.424 51.6708ZM189.959 46.8637C189.959 46.8637 189.918 46.89 189.836 46.9426C189.76 46.9893 189.652 47.0505 189.512 47.1264C189.378 47.2023 189.217 47.287 189.031 47.3804C188.85 47.4679 188.648 47.5526 188.426 47.6343C188.21 47.7102 187.983 47.7744 187.743 47.8269C187.51 47.8794 187.274 47.9057 187.034 47.9057C186.655 47.9057 186.293 47.8532 185.948 47.7481C185.604 47.6489 185.3 47.4913 185.038 47.2753C184.781 47.0593 184.574 46.7879 184.416 46.461C184.264 46.1341 184.188 45.743 184.188 45.2877C184.188 44.7857 184.299 44.3595 184.521 44.0093C184.749 43.659 185.061 43.3759 185.458 43.16C185.861 42.9381 186.34 42.7805 186.894 42.6871C187.449 42.5879 188.059 42.5383 188.724 42.5383H189.959V41.8816C189.959 41.543 189.944 41.219 189.915 40.9097C189.892 40.5944 189.83 40.3201 189.731 40.0866C189.638 39.8531 189.498 39.6663 189.311 39.5262C189.13 39.3861 188.885 39.3161 188.575 39.3161C188.278 39.3161 187.98 39.3715 187.682 39.4824C187.384 39.5875 187.093 39.7218 186.807 39.8852C186.521 40.0487 186.246 40.2296 185.983 40.4281C185.721 40.6207 185.481 40.8046 185.265 40.9797L184.547 40.0166C184.46 39.9115 184.416 39.8035 184.416 39.6926C184.416 39.4999 184.536 39.3248 184.775 39.1672C185.02 39.0096 185.324 38.8754 185.686 38.7644C186.054 38.6477 186.448 38.5572 186.868 38.493C187.288 38.4288 187.679 38.3967 188.041 38.3967C188.578 38.3967 189.086 38.4609 189.565 38.5893C190.043 38.7177 190.461 38.922 190.817 39.2022C191.179 39.4766 191.465 39.8356 191.675 40.2792C191.885 40.717 191.99 41.2511 191.99 41.8816V46.7587H193.514V47.4154C193.414 47.4679 193.277 47.5175 193.102 47.5642C192.933 47.6109 192.743 47.6518 192.533 47.6868C192.323 47.7218 192.101 47.7481 191.868 47.7656C191.64 47.7831 191.421 47.7919 191.211 47.7919C191.071 47.7919 190.928 47.7831 190.782 47.7656C190.636 47.7481 190.502 47.7072 190.379 47.643C190.262 47.5847 190.163 47.5029 190.081 47.3979C190.005 47.287 189.965 47.1381 189.959 46.9513V46.8637ZM187.647 46.6098C187.851 46.6098 188.085 46.5836 188.348 46.531C188.616 46.4726 188.87 46.4114 189.109 46.3471C189.39 46.2713 189.673 46.1808 189.959 46.0757V43.6153H188.488C188.266 43.6153 188.021 43.6357 187.752 43.6766C187.489 43.7174 187.241 43.7962 187.008 43.913C186.78 44.0239 186.588 44.1815 186.43 44.3858C186.272 44.5901 186.194 44.8586 186.194 45.1914C186.194 45.4015 186.226 45.5941 186.29 45.7692C186.354 45.9385 186.448 46.0874 186.57 46.2158C186.693 46.3384 186.844 46.4347 187.025 46.5048C187.206 46.5748 187.414 46.6098 187.647 46.6098ZM197.962 46.7587H199.485V47.4154C199.386 47.4679 199.249 47.5175 199.074 47.5642C198.904 47.6109 198.715 47.6518 198.505 47.6868C198.294 47.7218 198.076 47.7481 197.848 47.7656C197.62 47.7831 197.401 47.7919 197.191 47.7919C197.01 47.7919 196.844 47.7802 196.692 47.7569C196.54 47.7393 196.406 47.6985 196.289 47.6343C196.178 47.5759 196.091 47.4942 196.027 47.3891C195.962 47.2782 195.93 47.1323 195.93 46.9513V39.5262H194.389V38.8695C194.512 38.817 194.684 38.7674 194.906 38.7207C195.128 38.674 195.37 38.636 195.633 38.6068C195.901 38.5776 196.173 38.5543 196.447 38.5368C196.727 38.5193 196.981 38.5105 197.209 38.5105C197.331 38.5105 197.439 38.5134 197.533 38.5193C197.626 38.5251 197.705 38.5426 197.769 38.5718C197.833 38.601 197.88 38.6477 197.909 38.7119C197.944 38.7703 197.962 38.8578 197.962 38.9746V46.7587ZM195.72 35.621C195.72 35.4576 195.752 35.3029 195.816 35.157C195.881 35.011 195.968 34.8855 196.079 34.7805C196.19 34.6754 196.321 34.5937 196.473 34.5353C196.625 34.4711 196.785 34.439 196.955 34.439C197.124 34.439 197.285 34.4711 197.436 34.5353C197.588 34.5937 197.719 34.6754 197.83 34.7805C197.941 34.8855 198.029 35.011 198.093 35.157C198.157 35.3029 198.189 35.4576 198.189 35.621C198.189 35.7845 198.157 35.9363 198.093 36.0763C198.029 36.2164 197.941 36.339 197.83 36.4441C197.719 36.5492 197.588 36.6338 197.436 36.698C197.285 36.7564 197.124 36.7856 196.955 36.7856C196.785 36.7856 196.625 36.7564 196.473 36.698C196.321 36.6338 196.19 36.5492 196.079 36.4441C195.968 36.339 195.881 36.2164 195.816 36.0763C195.752 35.9363 195.72 35.7845 195.72 35.621ZM200.659 38.9045C200.781 38.852 200.953 38.8024 201.175 38.7557C201.397 38.709 201.639 38.671 201.902 38.6419C202.17 38.6127 202.442 38.5893 202.716 38.5718C202.996 38.5543 203.25 38.5455 203.478 38.5455C203.601 38.5455 203.709 38.5485 203.802 38.5543C203.895 38.5601 203.974 38.5776 204.038 38.6068C204.103 38.636 204.149 38.6827 204.178 38.7469C204.213 38.8053 204.231 38.8929 204.231 39.0096V41.1111L205.343 39.5262C205.623 39.1409 205.933 38.8578 206.271 38.6769C206.616 38.4901 207.004 38.3967 207.436 38.3967C207.512 38.3967 207.608 38.4025 207.725 38.4142C207.847 38.42 207.964 38.4405 208.075 38.4755C208.192 38.5105 208.291 38.5601 208.373 38.6243C208.454 38.6886 208.495 38.7761 208.495 38.887C208.495 38.9162 208.495 38.9396 208.495 38.9571C208.495 38.9746 208.489 38.9979 208.478 39.0271L208.101 40.2617C207.879 40.1917 207.678 40.1421 207.497 40.1129C207.322 40.0837 207.158 40.0691 207.007 40.0691C206.691 40.0691 206.391 40.1596 206.105 40.3405C205.819 40.5156 205.556 40.7258 205.317 40.971C205.077 41.2103 204.864 41.4555 204.678 41.7065C204.497 41.9516 204.348 42.1413 204.231 42.2756V44.9987C204.231 45.3606 204.24 45.6788 204.257 45.9531C204.275 46.2275 204.295 46.4668 204.319 46.6711C204.348 46.8754 204.377 47.0476 204.406 47.1877C204.435 47.322 204.459 47.43 204.476 47.5117C204.394 47.5584 204.301 47.5993 204.196 47.6343C204.097 47.6635 203.989 47.6897 203.872 47.7131C203.761 47.7423 203.647 47.7627 203.53 47.7744C203.42 47.786 203.317 47.7919 203.224 47.7919C203.072 47.7919 202.935 47.7773 202.813 47.7481C202.69 47.7248 202.582 47.681 202.489 47.6168C202.395 47.5526 202.322 47.4679 202.27 47.3628C202.223 47.2519 202.2 47.1148 202.2 46.9513V39.5612H200.659V38.9045Z" fill="white"/>
<path d="M273.438 52.3025C269.939 52.3025 267.092 49.3939 267.092 45.8174C267.092 42.241 269.939 39.3315 273.438 39.3315C276.938 39.3315 279.784 42.241 279.784 45.8174C279.784 49.3939 276.938 52.3025 273.438 52.3025ZM273.438 41.7751C271.258 41.7751 269.483 43.589 269.483 45.8174C269.483 48.0459 271.258 49.859 273.438 49.859C275.619 49.859 277.393 48.0459 277.393 45.8174C277.393 43.589 275.619 41.7751 273.438 41.7751Z" fill="#3F79D1"/>
<path d="M226.196 52.3025C222.696 52.3025 219.849 49.3939 219.849 45.8174C219.849 42.241 222.696 39.3315 226.196 39.3315C229.695 39.3315 232.541 42.241 232.541 45.8174C232.541 49.3939 229.695 52.3025 226.196 52.3025ZM226.196 41.7751C224.015 41.7751 222.24 43.589 222.24 45.8174C222.24 48.0459 224.015 49.859 226.196 49.859C228.376 49.859 230.15 48.0459 230.15 45.8174C230.15 43.589 228.376 41.7751 226.196 41.7751Z" fill="#3F79D1"/>
<path d="M273.44 47.8497C273.312 47.8497 273.177 47.8416 273.049 47.809C272.922 47.7845 272.795 47.7438 272.675 47.6941C272.555 47.6453 272.444 47.5801 272.332 47.5076C272.22 47.4343 272.124 47.3529 272.028 47.2551C271.933 47.1655 271.853 47.0596 271.781 46.9448C271.709 46.8389 271.646 46.7175 271.599 46.5945C271.55 46.4724 271.511 46.3421 271.486 46.2117C271.454 46.0814 271.446 45.9511 271.446 45.8126C271.446 45.6823 271.454 45.552 271.486 45.4225C271.51 45.2922 271.55 45.1618 271.599 45.0388C271.647 44.9175 271.71 44.7945 271.781 44.6886C271.853 44.5746 271.933 44.4679 272.028 44.3791C272.77 43.6208 274.101 43.6135 274.842 44.3791C274.937 44.4679 275.025 44.5746 275.097 44.6886C275.168 44.7945 275.224 44.9167 275.279 45.0388C275.328 45.161 275.367 45.2922 275.392 45.4225C275.415 45.552 275.431 45.6823 275.431 45.8126C275.431 45.9511 275.415 46.0814 275.392 46.2117C275.368 46.3421 275.328 46.4716 275.279 46.5945C275.224 46.7167 275.168 46.8389 275.097 46.9448C275.025 47.0596 274.937 47.1655 274.842 47.2551C274.755 47.352 274.65 47.4343 274.547 47.5076C274.435 47.5809 274.316 47.6461 274.197 47.6941C274.077 47.7438 273.958 47.7837 273.83 47.809C273.695 47.8416 273.567 47.8497 273.44 47.8497Z" fill="#3F79D1"/>
<path d="M226.194 47.8578C226.067 47.8578 225.931 47.8415 225.804 47.8171C225.676 47.7845 225.556 47.7519 225.437 47.6949C225.317 47.646 225.198 47.5809 225.086 47.5084C224.983 47.4351 224.879 47.3536 224.791 47.2559C224.696 47.1663 224.616 47.0604 224.536 46.9455C224.465 46.8397 224.409 46.7183 224.353 46.5953C224.305 46.4731 224.265 46.3428 224.241 46.2125C224.218 46.0822 224.202 45.9518 224.202 45.8215C224.202 45.6831 224.218 45.5527 224.241 45.4232C224.265 45.2929 224.305 45.1626 224.353 45.0396C224.409 44.9182 224.465 44.7953 224.536 44.6894C224.608 44.5753 224.696 44.4686 224.783 44.3799C225.246 43.9074 225.939 43.6867 226.585 43.8178C226.712 43.8504 226.84 43.883 226.959 43.94C227.079 43.9889 227.19 44.0541 227.302 44.1265C227.413 44.2007 227.509 44.2813 227.605 44.3799C227.7 44.4686 227.78 44.5753 227.852 44.6894C227.924 44.7953 227.987 44.9174 228.035 45.0396C228.083 45.1618 228.123 45.2929 228.147 45.4232C228.171 45.5527 228.187 45.6831 228.187 45.8215C228.187 46.351 227.971 46.8804 227.605 47.2559C227.509 47.3528 227.413 47.4351 227.302 47.5084C227.19 47.5817 227.079 47.6468 226.959 47.6949C226.84 47.7519 226.712 47.7845 226.585 47.8171C226.457 47.8415 226.322 47.8578 226.194 47.8578Z" fill="#3F79D1"/>
<path d="M241.879 52.3025C238.379 52.3025 235.533 49.3939 235.533 45.8174C235.533 42.241 238.38 39.3315 241.879 39.3315C245.378 39.3315 248.225 42.241 248.225 45.8174C248.225 49.3939 245.378 52.3025 241.879 52.3025ZM241.879 41.7751C239.698 41.7751 237.924 43.589 237.924 45.8174C237.924 48.0459 239.698 49.859 241.879 49.859C244.059 49.859 245.834 48.0459 245.834 45.8174C245.834 43.589 244.06 41.7751 241.879 41.7751Z" fill="#3F79D1"/>
<path d="M241.879 47.8577C241.751 47.8577 241.616 47.8414 241.488 47.817C241.361 47.7844 241.233 47.7518 241.114 47.6948C240.994 47.646 240.883 47.5808 240.771 47.5083C240.668 47.435 240.564 47.3535 240.468 47.2558C240.102 46.8803 239.886 46.3517 239.886 45.8215C239.886 45.683 239.902 45.5527 239.926 45.4232C239.95 45.2929 239.99 45.1625 240.038 45.0395C240.086 44.9182 240.149 44.7952 240.221 44.6893C240.293 44.5753 240.381 44.4686 240.468 44.3798C240.564 44.2821 240.668 44.2006 240.771 44.1265C240.883 44.0532 240.994 43.988 241.114 43.94C241.233 43.8829 241.361 43.8504 241.488 43.8178C242.134 43.6875 242.827 43.9074 243.29 44.3798C243.377 44.4686 243.465 44.5753 243.537 44.6893C243.608 44.7952 243.672 44.9174 243.72 45.0395C243.768 45.1617 243.808 45.2929 243.832 45.4232C243.855 45.5527 243.871 45.683 243.871 45.8215C243.871 45.9518 243.855 46.0821 243.832 46.2124C243.808 46.3427 243.768 46.4723 243.72 46.5952C243.672 46.7182 243.608 46.8396 243.537 46.9455C243.465 47.0603 243.377 47.1662 243.29 47.2558C243.194 47.3527 243.09 47.435 242.987 47.5083C242.875 47.5816 242.764 47.6468 242.644 47.6948C242.525 47.7518 242.397 47.7844 242.269 47.817C242.142 47.8414 242.006 47.8577 241.879 47.8577Z" fill="#3F79D1"/>
<path d="M234.037 47.0278C234.036 47.0318 234.036 47.0349 234.036 47.0388H234.039C234.039 47.0349 234.038 47.031 234.037 47.0278Z" fill="#3F79D1"/>
<path d="M276.338 14.5821H270.341L258.339 11.25C257.981 11.1514 257.596 11.2272 257.299 11.4585C257.003 11.6898 256.83 12.0482 256.83 12.4286V35.9889H218.253C216.562 35.9897 215.188 37.3956 215.188 39.1223V42.4846C215.188 43.7072 215.654 44.8564 216.501 45.7198C217.018 46.2468 217.645 46.6084 218.323 46.8251C218.282 46.4944 218.255 46.1596 218.255 45.8176C218.255 41.3435 221.817 37.7026 226.196 37.7026C230.17 37.7026 233.463 40.7065 234.037 44.6072C234.612 40.7065 237.904 37.7026 241.879 37.7026C246.258 37.7026 249.819 41.3435 249.819 45.8176C249.819 46.2338 249.779 46.6394 249.72 47.0393H265.597C265.538 46.6394 265.498 46.2338 265.498 45.8176C265.498 41.3435 269.06 37.7026 273.438 37.7026C277.816 37.7026 281.378 41.3435 281.378 45.8176C281.378 46.2378 281.336 46.6483 281.276 47.0515L282.941 47.0589C285.133 47.0589 286.917 45.236 286.917 42.9953V33.4737C286.917 25.8801 284.1 14.5821 276.338 14.5821ZM271.376 29.2416V17.0256H276.338C280.881 17.0256 283.413 23.2509 284.229 29.2416H271.376Z" fill="#3F79D1"/>
<path d="M25.9955 27.833C23.1981 28.8283 21.2816 29.3259 20.246 29.3259C19.8022 29.3259 19.1095 28.8417 18.1681 27.8734C17.2401 26.9185 16.1641 25.7081 14.9403 24.2421C14.3754 24.3497 13.8643 24.4035 13.407 24.4035C11.7931 24.4035 10.3675 24.0672 9.13019 23.3948C7.90631 22.7089 6.95142 21.7607 6.26551 20.5503C5.59305 19.3398 5.25682 17.968 5.25682 16.4348C5.25682 14.8612 5.76116 13.4087 6.76985 12.0773C7.792 10.7323 9.05622 9.67657 10.5625 8.90996C12.0689 8.12991 13.4945 7.73988 14.8394 7.73988C16.4533 7.73988 17.8789 8.08284 19.1162 8.76875C20.3536 9.45466 21.3085 10.4028 21.9809 11.6133C22.6534 12.8237 22.9896 14.1955 22.9896 15.7287C22.9896 17.2888 22.492 18.7279 21.4968 20.0459C20.5015 21.364 19.2507 22.4197 17.7444 23.2132C18.8204 23.9664 19.8223 24.6388 20.7503 25.2306C21.6918 25.8224 22.2634 26.1183 22.4651 26.1183H25.1886L25.9955 27.833ZM9.99767 15.4665C9.99767 16.6096 10.1658 17.652 10.502 18.5934C10.8382 19.5349 11.3493 20.288 12.0352 20.8529C12.7346 21.4177 13.5819 21.7002 14.5771 21.7002C15.2496 21.7002 15.8615 21.485 16.413 21.0546C16.9778 20.6108 17.4216 20.0056 17.7444 19.239C18.0807 18.4724 18.2488 17.6183 18.2488 16.6769C18.2488 15.5203 18.0807 14.4712 17.7444 13.5298C17.4082 12.5883 16.8971 11.8419 16.2112 11.2905C15.5253 10.7256 14.678 10.4432 13.6693 10.4432C12.9968 10.4432 12.3782 10.6651 11.8133 11.1089C11.2619 11.5393 10.8181 12.1378 10.4818 12.9044C10.1591 13.671 9.99767 14.525 9.99767 15.4665ZM39.9864 11.0686V17.7461C39.9864 19.1583 39.6233 20.3687 38.897 21.3774C38.1842 22.3861 37.2966 23.146 36.2341 23.657C35.1716 24.1547 34.136 24.4035 33.1273 24.4035C31.7689 24.4035 30.5518 24.1412 29.4758 23.6167C28.4133 23.0787 27.5795 22.3457 26.9743 21.4177C26.3825 20.4763 26.0866 19.4205 26.0866 18.2505V10.302L23.7868 9.75727L24.5938 8.14336H32.3405V9.5757L30.424 11.0686V17.6856C30.424 18.9498 30.7602 19.9383 31.4327 20.6511C32.1052 21.3505 33.1273 21.7002 34.4991 21.7002C35.0236 21.7002 35.5414 21.5522 36.0525 21.2564C36.577 20.947 37.0074 20.5032 37.3436 19.9249C37.6933 19.3466 37.8681 18.6674 37.8681 17.8873V10.6046L35.3666 9.75727L36.1735 8.14336H41.9029V9.5757L39.9864 11.0686ZM50.6672 24H42.9204V22.5677L44.8168 20.9134V10.3827L42.517 9.77744L43.3239 8.16353H51.0707V9.59587L49.1542 11.2703V21.7809L51.4741 22.3861L50.6672 24ZM62.3756 7.73988C63.2094 7.73988 64.1778 7.84075 65.2806 8.04249C66.3835 8.24423 67.1904 8.45942 67.7015 8.68805V13.207H65.1192C64.6216 12.2521 64.0366 11.5527 63.3641 11.1089C62.7051 10.6651 61.9856 10.4432 61.2055 10.4432C60.5465 10.4432 59.9413 10.6651 59.3899 11.1089C58.8519 11.5393 58.4215 12.1378 58.0987 12.9044C57.7894 13.671 57.6347 14.525 57.6347 15.4665C57.6347 16.529 57.7961 17.504 58.1189 18.3917C58.4417 19.2659 58.9326 19.9652 59.5916 20.4898C60.2506 21.0143 61.0643 21.2765 62.0326 21.2765C63.3103 21.2765 65.1125 20.7117 67.4392 19.5819L68.3672 21.0748L64.6552 23.9597C64.0097 24.1479 63.391 24.269 62.7992 24.3228C62.2209 24.3766 61.5888 24.4035 60.9029 24.4035C59.3293 24.4035 57.9373 24.0605 56.7269 23.3746C55.5165 22.6887 54.575 21.7473 53.9026 20.5503C53.2301 19.3398 52.8939 17.968 52.8939 16.4348C52.8939 14.8612 53.3915 13.4087 54.3867 12.0773C55.3954 10.7323 56.6395 9.67657 58.1189 8.90996C59.6118 8.12991 61.0307 7.73988 62.3756 7.73988ZM78.3266 22.3659L77.5197 23.9798H69.7729V22.5475L71.6693 20.8932V10.3625L69.3694 9.75727L70.1764 8.14336H77.9232V9.5757L76.0066 11.2501V21.7607L78.3266 22.3659ZM86.6786 23.9798H82.0184L76.5715 16.0313L82.1798 11.0686L79.8195 9.73709L80.6265 8.12318H87.0619V9.55553L80.8685 15.0226L85.3471 21.3976L87.4856 22.3659L86.6786 23.9798ZM108.769 13.2272L107.356 13.8324L104.714 10.0599H100.397V14.9419H102.353L103.826 12.864H105.258V18.9969L103.644 19.8038L102.253 16.8585H100.397V21.68L104.129 22.3861L103.322 24H94.1628V22.5677L96.0591 21.0748V10.3827L93.7593 9.75727L94.5663 8.14336H107.094L108.769 7.78023V13.2272ZM117.729 24H109.983V22.5677L111.879 20.9134V10.3827L109.579 9.77744L110.386 8.16353H118.133V9.59587L116.216 11.2703V21.7809L118.536 22.3861L117.729 24ZM136.136 24H128.591V22.5677L130.164 21.5993L127.199 18.2101L124.273 21.1151L126.492 22.3861L125.686 24H118.947V22.5677L121.57 20.7318L125.766 16.5962L120.42 10.6046L118.947 9.75727L119.754 8.14336H127.299V9.5757L125.625 10.423L128.631 13.8526L131.274 11.0484L129.034 9.75727L129.841 8.14336H136.579V9.5757L134.179 11.2501L130.124 15.5068L135.732 21.8011L136.943 22.3861L136.136 24ZM152.736 7.73988C154.189 7.73988 155.473 8.08284 156.589 8.76875C157.706 9.45466 158.566 10.4028 159.172 11.6133C159.79 12.8237 160.1 14.1955 160.1 15.7287C160.1 17.3023 159.636 18.7548 158.708 20.0863C157.78 21.4177 156.623 22.4735 155.238 23.2536C153.866 24.0202 152.555 24.4035 151.304 24.4035C149.865 24.4035 148.587 24.0672 147.471 23.3948C146.354 22.7089 145.487 21.7607 144.868 20.5503C144.263 19.3398 143.961 17.968 143.961 16.4348C143.961 14.8612 144.425 13.4087 145.353 12.0773C146.28 10.7323 147.43 9.67657 148.802 8.90996C150.174 8.12991 151.485 7.73988 152.736 7.73988ZM151.566 9.55553C150.705 9.55553 149.919 9.81106 149.206 10.3221C148.506 10.8332 147.948 11.5393 147.531 12.4404C147.128 13.3415 146.926 14.3502 146.926 15.4665C146.926 16.771 147.128 17.9613 147.531 19.0372C147.935 20.1132 148.553 20.9739 149.387 21.6195C150.221 22.265 151.25 22.5878 152.474 22.5878C153.335 22.5878 154.115 22.3323 154.814 21.8212C155.527 21.3102 156.085 20.6041 156.488 19.703C156.905 18.8019 157.114 17.7932 157.114 16.6769C157.114 15.3589 156.912 14.1619 156.509 13.086C156.105 12.01 155.486 11.156 154.653 10.5239C153.819 9.87831 152.79 9.55553 151.566 9.55553ZM176.533 10.3827V24H175.302L165.74 12.158V22.0431L167.999 23.0922L167.555 24H162.613V23.2737L164.509 21.7809V10.2011L162.371 9.05118L162.835 8.14336H165.982L175.302 19.703V10.1002L173.043 9.05118L173.507 8.14336H178.449V8.86962L176.533 10.3827ZM180.707 17.9277L181.514 16.8988H187.989V17.6049L187.182 18.6338H180.707V17.9277ZM199.503 20.4696C199.503 20.0527 199.334 19.6626 198.998 19.2995C198.662 18.9364 198.245 18.6069 197.747 18.311C197.25 18.0016 196.577 17.6251 195.73 17.1812C194.721 16.6567 193.901 16.1994 193.269 15.8094C192.65 15.4194 192.119 14.9621 191.675 14.4376C191.245 13.8996 191.03 13.3079 191.03 12.6623C191.03 11.9898 191.312 11.2703 191.877 10.5037C192.455 9.72364 193.161 9.07135 193.995 8.54684C194.829 8.00887 195.596 7.73988 196.295 7.73988C197.142 7.73988 198.124 7.84075 199.24 8.04249C200.37 8.24423 201.197 8.45942 201.722 8.68805V12.7026H200.733C200.101 11.6133 199.402 10.766 198.635 10.1607C197.868 9.55553 197.062 9.25292 196.214 9.25292C195.488 9.25292 194.916 9.48156 194.499 9.93883C194.083 10.3827 193.874 10.961 193.874 11.6738C193.874 12.1176 194.042 12.5345 194.378 12.9246C194.728 13.3011 195.158 13.6441 195.67 13.9534C196.181 14.2628 196.867 14.6393 197.727 15.0832C198.749 15.6211 199.556 16.0784 200.148 16.455C200.753 16.8316 201.264 17.2754 201.681 17.7865C202.112 18.2975 202.327 18.8691 202.327 19.5012C202.327 20.1737 202.018 20.9 201.399 21.68C200.794 22.4466 200.047 23.0989 199.16 23.6369C198.272 24.1614 197.465 24.4237 196.739 24.4237C195.851 24.4237 194.795 24.3228 193.571 24.121C192.348 23.9193 191.467 23.7041 190.929 23.4755V19.4609H191.917C192.59 20.5503 193.35 21.3976 194.197 22.0028C195.058 22.608 195.939 22.9106 196.84 22.9106C197.378 22.9106 197.848 22.7963 198.252 22.5677C198.655 22.339 198.965 22.0431 199.18 21.68C199.395 21.3034 199.503 20.9 199.503 20.4696ZM211.147 23.9798H204.812V23.2536L206.709 21.7607V9.73709L204.57 9.05118L205.034 8.14336H211.369V8.86962L209.452 10.3827V22.3861L211.591 23.072L211.147 23.9798ZM228.061 12.9246L227.355 13.1666L224.632 9.17222H222.291V22.4063L224.43 23.0922L223.986 24H217.651V23.2737L219.548 21.7809V9.17222H217.268L214.545 13.1666L213.839 12.9246V7.78023L215.009 8.14336H226.891L228.061 7.78023V12.9246ZM242.767 24.0202H230.542V23.2939L232.438 21.8011V9.75727L230.3 9.05118L230.764 8.14336H242.565L243.735 7.78023V12.5211L243.029 12.7632L240.608 9.17222H235.182V15.3858H238.188L239.66 12.864H240.387V18.9364L239.479 19.4004L238.208 16.4146H235.182V22.9711H240.508L243.231 18.9565L243.937 19.2188V24.3833L242.767 24.0202Z" fill="white"/>
</svg>
