<svg width="244" height="45" viewBox="0 0 244 45" fill="none" xmlns="http://www.w3.org/2000/svg">
<path d="M9.30554 31.5804C8.83891 31.5804 8.39709 31.5978 7.9801 31.6325C7.56807 31.6673 7.1908 31.707 6.84827 31.7517C6.5107 31.7964 6.21533 31.841 5.96216 31.8857C5.71395 31.9254 5.52283 31.9552 5.38879 31.9751C5.38879 31.9701 5.38135 31.9378 5.36646 31.8783C5.35653 31.8187 5.34163 31.7418 5.32178 31.6474C5.30192 31.5531 5.28455 31.4538 5.26965 31.3496C5.25476 31.2404 5.24731 31.146 5.24731 31.0666C5.24731 30.9028 5.3193 30.7837 5.46326 30.7092C5.61218 30.6298 5.81323 30.5776 6.06641 30.5528C6.31958 30.523 6.61495 30.5131 6.95251 30.523C7.29008 30.528 7.65247 30.5305 8.03967 30.5305H10.2214C10.4498 30.5305 10.7303 30.5305 11.0629 30.5305C11.3955 30.5305 11.7653 30.523 12.1724 30.5081C12.5844 30.4933 13.0237 30.4684 13.4904 30.4337C13.962 30.3989 14.4435 30.3493 14.9349 30.2848C14.9349 30.2897 14.9424 30.317 14.9573 30.3667C14.9722 30.4113 14.9871 30.4734 15.002 30.5528C15.0168 30.6273 15.0317 30.7142 15.0466 30.8134C15.0615 30.9078 15.069 31.0071 15.069 31.1113C15.069 31.2354 15.0243 31.3322 14.9349 31.4017C14.8505 31.4712 14.7364 31.5233 14.5924 31.5581C14.4484 31.5879 14.2821 31.6077 14.0935 31.6176C13.9098 31.6226 13.7162 31.6251 13.5127 31.6251C12.9468 31.6251 12.4677 31.6201 12.0756 31.6102C11.6834 31.6003 11.3458 31.5903 11.0629 31.5804V38.7065C11.0629 39.0242 11.0703 39.3047 11.0852 39.5479C11.1051 39.7912 11.1274 40.0046 11.1522 40.1883C11.177 40.367 11.2019 40.5184 11.2267 40.6425C11.2515 40.7617 11.2714 40.8585 11.2863 40.933C11.2118 40.9727 11.1299 41.0099 11.0405 41.0446C10.9512 41.0744 10.8569 41.0993 10.7576 41.1191C10.6632 41.1439 10.5689 41.1613 10.4746 41.1712C10.3803 41.1812 10.2909 41.1861 10.2065 41.1861C10.0775 41.1861 9.95585 41.1737 9.84167 41.1489C9.73246 41.1241 9.63814 41.0844 9.55872 41.0298C9.47929 40.9702 9.41724 40.8932 9.37256 40.7989C9.32788 40.7046 9.30554 40.5855 9.30554 40.4415V31.5804ZM14.6743 33.6281C14.7786 33.5835 14.925 33.5413 15.1136 33.5016C15.3023 33.4618 15.5083 33.4296 15.7317 33.4048C15.96 33.3799 16.1909 33.3601 16.4242 33.3452C16.6625 33.3303 16.8784 33.3228 17.072 33.3228C17.1763 33.3228 17.2681 33.3253 17.3475 33.3303C17.427 33.3353 17.494 33.3501 17.5486 33.375C17.6032 33.3998 17.6429 33.4395 17.6677 33.4941C17.6975 33.5438 17.7124 33.6182 17.7124 33.7175V35.5046L18.6581 34.1568C18.8964 33.8292 19.1595 33.5884 19.4474 33.4345C19.7403 33.2757 20.0704 33.1963 20.4377 33.1963C20.5023 33.1963 20.5842 33.2012 20.6835 33.2112C20.7877 33.2161 20.887 33.2335 20.9813 33.2633C21.0806 33.2931 21.165 33.3353 21.2345 33.3899C21.304 33.4445 21.3387 33.5189 21.3387 33.6133C21.3387 33.6381 21.3387 33.6579 21.3387 33.6728C21.3387 33.6877 21.3338 33.7076 21.3239 33.7324L21.0037 34.7823C20.815 34.7227 20.6438 34.6806 20.4899 34.6557C20.3409 34.6309 20.2019 34.6185 20.0729 34.6185C19.8048 34.6185 19.5492 34.6954 19.3059 34.8493C19.0627 34.9983 18.8393 35.177 18.6357 35.3855C18.4322 35.589 18.251 35.7975 18.0922 36.011C17.9383 36.2195 17.8117 36.3808 17.7124 36.495V38.8108C17.7124 39.1185 17.7198 39.3891 17.7347 39.6224C17.7496 39.8557 17.767 40.0593 17.7869 40.233C17.8117 40.4067 17.8365 40.5532 17.8613 40.6723C17.8861 40.7865 17.906 40.8783 17.9209 40.9478C17.8514 40.9876 17.772 41.0223 17.6826 41.0521C17.5982 41.0769 17.5064 41.0993 17.4071 41.1191C17.3128 41.1439 17.216 41.1613 17.1167 41.1712C17.0224 41.1812 16.9355 41.1861 16.8561 41.1861C16.727 41.1861 16.6104 41.1737 16.5061 41.1489C16.4019 41.129 16.31 41.0918 16.2306 41.0372C16.1512 40.9826 16.0891 40.9106 16.0444 40.8213C16.0047 40.7269 15.9849 40.6103 15.9849 40.4713V34.1866H14.6743V33.6281ZM27.2213 34.1419V33.576C27.3256 33.5313 27.472 33.4916 27.6606 33.4569C27.8493 33.4172 28.0553 33.3849 28.2787 33.3601C28.507 33.3353 28.7379 33.3154 28.9712 33.3005C29.2095 33.2856 29.4254 33.2782 29.619 33.2782C29.7233 33.2782 29.8151 33.2807 29.8945 33.2856C29.974 33.2906 30.041 33.3055 30.0956 33.3303C30.1502 33.3551 30.1899 33.3948 30.2147 33.4494C30.2445 33.4991 30.2594 33.5735 30.2594 33.6728V40.3075H31.5551V40.8659C31.4707 40.9106 31.354 40.9528 31.2051 40.9925C31.0611 41.0322 30.8998 41.067 30.7211 41.0968C30.5424 41.1266 30.3562 41.1489 30.1626 41.1638C29.969 41.1787 29.7828 41.1861 29.6041 41.1861C29.4502 41.1861 29.3088 41.1762 29.1797 41.1563C29.0506 41.1414 28.9364 41.1067 28.8372 41.0521C28.7428 41.0025 28.6684 40.933 28.6138 40.8436C28.5592 40.7493 28.5319 40.6252 28.5319 40.4713V40.4117C28.5319 40.4067 28.4872 40.4266 28.3978 40.4713C28.3134 40.511 28.1943 40.5631 28.0404 40.6277C27.8915 40.6922 27.7152 40.7617 27.5117 40.8362C27.3131 40.9106 27.0997 40.9826 26.8713 41.0521C26.643 41.1166 26.4072 41.1712 26.1639 41.2159C25.9207 41.2606 25.6849 41.2829 25.4565 41.2829C25.0098 41.2829 24.6474 41.2234 24.3694 41.1042C24.0914 40.99 23.8754 40.8287 23.7216 40.6202C23.5726 40.4067 23.4709 40.1561 23.4163 39.8681C23.3617 39.5752 23.3343 39.2575 23.3343 38.915V34.1419H22.0238V33.576C22.128 33.5313 22.2745 33.4916 22.4631 33.4569C22.6518 33.4172 22.8578 33.3849 23.0812 33.3601C23.3046 33.3353 23.5329 33.3154 23.7662 33.3005C24.0045 33.2856 24.2205 33.2782 24.4141 33.2782C24.5183 33.2782 24.6101 33.2807 24.6896 33.2856C24.769 33.2906 24.836 33.3055 24.8906 33.3303C24.9452 33.3551 24.9849 33.3948 25.0098 33.4494C25.0395 33.4991 25.0544 33.5735 25.0544 33.6728V38.7661C25.0544 39.0193 25.0669 39.2352 25.0917 39.4139C25.1215 39.5926 25.1736 39.7391 25.248 39.8532C25.3275 39.9674 25.4342 40.0518 25.5682 40.1064C25.7072 40.1561 25.8835 40.1809 26.0969 40.1809C26.221 40.1809 26.3675 40.1709 26.5363 40.1511C26.71 40.1263 26.8862 40.099 27.0649 40.0692C27.2486 40.0344 27.4273 39.9997 27.6011 39.9649C27.7798 39.9252 27.9386 39.8905 28.0776 39.8607C28.2166 39.8259 28.3258 39.7986 28.4053 39.7788C28.4897 39.754 28.5319 39.7415 28.5319 39.7415V34.1419H27.2213ZM38.9939 35.0132C38.8301 34.9188 38.6489 34.8171 38.4503 34.7079C38.2517 34.5986 38.0433 34.4994 37.8248 34.41C37.6114 34.3157 37.3929 34.2387 37.1696 34.1792C36.9462 34.1146 36.7253 34.0824 36.5068 34.0824C36.1693 34.0824 35.8813 34.1668 35.6431 34.3355C35.4097 34.4994 35.2161 34.7153 35.0623 34.9834C34.9133 35.2465 34.8041 35.5394 34.7346 35.862C34.6651 36.1847 34.6304 36.5024 34.6304 36.8152C34.6304 37.3016 34.6949 37.7584 34.824 38.1853C34.953 38.6122 35.1516 38.9845 35.4197 39.3022C35.6877 39.6199 36.0253 39.8706 36.4324 40.0543C36.8394 40.233 37.321 40.3224 37.877 40.3224C38.1847 40.3224 38.5 40.2951 38.8226 40.2404C39.1503 40.1858 39.4853 40.1064 39.8279 40.0022L40.0736 40.5011C39.8701 40.6401 39.6492 40.7592 39.4109 40.8585C39.1726 40.9578 38.9269 41.0372 38.6737 41.0968C38.4205 41.1613 38.1649 41.2085 37.9067 41.2383C37.6486 41.268 37.3954 41.2829 37.1472 41.2829C36.6061 41.2829 36.0799 41.1985 35.5686 41.0298C35.0623 40.856 34.6105 40.6053 34.2134 40.2777C33.8212 39.9451 33.506 39.5355 33.2677 39.049C33.0294 38.5626 32.9103 38.0041 32.9103 37.3736C32.9103 36.7233 33.0245 36.14 33.2528 35.6237C33.4861 35.1075 33.8038 34.6706 34.2059 34.3132C34.613 33.9508 35.092 33.6753 35.6431 33.4867C36.1991 33.2931 36.8022 33.1963 37.4525 33.1963C37.5022 33.1963 37.589 33.2012 37.7131 33.2112C37.8372 33.2161 37.9762 33.2285 38.1301 33.2484C38.289 33.2633 38.4528 33.2881 38.6216 33.3228C38.7904 33.3526 38.9443 33.3923 39.0832 33.442C39.2222 33.4916 39.3364 33.5512 39.4258 33.6207C39.5151 33.6902 39.5598 33.7721 39.5598 33.8664C39.5598 33.8912 39.5573 33.9185 39.5524 33.9483C39.5524 33.9732 39.5424 33.998 39.5226 34.0228L38.9939 35.0132ZM40.781 30.4858V29.9199C40.8853 29.8752 41.0317 29.833 41.2203 29.7933C41.4139 29.7536 41.6224 29.7213 41.8458 29.6965C42.0692 29.6717 42.2976 29.6518 42.5309 29.6369C42.7692 29.622 42.9851 29.6146 43.1787 29.6146C43.283 29.6146 43.3748 29.6171 43.4542 29.622C43.5336 29.627 43.6007 29.6419 43.6553 29.6667C43.7099 29.6915 43.7496 29.7313 43.7744 29.7859C43.8042 29.8355 43.8191 29.91 43.8191 30.0092V38.8108C43.8191 39.4214 43.8464 39.8954 43.901 40.233C43.9556 40.5706 44.0003 40.8088 44.035 40.9478C43.9655 40.9876 43.8861 41.0223 43.7967 41.0521C43.7074 41.0769 43.6131 41.0993 43.5138 41.1191C43.4195 41.1439 43.3227 41.1613 43.2234 41.1712C43.1291 41.1812 43.0422 41.1861 42.9628 41.1861C42.8387 41.1861 42.722 41.1737 42.6128 41.1489C42.5085 41.129 42.4167 41.0918 42.3373 41.0372C42.2628 40.9826 42.2032 40.9106 42.1586 40.8213C42.1189 40.7269 42.099 40.6103 42.099 40.4713V30.4858H40.781ZM48.5624 33.7473C48.5624 33.9061 48.5127 34.0749 48.4134 34.2536C48.3191 34.4323 48.1901 34.616 48.0262 34.8047C47.8674 34.9883 47.6837 35.1745 47.4752 35.3631C47.2717 35.5518 47.0582 35.7354 46.8348 35.9142C46.6164 36.0879 46.4005 36.2567 46.187 36.4205C45.9735 36.5794 45.7799 36.7258 45.6062 36.8598L47.9667 39.8756L49.0687 39.1607L49.3666 39.615C49.2772 39.7837 49.1481 39.9625 48.9794 40.1511C48.8155 40.3348 48.6319 40.5036 48.4283 40.6574C48.2298 40.8113 48.0238 40.9379 47.8103 41.0372C47.5968 41.1365 47.4008 41.1861 47.222 41.1861C47.1079 41.1861 46.9937 41.1588 46.8795 41.1042C46.7703 41.0496 46.671 40.9603 46.5817 40.8362L44.1393 37.7087C44.1194 37.6839 44.102 37.6566 44.0872 37.6268C44.0524 37.5672 44.035 37.5002 44.035 37.4258C44.035 37.3711 44.0474 37.3165 44.0723 37.2619C44.0971 37.2024 44.1393 37.1453 44.1988 37.0907C44.3031 36.9963 44.4371 36.8822 44.6009 36.7481C44.7648 36.6141 44.936 36.4677 45.1147 36.3088C45.2984 36.15 45.4821 35.9812 45.6658 35.8025C45.8494 35.6188 46.0133 35.4351 46.1572 35.2514C46.3061 35.0678 46.4253 34.8841 46.5146 34.7004C46.609 34.5167 46.6561 34.3405 46.6561 34.1717C46.6561 34.0377 46.6363 33.921 46.5966 33.8217C46.8497 33.6976 47.0508 33.5959 47.1997 33.5164C47.3536 33.4321 47.4777 33.3675 47.572 33.3228C47.6663 33.2732 47.7482 33.2409 47.8177 33.226C47.8872 33.2062 47.9667 33.1963 48.056 33.1963C48.2248 33.1963 48.3514 33.2509 48.4358 33.3601C48.5202 33.4643 48.5624 33.5934 48.5624 33.7473ZM62.8444 35.5046C62.9784 35.4401 63.1 35.4078 63.2092 35.4078C63.383 35.4078 63.517 35.4823 63.6113 35.6312C63.7106 35.7752 63.7602 35.9663 63.7602 36.2046C63.7602 36.4081 63.7255 36.6364 63.656 36.8896C63.5915 37.1378 63.4922 37.4009 63.3581 37.6789C63.2241 37.952 63.0578 38.2324 62.8592 38.5204C62.6656 38.8083 62.4423 39.0888 62.1891 39.3618C62.3033 39.4958 62.4199 39.6323 62.5391 39.7713C62.6632 39.9054 62.7823 40.0344 62.8965 40.1585C63.0107 40.2777 63.1174 40.3894 63.2167 40.4936C63.3209 40.5979 63.4103 40.6823 63.4847 40.7468C63.177 41.1439 62.8568 41.3425 62.5242 41.3425C62.1816 41.3425 61.8565 41.1588 61.5487 40.7915L61.1243 40.2926C60.7073 40.6152 60.2655 40.8709 59.7988 41.0595C59.3372 41.2482 58.8383 41.3425 58.3021 41.3425C57.8156 41.3425 57.354 41.2804 56.9171 41.1563C56.4803 41.0372 56.0955 40.8535 55.7629 40.6053C55.4353 40.3571 55.1747 40.0493 54.9811 39.682C54.7875 39.3097 54.6907 38.8728 54.6907 38.3714C54.6907 38.014 54.7552 37.6938 54.8843 37.4109C55.0183 37.1279 55.1945 36.8747 55.413 36.6513C55.6363 36.423 55.8945 36.2145 56.1874 36.0258C56.4803 35.8372 56.788 35.656 57.1107 35.4823L56.4257 34.6632C56.1725 34.3554 55.9888 34.0501 55.8746 33.7473C55.7654 33.4445 55.7108 33.1541 55.7108 32.8761C55.7108 32.5087 55.7952 32.1662 55.964 31.8485C56.1377 31.5258 56.3661 31.2478 56.649 31.0145C56.932 30.7762 57.2572 30.5901 57.6245 30.456C57.9919 30.322 58.3741 30.255 58.7712 30.255C59.1882 30.255 59.563 30.3145 59.8956 30.4337C60.2282 30.5479 60.5087 30.7117 60.7371 30.9251C60.9704 31.1386 61.1491 31.3967 61.2732 31.6996C61.3973 31.9974 61.4593 32.33 61.4593 32.6974C61.4593 33.0399 61.3948 33.3427 61.2657 33.6058C61.1416 33.8689 60.9679 34.1097 60.7445 34.3281C60.5211 34.5465 60.258 34.7525 59.9552 34.9461C59.6524 35.1348 59.3247 35.3259 58.9723 35.5195C59.1808 35.7578 59.3942 36.0085 59.6127 36.2716C59.8311 36.5347 60.0495 36.8003 60.2679 37.0683C60.4913 37.3364 60.7122 37.6045 60.9307 37.8725C61.154 38.1406 61.37 38.4012 61.5785 38.6544C61.7373 38.3863 61.8565 38.0984 61.9359 37.7906C62.0153 37.4779 62.055 37.1676 62.055 36.8598C62.055 36.5123 62.0079 36.1971 61.9136 35.9142L62.8444 35.5046ZM58.3766 40.3819C58.8134 40.3819 59.2155 40.3199 59.5829 40.1958C59.9502 40.0667 60.2903 39.8905 60.603 39.6671L57.7362 36.2343C57.4979 36.3932 57.277 36.5521 57.0735 36.7109C56.8749 36.8698 56.7036 37.0336 56.5597 37.2024C56.4157 37.3711 56.304 37.5449 56.2246 37.7236C56.1452 37.9023 56.1055 38.091 56.1055 38.2895C56.1055 38.632 56.1725 38.9349 56.3065 39.198C56.4405 39.4561 56.6143 39.6745 56.8278 39.8532C57.0462 40.027 57.2894 40.1585 57.5575 40.2479C57.8305 40.3372 58.1036 40.3819 58.3766 40.3819ZM58.4808 34.7823C58.729 34.6483 58.9648 34.5093 59.1882 34.3653C59.4116 34.2164 59.6052 34.0551 59.769 33.8813C59.9378 33.7076 60.0694 33.5189 60.1637 33.3154C60.263 33.1119 60.3126 32.886 60.3126 32.6378C60.3126 32.4293 60.2704 32.2357 60.186 32.057C60.1016 31.8733 59.985 31.712 59.8361 31.573C59.6871 31.434 59.5134 31.3248 59.3148 31.2453C59.1162 31.1659 58.9053 31.1262 58.6819 31.1262C58.4684 31.1262 58.2574 31.1634 58.0489 31.2379C57.8454 31.3123 57.6617 31.4166 57.4979 31.5506C57.3391 31.6847 57.21 31.846 57.1107 32.0346C57.0114 32.2233 56.9618 32.4343 56.9618 32.6676C56.9618 32.8016 56.9891 32.9406 57.0437 33.0846C57.1033 33.2236 57.1901 33.3775 57.3043 33.5462C57.4185 33.715 57.5649 33.9061 57.7436 34.1196C57.9224 34.3281 58.1333 34.5689 58.3766 34.8419L58.4808 34.7823ZM72.7926 31.5804C72.326 31.5804 71.8841 31.5978 71.4672 31.6325C71.0551 31.6673 70.6778 31.707 70.3353 31.7517C69.9978 31.7964 69.7024 31.841 69.4492 31.8857C69.201 31.9254 69.0099 31.9552 68.8758 31.9751C68.8758 31.9701 68.8684 31.9378 68.8535 31.8783C68.8436 31.8187 68.8287 31.7418 68.8088 31.6474C68.789 31.5531 68.7716 31.4538 68.7567 31.3496C68.7418 31.2404 68.7344 31.146 68.7344 31.0666C68.7344 30.9028 68.8063 30.7837 68.9503 30.7092C69.0992 30.6298 69.3003 30.5776 69.5535 30.5528C69.8066 30.523 70.102 30.5131 70.4396 30.523C70.7771 30.528 71.1395 30.5305 71.5267 30.5305H73.7085C73.9368 30.5305 74.2173 30.5305 74.5499 30.5305C74.8825 30.5305 75.2524 30.523 75.6594 30.5081C76.0714 30.4933 76.5108 30.4684 76.9774 30.4337C77.449 30.3989 77.9305 30.3493 78.422 30.2848C78.422 30.2897 78.4294 30.317 78.4443 30.3667C78.4592 30.4113 78.4741 30.4734 78.489 30.5528C78.5039 30.6273 78.5188 30.7142 78.5337 30.8134C78.5486 30.9078 78.556 31.0071 78.556 31.1113C78.556 31.2354 78.5113 31.3322 78.422 31.4017C78.3376 31.4712 78.2234 31.5233 78.0795 31.5581C77.9355 31.5879 77.7692 31.6077 77.5806 31.6176C77.3969 31.6226 77.2033 31.6251 76.9997 31.6251C76.4338 31.6251 75.9548 31.6201 75.5626 31.6102C75.1704 31.6003 74.8329 31.5903 74.5499 31.5804V38.7065C74.5499 39.0242 74.5574 39.3047 74.5723 39.5479C74.5921 39.7912 74.6145 40.0046 74.6393 40.1883C74.6641 40.367 74.6889 40.5184 74.7137 40.6425C74.7386 40.7617 74.7584 40.8585 74.7733 40.933C74.6988 40.9727 74.6169 41.0099 74.5276 41.0446C74.4382 41.0744 74.3439 41.0993 74.2446 41.1191C74.1503 41.1439 74.056 41.1613 73.9617 41.1712C73.8673 41.1812 73.778 41.1861 73.6936 41.1861C73.5645 41.1861 73.4429 41.1737 73.3287 41.1489C73.2195 41.1241 73.1252 41.0844 73.0458 41.0298C72.9663 40.9702 72.9043 40.8932 72.8596 40.7989C72.8149 40.7046 72.7926 40.5855 72.7926 40.4415V31.5804ZM78.1614 33.6281C78.2656 33.5835 78.4121 33.5413 78.6007 33.5016C78.7893 33.4618 78.9954 33.4296 79.2187 33.4048C79.4471 33.3799 79.6779 33.3601 79.9112 33.3452C80.1495 33.3303 80.3655 33.3228 80.5591 33.3228C80.6633 33.3228 80.7552 33.3253 80.8346 33.3303C80.914 33.3353 80.981 33.3501 81.0356 33.375C81.0902 33.3998 81.13 33.4395 81.1548 33.4941C81.1846 33.5438 81.1995 33.6182 81.1995 33.7175V35.5046L82.1451 34.1568C82.3834 33.8292 82.6465 33.5884 82.9344 33.4345C83.2273 33.2757 83.5574 33.1963 83.9248 33.1963C83.9893 33.1963 84.0712 33.2012 84.1705 33.2112C84.2748 33.2161 84.3741 33.2335 84.4684 33.2633C84.5677 33.2931 84.6521 33.3353 84.7215 33.3899C84.791 33.4445 84.8258 33.5189 84.8258 33.6133C84.8258 33.6381 84.8258 33.6579 84.8258 33.6728C84.8258 33.6877 84.8208 33.7076 84.8109 33.7324L84.4907 34.7823C84.3021 34.7227 84.1308 34.6806 83.9769 34.6557C83.828 34.6309 83.689 34.6185 83.5599 34.6185C83.2919 34.6185 83.0362 34.6954 82.793 34.8493C82.5497 34.9983 82.3263 35.177 82.1228 35.3855C81.9193 35.589 81.7381 35.7975 81.5792 36.011C81.4253 36.2195 81.2987 36.3808 81.1995 36.495V38.8108C81.1995 39.1185 81.2069 39.3891 81.2218 39.6224C81.2367 39.8557 81.2541 40.0593 81.2739 40.233C81.2987 40.4067 81.3236 40.5532 81.3484 40.6723C81.3732 40.7865 81.3931 40.8783 81.408 40.9478C81.3385 40.9876 81.259 41.0223 81.1697 41.0521C81.0853 41.0769 80.9934 41.0993 80.8942 41.1191C80.7998 41.1439 80.703 41.1613 80.6038 41.1712C80.5094 41.1812 80.4226 41.1861 80.3431 41.1861C80.2141 41.1861 80.0974 41.1737 79.9932 41.1489C79.8889 41.129 79.7971 41.0918 79.7176 41.0372C79.6382 40.9826 79.5762 40.9106 79.5315 40.8213C79.4918 40.7269 79.4719 40.6103 79.4719 40.4713V34.1866H78.1614V33.6281ZM90.835 40.3968C90.835 40.3968 90.8002 40.4192 90.7307 40.4638C90.6662 40.5036 90.5743 40.5557 90.4552 40.6202C90.341 40.6847 90.2045 40.7567 90.0456 40.8362C89.8918 40.9106 89.7205 40.9826 89.5319 41.0521C89.3482 41.1166 89.1546 41.1712 88.951 41.2159C88.7525 41.2606 88.5514 41.2829 88.3479 41.2829C88.0252 41.2829 87.7174 41.2383 87.4246 41.1489C87.1317 41.0645 86.8735 40.9305 86.6501 40.7468C86.4317 40.5631 86.2555 40.3323 86.1215 40.0543C85.9924 39.7763 85.9278 39.4437 85.9278 39.0565C85.9278 38.6296 86.0222 38.2672 86.2108 37.9693C86.4044 37.6715 86.67 37.4307 87.0076 37.247C87.3501 37.0584 87.7572 36.9244 88.2288 36.8449C88.7004 36.7605 89.2191 36.7184 89.785 36.7184H90.835V36.1599C90.835 35.872 90.8225 35.5964 90.7977 35.3333C90.7779 35.0653 90.7257 34.832 90.6413 34.6334C90.5619 34.4348 90.4428 34.276 90.2839 34.1568C90.13 34.0377 89.9215 33.9781 89.6584 33.9781C89.4053 33.9781 89.1521 34.0253 88.8989 34.1196C88.6457 34.209 88.3975 34.3231 88.1543 34.4621C87.911 34.6011 87.6777 34.755 87.4543 34.9238C87.2309 35.0876 87.0274 35.244 86.8437 35.3929L86.2331 34.5738C86.1587 34.4845 86.1215 34.3926 86.1215 34.2983C86.1215 34.1345 86.2232 33.9856 86.4268 33.8515C86.6352 33.7175 86.8934 33.6033 87.2012 33.509C87.5139 33.4097 87.849 33.3328 88.2064 33.2782C88.5638 33.2236 88.8964 33.1963 89.2042 33.1963C89.6609 33.1963 90.0928 33.2509 90.4999 33.3601C90.9069 33.4693 91.2619 33.643 91.5647 33.8813C91.8725 34.1146 92.1157 34.4199 92.2944 34.7972C92.4731 35.1695 92.5625 35.6237 92.5625 36.1599V40.3075H93.8581V40.8659C93.7738 40.9106 93.6571 40.9528 93.5082 40.9925C93.3642 41.0322 93.2029 41.067 93.0242 41.0968C92.8455 41.1266 92.6568 41.1489 92.4582 41.1638C92.2646 41.1787 92.0785 41.1861 91.8998 41.1861C91.7806 41.1861 91.659 41.1787 91.5349 41.1638C91.4108 41.1489 91.2966 41.1141 91.1924 41.0595C91.0931 41.0099 91.0087 40.9404 90.9392 40.851C90.8747 40.7567 90.8399 40.6301 90.835 40.4713V40.3968ZM88.8691 40.1809C89.0429 40.1809 89.2414 40.1585 89.4648 40.1139C89.6932 40.0642 89.9091 40.0121 90.1127 39.9575C90.3509 39.893 90.5917 39.816 90.835 39.7267V37.6342H89.584C89.3953 37.6342 89.1868 37.6516 88.9585 37.6864C88.7351 37.7211 88.5241 37.7881 88.3256 37.8874C88.132 37.9817 87.9681 38.1158 87.8341 38.2895C87.7001 38.4633 87.633 38.6916 87.633 38.9746C87.633 39.1533 87.6604 39.3171 87.715 39.466C87.7696 39.61 87.849 39.7366 87.9532 39.8458C88.0575 39.95 88.1866 40.032 88.3404 40.0915C88.4943 40.1511 88.6706 40.1809 88.8691 40.1809ZM97.6409 40.3075H98.9365V40.8659C98.8521 40.9106 98.7355 40.9528 98.5865 40.9925C98.4426 41.0322 98.2812 41.067 98.1025 41.0968C97.9238 41.1266 97.7377 41.1489 97.5441 41.1638C97.3505 41.1787 97.1643 41.1861 96.9856 41.1861C96.8317 41.1861 96.6902 41.1762 96.5611 41.1563C96.4321 41.1414 96.3179 41.1067 96.2186 41.0521C96.1243 41.0025 96.0498 40.933 95.9952 40.8436C95.9406 40.7493 95.9133 40.6252 95.9133 40.4713V34.1568H94.6028V33.5984C94.707 33.5537 94.8535 33.5115 95.0421 33.4718C95.2307 33.4321 95.4368 33.3998 95.6601 33.375C95.8885 33.3501 96.1193 33.3303 96.3527 33.3154C96.5909 33.3005 96.8069 33.2931 97.0005 33.2931C97.1047 33.2931 97.1966 33.2955 97.276 33.3005C97.3554 33.3055 97.4224 33.3204 97.477 33.3452C97.5316 33.37 97.5714 33.4097 97.5962 33.4643C97.626 33.514 97.6409 33.5884 97.6409 33.6877V40.3075ZM95.7346 30.8358C95.7346 30.6968 95.7619 30.5652 95.8165 30.4411C95.8711 30.317 95.9456 30.2103 96.0399 30.1209C96.1342 30.0316 96.2459 29.9621 96.375 29.9124C96.5041 29.8578 96.6406 29.8305 96.7845 29.8305C96.9285 29.8305 97.065 29.8578 97.1941 29.9124C97.3232 29.9621 97.4348 30.0316 97.5292 30.1209C97.6235 30.2103 97.6979 30.317 97.7526 30.4411C97.8072 30.5652 97.8345 30.6968 97.8345 30.8358C97.8345 30.9748 97.8072 31.1039 97.7526 31.223C97.6979 31.3421 97.6235 31.4464 97.5292 31.5357C97.4348 31.6251 97.3232 31.6971 97.1941 31.7517C97.065 31.8013 96.9285 31.8261 96.7845 31.8261C96.6406 31.8261 96.5041 31.8013 96.375 31.7517C96.2459 31.6971 96.1342 31.6251 96.0399 31.5357C95.9456 31.4464 95.8711 31.3421 95.8165 31.223C95.7619 31.1039 95.7346 30.9748 95.7346 30.8358ZM102.719 40.3075H104.015V40.8659C103.93 40.9106 103.814 40.9528 103.665 40.9925C103.521 41.0322 103.36 41.067 103.181 41.0968C103.002 41.1266 102.816 41.1489 102.622 41.1638C102.429 41.1787 102.243 41.1861 102.064 41.1861C101.91 41.1861 101.769 41.1762 101.64 41.1563C101.51 41.1414 101.399 41.1067 101.304 41.0521C101.21 41.0025 101.136 40.933 101.081 40.8436C101.026 40.7493 100.999 40.6252 100.999 40.4713V30.4858H99.6811V29.9199C99.7854 29.8752 99.9318 29.833 100.12 29.7933C100.314 29.7536 100.523 29.7213 100.746 29.6965C100.969 29.6717 101.198 29.6518 101.431 29.6369C101.669 29.622 101.885 29.6146 102.079 29.6146C102.183 29.6146 102.275 29.6171 102.354 29.622C102.434 29.627 102.501 29.6419 102.555 29.6667C102.61 29.6915 102.65 29.7313 102.675 29.7859C102.704 29.8355 102.719 29.91 102.719 30.0092V40.3075ZM110.977 36.7035C111.007 36.6042 111.027 36.5049 111.037 36.4056C111.047 36.3063 111.052 36.2021 111.052 36.0929C111.052 35.8496 111.009 35.6064 110.925 35.3631C110.846 35.1149 110.726 34.8915 110.568 34.693C110.414 34.4944 110.22 34.3331 109.987 34.209C109.758 34.0848 109.495 34.0228 109.198 34.0228C108.815 34.0228 108.495 34.0973 108.237 34.2462C107.984 34.3901 107.775 34.5862 107.611 34.8344C107.453 35.0777 107.336 35.3631 107.261 35.6908C107.187 36.0134 107.14 36.351 107.12 36.7035H110.977ZM105.385 37.2396C105.385 36.6489 105.479 36.1078 105.668 35.6163C105.862 35.1199 106.137 34.693 106.494 34.3355C106.857 33.9781 107.299 33.7001 107.82 33.5016C108.341 33.298 108.932 33.1963 109.592 33.1963C110.089 33.1963 110.533 33.2757 110.925 33.4345C111.317 33.5934 111.65 33.8069 111.923 34.0749C112.196 34.343 112.404 34.6532 112.548 35.0057C112.692 35.3582 112.764 35.7255 112.764 36.1078C112.764 36.2865 112.749 36.4652 112.72 36.6439C112.69 36.8226 112.633 36.9839 112.548 37.1279C112.464 37.2719 112.345 37.391 112.191 37.4853C112.037 37.5747 111.836 37.6194 111.588 37.6194H107.135C107.185 38.0661 107.301 38.4608 107.485 38.8033C107.669 39.1458 107.904 39.4362 108.192 39.6745C108.48 39.9078 108.813 40.0841 109.19 40.2032C109.567 40.3224 109.974 40.3819 110.411 40.3819C110.709 40.3819 111.017 40.3571 111.335 40.3075C111.652 40.2529 111.98 40.1709 112.317 40.0617L112.563 40.5606C112.36 40.6996 112.141 40.8188 111.908 40.9181C111.675 41.0173 111.434 41.0968 111.186 41.1563C110.937 41.2209 110.684 41.268 110.426 41.2978C110.168 41.3276 109.915 41.3425 109.667 41.3425C109.121 41.3425 108.589 41.2556 108.073 41.0819C107.562 40.9131 107.105 40.6574 106.703 40.3149C106.306 39.9724 105.986 39.5455 105.742 39.0341C105.504 38.5228 105.385 37.9247 105.385 37.2396ZM114.112 33.6281C114.216 33.5835 114.363 33.5413 114.551 33.5016C114.74 33.4618 114.946 33.4296 115.169 33.4048C115.398 33.3799 115.629 33.3601 115.862 33.3452C116.1 33.3303 116.316 33.3228 116.51 33.3228C116.614 33.3228 116.706 33.3253 116.785 33.3303C116.865 33.3353 116.932 33.3501 116.986 33.375C117.041 33.3998 117.081 33.4395 117.105 33.4941C117.135 33.5438 117.15 33.6182 117.15 33.7175V35.5046L118.096 34.1568C118.334 33.8292 118.597 33.5884 118.885 33.4345C119.178 33.2757 119.508 33.1963 119.875 33.1963C119.94 33.1963 120.022 33.2012 120.121 33.2112C120.225 33.2161 120.325 33.2335 120.419 33.2633C120.518 33.2931 120.603 33.3353 120.672 33.3899C120.742 33.4445 120.776 33.5189 120.776 33.6133C120.776 33.6381 120.776 33.6579 120.776 33.6728C120.776 33.6877 120.772 33.7076 120.762 33.7324L120.441 34.7823C120.253 34.7227 120.081 34.6806 119.928 34.6557C119.779 34.6309 119.64 34.6185 119.511 34.6185C119.243 34.6185 118.987 34.6954 118.744 34.8493C118.5 34.9983 118.277 35.177 118.073 35.3855C117.87 35.589 117.689 35.7975 117.53 36.011C117.376 36.2195 117.249 36.3808 117.15 36.495V38.8108C117.15 39.1185 117.158 39.3891 117.172 39.6224C117.187 39.8557 117.205 40.0593 117.225 40.233C117.249 40.4067 117.274 40.5532 117.299 40.6723C117.324 40.7865 117.344 40.8783 117.359 40.9478C117.289 40.9876 117.21 41.0223 117.12 41.0521C117.036 41.0769 116.944 41.0993 116.845 41.1191C116.751 41.1439 116.654 41.1613 116.554 41.1712C116.46 41.1812 116.373 41.1861 116.294 41.1861C116.165 41.1861 116.048 41.1737 115.944 41.1489C115.84 41.129 115.748 41.0918 115.668 41.0372C115.589 40.9826 115.527 40.9106 115.482 40.8213C115.442 40.7269 115.423 40.6103 115.423 40.4713V34.1866H114.112V33.6281ZM128.856 35.8248C128.955 35.8595 129.072 35.8869 129.206 35.9067C129.32 35.9315 129.461 35.9514 129.63 35.9663C129.799 35.9812 129.995 35.9886 130.218 35.9886C130.73 35.9886 131.147 35.9266 131.469 35.8025C131.792 35.6734 132.045 35.5046 132.229 35.2961C132.418 35.0876 132.547 34.8493 132.616 34.5813C132.686 34.3132 132.72 34.0352 132.72 33.7473C132.72 33.4296 132.693 33.1292 132.638 32.8463C132.584 32.5584 132.465 32.3052 132.281 32.0868C132.102 31.8683 131.837 31.6946 131.484 31.5655C131.137 31.4365 130.668 31.3719 130.077 31.3719C129.893 31.3719 129.695 31.3769 129.481 31.3868C129.273 31.3967 129.064 31.4166 128.856 31.4464V35.8248ZM134.671 39.8756L135.878 39.0863L136.242 39.5852C136.128 39.744 135.987 39.9178 135.818 40.1064C135.649 40.2901 135.463 40.4614 135.26 40.6202C135.056 40.7791 134.843 40.9131 134.619 41.0223C134.401 41.1315 134.185 41.1861 133.971 41.1861C133.827 41.1861 133.681 41.1489 133.532 41.0744C133.388 41.0049 133.254 40.8709 133.13 40.6723L130.814 36.9492C130.755 36.9492 130.658 36.9492 130.524 36.9492C130.395 36.9492 130.243 36.9467 130.069 36.9417C129.896 36.9368 129.705 36.9293 129.496 36.9194C129.288 36.9095 129.074 36.8946 128.856 36.8747V38.7065C128.856 39.0242 128.866 39.3047 128.885 39.5479C128.91 39.7912 128.938 40.0046 128.967 40.1883C129.002 40.367 129.034 40.5184 129.064 40.6425C129.094 40.7617 129.116 40.8585 129.131 40.933C129.057 40.9727 128.972 41.0099 128.878 41.0446C128.789 41.0744 128.692 41.0993 128.588 41.1191C128.488 41.1439 128.389 41.1613 128.29 41.1712C128.19 41.1812 128.096 41.1861 128.007 41.1861C127.878 41.1861 127.756 41.1737 127.642 41.1489C127.533 41.1241 127.438 41.0844 127.359 41.0298C127.28 40.9702 127.218 40.8932 127.173 40.7989C127.128 40.7046 127.106 40.5855 127.106 40.4415V31.5208L125.669 31.6102V30.9549C125.733 30.9351 125.813 30.9078 125.907 30.873C126.001 30.8333 126.125 30.7936 126.279 30.7539C126.433 30.7092 126.622 30.667 126.845 30.6273C127.074 30.5826 127.349 30.5429 127.672 30.5081C127.999 30.4734 128.384 30.4461 128.826 30.4262C129.268 30.4014 129.782 30.389 130.367 30.389C130.933 30.389 131.464 30.4387 131.961 30.5379C132.462 30.6323 132.902 30.806 133.279 31.0592C133.656 31.3074 133.954 31.6499 134.172 32.0868C134.391 32.5186 134.5 33.0722 134.5 33.7473C134.5 34.477 134.331 35.0901 133.994 35.5865C133.656 36.0829 133.165 36.4453 132.519 36.6737L134.671 39.8756ZM142.803 36.7035C142.832 36.6042 142.852 36.5049 142.862 36.4056C142.872 36.3063 142.877 36.2021 142.877 36.0929C142.877 35.8496 142.835 35.6064 142.75 35.3631C142.671 35.1149 142.552 34.8915 142.393 34.693C142.239 34.4944 142.046 34.3331 141.812 34.209C141.584 34.0848 141.321 34.0228 141.023 34.0228C140.641 34.0228 140.321 34.0973 140.062 34.2462C139.809 34.3901 139.601 34.5862 139.437 34.8344C139.278 35.0777 139.161 35.3631 139.087 35.6908C139.012 36.0134 138.965 36.351 138.945 36.7035H142.803ZM137.21 37.2396C137.21 36.6489 137.305 36.1078 137.493 35.6163C137.687 35.1199 137.963 34.693 138.32 34.3355C138.682 33.9781 139.124 33.7001 139.645 33.5016C140.167 33.298 140.757 33.1963 141.418 33.1963C141.914 33.1963 142.358 33.2757 142.75 33.4345C143.143 33.5934 143.475 33.8069 143.748 34.0749C144.021 34.343 144.23 34.6532 144.374 35.0057C144.518 35.3582 144.59 35.7255 144.59 36.1078C144.59 36.2865 144.575 36.4652 144.545 36.6439C144.515 36.8226 144.458 36.9839 144.374 37.1279C144.289 37.2719 144.17 37.391 144.016 37.4853C143.862 37.5747 143.661 37.6194 143.413 37.6194H138.96C139.01 38.0661 139.127 38.4608 139.31 38.8033C139.494 39.1458 139.73 39.4362 140.018 39.6745C140.306 39.9078 140.638 40.0841 141.015 40.2032C141.393 40.3224 141.8 40.3819 142.237 40.3819C142.535 40.3819 142.842 40.3571 143.16 40.3075C143.478 40.2529 143.805 40.1709 144.143 40.0617L144.389 40.5606C144.185 40.6996 143.967 40.8188 143.733 40.9181C143.5 41.0173 143.259 41.0968 143.011 41.1563C142.763 41.2209 142.51 41.268 142.252 41.2978C141.993 41.3276 141.74 41.3425 141.492 41.3425C140.946 41.3425 140.415 41.2556 139.899 41.0819C139.387 40.9131 138.931 40.6574 138.528 40.3149C138.131 39.9724 137.811 39.5455 137.568 39.0341C137.33 38.5228 137.21 37.9247 137.21 37.2396ZM148.976 39.6522C149.115 39.7316 149.261 39.816 149.415 39.9054C149.574 39.9898 149.738 40.0667 149.906 40.1362C150.075 40.2057 150.249 40.2653 150.428 40.3149C150.611 40.3596 150.797 40.3819 150.986 40.3819C151.334 40.3819 151.634 40.2975 151.887 40.1288C152.14 39.96 152.349 39.7316 152.513 39.4437C152.676 39.1508 152.798 38.8108 152.877 38.4236C152.957 38.0363 152.997 37.6268 152.997 37.1949C152.997 36.7134 152.972 36.2815 152.922 35.8993C152.872 35.5121 152.786 35.1844 152.661 34.9164C152.537 34.6483 152.371 34.4423 152.163 34.2983C151.959 34.1543 151.698 34.0824 151.381 34.0824C151.113 34.0824 150.84 34.1196 150.562 34.1941C150.284 34.2685 150.025 34.3504 149.787 34.4398C149.514 34.544 149.244 34.6632 148.976 34.7972V39.6522ZM149.184 44.4848C149.115 44.5245 149.035 44.5593 148.946 44.5891C148.861 44.6189 148.77 44.6437 148.67 44.6635C148.576 44.6834 148.479 44.6983 148.38 44.7082C148.286 44.7231 148.199 44.7306 148.119 44.7306C147.866 44.7306 147.658 44.6735 147.494 44.5593C147.33 44.4501 147.248 44.2565 147.248 43.9785V34.1717H145.923V33.6133C146.027 33.5686 146.173 33.5264 146.362 33.4867C146.551 33.447 146.759 33.4147 146.987 33.3899C147.216 33.365 147.449 33.3452 147.687 33.3303C147.926 33.3154 148.142 33.308 148.335 33.308C148.439 33.308 148.531 33.3104 148.611 33.3154C148.69 33.3204 148.757 33.3353 148.812 33.3601C148.866 33.3849 148.906 33.4246 148.931 33.4792C148.961 33.5289 148.976 33.6033 148.976 33.7026V34.0526C149.12 33.9483 149.288 33.8441 149.482 33.7398C149.68 33.6356 149.894 33.5438 150.122 33.4643C150.351 33.3849 150.591 33.3204 150.845 33.2707C151.098 33.2211 151.358 33.1963 151.626 33.1963C152.237 33.1963 152.748 33.3129 153.16 33.5462C153.572 33.7796 153.905 34.0873 154.158 34.4696C154.411 34.8469 154.59 35.2763 154.694 35.7578C154.804 36.2343 154.858 36.7184 154.858 37.2098C154.858 37.5424 154.826 37.875 154.761 38.2076C154.702 38.5402 154.607 38.8579 154.478 39.1607C154.354 39.4636 154.195 39.744 154.002 40.0022C153.813 40.2603 153.59 40.4837 153.332 40.6723C153.078 40.861 152.791 41.0099 152.468 41.1191C152.15 41.2283 151.798 41.2829 151.411 41.2829C151.058 41.2829 150.733 41.2457 150.435 41.1712C150.137 41.0968 149.879 41.0149 149.661 40.9255C149.447 40.8312 149.278 40.7468 149.154 40.6723C149.035 40.5929 148.976 40.5507 148.976 40.5457V42.3477C148.976 42.6555 148.983 42.9261 148.998 43.1594C149.013 43.3927 149.03 43.5962 149.05 43.77C149.075 43.9437 149.1 44.0877 149.124 44.2019C149.149 44.321 149.169 44.4153 149.184 44.4848ZM161.545 40.3968C161.545 40.3968 161.51 40.4192 161.441 40.4638C161.376 40.5036 161.284 40.5557 161.165 40.6202C161.051 40.6847 160.914 40.7567 160.756 40.8362C160.602 40.9106 160.43 40.9826 160.242 41.0521C160.058 41.1166 159.865 41.1712 159.661 41.2159C159.462 41.2606 159.261 41.2829 159.058 41.2829C158.735 41.2829 158.427 41.2383 158.135 41.1489C157.842 41.0645 157.583 40.9305 157.36 40.7468C157.142 40.5631 156.965 40.3323 156.831 40.0543C156.702 39.7763 156.638 39.4437 156.638 39.0565C156.638 38.6296 156.732 38.2672 156.921 37.9693C157.114 37.6715 157.38 37.4307 157.718 37.247C158.06 37.0584 158.467 36.9244 158.939 36.8449C159.41 36.7605 159.929 36.7184 160.495 36.7184H161.545V36.1599C161.545 35.872 161.532 35.5964 161.508 35.3333C161.488 35.0653 161.436 34.832 161.351 34.6334C161.272 34.4348 161.153 34.276 160.994 34.1568C160.84 34.0377 160.631 33.9781 160.368 33.9781C160.115 33.9781 159.862 34.0253 159.609 34.1196C159.356 34.209 159.107 34.3231 158.864 34.4621C158.621 34.6011 158.388 34.755 158.164 34.9238C157.941 35.0876 157.737 35.244 157.554 35.3929L156.943 34.5738C156.869 34.4845 156.831 34.3926 156.831 34.2983C156.831 34.1345 156.933 33.9856 157.137 33.8515C157.345 33.7175 157.603 33.6033 157.911 33.509C158.224 33.4097 158.559 33.3328 158.916 33.2782C159.274 33.2236 159.606 33.1963 159.914 33.1963C160.371 33.1963 160.803 33.2509 161.21 33.3601C161.617 33.4693 161.972 33.643 162.275 33.8813C162.582 34.1146 162.826 34.4199 163.004 34.7972C163.183 35.1695 163.272 35.6237 163.272 36.1599V40.3075H164.568V40.8659C164.484 40.9106 164.367 40.9528 164.218 40.9925C164.074 41.0322 163.913 41.067 163.734 41.0968C163.555 41.1266 163.367 41.1489 163.168 41.1638C162.975 41.1787 162.788 41.1861 162.61 41.1861C162.491 41.1861 162.369 41.1787 162.245 41.1638C162.121 41.1489 162.007 41.1141 161.902 41.0595C161.803 41.0099 161.719 40.9404 161.649 40.851C161.585 40.7567 161.55 40.6301 161.545 40.4713V40.3968ZM159.579 40.1809C159.753 40.1809 159.951 40.1585 160.175 40.1139C160.403 40.0642 160.619 40.0121 160.823 39.9575C161.061 39.893 161.302 39.816 161.545 39.7267V37.6342H160.294C160.105 37.6342 159.897 37.6516 159.668 37.6864C159.445 37.7211 159.234 37.7881 159.036 37.8874C158.842 37.9817 158.678 38.1158 158.544 38.2895C158.41 38.4633 158.343 38.6916 158.343 38.9746C158.343 39.1533 158.37 39.3171 158.425 39.466C158.48 39.61 158.559 39.7366 158.663 39.8458C158.767 39.95 158.897 40.032 159.05 40.0915C159.204 40.1511 159.381 40.1809 159.579 40.1809ZM168.351 40.3075H169.646V40.8659C169.562 40.9106 169.445 40.9528 169.296 40.9925C169.153 41.0322 168.991 41.067 168.812 41.0968C168.634 41.1266 168.448 41.1489 168.254 41.1638C168.06 41.1787 167.874 41.1861 167.696 41.1861C167.542 41.1861 167.4 41.1762 167.271 41.1563C167.142 41.1414 167.028 41.1067 166.929 41.0521C166.834 41.0025 166.76 40.933 166.705 40.8436C166.651 40.7493 166.623 40.6252 166.623 40.4713V34.1568H165.313V33.5984C165.417 33.5537 165.563 33.5115 165.752 33.4718C165.941 33.4321 166.147 33.3998 166.37 33.375C166.598 33.3501 166.829 33.3303 167.063 33.3154C167.301 33.3005 167.517 33.2931 167.71 33.2931C167.815 33.2931 167.907 33.2955 167.986 33.3005C168.065 33.3055 168.132 33.3204 168.187 33.3452C168.242 33.37 168.281 33.4097 168.306 33.4643C168.336 33.514 168.351 33.5884 168.351 33.6877V40.3075ZM166.445 30.8358C166.445 30.6968 166.472 30.5652 166.526 30.4411C166.581 30.317 166.656 30.2103 166.75 30.1209C166.844 30.0316 166.956 29.9621 167.085 29.9124C167.214 29.8578 167.351 29.8305 167.494 29.8305C167.638 29.8305 167.775 29.8578 167.904 29.9124C168.033 29.9621 168.145 30.0316 168.239 30.1209C168.333 30.2103 168.408 30.317 168.463 30.4411C168.517 30.5652 168.544 30.6968 168.544 30.8358C168.544 30.9748 168.517 31.1039 168.463 31.223C168.408 31.3421 168.333 31.4464 168.239 31.5357C168.145 31.6251 168.033 31.6971 167.904 31.7517C167.775 31.8013 167.638 31.8261 167.494 31.8261C167.351 31.8261 167.214 31.8013 167.085 31.7517C166.956 31.6971 166.844 31.6251 166.75 31.5357C166.656 31.4464 166.581 31.3421 166.526 31.223C166.472 31.1039 166.445 30.9748 166.445 30.8358ZM170.644 33.6281C170.749 33.5835 170.895 33.5413 171.084 33.5016C171.272 33.4618 171.478 33.4296 171.702 33.4048C171.93 33.3799 172.161 33.3601 172.394 33.3452C172.632 33.3303 172.848 33.3228 173.042 33.3228C173.146 33.3228 173.238 33.3253 173.317 33.3303C173.397 33.3353 173.464 33.3501 173.519 33.375C173.573 33.3998 173.613 33.4395 173.638 33.4941C173.667 33.5438 173.682 33.6182 173.682 33.7175V35.5046L174.628 34.1568C174.866 33.8292 175.129 33.5884 175.417 33.4345C175.71 33.2757 176.04 33.1963 176.408 33.1963C176.472 33.1963 176.554 33.2012 176.653 33.2112C176.758 33.2161 176.857 33.2335 176.951 33.2633C177.051 33.2931 177.135 33.3353 177.204 33.3899C177.274 33.4445 177.309 33.5189 177.309 33.6133C177.309 33.6381 177.309 33.6579 177.309 33.6728C177.309 33.6877 177.304 33.7076 177.294 33.7324L176.974 34.7823C176.785 34.7227 176.614 34.6806 176.46 34.6557C176.311 34.6309 176.172 34.6185 176.043 34.6185C175.775 34.6185 175.519 34.6954 175.276 34.8493C175.033 34.9983 174.809 35.177 174.606 35.3855C174.402 35.589 174.221 35.7975 174.062 36.011C173.908 36.2195 173.782 36.3808 173.682 36.495V38.8108C173.682 39.1185 173.69 39.3891 173.705 39.6224C173.72 39.8557 173.737 40.0593 173.757 40.233C173.782 40.4067 173.806 40.5532 173.831 40.6723C173.856 40.7865 173.876 40.8783 173.891 40.9478C173.821 40.9876 173.742 41.0223 173.653 41.0521C173.568 41.0769 173.476 41.0993 173.377 41.1191C173.283 41.1439 173.186 41.1613 173.087 41.1712C172.992 41.1812 172.905 41.1861 172.826 41.1861C172.697 41.1861 172.58 41.1737 172.476 41.1489C172.372 41.129 172.28 41.0918 172.201 41.0372C172.121 40.9826 172.059 40.9106 172.014 40.8213C171.975 40.7269 171.955 40.6103 171.955 40.4713V34.1866H170.644V33.6281Z" fill="white"/>
<path d="M232.537 44.4792C229.561 44.4792 227.14 42.0056 227.14 38.9641C227.14 35.9226 229.561 33.4484 232.537 33.4484C235.513 33.4484 237.934 35.9226 237.934 38.9641C237.934 42.0056 235.513 44.4792 232.537 44.4792ZM232.537 35.5264C230.683 35.5264 229.173 37.069 229.173 38.9641C229.173 40.8593 230.683 42.4011 232.537 42.4011C234.392 42.4011 235.9 40.8593 235.9 38.9641C235.9 37.069 234.392 35.5264 232.537 35.5264Z" fill="#5394DE"/>
<path d="M192.362 44.4792C189.385 44.4792 186.964 42.0056 186.964 38.9641C186.964 35.9226 189.385 33.4484 192.362 33.4484C195.338 33.4484 197.758 35.9226 197.758 38.9641C197.758 42.0056 195.338 44.4792 192.362 44.4792ZM192.362 35.5264C190.507 35.5264 188.998 37.069 188.998 38.9641C188.998 40.8593 190.507 42.4011 192.362 42.4011C194.216 42.4011 195.725 40.8593 195.725 38.9641C195.725 37.069 194.216 35.5264 192.362 35.5264Z" fill="#5394DE"/>
<path d="M232.539 40.6924C232.43 40.6924 232.315 40.6854 232.207 40.6577C232.098 40.6369 231.991 40.6023 231.888 40.5601C231.787 40.5185 231.692 40.4631 231.597 40.4014C231.501 40.3391 231.42 40.2698 231.339 40.1867C231.258 40.1105 231.189 40.0205 231.128 39.9228C231.067 39.8327 231.013 39.7295 230.973 39.6249C230.932 39.521 230.899 39.4102 230.878 39.2994C230.851 39.1886 230.844 39.0777 230.844 38.96C230.844 38.8492 230.851 38.7383 230.878 38.6282C230.898 38.5174 230.932 38.4065 230.973 38.3019C231.014 38.1987 231.068 38.0941 231.128 38.0041C231.189 37.9071 231.257 37.8164 231.339 37.7409C231.97 37.096 233.101 37.0898 233.731 37.7409C233.812 37.8164 233.887 37.9071 233.948 38.0041C234.009 38.0941 234.056 38.198 234.103 38.3019C234.145 38.4058 234.178 38.5174 234.199 38.6282C234.218 38.7383 234.233 38.8492 234.233 38.96C234.233 39.0777 234.218 39.1886 234.199 39.2994C234.178 39.4102 234.145 39.5204 234.103 39.6249C234.056 39.7288 234.008 39.8327 233.948 39.9228C233.887 40.0205 233.812 40.1105 233.731 40.1867C233.657 40.2691 233.568 40.3391 233.48 40.4014C233.385 40.4638 233.284 40.5192 233.183 40.5601C233.081 40.6023 232.979 40.6362 232.871 40.6577C232.756 40.6854 232.647 40.6924 232.539 40.6924Z" fill="#5394DE"/>
<path d="M192.36 40.6993C192.252 40.6993 192.136 40.6854 192.028 40.6646C191.919 40.6369 191.818 40.6092 191.716 40.5607C191.614 40.5192 191.513 40.4638 191.418 40.4021C191.33 40.3398 191.242 40.2705 191.167 40.1874C191.086 40.1112 191.018 40.0211 190.95 39.9235C190.889 39.8334 190.842 39.7302 190.794 39.6256C190.754 39.5217 190.72 39.4109 190.699 39.3001C190.679 39.1892 190.666 39.0784 190.666 38.9676C190.666 38.8498 190.679 38.739 190.699 38.6289C190.72 38.518 190.754 38.4072 190.794 38.3026C190.842 38.1994 190.889 38.0948 190.95 38.0048C191.011 37.9078 191.086 37.8171 191.16 37.7416C191.553 37.3398 192.143 37.1521 192.692 37.2636C192.801 37.2913 192.909 37.319 193.011 37.3675C193.112 37.4091 193.207 37.4645 193.302 37.5261C193.397 37.5892 193.478 37.6577 193.56 37.7416C193.641 37.8171 193.709 37.9078 193.77 38.0048C193.831 38.0948 193.885 38.1987 193.926 38.3026C193.966 38.4065 194 38.518 194.021 38.6289C194.041 38.739 194.054 38.8498 194.054 38.9676C194.054 39.4178 193.871 39.8681 193.56 40.1874C193.478 40.2698 193.397 40.3398 193.302 40.4021C193.207 40.4645 193.112 40.5199 193.011 40.5607C192.909 40.6092 192.801 40.6369 192.692 40.6646C192.584 40.6854 192.468 40.6993 192.36 40.6993Z" fill="#5394DE"/>
<path d="M205.699 44.4792C202.723 44.4792 200.302 42.0056 200.302 38.9641C200.302 35.9226 202.723 33.4484 205.699 33.4484C208.674 33.4484 211.096 35.9226 211.096 38.9641C211.096 42.0056 208.675 44.4792 205.699 44.4792ZM205.699 35.5264C203.844 35.5264 202.336 37.069 202.336 38.9641C202.336 40.8593 203.844 42.4011 205.699 42.4011C207.553 42.4011 209.063 40.8593 209.063 38.9641C209.063 37.069 207.554 35.5264 205.699 35.5264Z" fill="#5394DE"/>
<path d="M205.699 40.6992C205.59 40.6992 205.475 40.6854 205.367 40.6646C205.258 40.6369 205.15 40.6092 205.048 40.5607C204.947 40.5192 204.852 40.4637 204.757 40.4021C204.669 40.3398 204.581 40.2705 204.499 40.1874C204.187 39.868 204.004 39.4185 204.004 38.9676C204.004 38.8498 204.018 38.739 204.038 38.6289C204.059 38.518 204.093 38.4072 204.133 38.3026C204.174 38.1994 204.228 38.0948 204.289 38.0048C204.35 37.9078 204.425 37.817 204.499 37.7415C204.581 37.6584 204.669 37.5892 204.757 37.5261C204.852 37.4638 204.947 37.4084 205.048 37.3675C205.15 37.319 205.258 37.2913 205.367 37.2636C205.916 37.1528 206.505 37.3398 206.899 37.7415C206.973 37.817 207.048 37.9078 207.109 38.0048C207.17 38.0948 207.224 38.1987 207.265 38.3026C207.305 38.4065 207.339 38.518 207.359 38.6289C207.38 38.739 207.393 38.8498 207.393 38.9676C207.393 39.0784 207.38 39.1892 207.359 39.3001C207.339 39.4109 207.305 39.521 207.265 39.6256C207.224 39.7302 207.17 39.8334 207.109 39.9235C207.048 40.0211 206.973 40.1112 206.899 40.1874C206.817 40.2698 206.729 40.3398 206.641 40.4021C206.546 40.4644 206.451 40.5198 206.35 40.5607C206.248 40.6092 206.139 40.6369 206.031 40.6646C205.923 40.6854 205.807 40.6992 205.699 40.6992Z" fill="#5394DE"/>
<path d="M199.03 39.9934C199.029 39.9968 199.029 39.9995 199.029 40.0028H199.031C199.031 39.9995 199.031 39.9961 199.03 39.9934Z" fill="#5394DE"/>
<path d="M235.003 12.4009H229.904L219.697 9.56716C219.392 9.48335 219.065 9.54777 218.812 9.74448C218.561 9.9412 218.413 10.246 218.413 10.5695V30.6057H185.607C184.169 30.6064 183 31.8019 183 33.2704V36.1297C183 37.1694 183.396 38.1468 184.117 38.881C184.556 39.3292 185.09 39.6367 185.666 39.821C185.632 39.5397 185.609 39.255 185.609 38.9641C185.609 35.1593 188.638 32.063 192.361 32.063C195.742 32.063 198.541 34.6176 199.03 37.9348C199.519 34.6176 202.319 32.063 205.699 32.063C209.422 32.063 212.451 35.1593 212.451 38.9641C212.451 39.3181 212.417 39.663 212.367 40.0031H225.869C225.819 39.663 225.785 39.3181 225.785 38.9641C225.785 35.1593 228.814 32.063 232.537 32.063C236.26 32.063 239.289 35.1593 239.289 38.9641C239.289 39.3215 239.254 39.6706 239.203 40.0135L240.619 40.0198C242.483 40.0198 244 38.4696 244 36.564V28.4667C244 22.0089 241.604 12.4009 235.003 12.4009ZM230.784 24.8676V14.4789H235.003C238.867 14.4789 241.02 19.773 241.715 24.8676H230.784Z" fill="#5394DE"/>
<path d="M22.1071 23.2597C19.7281 24.1061 18.0983 24.5292 17.2176 24.5292C16.8402 24.5292 16.2511 24.1175 15.4505 23.294C14.6613 22.4819 13.7463 21.4526 12.7055 20.2059C12.2251 20.2974 11.7905 20.3431 11.4016 20.3431C10.0291 20.3431 8.81676 20.0572 7.76451 19.4853C6.7237 18.902 5.91164 18.0957 5.32833 17.0663C4.75645 16.0369 4.47051 14.8703 4.47051 13.5664C4.47051 12.2282 4.89942 10.993 5.75723 9.86066C6.62648 8.71691 7.70161 7.81906 8.98261 7.16713C10.2636 6.50375 11.476 6.17206 12.6197 6.17206C13.9922 6.17206 15.2046 6.46372 16.2569 7.04703C17.3091 7.63034 18.1212 8.43669 18.693 9.46606C19.2649 10.4954 19.5509 11.6621 19.5509 12.9659C19.5509 14.2927 19.1277 15.5165 18.2813 16.6374C17.4349 17.7583 16.3712 18.6561 15.0902 19.3309C16.0052 19.9714 16.8573 20.5433 17.6465 21.0465C18.4471 21.5498 18.9332 21.8014 19.1048 21.8014H21.4209L22.1071 23.2597ZM8.50223 12.7429C8.50223 13.7151 8.6452 14.6015 8.93114 15.4021C9.21708 16.2028 9.6517 16.8433 10.235 17.3236C10.8298 17.804 11.5503 18.0442 12.3967 18.0442C12.9686 18.0442 13.489 17.8612 13.9579 17.4952C14.4383 17.1178 14.8157 16.6031 15.0902 15.9511C15.3762 15.2992 15.5191 14.5729 15.5191 13.7723C15.5191 12.7887 15.3762 11.8965 15.0902 11.0959C14.8043 10.2953 14.3697 9.6605 13.7864 9.19156C13.203 8.71119 12.4825 8.471 11.6247 8.471C11.0528 8.471 10.5267 8.65972 10.0463 9.03716C9.57736 9.40316 9.19992 9.91213 8.91398 10.5641C8.63948 11.216 8.50223 11.9423 8.50223 12.7429ZM34.0053 9.00284V14.6816C34.0053 15.8825 33.6965 16.9119 33.0788 17.7697C32.4726 18.6275 31.7178 19.2737 30.8142 19.7083C29.9106 20.1315 29.03 20.3431 28.1721 20.3431C27.017 20.3431 25.9819 20.1201 25.0669 19.674C24.1633 19.2165 23.4542 18.5932 22.9395 17.804C22.4362 17.0034 22.1846 16.1055 22.1846 15.1105V8.35091L20.2288 7.88769L20.915 6.51519H27.503V7.73328L25.8732 9.00284V14.6301C25.8732 15.7052 26.1591 16.5459 26.731 17.1521C27.3029 17.7468 28.1721 18.0442 29.3388 18.0442C29.7848 18.0442 30.2252 17.9184 30.6598 17.6668C31.1059 17.4037 31.4719 17.0263 31.7578 16.5344C32.0552 16.0426 32.2039 15.465 32.2039 14.8017V8.60825L30.0765 7.88769L30.7627 6.51519H35.6351V7.73328L34.0053 9.00284ZM43.0884 20H36.5004V18.7819L38.1131 17.3751V8.41953L36.1573 7.90484L36.8435 6.53234H43.4315V7.75044L41.8017 9.17441V18.1128L43.7747 18.6275L43.0884 20ZM53.0455 6.17206C53.7546 6.17206 54.5781 6.25784 55.516 6.42941C56.4539 6.60097 57.1401 6.78397 57.5747 6.97841V10.8214H55.3787C54.9555 10.0093 54.458 9.41459 53.8861 9.03716C53.3257 8.65972 52.7138 8.471 52.0504 8.471C51.49 8.471 50.9753 8.65972 50.5064 9.03716C50.0489 9.40316 49.6829 9.91213 49.4084 10.5641C49.1453 11.216 49.0138 11.9423 49.0138 12.7429C49.0138 13.6465 49.151 14.4757 49.4255 15.2306C49.7 15.974 50.1175 16.5688 50.6779 17.0148C51.2384 17.4609 51.9303 17.6839 52.7538 17.6839C53.8404 17.6839 55.373 17.2035 57.3517 16.2428L58.1409 17.5123L54.9841 19.9657C54.4351 20.1258 53.909 20.2287 53.4058 20.2745C52.914 20.3202 52.3764 20.3431 51.7931 20.3431C50.4549 20.3431 49.2711 20.0515 48.2417 19.4682C47.2124 18.8848 46.4117 18.0842 45.8399 17.0663C45.268 16.0369 44.982 14.8703 44.982 13.5664C44.982 12.2282 45.4052 10.993 46.2516 9.86066C47.1094 8.71691 48.1674 7.81906 49.4255 7.16713C50.6951 6.50375 51.9017 6.17206 53.0455 6.17206ZM66.6106 18.6103L65.9243 19.9828H59.3363V18.7648L60.949 17.3579V8.40238L58.9932 7.88769L59.6795 6.51519H66.2675V7.73328L64.6376 9.15725V18.0957L66.6106 18.6103ZM73.7133 19.9828H69.7502L65.118 13.2233L69.8874 9.00284L67.8801 7.87053L68.5664 6.49803H74.0392V7.71613L68.7723 12.3655L72.581 17.7868L74.3995 18.6103L73.7133 19.9828ZM92.4991 10.8386L91.2982 11.3533L89.0507 8.14503H85.3792V12.2968H87.0434L88.2958 10.5298H89.5139V15.7453L88.1414 16.4315L86.9576 13.9267H85.3792V18.027L88.5532 18.6275L87.8669 20H80.078V18.7819L81.6907 17.5123V8.41953L79.7348 7.88769L80.4211 6.51519H91.0751L92.4991 6.20638V10.8386ZM100.12 20H93.5315V18.7819L95.1442 17.3751V8.41953L93.1884 7.90484L93.8747 6.53234H100.463V7.75044L98.8328 9.17441V18.1128L100.806 18.6275L100.12 20ZM115.772 20H109.356V18.7819L110.694 17.9584L108.172 15.0762L105.685 17.5467L107.572 18.6275L106.886 20H101.155V18.7819L103.386 17.2207L106.954 13.7037L102.408 8.60825L101.155 7.88769L101.842 6.51519H108.258V7.73328L106.834 8.45384L109.39 11.3704L111.638 8.98569L109.733 7.88769L110.42 6.51519H116.15V7.73328L114.108 9.15725L110.66 12.7772L115.429 18.13L116.459 18.6275L115.772 20ZM129.89 6.17206C131.125 6.17206 132.217 6.46372 133.167 7.04703C134.116 7.63034 134.848 8.43669 135.363 9.46606C135.889 10.4954 136.152 11.6621 136.152 12.9659C136.152 14.3041 135.757 15.5394 134.968 16.6717C134.179 17.804 133.195 18.7018 132.017 19.3652C130.851 20.0172 129.736 20.3431 128.672 20.3431C127.448 20.3431 126.361 20.0572 125.412 19.4853C124.463 18.902 123.725 18.0957 123.199 17.0663C122.684 16.0369 122.427 14.8703 122.427 13.5664C122.427 12.2282 122.822 10.993 123.611 9.86066C124.4 8.71691 125.378 7.81906 126.544 7.16713C127.711 6.50375 128.826 6.17206 129.89 6.17206ZM128.895 7.71613C128.163 7.71613 127.494 7.93344 126.888 8.36806C126.293 8.80269 125.818 9.40316 125.464 10.1695C125.12 10.9358 124.949 11.7936 124.949 12.7429C124.949 13.8523 125.12 14.8646 125.464 15.7796C125.807 16.6946 126.333 17.4266 127.042 17.9756C127.751 18.5246 128.626 18.7991 129.667 18.7991C130.399 18.7991 131.062 18.5818 131.657 18.1471C132.263 17.7125 132.738 17.112 133.081 16.3457C133.436 15.5794 133.613 14.7216 133.613 13.7723C133.613 12.6514 133.441 11.6335 133.098 10.7185C132.755 9.80347 132.229 9.07719 131.52 8.53963C130.811 7.99063 129.936 7.71613 128.895 7.71613ZM150.127 8.41953V20H149.08L140.948 9.92928V18.3358L142.87 19.228L142.492 20H138.289V19.3824L139.902 18.1128V8.26513L138.083 7.28722L138.478 6.51519H141.154L149.08 16.3457V8.17934L147.159 7.28722L147.553 6.51519H151.757V7.13281L150.127 8.41953ZM153.677 14.836L154.363 13.961H159.87V14.5615L159.184 15.4364H153.677V14.836ZM169.661 16.9977C169.661 16.6431 169.518 16.3114 169.232 16.0026C168.946 15.6938 168.592 15.4136 168.168 15.1619C167.745 14.8989 167.173 14.5786 166.453 14.2012C165.595 13.7551 164.897 13.3663 164.36 13.0346C163.834 12.7029 163.382 12.314 163.004 11.8679C162.638 11.4104 162.455 10.9072 162.455 10.3582C162.455 9.78631 162.696 9.17441 163.176 8.52247C163.668 7.85909 164.268 7.30438 164.977 6.85831C165.687 6.40081 166.338 6.17206 166.933 6.17206C167.654 6.17206 168.489 6.25784 169.438 6.42941C170.399 6.60097 171.102 6.78397 171.548 6.97841V10.3925H170.708C170.17 9.46606 169.575 8.7455 168.923 8.23081C168.271 7.71613 167.585 7.45878 166.865 7.45878C166.247 7.45878 165.761 7.65322 165.406 8.04209C165.052 8.41953 164.874 8.91134 164.874 9.51753C164.874 9.89497 165.017 10.2495 165.303 10.5812C165.601 10.9015 165.967 11.1931 166.401 11.4562C166.836 11.7193 167.419 12.0395 168.151 12.4169C169.021 12.8744 169.707 13.2633 170.21 13.5836C170.725 13.9038 171.159 14.2813 171.514 14.7159C171.88 15.1505 172.063 15.6366 172.063 16.1742C172.063 16.746 171.8 17.3637 171.274 18.027C170.759 18.679 170.124 19.2337 169.369 19.6912C168.615 20.1372 167.928 20.3603 167.311 20.3603C166.556 20.3603 165.658 20.2745 164.617 20.1029C163.576 19.9314 162.827 19.7484 162.37 19.5539V16.1398H163.21C163.782 17.0663 164.428 17.7868 165.149 18.3015C165.881 18.8162 166.63 19.0736 167.396 19.0736C167.854 19.0736 168.254 18.9763 168.597 18.7819C168.94 18.5875 169.204 18.3358 169.387 18.027C169.57 17.7068 169.661 17.3637 169.661 16.9977ZM179.564 19.9828H174.177V19.3652L175.789 18.0957V7.87053L173.971 7.28722L174.365 6.51519H179.752V7.13281L178.122 8.41953V18.6275L179.941 19.2108L179.564 19.9828ZM193.948 10.5812L193.347 10.7871L191.031 7.39016H189.041V18.6447L190.86 19.228L190.482 20H185.095V19.3824L186.708 18.1128V7.39016H184.769L182.453 10.7871L181.853 10.5812V6.20638L182.848 6.51519H192.953L193.948 6.20638V10.5812ZM206.454 20.0172H196.057V19.3995L197.67 18.13V7.88769L195.852 7.28722L196.246 6.51519H206.283L207.278 6.20638V10.2381L206.677 10.444L204.618 7.39016H200.003V12.6743H202.56L203.812 10.5298H204.43V15.6938L203.658 16.0884L202.577 13.5493H200.003V19.125H204.533L206.849 15.7109L207.449 15.934V20.326L206.454 20.0172Z" fill="white"/>
</svg>
