<svg width="29" height="29" viewBox="0 0 29 29" fill="none" xmlns="http://www.w3.org/2000/svg">
<circle cx="14.5" cy="14.5" r="14" fill="#74B1E6" stroke="#3F79D1"/>
<path d="M14.5002 6.90479C12.8183 6.90479 11.2584 7.4216 10.1189 8.43003C8.97939 9.43849 8.28571 10.9331 8.28571 12.77C8.28571 14.6822 9.39749 16.2247 10.6127 17.9401C11.8279 19.6555 13.1896 21.5711 13.9544 24.2649C13.9866 24.3782 14.0576 24.4784 14.1562 24.5498C14.2549 24.6212 14.3757 24.6599 14.5 24.6599C14.6244 24.6599 14.7452 24.6212 14.8439 24.5498C14.9425 24.4784 15.0135 24.3782 15.0457 24.2649C15.8104 21.5711 17.1721 19.6555 18.3873 17.9401C19.6025 16.2246 20.7143 14.6821 20.7143 12.77C20.7143 10.9332 20.0205 9.43853 18.8811 8.43003C17.7416 7.42157 16.1821 6.90479 14.5002 6.90479ZM14.5002 10.4558C14.85 10.4558 15.1963 10.5247 15.5194 10.6586C15.8425 10.7924 16.1361 10.9886 16.3834 11.2359C16.6307 11.4832 16.8269 11.7768 16.9608 12.0999C17.0946 12.423 17.1635 12.7694 17.1635 13.1191C17.1635 13.4689 17.0946 13.8152 16.9608 14.1383C16.8269 14.4614 16.6307 14.755 16.3834 15.0023C16.1361 15.2497 15.8425 15.4458 15.5194 15.5797C15.1963 15.7135 14.85 15.7824 14.5002 15.7824C14.1505 15.7824 13.8041 15.7135 13.481 15.5797C13.1579 15.4458 12.8643 15.2497 12.617 15.0023C12.3697 14.755 12.1735 14.4614 12.0397 14.1383C11.9058 13.8152 11.8369 13.4689 11.8369 13.1191C11.8369 12.7694 11.9058 12.423 12.0397 12.0999C12.1735 11.7768 12.3697 11.4832 12.617 11.2359C12.8643 10.9886 13.1579 10.7924 13.481 10.6586C13.8041 10.5247 14.1505 10.4558 14.5002 10.4558Z" fill="white"/>
</svg>
