<svg width="31" height="30" viewBox="0 0 31 30" fill="none" xmlns="http://www.w3.org/2000/svg">
<path d="M30.0956 3.67665L26.1312 7.64109C26.0678 7.70447 25.9798 7.73968 25.8886 7.73968C25.8006 7.73968 25.7125 7.70447 25.6492 7.64109L22.6565 4.6484C22.5223 4.51461 22.5223 4.29632 22.66 4.16252L26.6206 0.198083C24.8566 -0.308915 22.9378 0.169916 21.6175 1.49022C20.4028 2.70843 19.8852 4.44067 20.2373 6.12714C20.2444 6.14827 20.2444 6.16939 20.2444 6.19404C20.2444 6.19404 20.2444 6.19404 20.2444 6.19756C20.2444 6.21868 20.2444 6.23981 20.2408 6.26093C20.2373 6.26093 20.2373 6.26445 20.2373 6.26445C20.2334 6.28558 20.2268 6.3067 20.2197 6.32431C20.2197 6.32783 20.2197 6.32783 20.2197 6.32783C20.1982 6.38064 20.1634 6.42641 20.1211 6.46162L17.3784 8.9438L21.3534 12.9188L23.8462 10.1655C23.8462 10.162 23.8497 10.162 23.8497 10.162C23.8638 10.1479 23.8743 10.1374 23.8884 10.1268C23.8919 10.1233 23.8986 10.1198 23.9025 10.1162C23.9166 10.1057 23.9268 10.0986 23.9409 10.0916L23.9624 10.081C23.9726 10.0775 23.9866 10.0705 24.0007 10.0669C24.0081 10.0634 24.0148 10.0634 24.0222 10.0599C24.0363 10.0564 24.0504 10.0564 24.0645 10.0529H24.1278C24.1384 10.0529 24.149 10.0564 24.1595 10.0564C24.163 10.0564 24.1669 10.0564 24.1701 10.0599C25.8565 10.412 27.5888 9.89442 28.807 8.67974C30.1273 7.35591 30.6097 5.44058 30.0956 3.67665Z" fill="#5394DE"/>
<path d="M1.42584 23.3791C-0.0810731 24.893 -0.0775524 27.3506 1.43288 28.8645C2.94683 30.3785 5.40788 30.3785 6.92184 28.8645L10.506 24.9036L5.3938 19.7914L1.42584 23.3791ZM6.31978 26.1183C6.31978 27.3013 5.35859 28.2625 4.1756 28.2625C2.99612 28.2625 2.03142 27.3016 2.03142 26.1183C2.03142 24.9388 2.99612 23.9776 4.1756 23.9776C5.35859 23.9776 6.31978 24.9388 6.31978 26.1183Z" fill="#5394DE"/>
<path d="M2.77087 15.7251C3.1476 15.7251 3.49968 15.5811 3.76374 15.3132L12.3616 6.71886C12.6256 6.4548 12.77 6.10272 12.77 5.72599C12.77 5.35279 12.6256 5.0007 12.3616 4.73664C12.094 4.46906 11.7419 4.32471 11.3687 4.32471C10.992 4.32471 10.6399 4.46906 10.3758 4.73664L1.78152 13.331C1.23227 13.8767 1.23227 14.7675 1.778 15.3132C2.04558 15.5808 2.39766 15.7251 2.77087 15.7251Z" fill="#5394DE"/>
<path d="M15.3892 7.92269L12.5126 7.5354L4.84078 15.2108C4.43236 15.6157 4.20703 16.1614 4.20703 16.7392C4.20703 17.3166 4.43236 17.8588 4.84078 18.2672L11.7979 25.2208C12.4176 25.8405 13.4245 25.8405 14.0442 25.2243C14.3435 24.9216 14.5089 24.5237 14.5089 24.0977C14.5089 23.6791 14.347 23.2809 14.0477 22.9816L13.0302 21.9606C12.8964 21.8268 12.8964 21.6085 13.0302 21.4747C13.164 21.3409 13.3823 21.3409 13.5161 21.4747L14.5266 22.4852C14.5266 22.4887 14.5301 22.4887 14.5301 22.4887C14.5336 22.4925 14.5371 22.4961 14.5406 22.4992L15.0652 23.0238C15.6814 23.6435 16.6919 23.6435 17.3115 23.0238C17.9315 22.4042 17.9315 21.3972 17.308 20.7776C17.308 20.774 17.3045 20.7702 17.3045 20.7702L16.3398 19.8058C16.206 19.6717 16.206 19.4537 16.3398 19.3196C16.4771 19.1858 16.6919 19.1858 16.8256 19.3196L18.3748 20.8687C18.6741 21.1715 19.0966 21.3476 19.5293 21.3581C19.9659 21.3655 20.3711 21.2103 20.6665 20.9145C20.9619 20.6188 21.1172 20.2139 21.1101 19.7776C21.0999 19.3446 20.9239 18.9256 20.6207 18.6228L19.4765 17.4785C19.3427 17.3448 19.3427 17.1265 19.4765 16.9927C19.6103 16.855 19.825 16.855 19.9623 16.9927L21.0961 18.1229C21.0999 18.1299 21.1034 18.1334 21.1101 18.1369L21.8217 18.8481C22.121 19.1509 22.5185 19.3164 22.9445 19.3164C23.367 19.3164 23.7648 19.1509 24.0676 18.852C24.3669 18.5492 24.5324 18.1514 24.5324 17.7289C24.5324 17.3029 24.3665 16.905 24.0676 16.6022L15.3892 7.92269Z" fill="#5394DE"/>
</svg>
