<?xml version="1.0"?>
<svg height="32" id="svg2" version="1.1" viewBox="0 0 32 32.000001" width="32" xmlns="http://www.w3.org/2000/svg" xmlns:cc="http://creativecommons.org/ns#" xmlns:dc="http://purl.org/dc/elements/1.1/" xmlns:inkscape="http://www.inkscape.org/namespaces/inkscape" xmlns:rdf="http://www.w3.org/1999/02/22-rdf-syntax-ns#" xmlns:sodipodi="http://sodipodi.sourceforge.net/DTD/sodipodi-0.dtd" xmlns:svg="http://www.w3.org/2000/svg">
	<defs id="defs4" />
	<g id="layer1" transform="translate(0,-1020.3622)">
		<path d="m 28.499971,1024.3622 2.6e-5,-3.5 3.000002,0 1e-6,9.5 -3.000002,0 0,-2.5" id="path12100" style="opacity:1;fill:none;fill-opacity:1;stroke:#CE9A0B;stroke-width:0.99999988;stroke-linecap:round;stroke-linejoin:round;stroke-miterlimit:4;stroke-dasharray:none;stroke-dashoffset:0;stroke-opacity:1" />
		<path d="m 28.324343,1029.2279 -3.606711,0.452 a 4.9571462,4.9720387 0 0 1 -3.074261,-0.6168 l -3.155867,-1.8087 -3.759169,0 a 1.5053454,1.5098678 0 0 1 -1.505234,-1.4915 l -0.005,-0.4092 a 1.4691624,1.4735761 0 0 1 1.469054,-1.4915 l 5.726541,0" id="path12102" style="fill:none;fill-rule:evenodd;stroke:#CE9A0B;stroke-width:0.99999988px;stroke-linecap:butt;stroke-linejoin:miter;stroke-opacity:1" />
		<path d="m 28.422693,1022.3033 -7.978094,-1.2485 c -2.130149,-0.3334 -4.298828,-0.293 -6.267863,0.5997 l -7.298582,3.3079 c -0.771146,0.3497 -1.100162,1.2848 -0.722764,2.0544 l 0.0036,0.01 c 0.343464,0.7032 1.158285,1.0202 1.873658,0.7289 l 5.266458,-1.8941" id="path12104" style="fill:none;fill-rule:evenodd;stroke:#CE9A0B;stroke-width:0.99999988px;stroke-linecap:butt;stroke-linejoin:round;stroke-opacity:1" />
		<path d="m 22.5,1036.3622 a 6.5,6.5 0 0 1 -6.5,6.5 6.5,6.5 0 0 1 -6.5,-6.5 6.5,6.5 0 0 1 6.5,-6.5 6.5,6.5 0 0 1 6.5,6.5 z" id="circle12108" style="opacity:1;fill:none;fill-opacity:1;stroke:#CE9A0B;stroke-width:1;stroke-linecap:butt;stroke-linejoin:round;stroke-miterlimit:4;stroke-dasharray:none;stroke-opacity:1" />
		<path d="m 16.000001,1029.8622 0,13" id="path12111" style="fill:none;fill-rule:evenodd;stroke:#CE9A0B;stroke-width:1px;stroke-linecap:butt;stroke-linejoin:miter;stroke-opacity:1" />
		<ellipse cx="16" cy="1036.3622" id="ellipse12113" rx="3.5" ry="6.5" style="opacity:1;fill:none;fill-opacity:1;stroke:#CE9A0B;stroke-width:1;stroke-linecap:butt;stroke-linejoin:round;stroke-miterlimit:4;stroke-dasharray:none;stroke-opacity:1" />
		<path d="m 10,1034.1122 12.000001,0" id="path12115" style="fill:none;fill-rule:evenodd;stroke:#CE9A0B;stroke-width:1px;stroke-linecap:butt;stroke-linejoin:miter;stroke-opacity:1" />
		<path d="m 10,1038.6122 12.000001,0" id="path12117" style="fill:none;fill-rule:evenodd;stroke:#CE9A0B;stroke-width:1px;stroke-linecap:butt;stroke-linejoin:miter;stroke-opacity:1" />
		<path d="m 3.4999696,1048.3622 3.25e-5,3.5 -3.00000166,0 -5e-7,-9.5 3.00000136,0 0,2.5" id="path12119" style="opacity:1;fill:none;fill-opacity:1;stroke:#CE9A0B;stroke-width:0.99999988;stroke-linecap:round;stroke-linejoin:round;stroke-miterlimit:4;stroke-dasharray:none;stroke-dashoffset:0;stroke-opacity:1" />
		<path d="m 3.6756569,1043.4965 3.6067103,-0.452 a 4.9571462,4.9720387 0 0 1 3.0742618,0.6168 l 3.155867,1.8087 3.759169,0 a 1.5053454,1.5098678 0 0 1 1.505234,1.4915 l 0.005,0.4092 a 1.4691624,1.4735761 0 0 1 -1.469054,1.4915 l -5.726541,0" id="path12121" style="fill:none;fill-rule:evenodd;stroke:#CE9A0B;stroke-width:0.99999988px;stroke-linecap:butt;stroke-linejoin:miter;stroke-opacity:1" />
		<path d="m 3.5773062,1050.4211 7.9780948,1.2485 c 2.130149,0.3334 4.298828,0.293 6.267863,-0.5997 l 7.298582,-3.3079 c 0.771146,-0.3497 1.100162,-1.2848 0.722764,-2.0544 l -0.0036,-0.01 c -0.343464,-0.7032 -1.158285,-1.0202 -1.873658,-0.7289 l -5.266458,1.8941" id="path12123" style="fill:none;fill-rule:evenodd;stroke:#CE9A0B;stroke-width:0.99999988px;stroke-linecap:butt;stroke-linejoin:round;stroke-opacity:1" />
		<path d="m 3.99997,1046.6122 a 0.5,0.5 0 0 1 -0.5,0.5 0.5,0.5 0 0 1 -0.5,-0.5 0.5,0.5 0 0 1 0.5,-0.5 0.5,0.5 0 0 1 0.5,0.5 z" id="circle12742-3-3" style="opacity:1;fill:#CE9A0B;fill-opacity:1;stroke:none;stroke-width:1;stroke-linecap:round;stroke-linejoin:round;stroke-miterlimit:4;stroke-dasharray:none;stroke-opacity:1" />
		<path d="m 28.99997,1026.1122 a 0.5,0.5 0 0 1 -0.5,0.5 0.5,0.5 0 0 1 -0.5,-0.5 0.5,0.5 0 0 1 0.5,-0.5 0.5,0.5 0 0 1 0.5,0.5 z" id="circle12742-3-30" style="opacity:1;fill:#CE9A0B;fill-opacity:1;stroke:none;stroke-width:1;stroke-linecap:round;stroke-linejoin:round;stroke-miterlimit:4;stroke-dasharray:none;stroke-opacity:1" />
	</g>
</svg>
