<svg width="150" height="150" viewBox="0 0 1500 1500" fill="none" xmlns="http://www.w3.org/2000/svg">
<rect width="1500" height="1500" fill="rgba(#000006, 0.4)"/>
<g clip-path="url(#clip0_2406_305)">
<path d="M755.108 477.614H751.098V473.661C751.084 461.549 753.461 449.553 758.093 438.361C762.726 427.168 769.523 416.999 778.094 408.434C786.666 399.87 796.844 393.079 808.047 388.451C819.249 383.822 831.255 381.447 843.377 381.461H847.387V385.414C847.373 409.863 837.646 433.306 820.343 450.593C803.04 467.881 779.577 477.599 755.108 477.614Z" fill="#F9D12B"/>
<path d="M813.33 434.826C796.911 448.27 776.336 455.613 755.107 455.605H752.969C751.746 461.547 751.119 467.595 751.098 473.661V477.613H755.107C779.577 477.599 803.04 467.881 820.343 450.593C837.646 433.306 847.372 409.862 847.387 385.414V381.461H845.569C841.353 402.451 829.954 421.319 813.33 434.826Z" fill="#CE9A0B"/>
<path d="M736.611 477.614H740.567V473.661C740.574 461.542 738.189 449.541 733.547 438.344C728.905 427.148 722.099 416.977 713.517 408.412C704.935 399.848 694.747 393.059 683.536 388.434C672.325 383.81 660.31 381.44 648.181 381.461H644.225V385.414C644.204 397.528 646.576 409.527 651.206 420.722C655.836 431.918 662.632 442.09 671.206 450.656C679.779 459.222 689.96 466.012 701.165 470.638C712.371 475.264 724.38 477.635 736.504 477.614H736.611Z" fill="#F9D12B"/>
<path d="M736.611 455.605C715.27 455.61 694.587 448.225 678.083 434.706C661.579 421.187 650.276 402.371 646.096 381.461H644.332V385.414C644.311 397.528 646.684 409.526 651.313 420.722C655.943 431.918 662.74 442.09 671.313 450.656C679.886 459.222 690.067 466.012 701.273 470.638C712.478 475.264 724.487 477.635 736.611 477.613H740.568V473.661C740.564 467.597 739.955 461.548 738.75 455.605H736.611Z" fill="#CE9A0B"/>
<path d="M755.108 559.076H751.098V555.124C751.084 543.012 753.461 531.016 758.093 519.824C762.726 508.631 769.523 498.462 778.094 489.897C786.666 481.333 796.844 474.542 808.047 469.913C819.249 465.285 831.255 462.91 843.377 462.924H847.387V466.877C847.373 491.325 837.646 514.768 820.343 532.056C803.04 549.344 779.577 559.062 755.108 559.076Z" fill="#F9D12B"/>
<path d="M813.33 516.289C796.911 529.733 776.336 537.076 755.107 537.068H752.969C751.746 543.009 751.119 549.058 751.098 555.123V559.076H755.107C779.577 559.062 803.04 549.344 820.343 532.056C837.646 514.768 847.372 491.325 847.387 466.877V462.924H845.569C841.353 483.914 829.954 502.782 813.33 516.289Z" fill="#CE9A0B"/>
<path d="M736.611 559.076H740.567V555.124C740.574 543.005 738.189 531.004 733.547 519.807C728.905 508.611 722.099 498.439 713.517 489.875C704.935 481.311 694.747 474.522 683.536 469.897C672.325 465.273 660.31 462.903 648.181 462.924H644.225V466.877C644.204 478.991 646.576 490.989 651.206 502.185C655.836 513.381 662.632 523.553 671.206 532.119C679.779 540.685 689.96 547.475 701.165 552.101C712.371 556.727 724.38 559.098 736.504 559.076H736.611Z" fill="#F9D12B"/>
<path d="M736.611 537.068C715.27 537.073 694.587 529.688 678.083 516.169C661.579 502.65 650.276 483.834 646.096 462.924H644.332V466.877C644.311 478.991 646.684 490.989 651.313 502.185C655.943 513.381 662.74 523.553 671.313 532.119C679.886 540.685 690.067 547.475 701.273 552.101C712.478 556.727 724.487 559.097 736.611 559.076H740.568V555.123C740.564 549.06 739.955 543.011 738.75 537.068H736.611Z" fill="#CE9A0B"/>
<path d="M755.108 640.537H751.098V636.584C751.084 624.473 753.461 612.477 758.093 601.284C762.726 590.092 769.523 579.922 778.094 571.358C786.666 562.794 796.844 556.003 808.047 551.374C819.249 546.746 831.255 544.371 843.377 544.385H847.387V548.338C847.373 572.786 837.646 596.229 820.343 613.517C803.04 630.805 779.577 640.523 755.108 640.537Z" fill="#F9D12B"/>
<path d="M813.33 597.75C796.911 611.194 776.336 618.537 755.107 618.529H752.969C751.746 624.47 751.119 630.519 751.098 636.584V640.537H755.107C779.577 640.523 803.04 630.805 820.343 613.517C837.646 596.229 847.372 572.786 847.387 548.338V544.385H845.569C841.353 565.375 829.954 584.243 813.33 597.75Z" fill="#CE9A0B"/>
<path d="M736.611 640.537H740.567V636.585C740.574 624.466 738.189 612.465 733.547 601.268C728.905 590.072 722.099 579.9 713.517 571.336C704.935 562.772 694.747 555.983 683.536 551.358C672.325 546.734 660.31 544.364 648.181 544.385H644.225V548.338C644.204 560.452 646.576 572.45 651.206 583.646C655.836 594.842 662.632 605.014 671.206 613.58C679.779 622.146 689.96 628.936 701.165 633.562C712.371 638.188 724.38 640.559 736.504 640.537H736.611Z" fill="#F9D12B"/>
<path d="M736.611 618.529C715.27 618.534 694.587 611.149 678.083 597.63C661.579 584.111 650.276 565.295 646.096 544.385H644.332V548.338C644.311 560.452 646.684 572.45 651.313 583.646C655.943 594.842 662.74 605.014 671.313 613.58C679.886 622.146 690.067 628.936 701.273 633.562C712.478 638.188 724.487 640.558 736.611 640.537H740.568V636.584C740.564 630.521 739.955 624.472 738.75 618.529H736.611Z" fill="#CE9A0B"/>
<path d="M742.973 423.5L745.807 426.331L748.587 423.5C757.169 414.946 763.978 404.784 768.624 393.596C773.269 382.409 775.661 370.416 775.661 358.303C775.661 346.191 773.269 334.198 768.624 323.01C763.978 311.823 757.169 301.661 748.587 293.107L745.807 290.275L742.973 293.107C729.059 307.014 719.958 325 716.995 344.44C714.033 363.88 717.365 383.757 726.506 401.171C730.857 409.389 736.406 416.914 742.973 423.5Z" fill="#F9D12B"/>
<path d="M748.586 423.5C759.325 412.786 767.251 399.589 771.663 385.081C776.074 370.572 776.834 355.2 773.874 340.328C768.821 358.502 759.152 375.063 745.806 388.404C732.422 375.092 722.748 358.521 717.737 340.328C714.766 355.196 715.515 370.566 719.917 385.075C724.319 399.584 732.239 412.783 742.972 423.5L745.806 426.331L748.586 423.5Z" fill="#CE9A0B"/>
<path d="M743.882 418.373C742.973 417.358 742.01 416.396 741.102 415.328C741.317 416.006 741.677 416.63 742.157 417.156C742.637 417.682 743.225 418.097 743.882 418.373Z" fill="#CE9A0B"/>
<path d="M750.458 415.328C749.549 416.396 748.64 417.358 747.678 418.373C748.334 418.097 748.923 417.682 749.403 417.156C749.883 416.63 750.243 416.006 750.458 415.328Z" fill="#CE9A0B"/>
<path d="M828.142 377.401V269.122C828.214 268.423 828.139 267.716 827.921 267.048C827.702 266.38 827.346 265.764 826.875 265.242C826.404 264.72 825.828 264.303 825.185 264.017C824.542 263.732 823.846 263.584 823.143 263.584C822.439 263.584 821.743 263.732 821.1 264.017C820.458 264.303 819.882 264.72 819.411 265.242C818.939 265.764 818.583 266.38 818.365 267.048C818.147 267.716 818.071 268.423 818.144 269.122V380.018C821.405 379.164 824.613 378.095 828.142 377.401Z" fill="#CE9A0B"/>
<path d="M673.415 380.018V269.122C673.488 268.423 673.412 267.716 673.194 267.048C672.976 266.38 672.62 265.764 672.148 265.242C671.677 264.72 671.102 264.303 670.459 264.017C669.816 263.732 669.12 263.584 668.416 263.584C667.713 263.584 667.017 263.732 666.374 264.017C665.731 264.303 665.155 264.72 664.684 265.242C664.213 265.764 663.857 266.38 663.638 267.048C663.42 267.716 663.345 268.423 663.417 269.122V377.454C666.797 378.113 670.135 378.97 673.415 380.018Z" fill="#CE9A0B"/>
<path d="M710.681 402.134V228.578C710.553 227.343 709.971 226.198 709.048 225.367C708.125 224.535 706.926 224.074 705.682 224.074C704.439 224.074 703.24 224.535 702.317 225.367C701.394 226.198 700.812 227.343 700.684 228.578V393.854C704.194 396.392 707.534 399.158 710.681 402.134Z" fill="#CE9A0B"/>
<path d="M745.806 284.347C747.571 286.163 749.175 288.033 750.778 289.689V187.607C750.851 186.908 750.776 186.201 750.557 185.533C750.339 184.864 749.983 184.249 749.512 183.727C749.04 183.205 748.465 182.787 747.822 182.502C747.179 182.216 746.483 182.068 745.78 182.068C745.076 182.068 744.38 182.216 743.737 182.502C743.094 182.787 742.519 183.205 742.047 183.727C741.576 184.249 741.22 184.864 741.002 185.533C740.783 186.201 740.708 186.908 740.781 187.607V289.902C742.385 288.033 743.989 286.163 745.806 284.347Z" fill="#CE9A0B"/>
<path d="M790.877 393.854V228.578C790.749 227.343 790.167 226.198 789.243 225.367C788.32 224.535 787.121 224.074 785.878 224.074C784.635 224.074 783.435 224.535 782.512 225.367C781.589 226.198 781.007 227.343 780.879 228.578V402.134C784.027 399.158 787.366 396.392 790.877 393.854Z" fill="#CE9A0B"/>
</g>
<g clip-path="url(#clip1_2406_305)">
<path d="M553.595 762.39L554.889 766.185L551.148 767.461C539.69 771.385 527.569 773.008 515.48 772.238C503.391 771.467 491.572 768.318 480.699 762.971C469.826 757.623 460.112 750.183 452.115 741.075C444.117 731.967 437.993 721.371 434.092 709.894L432.797 706.099L436.539 704.822C459.682 696.942 485.01 698.578 506.959 709.373C528.907 720.167 545.681 739.235 553.595 762.39Z" fill="#F9D12B"/>
<path d="M494.3 721.101C512.326 732.3 525.919 749.402 532.765 769.496L533.456 771.52C539.474 770.759 545.401 769.4 551.148 767.461L554.889 766.185L553.595 762.39C545.681 739.236 528.907 720.167 506.959 709.373C485.01 698.578 459.682 696.942 436.539 704.822L432.797 706.099L433.384 707.819C454.611 705.032 476.149 709.728 494.3 721.101Z" fill="#CE9A0B"/>
<path d="M559.568 779.897L558.291 776.153L554.549 777.429C543.077 781.335 532.489 787.468 523.391 795.476C514.293 803.484 506.864 813.21 501.529 824.098C496.195 834.985 493.059 846.819 492.302 858.923C491.545 871.027 493.181 883.163 497.117 894.636L498.395 898.381L502.136 897.104C513.608 893.213 524.198 887.094 533.299 879.097C542.4 871.1 549.833 861.383 555.172 850.503C560.511 839.624 563.651 827.795 564.411 815.697C565.171 803.598 563.537 791.467 559.603 779.999L559.568 779.897Z" fill="#F9D12B"/>
<path d="M538.738 787.003C545.633 807.199 545.321 829.16 537.855 849.144C530.389 869.129 516.23 885.903 497.79 896.609L498.359 898.279L502.101 897.003C513.572 893.112 524.162 886.992 533.264 878.995C542.365 870.998 549.798 861.282 555.137 850.402C560.476 839.522 563.615 827.694 564.376 815.595C565.136 803.496 563.502 791.365 559.567 779.897L558.29 776.153L554.549 777.429C548.811 779.39 543.283 781.919 538.047 784.979L538.738 787.003Z" fill="#CE9A0B"/>
<path d="M630.694 736.087L631.989 739.882L628.248 741.159C616.789 745.083 604.669 746.706 592.58 745.935C580.491 745.165 568.672 742.015 557.798 736.668C546.925 731.321 537.212 723.88 529.214 714.772C521.217 705.664 515.092 695.068 511.192 683.591L509.897 679.796L513.638 678.519C536.782 670.639 562.11 672.276 584.058 683.07C606.007 693.864 622.78 712.933 630.694 736.087Z" fill="#F9D12B"/>
<path d="M571.4 694.798C589.425 705.997 603.018 723.099 609.865 743.193L610.555 745.217C616.573 744.457 622.5 743.097 628.248 741.159L631.989 739.882L630.694 736.087C622.78 712.933 606.007 693.864 584.058 683.07C562.11 672.276 536.782 670.639 513.638 678.52L509.897 679.796L510.484 681.516C531.711 678.729 553.249 683.425 571.4 694.798Z" fill="#CE9A0B"/>
<path d="M636.668 753.595L635.39 749.85L631.649 751.126C620.177 755.033 609.589 761.165 600.491 769.173C591.393 777.181 583.964 786.908 578.629 797.795C573.294 808.682 570.158 820.517 569.401 832.621C568.644 844.725 570.281 856.861 574.217 868.334L575.494 872.078L579.236 870.802C590.707 866.91 601.297 860.791 610.399 852.794C619.5 844.797 626.933 835.08 632.272 824.201C637.611 813.321 640.75 801.493 641.511 789.394C642.271 777.295 640.637 765.164 636.702 753.696L636.668 753.595Z" fill="#F9D12B"/>
<path d="M615.837 760.7C622.733 780.897 622.421 802.857 614.955 822.841C607.489 842.826 593.33 859.6 574.889 870.307L575.459 871.976L579.2 870.7C590.672 866.809 601.262 860.689 610.363 852.693C619.464 844.696 626.898 834.979 632.237 824.099C637.575 813.22 640.715 801.391 641.475 789.292C642.236 777.194 640.601 765.062 636.667 753.594L635.389 749.85L631.648 751.126C625.91 753.087 620.383 755.617 615.147 758.676L615.837 760.7Z" fill="#CE9A0B"/>
<path d="M707.794 709.784L709.089 713.58L705.348 714.856C693.889 718.78 681.768 720.403 669.679 719.632C657.591 718.862 645.771 715.713 634.898 710.365C624.025 705.018 614.311 697.577 606.314 688.469C598.316 679.362 592.192 668.766 588.291 657.288L586.997 653.493L590.738 652.217C613.882 644.336 639.21 645.973 661.158 656.767C683.106 667.561 699.88 686.63 707.794 709.784Z" fill="#F9D12B"/>
<path d="M648.499 668.496C666.525 679.694 680.118 696.796 686.964 716.891L687.655 718.915C693.673 718.154 699.6 716.794 705.347 714.856L709.089 713.58L707.794 709.785C699.88 686.63 683.106 667.561 661.158 656.767C639.209 645.973 613.881 644.336 590.738 652.217L586.997 653.493L587.583 655.214C608.81 652.426 630.349 657.122 648.499 668.496Z" fill="#CE9A0B"/>
<path d="M713.767 727.292L712.49 723.547L708.749 724.824C697.277 728.73 686.689 734.863 677.591 742.871C668.493 750.879 661.063 760.605 655.729 771.492C650.394 782.379 647.258 794.214 646.501 806.318C645.744 818.422 647.38 830.558 651.316 842.031L652.594 845.775L656.335 844.499C667.807 840.608 678.397 834.488 687.498 826.491C696.599 818.495 704.033 808.778 709.371 797.898C714.71 787.018 717.85 775.19 718.61 763.091C719.37 750.992 717.736 738.861 713.802 727.393L713.767 727.292Z" fill="#F9D12B"/>
<path d="M692.937 734.397C699.832 754.594 699.521 776.554 692.055 796.539C684.588 816.523 670.43 833.297 651.989 844.004L652.559 845.674L656.3 844.397C667.772 840.506 678.362 834.387 687.463 826.39C696.564 818.393 703.997 808.676 709.336 797.796C714.675 786.917 717.815 775.088 718.575 762.99C719.335 750.891 717.701 738.76 713.766 727.291L712.489 723.547L708.748 724.823C703.01 726.785 697.482 729.314 692.247 732.373L692.937 734.397Z" fill="#CE9A0B"/>
<path d="M506.3 791.346L508.064 787.75L504.487 786.033C493.62 780.673 481.804 777.509 469.715 776.725C457.627 775.94 445.504 777.549 434.041 781.46C422.577 785.37 411.998 791.506 402.91 799.515C393.822 807.524 386.403 817.25 381.077 828.134L379.295 831.68L382.89 833.447C400.545 842.125 420.506 844.932 439.861 841.459C459.216 837.986 476.953 828.415 490.484 814.141C496.856 807.37 502.187 799.688 506.3 791.346Z" fill="#F9D12B"/>
<path d="M504.488 786.034C490.88 779.33 475.831 776.089 460.675 776.598C445.519 777.108 430.725 781.352 417.605 788.954C436.438 787.869 455.234 791.673 472.169 799.997C463.891 816.962 451.331 831.469 435.731 842.085C450.761 840.096 465.067 834.425 477.377 825.574C489.688 816.723 499.623 804.966 506.3 791.347L508.065 787.751L504.488 786.034Z" fill="#CE9A0B"/>
<path d="M501.152 792.143C500.485 793.331 499.886 794.553 499.168 795.758C499.741 795.335 500.215 794.793 500.557 794.169C500.9 793.545 501.103 792.854 501.152 792.143Z" fill="#CE9A0B"/>
<path d="M496.147 786.902C497.452 787.417 498.655 787.967 499.927 788.55C499.453 788.018 498.87 787.595 498.218 787.31C497.565 787.026 496.859 786.887 496.147 786.902Z" fill="#CE9A0B"/>
<path d="M435.17 725.625L332.691 760.585C332.005 760.743 331.361 761.042 330.799 761.464C330.237 761.887 329.769 762.423 329.427 763.037C329.085 763.652 328.876 764.331 328.814 765.032C328.751 765.733 328.836 766.439 329.063 767.105C329.29 767.771 329.654 768.382 330.132 768.898C330.61 769.414 331.191 769.824 331.838 770.102C332.484 770.379 333.181 770.518 333.884 770.508C334.587 770.499 335.28 770.342 335.919 770.048L440.875 734.242C439.013 731.431 436.966 728.74 435.17 725.625Z" fill="#CE9A0B"/>
<path d="M487.604 871.217L382.648 907.023C381.962 907.18 381.318 907.48 380.756 907.902C380.194 908.324 379.726 908.86 379.384 909.475C379.042 910.089 378.833 910.769 378.771 911.47C378.708 912.17 378.793 912.876 379.02 913.542C379.247 914.208 379.611 914.819 380.089 915.335C380.567 915.852 381.148 916.262 381.795 916.539C382.441 916.817 383.138 916.955 383.841 916.946C384.544 916.937 385.237 916.78 385.876 916.485L488.405 881.508C487.938 878.096 487.671 874.66 487.604 871.217Z" fill="#CE9A0B"/>
<path d="M496.504 828.808L332.244 884.845C331.116 885.365 330.221 886.285 329.731 887.428C329.242 888.57 329.194 889.854 329.595 891.031C329.996 892.207 330.819 893.193 331.905 893.799C332.99 894.404 334.261 894.585 335.472 894.307L491.895 840.944C493.165 836.802 494.704 832.748 496.504 828.808Z" fill="#CE9A0B"/>
<path d="M373.683 833.595C374.832 831.339 376.084 829.217 377.133 827.165L280.519 860.124C279.834 860.282 279.189 860.581 278.627 861.003C278.065 861.426 277.598 861.962 277.256 862.576C276.914 863.191 276.705 863.87 276.642 864.571C276.579 865.272 276.664 865.978 276.891 866.644C277.118 867.31 277.483 867.921 277.961 868.437C278.439 868.953 279.019 869.363 279.666 869.641C280.312 869.918 281.009 870.057 281.712 870.047C282.415 870.038 283.108 869.881 283.747 869.587L380.564 836.558C378.276 835.644 375.989 834.729 373.683 833.595Z" fill="#CE9A0B"/>
<path d="M462.773 755.581L306.349 808.945C305.221 809.465 304.326 810.385 303.837 811.528C303.348 812.67 303.299 813.954 303.7 815.13C304.102 816.307 304.925 817.293 306.01 817.898C307.096 818.504 308.367 818.685 309.577 818.407L473.837 762.37C470.005 760.352 466.309 758.084 462.773 755.581Z" fill="#CE9A0B"/>
</g>
<g clip-path="url(#clip2_2406_305)">
<path d="M947.405 762.39L946.111 766.185L949.852 767.461C961.31 771.385 973.431 773.008 985.52 772.238C997.609 771.467 1009.43 768.318 1020.3 762.971C1031.17 757.623 1040.89 750.183 1048.89 741.075C1056.88 731.967 1063.01 721.371 1066.91 709.894L1068.2 706.099L1064.46 704.822C1041.32 696.942 1015.99 698.578 994.041 709.373C972.093 720.167 955.319 739.235 947.405 762.39Z" fill="#F9D12B"/>
<path d="M1006.7 721.101C988.674 732.3 975.081 749.402 968.235 769.496L967.544 771.52C961.526 770.759 955.599 769.4 949.852 767.461L946.111 766.185L947.405 762.39C955.319 739.236 972.093 720.167 994.041 709.373C1015.99 698.578 1041.32 696.942 1064.46 704.822L1068.2 706.099L1067.62 707.819C1046.39 705.032 1024.85 709.728 1006.7 721.101Z" fill="#CE9A0B"/>
<path d="M941.432 779.897L942.709 776.153L946.451 777.429C957.923 781.335 968.511 787.468 977.609 795.476C986.707 803.484 994.136 813.21 999.471 824.098C1004.81 834.985 1007.94 846.819 1008.7 858.923C1009.46 871.027 1007.82 883.163 1003.88 894.636L1002.61 898.381L998.864 897.104C987.392 893.213 976.802 887.094 967.701 879.097C958.6 871.1 951.167 861.383 945.828 850.503C940.489 839.624 937.349 827.795 936.589 815.697C935.829 803.598 937.463 791.467 941.397 779.999L941.432 779.897Z" fill="#F9D12B"/>
<path d="M962.262 787.003C955.367 807.199 955.679 829.16 963.145 849.144C970.611 869.129 984.77 885.903 1003.21 896.609L1002.64 898.279L998.899 897.003C987.428 893.112 976.838 886.992 967.736 878.995C958.635 870.998 951.202 861.282 945.863 850.402C940.524 839.522 937.385 827.694 936.624 815.595C935.864 803.496 937.498 791.365 941.433 779.897L942.71 776.153L946.451 777.429C952.189 779.39 957.717 781.919 962.953 784.979L962.262 787.003Z" fill="#CE9A0B"/>
<path d="M870.308 736.087L869.013 739.882L872.754 741.159C884.213 745.083 896.333 746.706 908.422 745.935C920.511 745.165 932.33 742.015 943.204 736.668C954.077 731.321 963.79 723.88 971.788 714.772C979.785 705.664 985.91 695.068 989.81 683.591L991.105 679.796L987.364 678.519C964.22 670.639 938.892 672.276 916.944 683.07C894.995 693.864 878.222 712.933 870.308 736.087Z" fill="#F9D12B"/>
<path d="M929.602 694.798C911.577 705.997 897.984 723.099 891.137 743.193L890.447 745.217C884.429 744.457 878.502 743.097 872.754 741.159L869.013 739.882L870.308 736.087C878.222 712.933 894.995 693.864 916.944 683.07C938.892 672.276 964.22 670.639 987.364 678.52L991.105 679.796L990.518 681.516C969.291 678.729 947.753 683.425 929.602 694.798Z" fill="#CE9A0B"/>
<path d="M864.334 753.595L865.612 749.85L869.353 751.126C880.825 755.033 891.413 761.165 900.511 769.173C909.609 777.181 917.038 786.908 922.373 797.795C927.708 808.682 930.843 820.517 931.601 832.621C932.358 844.725 930.721 856.861 926.785 868.334L925.508 872.078L921.766 870.802C910.295 866.91 899.705 860.791 890.603 852.794C881.502 844.797 874.069 835.08 868.73 824.201C863.391 813.321 860.252 801.493 859.491 789.394C858.731 777.295 860.365 765.164 864.3 753.696L864.334 753.595Z" fill="#F9D12B"/>
<path d="M885.165 760.7C878.269 780.897 878.581 802.857 886.047 822.841C893.513 842.826 907.672 859.6 926.113 870.307L925.543 871.976L921.802 870.7C910.33 866.809 899.74 860.689 890.639 852.693C881.538 844.696 874.104 834.979 868.765 824.099C863.427 813.22 860.287 801.391 859.527 789.292C858.766 777.194 860.4 765.062 864.335 753.594L865.612 749.85L869.354 751.126C875.092 753.087 880.619 755.617 885.855 758.676L885.165 760.7Z" fill="#CE9A0B"/>
<path d="M793.206 709.784L791.911 713.58L795.652 714.856C807.111 718.78 819.232 720.403 831.321 719.632C843.409 718.862 855.229 715.713 866.102 710.365C876.975 705.018 886.689 697.577 894.686 688.469C902.684 679.362 908.808 668.766 912.709 657.288L914.003 653.493L910.262 652.217C887.118 644.336 861.79 645.973 839.842 656.767C817.894 667.561 801.12 686.63 793.206 709.784Z" fill="#F9D12B"/>
<path d="M852.501 668.496C834.475 679.694 820.882 696.796 814.036 716.891L813.345 718.915C807.327 718.154 801.4 716.794 795.653 714.856L791.911 713.58L793.206 709.785C801.12 686.63 817.894 667.561 839.842 656.767C861.791 645.973 887.119 644.336 910.262 652.217L914.003 653.493L913.417 655.214C892.19 652.426 870.651 657.122 852.501 668.496Z" fill="#CE9A0B"/>
<path d="M787.237 727.292L788.514 723.547L792.255 724.824C803.727 728.73 814.315 734.863 823.413 742.871C832.511 750.879 839.94 760.605 845.275 771.492C850.61 782.379 853.746 794.214 854.503 806.318C855.26 818.422 853.624 830.558 849.687 842.031L848.41 845.775L844.669 844.499C833.197 840.608 822.607 834.488 813.506 826.491C804.405 818.495 796.971 808.778 791.632 797.898C786.294 787.018 783.154 775.19 782.394 763.091C781.633 750.992 783.268 738.861 787.202 727.393L787.237 727.292Z" fill="#F9D12B"/>
<path d="M808.063 734.397C801.168 754.594 801.479 776.554 808.945 796.539C816.412 816.523 830.57 833.297 849.011 844.004L848.441 845.674L844.7 844.397C833.228 840.506 822.638 834.387 813.537 826.39C804.436 818.393 797.003 808.676 791.664 797.796C786.325 786.917 783.185 775.088 782.425 762.99C781.665 750.891 783.299 738.76 787.234 727.291L788.511 723.547L792.252 724.823C797.99 726.785 803.518 729.314 808.753 732.373L808.063 734.397Z" fill="#CE9A0B"/>
<path d="M994.704 791.346L992.94 787.75L996.517 786.033C1007.38 780.673 1019.2 777.509 1031.29 776.725C1043.38 775.94 1055.5 777.549 1066.96 781.46C1078.43 785.37 1089.01 791.506 1098.09 799.515C1107.18 807.524 1114.6 817.25 1119.93 828.134L1121.71 831.68L1118.11 833.447C1100.46 842.125 1080.5 844.932 1061.14 841.459C1041.79 837.986 1024.05 828.415 1010.52 814.141C1004.15 807.37 998.817 799.688 994.704 791.346Z" fill="#F9D12B"/>
<path d="M996.514 786.034C1010.12 779.33 1025.17 776.089 1040.33 776.598C1055.48 777.108 1070.28 781.352 1083.4 788.954C1064.56 787.869 1045.77 791.673 1028.83 799.997C1037.11 816.962 1049.67 831.469 1065.27 842.085C1050.24 840.096 1035.94 834.425 1023.62 825.574C1011.31 816.723 1001.38 804.966 994.702 791.347L992.937 787.751L996.514 786.034Z" fill="#CE9A0B"/>
<path d="M999.848 792.143C1000.52 793.331 1001.11 794.553 1001.83 795.758C1001.26 795.335 1000.79 794.793 1000.44 794.169C1000.1 793.545 999.897 792.854 999.848 792.143Z" fill="#CE9A0B"/>
<path d="M1004.85 786.902C1003.55 787.417 1002.35 787.967 1001.08 788.55C1001.55 788.018 1002.13 787.595 1002.78 787.31C1003.44 787.026 1004.14 786.887 1004.85 786.902Z" fill="#CE9A0B"/>
<path d="M1065.83 725.625L1168.31 760.585C1169 760.743 1169.64 761.042 1170.2 761.464C1170.77 761.887 1171.23 762.423 1171.57 763.037C1171.92 763.652 1172.13 764.331 1172.19 765.032C1172.25 765.733 1172.17 766.439 1171.94 767.105C1171.71 767.771 1171.35 768.382 1170.87 768.898C1170.39 769.414 1169.81 769.824 1169.16 770.102C1168.52 770.379 1167.82 770.518 1167.12 770.508C1166.41 770.499 1165.72 770.342 1165.08 770.048L1060.13 734.242C1061.99 731.431 1064.04 728.74 1065.83 725.625Z" fill="#CE9A0B"/>
<path d="M1013.4 871.217L1118.35 907.023C1119.04 907.18 1119.68 907.48 1120.25 907.902C1120.81 908.324 1121.28 908.86 1121.62 909.475C1121.96 910.089 1122.17 910.769 1122.23 911.47C1122.29 912.17 1122.21 912.876 1121.98 913.542C1121.75 914.208 1121.39 914.819 1120.91 915.335C1120.43 915.852 1119.85 916.262 1119.21 916.539C1118.56 916.817 1117.86 916.955 1117.16 916.946C1116.46 916.937 1115.76 916.78 1115.13 916.485L1012.6 881.508C1013.06 878.096 1013.33 874.66 1013.4 871.217Z" fill="#CE9A0B"/>
<path d="M1004.5 828.808L1168.76 884.845C1169.89 885.365 1170.78 886.285 1171.27 887.428C1171.76 888.57 1171.81 889.854 1171.41 891.031C1171.01 892.207 1170.18 893.193 1169.1 893.799C1168.01 894.404 1166.74 894.585 1165.53 894.307L1009.11 840.944C1007.84 836.802 1006.3 832.748 1004.5 828.808Z" fill="#CE9A0B"/>
<path d="M1127.32 833.595C1126.17 831.339 1124.92 829.217 1123.87 827.165L1220.48 860.124C1221.17 860.282 1221.81 860.581 1222.37 861.003C1222.94 861.426 1223.4 861.962 1223.75 862.576C1224.09 863.191 1224.3 863.87 1224.36 864.571C1224.42 865.272 1224.34 865.978 1224.11 866.644C1223.88 867.31 1223.52 867.921 1223.04 868.437C1222.56 868.953 1221.98 869.363 1221.34 869.641C1220.69 869.918 1219.99 870.057 1219.29 870.047C1218.59 870.038 1217.89 869.881 1217.26 869.587L1120.44 836.558C1122.73 835.644 1125.01 834.729 1127.32 833.595Z" fill="#CE9A0B"/>
<path d="M1038.23 755.581L1194.65 808.945C1195.78 809.465 1196.68 810.385 1197.17 811.528C1197.65 812.67 1197.7 813.954 1197.3 815.13C1196.9 816.307 1196.08 817.293 1194.99 817.898C1193.91 818.504 1192.64 818.685 1191.42 818.407L1027.16 762.37C1031 760.352 1034.69 758.084 1038.23 755.581Z" fill="#CE9A0B"/>
</g>
<path d="M127.845 1108.95H95.2949V1095H177.945V1108.95H145.545V1200H127.845V1108.95Z" fill="#F9D12B"/>
<path d="M277.647 1200H258.897L251.847 1175.55C250.447 1170.65 248.997 1166.85 247.497 1164.15C245.997 1161.35 243.897 1159.25 241.197 1157.85C238.597 1156.45 235.047 1155.75 230.547 1155.75H212.247V1200H194.547V1095H237.897C249.697 1095 258.497 1097.5 264.297 1102.5C270.097 1107.5 272.997 1115.05 272.997 1125.15C272.997 1132.25 271.197 1137.95 267.597 1142.25C263.997 1146.55 258.947 1149.25 252.447 1150.35C257.347 1152.05 261.097 1154.95 263.697 1159.05C266.297 1163.15 268.597 1168.65 270.597 1175.55L277.647 1200ZM237.897 1141.8C243.097 1141.8 247.297 1140.4 250.497 1137.6C253.697 1134.8 255.297 1130.75 255.297 1125.45C255.297 1120.05 253.697 1115.95 250.497 1113.15C247.297 1110.35 243.097 1108.95 237.897 1108.95H212.247V1141.8H237.897Z" fill="#F9D12B"/>
<path d="M355.164 1172.4H312.114L303.864 1200H286.164L312.414 1114.95C314.114 1109.35 315.864 1105 317.664 1101.9C319.564 1098.8 321.764 1096.6 324.264 1095.3C326.764 1093.9 329.914 1093.2 333.714 1093.2C337.414 1093.2 340.514 1093.9 343.014 1095.3C345.514 1096.6 347.714 1098.8 349.614 1101.9C351.514 1105 353.314 1109.35 355.014 1114.95L381.114 1200H363.414L355.164 1172.4ZM351.264 1159.2L338.214 1115.25C337.614 1113.25 336.964 1111.8 336.264 1110.9C335.664 1110 334.814 1109.55 333.714 1109.55C332.614 1109.55 331.714 1110 331.014 1110.9C330.314 1111.8 329.664 1113.25 329.064 1115.25L316.014 1159.2H351.264Z" fill="#F9D12B"/>
<path d="M482.467 1095V1178.25C482.467 1185.45 480.967 1190.9 477.967 1194.6C475.067 1198.2 470.417 1200 464.017 1200H451.567L414.517 1122.75V1200H397.867V1095H418.117L460.867 1184.85H461.617C463.217 1184.85 464.317 1184.2 464.917 1182.9C465.517 1181.5 465.817 1179.1 465.817 1175.7V1095H482.467Z" fill="#F9D12B"/>
<path d="M539.548 1201.8C532.648 1201.8 526.798 1201.1 521.998 1199.7C517.298 1198.2 513.248 1196.05 509.848 1193.25C506.448 1190.45 502.998 1186.75 499.498 1182.15L511.498 1172.1C515.598 1177.8 519.698 1181.85 523.798 1184.25C527.998 1186.65 533.198 1187.85 539.398 1187.85C547.798 1187.85 554.048 1186.5 558.148 1183.8C562.248 1181.1 564.298 1176.95 564.298 1171.35C564.298 1168.25 563.398 1165.75 561.598 1163.85C559.898 1161.85 556.848 1160.15 552.448 1158.75C548.148 1157.25 541.698 1155.6 533.098 1153.8C523.298 1151.8 515.998 1148.3 511.198 1143.3C506.398 1138.3 503.998 1131.65 503.998 1123.35C503.998 1117.25 505.548 1111.95 508.648 1107.45C511.748 1102.85 516.148 1099.35 521.848 1096.95C527.548 1094.45 534.248 1093.2 541.948 1093.2C551.348 1093.2 558.998 1094.65 564.898 1097.55C570.898 1100.45 575.648 1104.75 579.148 1110.45L567.448 1120.05C563.548 1115.55 559.698 1112.3 555.898 1110.3C552.198 1108.2 547.498 1107.15 541.798 1107.15C535.398 1107.15 530.448 1108.6 526.948 1111.5C523.448 1114.3 521.698 1118.3 521.698 1123.5C521.698 1128.2 523.648 1131.8 527.548 1134.3C531.448 1136.7 536.848 1138.65 543.748 1140.15C552.648 1141.95 559.748 1143.95 565.048 1146.15C570.348 1148.25 574.498 1151.3 577.498 1155.3C580.498 1159.3 581.998 1164.65 581.998 1171.35C581.998 1191.65 567.848 1201.8 539.548 1201.8Z" fill="#F9D12B"/>
<path d="M664.417 1108.95H631.867V1095H714.517V1108.95H682.117V1200H664.417V1108.95Z" fill="#F9D12B"/>
<path d="M814.219 1200H795.469L788.419 1175.55C787.019 1170.65 785.569 1166.85 784.069 1164.15C782.569 1161.35 780.469 1159.25 777.769 1157.85C775.169 1156.45 771.619 1155.75 767.119 1155.75H748.819V1200H731.119V1095H774.469C786.269 1095 795.069 1097.5 800.869 1102.5C806.669 1107.5 809.569 1115.05 809.569 1125.15C809.569 1132.25 807.769 1137.95 804.169 1142.25C800.569 1146.55 795.519 1149.25 789.019 1150.35C793.919 1152.05 797.669 1154.95 800.269 1159.05C802.869 1163.15 805.169 1168.65 807.169 1175.55L814.219 1200ZM774.469 1141.8C779.669 1141.8 783.869 1140.4 787.069 1137.6C790.269 1134.8 791.869 1130.75 791.869 1125.45C791.869 1120.05 790.269 1115.95 787.069 1113.15C783.869 1110.35 779.669 1108.95 774.469 1108.95H748.819V1141.8H774.469Z" fill="#F9D12B"/>
<path d="M891.736 1172.4H848.686L840.436 1200H822.736L848.986 1114.95C850.686 1109.35 852.436 1105 854.236 1101.9C856.136 1098.8 858.336 1096.6 860.836 1095.3C863.336 1093.9 866.486 1093.2 870.286 1093.2C873.986 1093.2 877.086 1093.9 879.586 1095.3C882.086 1096.6 884.286 1098.8 886.186 1101.9C888.086 1105 889.886 1109.35 891.586 1114.95L917.686 1200H899.986L891.736 1172.4ZM887.836 1159.2L874.786 1115.25C874.186 1113.25 873.536 1111.8 872.836 1110.9C872.236 1110 871.386 1109.55 870.286 1109.55C869.186 1109.55 868.286 1110 867.586 1110.9C866.886 1111.8 866.236 1113.25 865.636 1115.25L852.586 1159.2H887.836Z" fill="#F9D12B"/>
<path d="M934.439 1095H972.989C984.489 1095 993.589 1096.7 1000.29 1100.1C1006.99 1103.5 1011.84 1109 1014.84 1116.6C1017.84 1124.1 1019.34 1134.4 1019.34 1147.5C1019.34 1160.6 1017.84 1170.95 1014.84 1178.55C1011.84 1186.05 1006.99 1191.5 1000.29 1194.9C993.589 1198.3 984.489 1200 972.989 1200H934.439V1095ZM972.989 1186.05C980.089 1186.05 985.689 1184.8 989.789 1182.3C993.989 1179.8 996.989 1175.8 998.789 1170.3C1000.69 1164.7 1001.64 1157.1 1001.64 1147.5C1001.64 1137.9 1000.69 1130.35 998.789 1124.85C996.989 1119.25 993.989 1115.2 989.789 1112.7C985.689 1110.2 980.089 1108.95 972.989 1108.95H952.139V1186.05H972.989Z" fill="#F9D12B"/>
<path d="M1072.29 1200C1059.59 1200 1050.34 1197.3 1044.54 1191.9C1038.74 1186.4 1035.84 1178.35 1035.84 1167.75V1127.25C1035.84 1116.65 1038.74 1108.65 1044.54 1103.25C1050.34 1097.75 1059.59 1095 1072.29 1095H1107.69V1108.95H1072.29C1065.89 1108.95 1061.14 1110.45 1058.04 1113.45C1055.04 1116.35 1053.54 1120.95 1053.54 1127.25V1140.6H1100.79V1154.4H1053.54V1167.75C1053.54 1174.05 1055.04 1178.7 1058.04 1181.7C1061.14 1184.6 1065.89 1186.05 1072.29 1186.05H1108.29V1200H1072.29Z" fill="#F9D12B"/>
<path d="M1195.62 1200C1184.12 1200 1175.57 1197.45 1169.97 1192.35C1164.47 1187.15 1161.72 1179.25 1161.72 1168.65V1095H1172.52V1168.65C1172.52 1176.35 1174.37 1182.05 1178.07 1185.75C1181.87 1189.45 1187.72 1191.3 1195.62 1191.3H1229.37V1200H1195.62Z" fill="#CE9A0B"/>
<path d="M1278.97 1200C1267.47 1200 1258.92 1197.45 1253.32 1192.35C1247.82 1187.15 1245.07 1179.25 1245.07 1168.65V1095H1255.87V1168.65C1255.87 1176.35 1257.72 1182.05 1261.42 1185.75C1265.22 1189.45 1271.07 1191.3 1278.97 1191.3H1312.72V1200H1278.97Z" fill="#CE9A0B"/>
<path d="M1365.73 1201.65C1351.83 1201.65 1341.23 1198.4 1333.93 1191.9C1326.73 1185.4 1323.13 1175.9 1323.13 1163.4V1131.45C1323.13 1119.15 1326.63 1109.75 1333.63 1103.25C1340.73 1096.65 1350.93 1093.35 1364.23 1093.35C1372.93 1093.35 1380.38 1094.75 1386.58 1097.55C1392.78 1100.25 1397.88 1104.5 1401.88 1110.3L1394.23 1115.85C1390.73 1111.15 1386.58 1107.7 1381.78 1105.5C1377.08 1103.2 1371.38 1102.05 1364.68 1102.05C1354.68 1102.05 1347.03 1104.55 1341.73 1109.55C1336.53 1114.55 1333.93 1121.85 1333.93 1131.45V1163.4C1333.93 1173.1 1336.58 1180.45 1341.88 1185.45C1347.28 1190.45 1355.18 1192.95 1365.58 1192.95C1372.48 1192.95 1378.33 1191.8 1383.13 1189.5C1387.93 1187.2 1392.08 1183.6 1395.58 1178.7L1403.23 1184.55C1398.73 1190.55 1393.53 1194.9 1387.63 1197.6C1381.73 1200.3 1374.43 1201.65 1365.73 1201.65Z" fill="#CE9A0B"/>
<path d="M109.25 1303.6C106.383 1303.6 103.85 1302.93 101.65 1301.6C99.4496 1300.23 97.7163 1298.28 96.4496 1295.75C95.2163 1293.18 94.5996 1290.13 94.5996 1286.6C94.5996 1283.93 94.9663 1281.57 95.6996 1279.5C96.4663 1277.4 97.5163 1275.6 98.8496 1274.1C100.183 1272.6 101.75 1271.47 103.55 1270.7C105.383 1269.93 107.383 1269.55 109.55 1269.55C111.816 1269.55 113.7 1269.98 115.2 1270.85C116.733 1271.68 117.966 1272.58 118.9 1273.55L116.85 1276C116.016 1275.1 115.033 1274.35 113.9 1273.75C112.766 1273.12 111.35 1272.8 109.65 1272.8C107.383 1272.8 105.4 1273.37 103.7 1274.5C102.033 1275.6 100.733 1277.18 99.7996 1279.25C98.8996 1281.28 98.4496 1283.7 98.4496 1286.5C98.4496 1289.33 98.8829 1291.78 99.7496 1293.85C100.616 1295.92 101.883 1297.52 103.55 1298.65C105.216 1299.78 107.233 1300.35 109.6 1300.35C110.866 1300.35 112.066 1300.17 113.2 1299.8C114.333 1299.4 115.233 1298.88 115.9 1298.25V1289.3H108.7V1286.2H119.3V1299.8C118.266 1300.9 116.883 1301.82 115.15 1302.55C113.45 1303.25 111.483 1303.6 109.25 1303.6Z" fill="#F9D12B"/>
<path d="M142.812 1303V1270.15H152.863C155.063 1270.15 157.013 1270.45 158.713 1271.05C160.413 1271.62 161.746 1272.57 162.713 1273.9C163.679 1275.23 164.163 1277.02 164.163 1279.25C164.163 1281.38 163.679 1283.17 162.713 1284.6C161.746 1286 160.413 1287.05 158.713 1287.75C157.013 1288.45 155.063 1288.8 152.863 1288.8H146.513V1303H142.812ZM160.863 1303L152.113 1287.8L155.113 1286L165.062 1303H160.863ZM146.513 1285.8H152.263C154.896 1285.8 156.913 1285.27 158.312 1284.2C159.746 1283.1 160.463 1281.45 160.463 1279.25C160.463 1277.02 159.746 1275.45 158.312 1274.55C156.913 1273.62 154.896 1273.15 152.263 1273.15H146.513V1285.8Z" fill="#F9D12B"/>
<path d="M182.086 1303L193.336 1270.15H197.436L208.636 1303H204.736L198.786 1284.4C198.186 1282.53 197.603 1280.7 197.036 1278.9C196.503 1277.07 195.953 1275.18 195.386 1273.25H195.186C194.686 1275.18 194.153 1277.07 193.586 1278.9C193.053 1280.7 192.47 1282.53 191.836 1284.4L185.836 1303H182.086ZM187.786 1292.65V1289.7H202.836V1292.65H187.786Z" fill="#F9D12B"/>
<path d="M228.939 1303V1270.15H232.639V1303H228.939Z" fill="#F9D12B"/>
<path d="M257.281 1303V1270.15H261.081L273.481 1291.45L277.081 1298.2H277.281C277.181 1296.53 277.065 1294.83 276.931 1293.1C276.831 1291.33 276.781 1289.62 276.781 1287.95V1270.15H280.281V1303H276.481L264.081 1281.7L260.481 1274.95H260.281C260.415 1276.58 260.531 1278.25 260.631 1279.95C260.731 1281.62 260.781 1283.3 260.781 1285V1303H257.281Z" fill="#F9D12B"/>
<path d="M313.909 1303.6C311.609 1303.6 309.492 1303.15 307.559 1302.25C305.626 1301.35 303.942 1300.17 302.509 1298.7L304.759 1296.15C305.959 1297.42 307.342 1298.43 308.909 1299.2C310.509 1299.97 312.192 1300.35 313.959 1300.35C316.226 1300.35 317.992 1299.83 319.259 1298.8C320.526 1297.73 321.159 1296.35 321.159 1294.65C321.159 1293.48 320.909 1292.55 320.409 1291.85C319.909 1291.12 319.242 1290.52 318.409 1290.05C317.576 1289.55 316.626 1289.07 315.559 1288.6L310.809 1286.5C309.809 1286.07 308.792 1285.5 307.759 1284.8C306.726 1284.1 305.859 1283.22 305.159 1282.15C304.492 1281.08 304.159 1279.73 304.159 1278.1C304.159 1276.47 304.592 1275.02 305.459 1273.75C306.326 1272.45 307.526 1271.43 309.059 1270.7C310.592 1269.93 312.326 1269.55 314.259 1269.55C316.226 1269.55 318.026 1269.93 319.659 1270.7C321.326 1271.47 322.709 1272.43 323.809 1273.6L321.809 1276C320.842 1275 319.726 1274.22 318.459 1273.65C317.226 1273.08 315.826 1272.8 314.259 1272.8C312.359 1272.8 310.809 1273.27 309.609 1274.2C308.442 1275.1 307.859 1276.33 307.859 1277.9C307.859 1279 308.142 1279.9 308.709 1280.6C309.276 1281.3 309.976 1281.88 310.809 1282.35C311.676 1282.78 312.526 1283.18 313.359 1283.55L318.109 1285.65C319.409 1286.18 320.559 1286.82 321.559 1287.55C322.559 1288.28 323.359 1289.2 323.959 1290.3C324.592 1291.4 324.909 1292.77 324.909 1294.4C324.909 1296.1 324.459 1297.65 323.559 1299.05C322.692 1300.45 321.426 1301.57 319.759 1302.4C318.126 1303.2 316.176 1303.6 313.909 1303.6Z" fill="#F9D12B"/>
<path d="M345.673 1311.3L344.723 1309.1C346.089 1308.5 347.156 1307.67 347.923 1306.6C348.689 1305.53 349.073 1304.3 349.073 1302.9L348.573 1299.4L350.523 1302.25C350.289 1302.58 349.989 1302.82 349.623 1302.95C349.289 1303.05 348.939 1303.1 348.573 1303.1C347.806 1303.1 347.139 1302.87 346.573 1302.4C346.039 1301.93 345.773 1301.27 345.773 1300.4C345.773 1299.57 346.056 1298.92 346.623 1298.45C347.223 1297.98 347.889 1297.75 348.623 1297.75C349.656 1297.75 350.456 1298.15 351.023 1298.95C351.589 1299.75 351.873 1300.85 351.873 1302.25C351.873 1304.32 351.306 1306.13 350.173 1307.7C349.073 1309.27 347.573 1310.47 345.673 1311.3Z" fill="#F9D12B"/>
<path d="M412.292 1303.6C409.558 1303.6 407.125 1302.93 404.992 1301.6C402.858 1300.23 401.175 1298.28 399.942 1295.75C398.708 1293.18 398.092 1290.13 398.092 1286.6C398.092 1283.93 398.442 1281.57 399.142 1279.5C399.875 1277.4 400.892 1275.6 402.192 1274.1C403.525 1272.6 405.058 1271.47 406.792 1270.7C408.558 1269.93 410.475 1269.55 412.542 1269.55C414.542 1269.55 416.292 1269.97 417.792 1270.8C419.325 1271.6 420.542 1272.52 421.442 1273.55L419.392 1276C418.525 1275.03 417.525 1274.27 416.392 1273.7C415.292 1273.1 414.025 1272.8 412.592 1272.8C410.458 1272.8 408.592 1273.37 406.992 1274.5C405.392 1275.6 404.142 1277.18 403.242 1279.25C402.375 1281.28 401.942 1283.7 401.942 1286.5C401.942 1289.33 402.358 1291.78 403.192 1293.85C404.058 1295.92 405.275 1297.52 406.842 1298.65C408.442 1299.78 410.308 1300.35 412.442 1300.35C414.075 1300.35 415.508 1300.02 416.742 1299.35C418.008 1298.68 419.175 1297.75 420.242 1296.55L422.292 1298.85C421.025 1300.35 419.575 1301.52 417.942 1302.35C416.308 1303.18 414.425 1303.6 412.292 1303.6Z" fill="#F9D12B"/>
<path d="M444.059 1303V1270.15H462.709V1273.3H447.759V1284.15H460.359V1287.25H447.759V1299.85H463.209V1303H444.059Z" fill="#F9D12B"/>
<path d="M485.779 1303V1270.15H495.829C498.029 1270.15 499.979 1270.45 501.679 1271.05C503.379 1271.62 504.713 1272.57 505.679 1273.9C506.646 1275.23 507.129 1277.02 507.129 1279.25C507.129 1281.38 506.646 1283.17 505.679 1284.6C504.713 1286 503.379 1287.05 501.679 1287.75C499.979 1288.45 498.029 1288.8 495.829 1288.8H489.479V1303H485.779ZM503.829 1303L495.079 1287.8L498.079 1286L508.029 1303H503.829ZM489.479 1285.8H495.229C497.863 1285.8 499.879 1285.27 501.279 1284.2C502.713 1283.1 503.429 1281.45 503.429 1279.25C503.429 1277.02 502.713 1275.45 501.279 1274.55C499.879 1273.62 497.863 1273.15 495.229 1273.15H489.479V1285.8Z" fill="#F9D12B"/>
<path d="M529.453 1303V1270.15H548.103V1273.3H533.153V1284.15H545.753V1287.25H533.153V1299.85H548.603V1303H529.453Z" fill="#F9D12B"/>
<path d="M566.774 1303L578.024 1270.15H582.124L593.324 1303H589.424L583.474 1284.4C582.874 1282.53 582.29 1280.7 581.724 1278.9C581.19 1277.07 580.64 1275.18 580.074 1273.25H579.874C579.374 1275.18 578.841 1277.07 578.274 1278.9C577.741 1280.7 577.157 1282.53 576.524 1284.4L570.524 1303H566.774ZM572.474 1292.65V1289.7H587.524V1292.65H572.474Z" fill="#F9D12B"/>
<path d="M613.627 1303V1270.15H617.327V1299.85H631.827V1303H613.627Z" fill="#F9D12B"/>
<path d="M662.149 1303.6C659.849 1303.6 657.733 1303.15 655.799 1302.25C653.866 1301.35 652.183 1300.17 650.749 1298.7L652.999 1296.15C654.199 1297.42 655.583 1298.43 657.149 1299.2C658.749 1299.97 660.433 1300.35 662.199 1300.35C664.466 1300.35 666.233 1299.83 667.499 1298.8C668.766 1297.73 669.399 1296.35 669.399 1294.65C669.399 1293.48 669.149 1292.55 668.649 1291.85C668.149 1291.12 667.483 1290.52 666.649 1290.05C665.816 1289.55 664.866 1289.07 663.799 1288.6L659.049 1286.5C658.049 1286.07 657.033 1285.5 655.999 1284.8C654.966 1284.1 654.099 1283.22 653.399 1282.15C652.733 1281.08 652.399 1279.73 652.399 1278.1C652.399 1276.47 652.833 1275.02 653.699 1273.75C654.566 1272.45 655.766 1271.43 657.299 1270.7C658.833 1269.93 660.566 1269.55 662.499 1269.55C664.466 1269.55 666.266 1269.93 667.899 1270.7C669.566 1271.47 670.949 1272.43 672.049 1273.6L670.049 1276C669.083 1275 667.966 1274.22 666.699 1273.65C665.466 1273.08 664.066 1272.8 662.499 1272.8C660.599 1272.8 659.049 1273.27 657.849 1274.2C656.683 1275.1 656.099 1276.33 656.099 1277.9C656.099 1279 656.383 1279.9 656.949 1280.6C657.516 1281.3 658.216 1281.88 659.049 1282.35C659.916 1282.78 660.766 1283.18 661.599 1283.55L666.349 1285.65C667.649 1286.18 668.799 1286.82 669.799 1287.55C670.799 1288.28 671.599 1289.2 672.199 1290.3C672.833 1291.4 673.149 1292.77 673.149 1294.4C673.149 1296.1 672.699 1297.65 671.799 1299.05C670.933 1300.45 669.666 1301.57 667.999 1302.4C666.366 1303.2 664.416 1303.6 662.149 1303.6Z" fill="#F9D12B"/>
<path d="M727.673 1303.6C725.739 1303.6 724.023 1303.22 722.523 1302.45C721.056 1301.68 719.889 1300.62 719.023 1299.25C718.189 1297.88 717.773 1296.32 717.773 1294.55C717.773 1292.95 718.123 1291.55 718.823 1290.35C719.556 1289.12 720.489 1288.02 721.623 1287.05C722.756 1286.08 723.956 1285.18 725.223 1284.35C726.523 1283.52 727.739 1282.68 728.873 1281.85C730.006 1281.02 730.923 1280.13 731.623 1279.2C732.356 1278.23 732.723 1277.17 732.723 1276C732.723 1275 732.473 1274.12 731.973 1273.35C731.506 1272.58 730.689 1272.2 729.523 1272.2C728.223 1272.2 727.189 1272.68 726.423 1273.65C725.689 1274.58 725.323 1275.75 725.323 1277.15C725.323 1278.72 725.689 1280.38 726.423 1282.15C727.189 1283.88 728.189 1285.63 729.423 1287.4C730.689 1289.17 732.089 1290.83 733.623 1292.4C735.156 1293.97 736.689 1295.35 738.223 1296.55C739.523 1297.55 740.789 1298.38 742.023 1299.05C743.256 1299.72 744.389 1300.22 745.423 1300.55L744.423 1303.6C743.156 1303.23 741.823 1302.67 740.423 1301.9C739.023 1301.13 737.573 1300.17 736.073 1299C734.306 1297.6 732.589 1296.02 730.923 1294.25C729.256 1292.48 727.756 1290.62 726.423 1288.65C725.123 1286.68 724.073 1284.73 723.273 1282.8C722.506 1280.87 722.123 1279.02 722.123 1277.25C722.123 1275.78 722.423 1274.48 723.023 1273.35C723.656 1272.18 724.523 1271.27 725.623 1270.6C726.756 1269.9 728.056 1269.55 729.523 1269.55C731.489 1269.55 733.006 1270.15 734.073 1271.35C735.173 1272.52 735.723 1274.03 735.723 1275.9C735.723 1277.3 735.373 1278.57 734.673 1279.7C734.006 1280.8 733.123 1281.83 732.023 1282.8C730.923 1283.73 729.756 1284.63 728.523 1285.5C727.289 1286.37 726.123 1287.25 725.023 1288.15C723.956 1289.02 723.073 1289.95 722.373 1290.95C721.673 1291.95 721.323 1293.08 721.323 1294.35C721.323 1295.62 721.623 1296.73 722.223 1297.7C722.823 1298.63 723.623 1299.37 724.623 1299.9C725.656 1300.4 726.806 1300.65 728.073 1300.65C729.473 1300.65 730.823 1300.28 732.123 1299.55C733.423 1298.82 734.606 1297.88 735.673 1296.75C737.039 1295.25 738.206 1293.55 739.173 1291.65C740.173 1289.75 740.973 1287.67 741.573 1285.4H744.973C744.273 1287.83 743.356 1290.17 742.223 1292.4C741.123 1294.63 739.789 1296.67 738.223 1298.5C736.889 1300 735.356 1301.23 733.623 1302.2C731.889 1303.13 729.906 1303.6 727.673 1303.6Z" fill="#F9D12B"/>
<path d="M791.713 1303V1270.15H795.413V1299.85H809.913V1303H791.713Z" fill="#F9D12B"/>
<path d="M831.285 1303V1270.15H849.935V1273.3H834.985V1284.15H847.585V1287.25H834.985V1299.85H850.435V1303H831.285Z" fill="#F9D12B"/>
<path d="M885.656 1303.6C882.789 1303.6 880.256 1302.93 878.056 1301.6C875.856 1300.23 874.123 1298.28 872.856 1295.75C871.623 1293.18 871.006 1290.13 871.006 1286.6C871.006 1283.93 871.373 1281.57 872.106 1279.5C872.873 1277.4 873.923 1275.6 875.256 1274.1C876.589 1272.6 878.156 1271.47 879.956 1270.7C881.789 1269.93 883.789 1269.55 885.956 1269.55C888.223 1269.55 890.106 1269.98 891.606 1270.85C893.139 1271.68 894.373 1272.58 895.306 1273.55L893.256 1276C892.423 1275.1 891.439 1274.35 890.306 1273.75C889.173 1273.12 887.756 1272.8 886.056 1272.8C883.789 1272.8 881.806 1273.37 880.106 1274.5C878.439 1275.6 877.139 1277.18 876.206 1279.25C875.306 1281.28 874.856 1283.7 874.856 1286.5C874.856 1289.33 875.289 1291.78 876.156 1293.85C877.023 1295.92 878.289 1297.52 879.956 1298.65C881.623 1299.78 883.639 1300.35 886.006 1300.35C887.273 1300.35 888.473 1300.17 889.606 1299.8C890.739 1299.4 891.639 1298.88 892.306 1298.25V1289.3H885.106V1286.2H895.706V1299.8C894.673 1300.9 893.289 1301.82 891.556 1302.55C889.856 1303.25 887.889 1303.6 885.656 1303.6Z" fill="#F9D12B"/>
<path d="M930.669 1303.6C929.069 1303.6 927.552 1303.37 926.119 1302.9C924.719 1302.4 923.485 1301.62 922.419 1300.55C921.385 1299.48 920.569 1298.07 919.969 1296.3C919.369 1294.5 919.069 1292.3 919.069 1289.7V1270.15H922.769V1289.7C922.769 1292.4 923.119 1294.53 923.819 1296.1C924.552 1297.63 925.502 1298.73 926.669 1299.4C927.869 1300.03 929.202 1300.35 930.669 1300.35C932.169 1300.35 933.519 1300.03 934.719 1299.4C935.952 1298.73 936.935 1297.63 937.669 1296.1C938.402 1294.53 938.769 1292.4 938.769 1289.7V1270.15H942.319V1289.7C942.319 1292.3 942.002 1294.5 941.369 1296.3C940.769 1298.07 939.935 1299.48 938.869 1300.55C937.835 1301.62 936.619 1302.4 935.219 1302.9C933.819 1303.37 932.302 1303.6 930.669 1303.6Z" fill="#F9D12B"/>
<path d="M966.848 1303V1270.15H971.398L977.848 1288.15C978.281 1289.28 978.681 1290.43 979.048 1291.6C979.448 1292.77 979.848 1293.93 980.248 1295.1H980.448C980.881 1293.93 981.281 1292.77 981.648 1291.6C982.014 1290.43 982.398 1289.28 982.798 1288.15L989.148 1270.15H993.748V1303H990.298V1284C990.298 1283.07 990.314 1282.05 990.348 1280.95C990.414 1279.85 990.481 1278.75 990.548 1277.65C990.614 1276.52 990.681 1275.47 990.748 1274.5H990.548L987.948 1281.95L981.548 1299.6H978.948L972.498 1281.95L969.898 1274.5H969.698C969.764 1275.47 969.831 1276.52 969.898 1277.65C969.998 1278.75 970.064 1279.85 970.098 1280.95C970.164 1282.05 970.198 1283.07 970.198 1284V1303H966.848Z" fill="#F9D12B"/>
<path d="M1018.38 1303V1270.15H1037.03V1273.3H1022.08V1284.15H1034.68V1287.25H1022.08V1299.85H1037.53V1303H1018.38Z" fill="#F9D12B"/>
<path d="M1069.05 1303.6C1066.75 1303.6 1064.64 1303.15 1062.7 1302.25C1060.77 1301.35 1059.09 1300.17 1057.65 1298.7L1059.9 1296.15C1061.1 1297.42 1062.49 1298.43 1064.05 1299.2C1065.65 1299.97 1067.34 1300.35 1069.1 1300.35C1071.37 1300.35 1073.14 1299.83 1074.4 1298.8C1075.67 1297.73 1076.3 1296.35 1076.3 1294.65C1076.3 1293.48 1076.05 1292.55 1075.55 1291.85C1075.05 1291.12 1074.39 1290.52 1073.55 1290.05C1072.72 1289.55 1071.77 1289.07 1070.7 1288.6L1065.95 1286.5C1064.95 1286.07 1063.94 1285.5 1062.9 1284.8C1061.87 1284.1 1061 1283.22 1060.3 1282.15C1059.64 1281.08 1059.3 1279.73 1059.3 1278.1C1059.3 1276.47 1059.74 1275.02 1060.6 1273.75C1061.47 1272.45 1062.67 1271.43 1064.2 1270.7C1065.74 1269.93 1067.47 1269.55 1069.4 1269.55C1071.37 1269.55 1073.17 1269.93 1074.8 1270.7C1076.47 1271.47 1077.85 1272.43 1078.95 1273.6L1076.95 1276C1075.99 1275 1074.87 1274.22 1073.6 1273.65C1072.37 1273.08 1070.97 1272.8 1069.4 1272.8C1067.5 1272.8 1065.95 1273.27 1064.75 1274.2C1063.59 1275.1 1063 1276.33 1063 1277.9C1063 1279 1063.29 1279.9 1063.85 1280.6C1064.42 1281.3 1065.12 1281.88 1065.95 1282.35C1066.82 1282.78 1067.67 1283.18 1068.5 1283.55L1073.25 1285.65C1074.55 1286.18 1075.7 1286.82 1076.7 1287.55C1077.7 1288.28 1078.5 1289.2 1079.1 1290.3C1079.74 1291.4 1080.05 1292.77 1080.05 1294.4C1080.05 1296.1 1079.6 1297.65 1078.7 1299.05C1077.84 1300.45 1076.57 1301.57 1074.9 1302.4C1073.27 1303.2 1071.32 1303.6 1069.05 1303.6Z" fill="#F9D12B"/>
<path d="M1134.53 1303V1273.3H1124.43V1270.15H1148.28V1273.3H1138.23V1303H1134.53Z" fill="#F9D12B"/>
<path d="M1169.79 1303V1270.15H1179.84C1182.04 1270.15 1183.99 1270.45 1185.69 1271.05C1187.39 1271.62 1188.72 1272.57 1189.69 1273.9C1190.65 1275.23 1191.14 1277.02 1191.14 1279.25C1191.14 1281.38 1190.65 1283.17 1189.69 1284.6C1188.72 1286 1187.39 1287.05 1185.69 1287.75C1183.99 1288.45 1182.04 1288.8 1179.84 1288.8H1173.49V1303H1169.79ZM1187.84 1303L1179.09 1287.8L1182.09 1286L1192.04 1303H1187.84ZM1173.49 1285.8H1179.24C1181.87 1285.8 1183.89 1285.27 1185.29 1284.2C1186.72 1283.1 1187.44 1281.45 1187.44 1279.25C1187.44 1277.02 1186.72 1275.45 1185.29 1274.55C1183.89 1273.62 1181.87 1273.15 1179.24 1273.15H1173.49V1285.8Z" fill="#F9D12B"/>
<path d="M1209.06 1303L1220.31 1270.15H1224.41L1235.61 1303H1231.71L1225.76 1284.4C1225.16 1282.53 1224.58 1280.7 1224.01 1278.9C1223.48 1277.07 1222.93 1275.18 1222.36 1273.25H1222.16C1221.66 1275.18 1221.13 1277.07 1220.56 1278.9C1220.03 1280.7 1219.44 1282.53 1218.81 1284.4L1212.81 1303H1209.06ZM1214.76 1292.65V1289.7H1229.81V1292.65H1214.76Z" fill="#F9D12B"/>
<path d="M1255.91 1303V1270.15H1263.96C1267.33 1270.15 1270.15 1270.8 1272.41 1272.1C1274.71 1273.37 1276.43 1275.22 1277.56 1277.65C1278.73 1280.08 1279.31 1283.02 1279.31 1286.45C1279.31 1289.88 1278.73 1292.85 1277.56 1295.35C1276.43 1297.82 1274.73 1299.72 1272.46 1301.05C1270.2 1302.35 1267.41 1303 1264.11 1303H1255.91ZM1259.61 1299.95H1263.66C1266.33 1299.95 1268.53 1299.4 1270.26 1298.3C1272.03 1297.2 1273.35 1295.65 1274.21 1293.65C1275.08 1291.65 1275.51 1289.25 1275.51 1286.45C1275.51 1283.68 1275.08 1281.32 1274.21 1279.35C1273.35 1277.35 1272.03 1275.83 1270.26 1274.8C1268.53 1273.73 1266.33 1273.2 1263.66 1273.2H1259.61V1299.95Z" fill="#F9D12B"/>
<path d="M1302.08 1303V1270.15H1305.78V1303H1302.08Z" fill="#F9D12B"/>
<path d="M1330.42 1303V1270.15H1334.22L1346.62 1291.45L1350.22 1298.2H1350.42C1350.32 1296.53 1350.2 1294.83 1350.07 1293.1C1349.97 1291.33 1349.92 1289.62 1349.92 1287.95V1270.15H1353.42V1303H1349.62L1337.22 1281.7L1333.62 1274.95H1333.42C1333.55 1276.58 1333.67 1278.25 1333.77 1279.95C1333.87 1281.62 1333.92 1283.3 1333.92 1285V1303H1330.42Z" fill="#F9D12B"/>
<path d="M1390.75 1303.6C1387.88 1303.6 1385.35 1302.93 1383.15 1301.6C1380.95 1300.23 1379.21 1298.28 1377.95 1295.75C1376.71 1293.18 1376.1 1290.13 1376.1 1286.6C1376.1 1283.93 1376.46 1281.57 1377.2 1279.5C1377.96 1277.4 1379.01 1275.6 1380.35 1274.1C1381.68 1272.6 1383.25 1271.47 1385.05 1270.7C1386.88 1269.93 1388.88 1269.55 1391.05 1269.55C1393.31 1269.55 1395.2 1269.98 1396.7 1270.85C1398.23 1271.68 1399.46 1272.58 1400.4 1273.55L1398.35 1276C1397.51 1275.1 1396.53 1274.35 1395.4 1273.75C1394.26 1273.12 1392.85 1272.8 1391.15 1272.8C1388.88 1272.8 1386.9 1273.37 1385.2 1274.5C1383.53 1275.6 1382.23 1277.18 1381.3 1279.25C1380.4 1281.28 1379.95 1283.7 1379.95 1286.5C1379.95 1289.33 1380.38 1291.78 1381.25 1293.85C1382.11 1295.92 1383.38 1297.52 1385.05 1298.65C1386.71 1299.78 1388.73 1300.35 1391.1 1300.35C1392.36 1300.35 1393.56 1300.17 1394.7 1299.8C1395.83 1299.4 1396.73 1298.88 1397.4 1298.25V1289.3H1390.2V1286.2H1400.8V1299.8C1399.76 1300.9 1398.38 1301.82 1396.65 1302.55C1394.95 1303.25 1392.98 1303.6 1390.75 1303.6Z" fill="#F9D12B"/>
<defs>
<clipPath id="clip0_2406_305">
<rect width="203.703" height="458.714" fill="white" transform="translate(643.746 182)"/>
</clipPath>
<clipPath id="clip1_2406_305">
<rect width="203.703" height="458.714" fill="white" transform="translate(309.771 963.234) rotate(-108.837)"/>
</clipPath>
<clipPath id="clip2_2406_305">
<rect width="203.703" height="458.714" fill="white" transform="matrix(0.322876 -0.946441 -0.946441 -0.322876 1191.23 963.234)"/>
</clipPath>
</defs>
</svg>
